<?xml version="1.0" encoding="utf-8"?>
<!-- Generator: Adobe Illustrator 19.0.0, SVG Export Plug-In . SVG Version: 6.00 Build 0)  -->
<svg version="1.1" id="Layer_1" xmlns="http://www.w3.org/2000/svg" xmlns:xlink="http://www.w3.org/1999/xlink" x="0px" y="0px"
	 viewBox="-24 26 50 50" style="enable-background:new -24 26 50 50;" xml:space="preserve">
<style type="text/css">
	.st0{fill:#FFFFFF;}
</style>
<g id="XMLID_185_">
	<path id="XMLID_239_" class="st0" d="M-13.4,59.7h-1V29.6h25.7v1.3c0,0.8,0.6,1.4,1.4,1.4c0.8,0,1.4-0.6,1.4-1.4v-2.7
		c0-0.8-0.6-1.4-1.4-1.4h-28.5c-0.8,0-1.4,0.6-1.4,1.4V61c0,0.8,0.6,1.4,1.4,1.4h2.4c0.8,0,1.4-0.6,1.4-1.4
		C-12,60.3-12.7,59.7-13.4,59.7z"/>
	<path id="XMLID_240_" class="st0" d="M7,49.8h4.4c0.8,0,1.4-0.6,1.4-1.4c0-0.8-0.6-1.4-1.4-1.4H7c-0.8,0-1.4,0.6-1.4,1.4
		C5.6,49.2,6.2,49.8,7,49.8z"/>
	<path id="XMLID_241_" class="st0" d="M-2.2,44.4h2.1c0.8,0,1.4-0.6,1.4-1.4s-0.6-1.4-1.4-1.4h-2.1c-0.8,0-1.4,0.6-1.4,1.4
		S-3,44.4-2.2,44.4z"/>
	<path id="XMLID_242_" class="st0" d="M-2.2,54.9h4.1c0.8,0,1.4-0.6,1.4-1.4s-0.6-1.4-1.4-1.4h-4.1c-0.8,0-1.4,0.6-1.4,1.4
		S-3,54.9-2.2,54.9z"/>
	<path id="XMLID_245_" class="st0" d="M17.8,34.2H-8.5c-0.8,0-1.4,0.6-1.4,1.4v30.6c0,0.8,0.6,1.4,1.4,1.4H5.6v1.7
		c0,0.2,0.1,0.4,0.2,0.6L8,74.1c0.2,0.5,0.7,0.7,1.2,0.7s1-0.3,1.2-0.7l2.2-4.2c0.1-0.2,0.2-0.4,0.2-0.6v-1.7h5
		c0.8,0,1.4-0.6,1.4-1.4V35.6C19.2,34.8,18.5,34.2,17.8,34.2z M10,68.9l-0.8,1.6l-0.8-1.6V54.3H10V68.9z M16.4,64.8h-3.7V53
		c0-0.8-0.6-1.4-1.4-1.4H7c-0.8,0-1.4,0.6-1.4,1.4v11.8H-7.1V36.9h23.5V64.8z"/>
	<path id="XMLID_247_" class="st0" d="M-2.2,49.8h4.1c0.8,0,1.4-0.6,1.4-1.4c0-0.8-0.6-1.4-1.4-1.4h-4.1c-0.8,0-1.4,0.6-1.4,1.4
		C-3.6,49.2-3,49.8-2.2,49.8z"/>
</g>
</svg>
