<?xml version="1.0" encoding="utf-8"?>
<!-- Generator: Adobe Illustrator 19.0.0, SVG Export Plug-In . SVG Version: 6.00 Build 0)  -->
<svg version="1.1" id="Capa_1" xmlns="http://www.w3.org/2000/svg" xmlns:xlink="http://www.w3.org/1999/xlink" x="0px" y="0px"
	 viewBox="-24 -98.7 792 792" style="enable-background:new -24 -98.7 792 792;" xml:space="preserve">
<style type="text/css">
	.st0{fill:none;}
</style>
<path class="st0" d="M446-49.2H124.3v693h495V123.9L446,124V-49.2z M520.3,520h-297v-49.5h297V520z M520.3,396.3h-297v-49.5h297
	V396.3z M520.3,223v49.5h-297V223H520.3z"/>
<polygon class="st0" points="593.2,74.5 494.6,-42.1 495.5,74.5 "/>
<path d="M518.7-98.7H74.8v792h594V75h0.4L518.7-98.7z M593.2,74.5h-97.7l-0.9-116.6L593.2,74.5z M619.3,643.8h-495v-693H446V124
	l173.2-0.1V643.8z"/>
</svg>
