<?xml version="1.0" standalone="no"?>
<!DOCTYPE svg PUBLIC "-//W3C//DTD SVG 1.1//EN" "http://www.w3.org/Graphics/SVG/1.1/DTD/svg11.dtd" >
<svg xmlns="http://www.w3.org/2000/svg" xmlns:xlink="http://www.w3.org/1999/xlink" version="1.1">
<metadata></metadata>
<defs>
<font id="th_niramit_asitalic" horiz-adv-x="0" >
<font-face units-per-em="2048" ascent="1638" descent="-410" />
<missing-glyph horiz-adv-x="450" />
<glyph unicode="A&#x300;" horiz-adv-x="847" d="M12 0q156 264 281 473q53 90 102 174t90 152q47 78 88 149q18 29 38 40t26 13q18 4 32.5 -12t16.5 -24q2 -6 -5 -14.5t-11 -12.5l155 -938l-84 -16l-43 284h-446l-166 -284zM293 336h393l-88 516zM541 1283h118l95 -213h-66z" />
<glyph unicode="A&#x301;" horiz-adv-x="847" d="M12 0q156 264 281 473q53 90 102 174t90 152q47 78 88 149q18 29 38 40t26 13q18 4 32.5 -12t16.5 -24q2 -6 -5 -14.5t-11 -12.5l155 -938l-84 -16l-43 284h-446l-166 -284zM293 336h393l-88 516zM494 1070l182 213h121l-240 -213h-63z" />
<glyph unicode="A&#x303;" horiz-adv-x="847" d="M12 0q156 264 281 473q53 90 102 174t90 152q47 78 88 149q18 29 38 40t26 13q18 4 32.5 -12t16.5 -24q2 -6 -5 -14.5t-11 -12.5l155 -938l-84 -16l-43 284h-446l-166 -284zM293 336h393l-88 516zM471 1108q10 53 40 93.5t77 40.5q25 0 44 -9.5t37.5 -21.5t37 -21.5 t41.5 -9.5q12 0 28.5 15.5t24.5 50.5h55q-12 -55 -47 -92t-84 -37q-20 0 -40.5 9t-40 20.5t-37 20.5t-29.5 9q-18 0 -30.5 -19.5t-20.5 -48.5h-56z" />
<glyph unicode="E&#x300;" horiz-adv-x="755" d="M119 0l184 874q4 18 0 29.5t-9 19l-9 13.5t0 16q6 10 22.5 26.5t36.5 16.5q6 0 15.5 -7t13.5 -17h456l-16 -80h-424l-74 -348h379l-16 -80h-379l-82 -383h422l-16 -80h-504zM467 1283h118l95 -213h-66z" />
<glyph unicode="E&#x301;" horiz-adv-x="753" d="M119 0l184 874q4 18 0 29.5t-9 19l-9 13.5t0 16q6 10 22.5 26.5t36.5 16.5q6 0 15.5 -7t13.5 -17h456l-16 -80h-424l-74 -348h379l-16 -80h-379l-82 -383h422l-16 -80h-504zM498 1070l182 213h121l-240 -213h-63z" />
<glyph unicode="I&#x300;" horiz-adv-x="331" d="M131 0l205 971h78l-205 -971h-78zM248 1283h118l95 -213h-66z" />
<glyph unicode="I&#x301;" horiz-adv-x="331" d="M131 0l205 971h78l-205 -971h-78zM316 1070l182 213h121l-240 -213h-63z" />
<glyph unicode="O&#x300;" horiz-adv-x="950" d="M164 271.5q-6 93.5 18 207.5q25 113 70 207t108.5 159.5t144.5 102.5t175 37q92 0 157.5 -37t100.5 -102.5t41 -159.5t-18 -207q-25 -115 -70 -208t-108.5 -158.5t-144.5 -102.5t-173 -37q-94 0 -159.5 37t-100.5 102.5t-41 159zM247 321.5q1 -77.5 25.5 -138t74.5 -97.5 t134 -37q82 0 148.5 37t116 97.5t83 138t50.5 157.5q16 80 16 157t-24.5 138.5t-75 98t-131.5 36.5q-84 0 -151 -36.5t-117 -98t-83.5 -138.5t-50.5 -157q-16 -80 -15 -157.5zM594 1283h118l95 -213h-66z" />
<glyph unicode="O&#x301;" horiz-adv-x="950" d="M164 271.5q-6 93.5 18 207.5q25 113 70 207t108.5 159.5t144.5 102.5t175 37q92 0 157.5 -37t100.5 -102.5t41 -159.5t-18 -207q-25 -115 -70 -208t-108.5 -158.5t-144.5 -102.5t-173 -37q-94 0 -159.5 37t-100.5 102.5t-41 159zM247 321.5q1 -77.5 25.5 -138t74.5 -97.5 t134 -37q82 0 148.5 37t116 97.5t83 138t50.5 157.5q16 80 16 157t-24.5 138.5t-75 98t-131.5 36.5q-84 0 -151 -36.5t-117 -98t-83.5 -138.5t-50.5 -157q-16 -80 -15 -157.5zM580 1070l182 213h121l-240 -213h-63z" />
<glyph unicode="O&#x303;" horiz-adv-x="950" d="M164 271.5q-6 93.5 18 207.5q25 113 70 207t108.5 159.5t144.5 102.5t175 37q92 0 157.5 -37t100.5 -102.5t41 -159.5t-18 -207q-25 -115 -70 -208t-108.5 -158.5t-144.5 -102.5t-173 -37q-94 0 -159.5 37t-100.5 102.5t-41 159zM247 321.5q1 -77.5 25.5 -138t74.5 -97.5 t134 -37q82 0 148.5 37t116 97.5t83 138t50.5 157.5q16 80 16 157t-24.5 138.5t-75 98t-131.5 36.5q-84 0 -151 -36.5t-117 -98t-83.5 -138.5t-50.5 -157q-16 -80 -15 -157.5zM524 1108q10 53 40 93.5t77 40.5q25 0 44 -9.5t37.5 -21.5t37 -21.5t41.5 -9.5q12 0 28.5 15.5 t24.5 50.5h55q-12 -55 -47 -92t-84 -37q-20 0 -40.5 9t-40 20.5t-37 20.5t-29.5 9q-18 0 -30.5 -19.5t-20.5 -48.5h-56z" />
<glyph unicode="U&#x300;" horiz-adv-x="927" d="M176 297l143 674h78l-141 -672q-14 -66 -2 -112t43 -74.5t77 -42t101 -13.5q53 0 105.5 13.5t95.5 42t75.5 74.5t47.5 112l141 672h76l-144 -674q-33 -158 -143.5 -239t-269.5 -81q-160 0 -238 81t-45 239zM568 1283h118l95 -213h-66z" />
<glyph unicode="U&#x301;" horiz-adv-x="931" d="M176 297l143 674h78l-141 -672q-14 -66 -2 -112t43 -74.5t77 -42t101 -13.5q53 0 105.5 13.5t95.5 42t75.5 74.5t47.5 112l141 672h76l-144 -674q-33 -158 -143.5 -239t-269.5 -81q-160 0 -238 81t-45 239zM578 1070l182 213h121l-240 -213h-63z" />
<glyph unicode="Y&#x301;" horiz-adv-x="741" d="M219 973l72 26l174 -512l395 510l60 -26q-88 -113 -170 -217q-35 -45 -72 -92.5t-72 -92.5t-66.5 -86t-54.5 -71l-86 -412h-71l86 412v2zM498 1070l182 213h121l-240 -213h-63z" />
<glyph unicode="a&#x300;" horiz-adv-x="731" d="M106.5 214q-4.5 67 10.5 134q14 68 46 134.5t79 117.5t109.5 83t135.5 32q80 0 128.5 -36t70.5 -93l29 129h78l-117 -551q-16 -68 -11 -98.5t9 -53.5l-74 -26q-4 12 -13 39.5t3 87.5q-47 -59 -112.5 -95t-145.5 -36q-74 0 -123 31.5t-73.5 82.5t-29 118zM177 248 q1 -51 18.5 -94t54.5 -71t96 -28q53 0 99.5 22.5t82 58.5t62 81t41.5 92l16 80q4 45 -3 90t-27.5 81t-56.5 58.5t-89 22.5q-59 0 -107.5 -27.5t-84 -70.5t-59 -95.5t-34.5 -99.5q-10 -49 -9 -100zM379 1004h118l95 -213h-66z" />
<glyph unicode="a&#x301;" horiz-adv-x="731" d="M106.5 214q-4.5 67 10.5 134q14 68 46 134.5t79 117.5t109.5 83t135.5 32q80 0 128.5 -36t70.5 -93l29 129h78l-117 -551q-16 -68 -11 -98.5t9 -53.5l-74 -26q-4 12 -13 39.5t3 87.5q-47 -59 -112.5 -95t-145.5 -36q-74 0 -123 31.5t-73.5 82.5t-29 118zM177 248 q1 -51 18.5 -94t54.5 -71t96 -28q53 0 99.5 22.5t82 58.5t62 81t41.5 92l16 80q4 45 -3 90t-27.5 81t-56.5 58.5t-89 22.5q-59 0 -107.5 -27.5t-84 -70.5t-59 -95.5t-34.5 -99.5q-10 -49 -9 -100zM412 791l182 213h121l-240 -213h-63z" />
<glyph unicode="a&#x303;" horiz-adv-x="731" d="M106.5 214q-4.5 67 10.5 134q14 68 46 134.5t79 117.5t109.5 83t135.5 32q80 0 128.5 -36t70.5 -93l29 129h78l-117 -551q-16 -68 -11 -98.5t9 -53.5l-74 -26q-4 12 -13 39.5t3 87.5q-47 -59 -112.5 -95t-145.5 -36q-74 0 -123 31.5t-73.5 82.5t-29 118zM177 248 q1 -51 18.5 -94t54.5 -71t96 -28q53 0 99.5 22.5t82 58.5t62 81t41.5 92l16 80q4 45 -3 90t-27.5 81t-56.5 58.5t-89 22.5q-59 0 -107.5 -27.5t-84 -70.5t-59 -95.5t-34.5 -99.5q-10 -49 -9 -100zM329 829q10 53 40 93.5t77 40.5q25 0 44 -9.5t37.5 -21.5t37 -21.5 t41.5 -9.5q12 0 28.5 15.5t24.5 50.5h55q-12 -55 -47 -92t-84 -37q-20 0 -40.5 9t-40 20.5t-37 20.5t-29.5 9q-18 0 -30.5 -19.5t-20.5 -48.5h-56z" />
<glyph unicode="e&#x300;" horiz-adv-x="755" d="M113 225.5q-4 53.5 10 118.5q12 59 44 125t82 120t117.5 89t153.5 35q100 0 150.5 -44t69 -102.5t15.5 -118t-10 -88.5q-6 -31 -20 -41q-10 -8 -47 -8h-473q-20 -92 13.5 -155.5t86.5 -87.5q41 -18 81 -17.5t75 11t61.5 23.5t38.5 21l33 -61q-27 -16 -71 -32.5t-93 -24.5 t-100 -5t-90 25q-35 18 -62.5 49t-44 73t-20.5 95.5zM219 389h455q8 37 6 82t-21.5 84t-57.5 64.5t-99 25.5q-63 0 -112.5 -27.5t-84.5 -67.5t-56.5 -84t-29.5 -77zM404 1004h118l95 -213h-66z" />
<glyph unicode="e&#x301;" horiz-adv-x="737" d="M113 225.5q-4 53.5 10 118.5q12 59 44 125t82 120t117.5 89t153.5 35q100 0 150.5 -44t69 -102.5t15.5 -118t-10 -88.5q-6 -31 -20 -41q-10 -8 -47 -8h-473q-20 -92 13.5 -155.5t86.5 -87.5q41 -18 81 -17.5t75 11t61.5 23.5t38.5 21l33 -61q-27 -16 -71 -32.5t-93 -24.5 t-100 -5t-90 25q-35 18 -62.5 49t-44 73t-20.5 95.5zM219 389h455q8 37 6 82t-21.5 84t-57.5 64.5t-99 25.5q-63 0 -112.5 -27.5t-84.5 -67.5t-56.5 -84t-29.5 -77zM410 791l182 213h121l-240 -213h-63z" />
<glyph unicode="i&#x300;" horiz-adv-x="331" d="M125 0l149 711h80l-149 -711h-80zM183 1004h118l95 -213h-66z" />
<glyph unicode="i&#x301;" horiz-adv-x="331" d="M125 0l149 711h80l-149 -711h-80zM260 791l182 213h121l-240 -213h-63z" />
<glyph unicode="o&#x300;" horiz-adv-x="686" d="M106.5 215.5q-4.5 65.5 10.5 132.5q14 68 46 133.5t79 116.5t108 83t135 32t123 -32t75 -83t31 -116.5t-9 -133.5t-47 -133t-80.5 -116.5t-109.5 -83t-136 -31.5t-122 31.5t-73.5 83t-30 117zM178 243.5q2 -53.5 20.5 -96.5t55.5 -70.5t92 -27.5t102.5 27.5t84 70.5 t61 96.5t37.5 104.5q10 49 8 102.5t-20.5 97.5t-54.5 71.5t-91 27.5t-103 -27.5t-85 -70.5t-61.5 -96.5t-35.5 -104.5q-12 -51 -10 -104.5zM355 1004h118l95 -213h-66z" />
<glyph unicode="o&#x301;" horiz-adv-x="686" d="M106.5 215.5q-4.5 65.5 10.5 132.5q14 68 46 133.5t79 116.5t108 83t135 32t123 -32t75 -83t31 -116.5t-9 -133.5t-47 -133t-80.5 -116.5t-109.5 -83t-136 -31.5t-122 31.5t-73.5 83t-30 117zM178 243.5q2 -53.5 20.5 -96.5t55.5 -70.5t92 -27.5t102.5 27.5t84 70.5 t61 96.5t37.5 104.5q10 49 8 102.5t-20.5 97.5t-54.5 71.5t-91 27.5t-103 -27.5t-85 -70.5t-61.5 -96.5t-35.5 -104.5q-12 -51 -10 -104.5zM383 791l182 213h121l-240 -213h-63z" />
<glyph unicode="o&#x303;" horiz-adv-x="694" d="M106.5 215.5q-4.5 65.5 10.5 132.5q14 68 46 133.5t79 116.5t108 83t135 32t123 -32t75 -83t31 -116.5t-9 -133.5t-47 -133t-80.5 -116.5t-109.5 -83t-136 -31.5t-122 31.5t-73.5 83t-30 117zM178 243.5q2 -53.5 20.5 -96.5t55.5 -70.5t92 -27.5t102.5 27.5t84 70.5 t61 96.5t37.5 104.5q10 49 8 102.5t-20.5 97.5t-54.5 71.5t-91 27.5t-103 -27.5t-85 -70.5t-61.5 -96.5t-35.5 -104.5q-12 -51 -10 -104.5zM338 794q10 53 40 93.5t77 40.5q25 0 44 -9.5t37.5 -21.5t37 -21.5t41.5 -9.5q12 0 28.5 15.5t24.5 50.5h55q-12 -55 -47 -92 t-84 -37q-20 0 -40.5 9t-40 20.5t-37 20.5t-29.5 9q-18 0 -30.5 -19.5t-20.5 -48.5h-56z" />
<glyph unicode="u&#x300;" horiz-adv-x="737" d="M136 169q-1 44 5 75l99 469h73l-98 -471q-20 -90 24 -141.5t121 -51.5q45 0 86 20.5t74 54.5t55.5 77t32.5 88l90 424h76l-119 -559q-14 -68 -9 -98.5t9 -53.5l-73 -27q-4 12 -13.5 40t2.5 87q-45 -63 -111.5 -91.5t-127.5 -28.5q-76 0 -117 29.5t-59.5 71.5t-19.5 86z M371 1004h118l95 -213h-66z" />
<glyph unicode="u&#x301;" horiz-adv-x="737" d="M136 169q-1 44 5 75l99 469h73l-98 -471q-20 -90 24 -141.5t121 -51.5q45 0 86 20.5t74 54.5t55.5 77t32.5 88l90 424h76l-119 -559q-14 -68 -9 -98.5t9 -53.5l-73 -27q-4 12 -13.5 40t2.5 87q-45 -63 -111.5 -91.5t-127.5 -28.5q-76 0 -117 29.5t-59.5 71.5t-19.5 86z M441 791l182 213h121l-240 -213h-63z" />
<glyph unicode="y&#x301;" horiz-adv-x="708" d="M47 -256q59 23 96 40t66 45t55.5 72t63.5 119l-138 680l82 33l117 -622l365 622l59 -33l-21 -36q-22 -37 -57 -96.5t-80 -134.5t-91 -153.5t-91 -154.5t-81 -135.5t-57.5 -95t-23.5 -37.5q-23 -37 -48 -65t-60 -50q-55 -33 -95 -45t-53 -19zM449 791l182 213h121 l-240 -213h-63z" />
<glyph unicode="I&#x303;" horiz-adv-x="331" d="M131 0l205 971h78l-205 -971h-78zM223 1108q10 53 43 93.5t78 40.5q23 0 44.5 -8.5t42 -18.5t38.5 -19.5t35 -11.5q12 -2 26.5 11.5t22.5 50.5h57q-12 -55 -46 -92t-83 -37q-16 0 -35.5 9t-40 20.5t-39 20.5t-32.5 9q-18 0 -30.5 -19.5t-20.5 -48.5h-60z" />
<glyph unicode="i&#x303;" horiz-adv-x="329" d="M125 0l149 711h80l-149 -711h-80zM166 833q10 53 43 93.5t78 40.5q23 0 44.5 -8.5t42 -18.5t38.5 -19.5t35 -11.5q12 -2 26.5 11.5t22.5 50.5h57q-12 -55 -46 -92t-83 -37q-16 0 -35.5 9t-40 20.5t-39 20.5t-32.5 9q-18 0 -30.5 -19.5t-20.5 -48.5h-60z" />
<glyph unicode="U&#x303;" horiz-adv-x="923" d="M176 297l143 674h78l-141 -672q-14 -66 -2 -112t43 -74.5t77 -42t101 -13.5q53 0 105.5 13.5t95.5 42t75.5 74.5t47.5 112l141 672h76l-144 -674q-33 -158 -143.5 -239t-269.5 -81q-160 0 -238 81t-45 239zM522 1108q10 53 43 93.5t78 40.5q23 0 44.5 -8.5t42 -18.5 t38.5 -19.5t35 -11.5q12 -2 26.5 11.5t22.5 50.5h57q-12 -55 -46 -92t-83 -37q-16 0 -35.5 9t-40 20.5t-39 20.5t-32.5 9q-18 0 -30.5 -19.5t-20.5 -48.5h-60z" />
<glyph unicode="u&#x303;" horiz-adv-x="737" d="M136 169q-1 44 5 75l99 469h73l-98 -471q-20 -90 24 -141.5t121 -51.5q45 0 86 20.5t74 54.5t55.5 77t32.5 88l90 424h76l-119 -559q-14 -68 -9 -98.5t9 -53.5l-73 -27q-4 12 -13.5 40t2.5 87q-45 -63 -111.5 -91.5t-127.5 -28.5q-76 0 -117 29.5t-59.5 71.5t-19.5 86z M362 829q10 53 43 93.5t78 40.5q23 0 44.5 -8.5t42 -18.5t38.5 -19.5t35 -11.5q12 -2 26.5 11.5t22.5 50.5h57q-12 -55 -46 -92t-83 -37q-16 0 -35.5 9t-40 20.5t-39 20.5t-32.5 9q-18 0 -30.5 -19.5t-20.5 -48.5h-60z" />
<glyph unicode="A&#x323;" horiz-adv-x="839" d="M12 0q156 264 281 473q53 90 102 174t90 152q47 78 88 149q18 29 38 40t26 13q18 4 32.5 -12t16.5 -24q2 -6 -5 -14.5t-11 -12.5l155 -938l-84 -16l-43 284h-446l-166 -284zM293 336h393l-88 516zM309 -162q6 29 31 51.5t57 22.5q33 0 49.5 -22.5t10.5 -51.5 q-6 -31 -32 -52.5t-58 -21.5q-33 0 -48.5 21.5t-9.5 52.5z" />
<glyph unicode="a&#x323;" horiz-adv-x="731" d="M106.5 214q-4.5 67 10.5 134q14 68 46 134.5t79 117.5t109.5 83t135.5 32q80 0 128.5 -36t70.5 -93l29 129h78l-117 -551q-16 -68 -11 -98.5t9 -53.5l-74 -26q-4 12 -13 39.5t3 87.5q-47 -59 -112.5 -95t-145.5 -36q-74 0 -123 31.5t-73.5 82.5t-29 118zM177 248 q1 -51 18.5 -94t54.5 -71t96 -28q53 0 99.5 22.5t82 58.5t62 81t41.5 92l16 80q4 45 -3 90t-27.5 81t-56.5 58.5t-89 22.5q-59 0 -107.5 -27.5t-84 -70.5t-59 -95.5t-34.5 -99.5q-10 -49 -9 -100zM237 -162q6 29 31 51.5t57 22.5q33 0 49.5 -22.5t10.5 -51.5 q-6 -31 -32 -52.5t-58 -21.5q-33 0 -48.5 21.5t-9.5 52.5z" />
<glyph unicode="A&#x309;" horiz-adv-x="847" d="M12 0q156 264 281 473q53 90 102 174t90 152q47 78 88 149q18 29 38 40t26 13q18 4 32.5 -12t16.5 -24q2 -6 -5 -14.5t-11 -12.5l155 -938l-84 -16l-43 284h-446l-166 -284zM293 336h393l-88 516zM557 1303q16 25 54 53t106 28q53 0 84 -31.5t16 -94.5q-6 -35 -28.5 -68 t-49 -58.5t-50 -43t-31.5 -23.5q-2 0 -9.5 5t-15.5 11q-8 8 -20 19q43 29 83.5 66.5t51.5 84.5q8 45 -14.5 56.5t-41.5 11.5q-25 0 -44 -7t-31.5 -16.5t-15.5 -13.5l-9 -12l-16 16q-8 8 -19 17z" />
<glyph unicode="a&#x309;" horiz-adv-x="731" d="M106.5 214q-4.5 67 10.5 134q14 68 46 134.5t79 117.5t109.5 83t135.5 32q80 0 128.5 -36t70.5 -93l29 129h78l-117 -551q-16 -68 -11 -98.5t9 -53.5l-74 -26q-4 12 -13 39.5t3 87.5q-47 -59 -112.5 -95t-145.5 -36q-74 0 -123 31.5t-73.5 82.5t-29 118zM177 248 q1 -51 18.5 -94t54.5 -71t96 -28q53 0 99.5 22.5t82 58.5t62 81t41.5 92l16 80q4 45 -3 90t-27.5 81t-56.5 58.5t-89 22.5q-59 0 -107.5 -27.5t-84 -70.5t-59 -95.5t-34.5 -99.5q-10 -49 -9 -100zM426 1033q16 25 54 53t106 28q53 0 84 -31.5t16 -94.5q-6 -35 -28.5 -68 t-49 -58.5t-50 -43t-31.5 -23.5q-2 0 -9.5 5t-15.5 11q-8 8 -20 19q43 29 83.5 66.5t51.5 84.5q8 45 -14.5 56.5t-41.5 11.5q-25 0 -44 -7t-31.5 -16.5t-15.5 -13.5l-9 -12l-16 16q-8 8 -19 17z" />
<glyph unicode="&#xc2;&#x301;" horiz-adv-x="847" d="M12 0q156 264 281 473q53 90 102 174t90 152q47 78 88 149q18 29 38 40t26 13q18 4 32.5 -12t16.5 -24q2 -6 -5 -14.5t-11 -12.5l155 -938l-84 -16l-43 284h-446l-166 -284zM293 336h393l-88 516zM438 1049l211 178h55l136 -178h-87l-92 108l-133 -108h-90zM826 1192 l182 213h121l-240 -213h-63z" />
<glyph unicode="&#xe2;&#x301;" horiz-adv-x="731" d="M106.5 214q-4.5 67 10.5 134q14 68 46 134.5t79 117.5t109.5 83t135.5 32q80 0 128.5 -36t70.5 -93l29 129h78l-117 -551q-16 -68 -11 -98.5t9 -53.5l-74 -26q-4 12 -13 39.5t3 87.5q-47 -59 -112.5 -95t-145.5 -36q-74 0 -123 31.5t-73.5 82.5t-29 118zM177 248 q1 -51 18.5 -94t54.5 -71t96 -28q53 0 99.5 22.5t82 58.5t62 81t41.5 92l16 80q4 45 -3 90t-27.5 81t-56.5 58.5t-89 22.5q-59 0 -107.5 -27.5t-84 -70.5t-59 -95.5t-34.5 -99.5q-10 -49 -9 -100zM303 793l211 178h55l136 -178h-87l-92 108l-133 -108h-90zM686 924l182 213 h121l-240 -213h-63z" />
<glyph unicode="&#xc2;&#x300;" horiz-adv-x="847" d="M12 0q156 264 281 473q53 90 102 174t90 152q47 78 88 149q18 29 38 40t26 13q18 4 32.5 -12t16.5 -24q2 -6 -5 -14.5t-11 -12.5l155 -938l-84 -16l-43 284h-446l-166 -284zM293 336h393l-88 516zM440 1049l211 178h55l136 -178h-87l-92 108l-133 -108h-90zM721 1405h118 l95 -213h-66z" />
<glyph unicode="&#xe2;&#x300;" horiz-adv-x="731" d="M106.5 214q-4.5 67 10.5 134q14 68 46 134.5t79 117.5t109.5 83t135.5 32q80 0 128.5 -36t70.5 -93l29 129h78l-117 -551q-16 -68 -11 -98.5t9 -53.5l-74 -26q-4 12 -13 39.5t3 87.5q-47 -59 -112.5 -95t-145.5 -36q-74 0 -123 31.5t-73.5 82.5t-29 118zM177 248 q1 -51 18.5 -94t54.5 -71t96 -28q53 0 99.5 22.5t82 58.5t62 81t41.5 92l16 80q4 45 -3 90t-27.5 81t-56.5 58.5t-89 22.5q-59 0 -107.5 -27.5t-84 -70.5t-59 -95.5t-34.5 -99.5q-10 -49 -9 -100zM303 793l211 178h55l136 -178h-87l-92 108l-133 -108h-90zM588 1137h118 l95 -213h-66z" />
<glyph unicode="&#xc2;&#x309;" horiz-adv-x="847" d="M12 0q156 264 281 473q53 90 102 174t90 152q47 78 88 149q18 29 38 40t26 13q18 4 32.5 -12t16.5 -24q2 -6 -5 -14.5t-11 -12.5l155 -938l-84 -16l-43 284h-446l-166 -284zM293 336h393l-88 516zM436 1045l211 178h55l136 -178h-87l-92 108l-133 -108h-90zM762 1428 q16 25 54 53t106 28q53 0 84 -31.5t16 -94.5q-6 -35 -28.5 -68t-49 -58.5t-50 -43t-31.5 -23.5q-2 0 -9.5 5t-15.5 11q-8 8 -20 19q43 29 83.5 66.5t51.5 84.5q8 45 -14.5 56.5t-41.5 11.5q-25 0 -44 -7t-31.5 -16.5t-15.5 -13.5l-9 -12l-16 16q-8 8 -19 17z" />
<glyph unicode="&#xe2;&#x309;" horiz-adv-x="731" d="M106.5 214q-4.5 67 10.5 134q14 68 46 134.5t79 117.5t109.5 83t135.5 32q80 0 128.5 -36t70.5 -93l29 129h78l-117 -551q-16 -68 -11 -98.5t9 -53.5l-74 -26q-4 12 -13 39.5t3 87.5q-47 -59 -112.5 -95t-145.5 -36q-74 0 -123 31.5t-73.5 82.5t-29 118zM177 248 q1 -51 18.5 -94t54.5 -71t96 -28q53 0 99.5 22.5t82 58.5t62 81t41.5 92l16 80q4 45 -3 90t-27.5 81t-56.5 58.5t-89 22.5q-59 0 -107.5 -27.5t-84 -70.5t-59 -95.5t-34.5 -99.5q-10 -49 -9 -100zM303 793l211 178h55l136 -178h-87l-92 108l-133 -108h-90zM637 1164 q16 25 54 53t106 28q53 0 84 -31.5t16 -94.5q-6 -35 -28.5 -68t-49 -58.5t-50 -43t-31.5 -23.5q-2 0 -9.5 5t-15.5 11q-8 8 -20 19q43 29 83.5 66.5t51.5 84.5q8 45 -14.5 56.5t-41.5 11.5q-25 0 -44 -7t-31.5 -16.5t-15.5 -13.5l-9 -12l-16 16q-8 8 -19 17z" />
<glyph unicode="&#xc2;&#x303;" horiz-adv-x="847" d="M16 0q156 264 281 473q53 90 102 174t90 152q47 78 88 149q18 29 38 40t26 13q18 4 32.5 -12t16.5 -24q2 -6 -5 -14.5t-11 -12.5l155 -938l-84 -16l-43 284h-446l-166 -284zM297 336h393l-88 516zM438 1051l211 178h55l136 -178h-87l-92 108l-133 -108h-90zM508 1269 q10 53 40 93.5t77 40.5q25 0 44 -9.5t37.5 -21.5t37 -21.5t41.5 -9.5q12 0 28.5 15.5t24.5 50.5h55q-12 -55 -47 -92t-84 -37q-20 0 -40.5 9t-40 20.5t-37 20.5t-29.5 9q-18 0 -30.5 -19.5t-20.5 -48.5h-56z" />
<glyph unicode="&#xe2;&#x303;" horiz-adv-x="731" d="M106.5 214q-4.5 67 10.5 134q14 68 46 134.5t79 117.5t109.5 83t135.5 32q80 0 128.5 -36t70.5 -93l29 129h78l-117 -551q-16 -68 -11 -98.5t9 -53.5l-74 -26q-4 12 -13 39.5t3 87.5q-47 -59 -112.5 -95t-145.5 -36q-74 0 -123 31.5t-73.5 82.5t-29 118zM177 248 q1 -51 18.5 -94t54.5 -71t96 -28q53 0 99.5 22.5t82 58.5t62 81t41.5 92l16 80q4 45 -3 90t-27.5 81t-56.5 58.5t-89 22.5q-59 0 -107.5 -27.5t-84 -70.5t-59 -95.5t-34.5 -99.5q-10 -49 -9 -100zM303 793l211 178h55l136 -178h-87l-92 108l-133 -108h-90zM370 1013 q10 53 40 93.5t77 40.5q25 0 44 -9.5t37.5 -21.5t37 -21.5t41.5 -9.5q12 0 28.5 15.5t24.5 50.5h55q-12 -55 -47 -92t-84 -37q-20 0 -40.5 9t-40 20.5t-37 20.5t-29.5 9q-18 0 -30.5 -19.5t-20.5 -48.5h-56z" />
<glyph unicode="&#xc2;&#x323;" horiz-adv-x="858" d="M22 0q156 264 281 473q53 90 102 174t90 152q47 78 88 149q18 29 38 40t26 13q18 4 32.5 -12t16.5 -24q2 -6 -5 -14.5t-11 -12.5l155 -938l-84 -16l-43 284h-446l-166 -284zM303 336h393l-88 516zM321 -162q6 29 31 51.5t57 22.5q33 0 49.5 -22.5t10.5 -51.5 q-6 -31 -32 -52.5t-58 -21.5q-33 0 -48.5 21.5t-9.5 52.5zM438 1049l211 178h55l136 -178h-87l-92 108l-133 -108h-90z" />
<glyph unicode="&#xe2;&#x323;" horiz-adv-x="731" d="M106.5 214q-4.5 67 10.5 134q14 68 46 134.5t79 117.5t109.5 83t135.5 32q80 0 128.5 -36t70.5 -93l29 129h78l-117 -551q-16 -68 -11 -98.5t9 -53.5l-74 -26q-4 12 -13 39.5t3 87.5q-47 -59 -112.5 -95t-145.5 -36q-74 0 -123 31.5t-73.5 82.5t-29 118zM177 248 q1 -51 18.5 -94t54.5 -71t96 -28q53 0 99.5 22.5t82 58.5t62 81t41.5 92l16 80q4 45 -3 90t-27.5 81t-56.5 58.5t-89 22.5q-59 0 -107.5 -27.5t-84 -70.5t-59 -95.5t-34.5 -99.5q-10 -49 -9 -100zM225 -162q6 29 31 51.5t57 22.5q33 0 49.5 -22.5t10.5 -51.5 q-6 -31 -32 -52.5t-58 -21.5q-33 0 -48.5 21.5t-9.5 52.5zM303 793l211 178h55l136 -178h-87l-92 108l-133 -108h-90z" />
<glyph unicode="&#x102;&#x301;" horiz-adv-x="888" d="M39 0q156 264 281 473q53 90 102 174t90 152q47 78 88 149q18 29 38 40t26 13q18 4 32.5 -12t16.5 -24q2 -6 -5 -14.5t-11 -12.5l155 -938l-84 -16l-43 284h-446l-166 -284zM320 336h393l-88 516zM509 1201q-9 40 1 85h74q-16 -70 14.5 -112t97.5 -42q68 0 115 42t64 112 h73q-10 -45 -35.5 -85t-61.5 -71t-79 -48t-90 -17q-45 0 -83 17t-59.5 48t-30.5 71zM670 1252l182 213h121l-240 -213h-63z" />
<glyph unicode="&#x103;&#x301;" horiz-adv-x="731" d="M106.5 214q-4.5 67 10.5 134q14 68 46 134.5t79 117.5t109.5 83t135.5 32q80 0 128.5 -36t70.5 -93l29 129h78l-117 -551q-16 -68 -11 -98.5t9 -53.5l-74 -26q-4 12 -13 39.5t3 87.5q-47 -59 -112.5 -95t-145.5 -36q-74 0 -123 31.5t-73.5 82.5t-29 118zM177 248 q1 -51 18.5 -94t54.5 -71t96 -28q53 0 99.5 22.5t82 58.5t62 81t41.5 92l16 80q4 45 -3 90t-27.5 81t-56.5 58.5t-89 22.5q-59 0 -107.5 -27.5t-84 -70.5t-59 -95.5t-34.5 -99.5q-10 -49 -9 -100zM361 939q-9 40 1 85h74q-16 -70 14.5 -112t97.5 -42q68 0 115 42t64 112h73 q-10 -45 -35.5 -85t-61.5 -71t-79 -48t-90 -17q-45 0 -83 17t-59.5 48t-30.5 71zM519 992l182 213h121l-240 -213h-63z" />
<glyph unicode="&#x102;&#x300;" horiz-adv-x="888" d="M41 0q156 264 281 473q53 90 102 174t90 152q47 78 88 149q18 29 38 40t26 13q18 4 32.5 -12t16.5 -24q2 -6 -5 -14.5t-11 -12.5l155 -938l-84 -16l-43 284h-446l-166 -284zM322 336h393l-88 516zM511 1201q-9 40 1 85h74q-16 -70 14.5 -112t97.5 -42q68 0 115 42t64 112 h73q-10 -45 -35.5 -85t-61.5 -71t-79 -48t-90 -17q-45 0 -83 17t-59.5 48t-30.5 71zM570 1467h118l95 -213h-66z" />
<glyph unicode="&#x103;&#x300;" horiz-adv-x="731" d="M106.5 214q-4.5 67 10.5 134q14 68 46 134.5t79 117.5t109.5 83t135.5 32q80 0 128.5 -36t70.5 -93l29 129h78l-117 -551q-16 -68 -11 -98.5t9 -53.5l-74 -26q-4 12 -13 39.5t3 87.5q-47 -59 -112.5 -95t-145.5 -36q-74 0 -123 31.5t-73.5 82.5t-29 118zM177 248 q1 -51 18.5 -94t54.5 -71t96 -28q53 0 99.5 22.5t82 58.5t62 81t41.5 92l16 80q4 45 -3 90t-27.5 81t-56.5 58.5t-89 22.5q-59 0 -107.5 -27.5t-84 -70.5t-59 -95.5t-34.5 -99.5q-10 -49 -9 -100zM331 933q-9 40 1 85h74q-16 -70 14.5 -112t97.5 -42q68 0 115 42t64 112h73 q-10 -45 -35.5 -85t-61.5 -71t-79 -48t-90 -17q-45 0 -83 17t-59.5 48t-30.5 71zM385 1199h118l95 -213h-66z" />
<glyph unicode="&#x102;&#x309;" horiz-adv-x="921" d="M53 0q156 264 281 473q53 90 102 174t90 152q47 78 88 149q18 29 38 40t26 13q18 4 32.5 -12t16.5 -24q2 -6 -5 -14.5t-11 -12.5l155 -938l-84 -16l-43 284h-446l-166 -284zM334 336h393l-88 516zM509 1197q-9 40 1 85h74q-16 -70 14.5 -112t97.5 -42q68 0 115 42t64 112 h73q-10 -45 -35.5 -85t-61.5 -71t-79 -48t-90 -17q-45 0 -83 17t-59.5 48t-30.5 71zM618 1475q16 25 54 53t106 28q53 0 84 -31.5t16 -94.5q-6 -35 -28.5 -68t-49 -58.5t-50 -43t-31.5 -23.5q-2 0 -9.5 5t-15.5 11q-8 8 -20 19q43 29 83.5 66.5t51.5 84.5q8 45 -14.5 56.5 t-41.5 11.5q-25 0 -44 -7t-31.5 -16.5t-15.5 -13.5l-9 -12l-16 16q-8 8 -19 17z" />
<glyph unicode="&#x103;&#x309;" horiz-adv-x="731" d="M106.5 214q-4.5 67 10.5 134q14 68 46 134.5t79 117.5t109.5 83t135.5 32q80 0 128.5 -36t70.5 -93l29 129h78l-117 -551q-16 -68 -11 -98.5t9 -53.5l-74 -26q-4 12 -13 39.5t3 87.5q-47 -59 -112.5 -95t-145.5 -36q-74 0 -123 31.5t-73.5 82.5t-29 118zM177 248 q1 -51 18.5 -94t54.5 -71t96 -28q53 0 99.5 22.5t82 58.5t62 81t41.5 92l16 80q4 45 -3 90t-27.5 81t-56.5 58.5t-89 22.5q-59 0 -107.5 -27.5t-84 -70.5t-59 -95.5t-34.5 -99.5q-10 -49 -9 -100zM329 935q-9 40 1 85h74q-16 -70 14.5 -112t97.5 -42q68 0 115 42t64 112h73 q-10 -45 -35.5 -85t-61.5 -71t-79 -48t-90 -17q-45 0 -83 17t-59.5 48t-30.5 71zM444 1233q16 25 54 53t106 28q53 0 84 -31.5t16 -94.5q-6 -35 -28.5 -68t-49 -58.5t-50 -43t-31.5 -23.5q-2 0 -9.5 5t-15.5 11q-8 8 -20 19q43 29 83.5 66.5t51.5 84.5q8 45 -14.5 56.5 t-41.5 11.5q-25 0 -44 -7t-31.5 -16.5t-15.5 -13.5l-9 -12l-16 16q-8 8 -19 17z" />
<glyph unicode="&#x102;&#x303;" horiz-adv-x="913" d="M53 0q156 264 281 473q53 90 102 174t90 152q47 78 88 149q18 29 38 40t26 13q18 4 32.5 -12t16.5 -24q2 -6 -5 -14.5t-11 -12.5l155 -938l-84 -16l-43 284h-446l-166 -284zM334 336h393l-88 516zM507 1189q-9 40 1 85h74q-16 -70 14.5 -112t97.5 -42q68 0 115 42t64 112 h73q-10 -45 -35.5 -85t-61.5 -71t-79 -48t-90 -17q-45 0 -83 17t-59.5 48t-30.5 71zM557 1318q10 53 40 93.5t77 40.5q25 0 44 -9.5t37.5 -21.5t37 -21.5t41.5 -9.5q12 0 28.5 15.5t24.5 50.5h55q-12 -55 -47 -92t-84 -37q-20 0 -40.5 9t-40 20.5t-37 20.5t-29.5 9 q-18 0 -30.5 -19.5t-20.5 -48.5h-56z" />
<glyph unicode="&#x103;&#x303;" horiz-adv-x="731" d="M106.5 214q-4.5 67 10.5 134q14 68 46 134.5t79 117.5t109.5 83t135.5 32q80 0 128.5 -36t70.5 -93l29 129h78l-117 -551q-16 -68 -11 -98.5t9 -53.5l-74 -26q-4 12 -13 39.5t3 87.5q-47 -59 -112.5 -95t-145.5 -36q-74 0 -123 31.5t-73.5 82.5t-29 118zM177 248 q1 -51 18.5 -94t54.5 -71t96 -28q53 0 99.5 22.5t82 58.5t62 81t41.5 92l16 80q4 45 -3 90t-27.5 81t-56.5 58.5t-89 22.5q-59 0 -107.5 -27.5t-84 -70.5t-59 -95.5t-34.5 -99.5q-10 -49 -9 -100zM327 933q-9 40 1 85h74q-16 -70 14.5 -112t97.5 -42q68 0 115 42t64 112h73 q-10 -45 -35.5 -85t-61.5 -71t-79 -48t-90 -17q-45 0 -83 17t-59.5 48t-30.5 71zM387 1091q10 53 40 93.5t77 40.5q25 0 44 -9.5t37.5 -21.5t37 -21.5t41.5 -9.5q12 0 28.5 15.5t24.5 50.5h55q-12 -55 -47 -92t-84 -37q-20 0 -40.5 9t-40 20.5t-37 20.5t-29.5 9 q-18 0 -30.5 -19.5t-20.5 -48.5h-56z" />
<glyph unicode="&#x102;&#x323;" horiz-adv-x="847" d="M18 0q156 264 281 473q53 90 102 174t90 152q47 78 88 149q18 29 38 40t26 13q18 4 32.5 -12t16.5 -24q2 -6 -5 -14.5t-11 -12.5l155 -938l-84 -16l-43 284h-446l-166 -284zM299 336h393l-88 516zM311 -162q6 29 31 51.5t57 22.5q33 0 49.5 -22.5t10.5 -51.5 q-6 -31 -32 -52.5t-58 -21.5q-33 0 -48.5 21.5t-9.5 52.5zM468 1206q-9 40 1 85h74q-16 -70 14.5 -112t97.5 -42q68 0 115 42t64 112h73q-10 -45 -35.5 -85t-61.5 -71t-79 -48t-90 -17q-45 0 -83 17t-59.5 48t-30.5 71z" />
<glyph unicode="&#x103;&#x323;" horiz-adv-x="731" d="M106.5 214q-4.5 67 10.5 134q14 68 46 134.5t79 117.5t109.5 83t135.5 32q80 0 128.5 -36t70.5 -93l29 129h78l-117 -551q-16 -68 -11 -98.5t9 -53.5l-74 -26q-4 12 -13 39.5t3 87.5q-47 -59 -112.5 -95t-145.5 -36q-74 0 -123 31.5t-73.5 82.5t-29 118zM177 248 q1 -51 18.5 -94t54.5 -71t96 -28q53 0 99.5 22.5t82 58.5t62 81t41.5 92l16 80q4 45 -3 90t-27.5 81t-56.5 58.5t-89 22.5q-59 0 -107.5 -27.5t-84 -70.5t-59 -95.5t-34.5 -99.5q-10 -49 -9 -100zM235 -162q6 29 31 51.5t57 22.5q33 0 49.5 -22.5t10.5 -51.5 q-6 -31 -32 -52.5t-58 -21.5q-33 0 -48.5 21.5t-9.5 52.5zM335 933q-9 40 1 85h74q-16 -70 14.5 -112t97.5 -42q68 0 115 42t64 112h73q-10 -45 -35.5 -85t-61.5 -71t-79 -48t-90 -17q-45 0 -83 17t-59.5 48t-30.5 71z" />
<glyph unicode="E&#x323;" horiz-adv-x="753" d="M119 0l184 874q4 18 0 29.5t-9 19l-9 13.5t0 16q6 10 22.5 26.5t36.5 16.5q6 0 15.5 -7t13.5 -17h456l-16 -80h-424l-74 -348h379l-16 -80h-379l-82 -383h422l-16 -80h-504zM268 -162q6 29 31 51.5t57 22.5q33 0 49.5 -22.5t10.5 -51.5q-6 -31 -32 -52.5t-58 -21.5 q-33 0 -48.5 21.5t-9.5 52.5z" />
<glyph unicode="e&#x323;" horiz-adv-x="722" d="M113 225.5q-4 53.5 10 118.5q12 59 44 125t82 120t117.5 89t153.5 35q100 0 150.5 -44t69 -102.5t15.5 -118t-10 -88.5q-6 -31 -20 -41q-10 -8 -47 -8h-473q-20 -92 13.5 -155.5t86.5 -87.5q41 -18 81 -17.5t75 11t61.5 23.5t38.5 21l33 -61q-27 -16 -71 -32.5t-93 -24.5 t-100 -5t-90 25q-35 18 -62.5 49t-44 73t-20.5 95.5zM219 389h455q8 37 6 82t-21.5 84t-57.5 64.5t-99 25.5q-63 0 -112.5 -27.5t-84.5 -67.5t-56.5 -84t-29.5 -77zM286 -162q6 29 31 51.5t57 22.5q33 0 49.5 -22.5t10.5 -51.5q-6 -31 -32 -52.5t-58 -21.5q-33 0 -48.5 21.5 t-9.5 52.5z" />
<glyph unicode="E&#x309;" horiz-adv-x="753" d="M133 0l184 874q4 18 0 29.5t-9 19l-9 13.5t0 16q6 10 22.5 26.5t36.5 16.5q6 0 15.5 -7t13.5 -17h456l-16 -80h-424l-74 -348h379l-16 -80h-379l-82 -383h422l-16 -80h-504zM512 1282q16 25 54 53t106 28q53 0 84 -31.5t16 -94.5q-6 -35 -28.5 -68t-49 -58.5t-50 -43 t-31.5 -23.5q-2 0 -9.5 5t-15.5 11q-8 8 -20 19q43 29 83.5 66.5t51.5 84.5q8 45 -14.5 56.5t-41.5 11.5q-25 0 -44 -7t-31.5 -16.5t-15.5 -13.5l-9 -12l-16 16q-8 8 -19 17z" />
<glyph unicode="e&#x309;" horiz-adv-x="724" d="M113 225.5q-4 53.5 10 118.5q12 59 44 125t82 120t117.5 89t153.5 35q100 0 150.5 -44t69 -102.5t15.5 -118t-10 -88.5q-6 -31 -20 -41q-10 -8 -47 -8h-473q-20 -92 13.5 -155.5t86.5 -87.5q41 -18 81 -17.5t75 11t61.5 23.5t38.5 21l33 -61q-27 -16 -71 -32.5t-93 -24.5 t-100 -5t-90 25q-35 18 -62.5 49t-44 73t-20.5 95.5zM219 389h455q8 37 6 82t-21.5 84t-57.5 64.5t-99 25.5q-63 0 -112.5 -27.5t-84.5 -67.5t-56.5 -84t-29.5 -77zM473 1029q16 24 54 51t107 27q53 0 84.5 -30.5t16.5 -90.5q-6 -34 -29 -65.5t-49.5 -56t-50.5 -41.5 t-32 -23q-2 0 -9.5 5t-15.5 11q-8 7 -20 18q43 28 84 64t52 81q8 43 -14.5 54.5t-41.5 11.5q-26 0 -45 -7t-31.5 -16t-15.5 -13l-9 -12l-16 16q-8 7 -19 16z" />
<glyph unicode="E&#x303;" horiz-adv-x="753" d="M133 0l184 874q4 18 0 29.5t-9 19l-9 13.5t0 16q6 10 22.5 26.5t36.5 16.5q6 0 15.5 -7t13.5 -17h456l-16 -80h-424l-74 -348h379l-16 -80h-379l-82 -383h422l-16 -80h-504zM432 1108q10 53 40 93.5t77 40.5q25 0 44 -9.5t37.5 -21.5t37 -21.5t41.5 -9.5q12 0 28.5 15.5 t24.5 50.5h55q-12 -55 -47 -92t-84 -37q-20 0 -40.5 9t-40 20.5t-37 20.5t-29.5 9q-18 0 -30.5 -19.5t-20.5 -48.5h-56z" />
<glyph unicode="e&#x303;" horiz-adv-x="722" d="M113 225.5q-4 53.5 10 118.5q12 59 44 125t82 120t117.5 89t153.5 35q100 0 150.5 -44t69 -102.5t15.5 -118t-10 -88.5q-6 -31 -20 -41q-10 -8 -47 -8h-473q-20 -92 13.5 -155.5t86.5 -87.5q41 -18 81 -17.5t75 11t61.5 23.5t38.5 21l33 -61q-27 -16 -71 -32.5t-93 -24.5 t-100 -5t-90 25q-35 18 -62.5 49t-44 73t-20.5 95.5zM219 389h455q8 37 6 82t-21.5 84t-57.5 64.5t-99 25.5q-63 0 -112.5 -27.5t-84.5 -67.5t-56.5 -84t-29.5 -77zM364 811q10 53 40 93.5t77 40.5q25 0 44 -9.5t37.5 -21.5t37 -21.5t41.5 -9.5q12 0 28.5 15.5t24.5 50.5h55 q-12 -55 -47 -92t-84 -37q-20 0 -40.5 9t-40 20.5t-37 20.5t-29.5 9q-18 0 -30.5 -19.5t-20.5 -48.5h-56z" />
<glyph unicode="&#xca;&#x301;" horiz-adv-x="753" d="M146 0l184 874q4 18 0 29.5t-9 19l-9 13.5t0 16q6 10 22.5 26.5t36.5 16.5q6 0 15.5 -7t13.5 -17h456l-16 -80h-424l-74 -348h379l-16 -80h-379l-82 -383h422l-16 -80h-504zM424 1045l211 178h55l136 -178h-87l-92 108l-133 -108h-90zM818 1194l182 213h121l-240 -213 h-63z" />
<glyph unicode="&#xea;&#x301;" horiz-adv-x="720" d="M113 225.5q-4 53.5 10 118.5q12 59 44 125t82 120t117.5 89t153.5 35q100 0 150.5 -44t69 -102.5t15.5 -118t-10 -88.5q-6 -31 -20 -41q-10 -8 -47 -8h-473q-20 -92 13.5 -155.5t86.5 -87.5q41 -18 81 -17.5t75 11t61.5 23.5t38.5 21l33 -61q-27 -16 -71 -32.5t-93 -24.5 t-100 -5t-90 25q-35 18 -62.5 49t-44 73t-20.5 95.5zM219 389h455q8 37 6 82t-21.5 84t-57.5 64.5t-99 25.5q-63 0 -112.5 -27.5t-84.5 -67.5t-56.5 -84t-29.5 -77zM338 795l211 178h55l136 -178h-87l-92 108l-133 -108h-90zM734 924l182 213h121l-240 -213h-63z" />
<glyph unicode="&#xca;&#x300;" horiz-adv-x="753" d="M137 0l184 874q4 18 0 29.5t-9 19l-9 13.5t0 16q6 10 22.5 26.5t36.5 16.5q6 0 15.5 -7t13.5 -17h456l-16 -80h-424l-74 -348h379l-16 -80h-379l-82 -383h422l-16 -80h-504zM422 1045l211 178h55l136 -178h-87l-92 108l-133 -108h-90zM717 1405h118l95 -213h-66z" />
<glyph unicode="&#xea;&#x300;" horiz-adv-x="722" d="M113 225.5q-4 53.5 10 118.5q12 59 44 125t82 120t117.5 89t153.5 35q100 0 150.5 -44t69 -102.5t15.5 -118t-10 -88.5q-6 -31 -20 -41q-10 -8 -47 -8h-473q-20 -92 13.5 -155.5t86.5 -87.5q41 -18 81 -17.5t75 11t61.5 23.5t38.5 21l33 -61q-27 -16 -71 -32.5t-93 -24.5 t-100 -5t-90 25q-35 18 -62.5 49t-44 73t-20.5 95.5zM219 389h455q8 37 6 82t-21.5 84t-57.5 64.5t-99 25.5q-63 0 -112.5 -27.5t-84.5 -67.5t-56.5 -84t-29.5 -77zM328 795l211 178h55l136 -178h-87l-92 108l-133 -108h-90zM625 1139h118l95 -213h-66z" />
<glyph unicode="&#xca;&#x309;" horiz-adv-x="753" d="M119 0l184 874q4 18 0 29.5t-9 19l-9 13.5t0 16q6 10 22.5 26.5t36.5 16.5q6 0 15.5 -7t13.5 -17h456l-16 -80h-424l-74 -348h379l-16 -80h-379l-82 -383h422l-16 -80h-504zM389 1045l211 178h55l136 -178h-87l-92 108l-133 -108h-90zM725 1424q16 25 54 53t106 28 q53 0 84 -31.5t16 -94.5q-6 -35 -28.5 -68t-49 -58.5t-50 -43t-31.5 -23.5q-2 0 -9.5 5t-15.5 11q-8 8 -20 19q43 29 83.5 66.5t51.5 84.5q8 45 -14.5 56.5t-41.5 11.5q-25 0 -44 -7t-31.5 -16.5t-15.5 -13.5l-9 -12l-16 16q-8 8 -19 17z" />
<glyph unicode="&#xea;&#x309;" horiz-adv-x="722" d="M113 225.5q-4 53.5 10 118.5q12 59 44 125t82 120t117.5 89t153.5 35q100 0 150.5 -44t69 -102.5t15.5 -118t-10 -88.5q-6 -31 -20 -41q-10 -8 -47 -8h-473q-20 -92 13.5 -155.5t86.5 -87.5q41 -18 81 -17.5t75 11t61.5 23.5t38.5 21l33 -61q-27 -16 -71 -32.5t-93 -24.5 t-100 -5t-90 25q-35 18 -62.5 49t-44 73t-20.5 95.5zM219 389h455q8 37 6 82t-21.5 84t-57.5 64.5t-99 25.5q-63 0 -112.5 -27.5t-84.5 -67.5t-56.5 -84t-29.5 -77zM328 793l211 178h55l136 -178h-87l-92 108l-133 -108h-90zM667 1162q16 25 54 53t106 28q53 0 84 -31.5 t16 -94.5q-6 -35 -28.5 -68t-49 -58.5t-50 -43t-31.5 -23.5q-2 0 -9.5 5t-15.5 11q-8 8 -20 19q43 29 83.5 66.5t51.5 84.5q8 45 -14.5 56.5t-41.5 11.5q-25 0 -44 -7t-31.5 -16.5t-15.5 -13.5l-9 -12l-16 16q-8 8 -19 17z" />
<glyph unicode="&#xca;&#x303;" horiz-adv-x="753" d="M119 0l184 874q4 18 0 29.5t-9 19l-9 13.5t0 16q6 10 22.5 26.5t36.5 16.5q6 0 15.5 -7t13.5 -17h456l-16 -80h-424l-74 -348h379l-16 -80h-379l-82 -383h422l-16 -80h-504zM385 1049l211 178h55l136 -178h-87l-92 108l-133 -108h-90zM454 1280q10 53 40 93.5t77 40.5 q25 0 44 -9.5t37.5 -21.5t37 -21.5t41.5 -9.5q12 0 28.5 15.5t24.5 50.5h55q-12 -55 -47 -92t-84 -37q-20 0 -40.5 9t-40 20.5t-37 20.5t-29.5 9q-18 0 -30.5 -19.5t-20.5 -48.5h-56z" />
<glyph unicode="&#xea;&#x303;" horiz-adv-x="722" d="M113 225.5q-4 53.5 10 118.5q12 59 44 125t82 120t117.5 89t153.5 35q100 0 150.5 -44t69 -102.5t15.5 -118t-10 -88.5q-6 -31 -20 -41q-10 -8 -47 -8h-473q-20 -92 13.5 -155.5t86.5 -87.5q41 -18 81 -17.5t75 11t61.5 23.5t38.5 21l33 -61q-27 -16 -71 -32.5t-93 -24.5 t-100 -5t-90 25q-35 18 -62.5 49t-44 73t-20.5 95.5zM219 389h455q8 37 6 82t-21.5 84t-57.5 64.5t-99 25.5q-63 0 -112.5 -27.5t-84.5 -67.5t-56.5 -84t-29.5 -77zM330 795l211 178h55l136 -178h-87l-92 108l-133 -108h-90zM401 1028q10 53 40 93.5t77 40.5q25 0 44 -9.5 t37.5 -21.5t37 -21.5t41.5 -9.5q12 0 28.5 15.5t24.5 50.5h55q-12 -55 -47 -92t-84 -37q-20 0 -40.5 9t-40 20.5t-37 20.5t-29.5 9q-18 0 -30.5 -19.5t-20.5 -48.5h-56z" />
<glyph unicode="&#xca;&#x323;" horiz-adv-x="753" d="M148 0l184 874q4 18 0 29.5t-9 19l-9 13.5t0 16q6 10 22.5 26.5t36.5 16.5q6 0 15.5 -7t13.5 -17h456l-16 -80h-424l-74 -348h379l-16 -80h-379l-82 -383h422l-16 -80h-504zM272 -162q6 29 31 51.5t57 22.5q33 0 49.5 -22.5t10.5 -51.5q-6 -31 -32 -52.5t-58 -21.5 q-33 0 -48.5 21.5t-9.5 52.5zM401 1051l211 178h55l136 -178h-87l-92 108l-133 -108h-90z" />
<glyph unicode="&#xea;&#x323;" horiz-adv-x="720" d="M113 225.5q-4 53.5 10 118.5q12 59 44 125t82 120t117.5 89t153.5 35q100 0 150.5 -44t69 -102.5t15.5 -118t-10 -88.5q-6 -31 -20 -41q-10 -8 -47 -8h-473q-20 -92 13.5 -155.5t86.5 -87.5q41 -18 81 -17.5t75 11t61.5 23.5t38.5 21l33 -61q-27 -16 -71 -32.5t-93 -24.5 t-100 -5t-90 25q-35 18 -62.5 49t-44 73t-20.5 95.5zM219 389h455q8 37 6 82t-21.5 84t-57.5 64.5t-99 25.5q-63 0 -112.5 -27.5t-84.5 -67.5t-56.5 -84t-29.5 -77zM272 -162q6 29 31 51.5t57 22.5q33 0 49.5 -22.5t10.5 -51.5q-6 -31 -32 -52.5t-58 -21.5q-33 0 -48.5 21.5 t-9.5 52.5zM328 795l211 178h55l136 -178h-87l-92 108l-133 -108h-90z" />
<glyph unicode="I&#x309;" horiz-adv-x="331" d="M131 0l205 971h78l-205 -971h-78zM309 1287q16 25 54 53t106 28q53 0 84 -31.5t16 -94.5q-6 -35 -28.5 -68t-49 -58.5t-50 -43t-31.5 -23.5q-2 0 -9.5 5t-15.5 11q-8 8 -20 19q43 29 83.5 66.5t51.5 84.5q8 45 -14.5 56.5t-41.5 11.5q-25 0 -44 -7t-31.5 -16.5 t-15.5 -13.5l-9 -12l-16 16q-8 8 -19 17z" />
<glyph unicode="i&#x309;" horiz-adv-x="331" d="M125 0l149 711h80l-149 -711h-80zM243 998q16 25 54 53t106 28q53 0 84 -31.5t16 -94.5q-6 -35 -28.5 -68t-49 -58.5t-50 -43t-31.5 -23.5q-2 0 -9.5 5t-15.5 11q-8 8 -20 19q43 29 83.5 66.5t51.5 84.5q8 45 -14.5 56.5t-41.5 11.5q-25 0 -44 -7t-31.5 -16.5 t-15.5 -13.5l-9 -12l-16 16q-8 8 -19 17z" />
<glyph unicode="I&#x323;" horiz-adv-x="331" d="M63 -162q6 29 31 51.5t57 22.5q33 0 49.5 -22.5t10.5 -51.5q-6 -31 -32 -52.5t-58 -21.5q-33 0 -48.5 21.5t-9.5 52.5zM131 0l205 971h78l-205 -971h-78z" />
<glyph unicode="i&#x323;" horiz-adv-x="331" d="M65 -162q6 29 31 51.5t57 22.5q33 0 49.5 -22.5t10.5 -51.5q-6 -31 -32 -52.5t-58 -21.5q-33 0 -48.5 21.5t-9.5 52.5zM135 0l150 713h74l-150 -713h-74zM299 905q6 27 28.5 44.5t49.5 17.5q25 0 38 -17.5t7 -44.5q-4 -25 -25.5 -43t-46.5 -18q-27 0 -41 18.5t-10 42.5z " />
<glyph unicode="O&#x323;" horiz-adv-x="950" d="M164 271.5q-6 93.5 18 207.5q25 113 70 207t108.5 159.5t144.5 102.5t175 37q92 0 157.5 -37t100.5 -102.5t41 -159.5t-18 -207q-25 -115 -70 -208t-108.5 -158.5t-144.5 -102.5t-173 -37q-94 0 -159.5 37t-100.5 102.5t-41 159zM247 321.5q1 -77.5 25.5 -138t74.5 -97.5 t134 -37q82 0 148.5 37t116 97.5t83 138t50.5 157.5q16 80 16 157t-24.5 138.5t-75 98t-131.5 36.5q-84 0 -151 -36.5t-117 -98t-83.5 -138.5t-50.5 -157q-16 -80 -15 -157.5zM364 -162q6 29 31 51.5t57 22.5q33 0 49.5 -22.5t10.5 -51.5q-6 -31 -32 -52.5t-58 -21.5 q-33 0 -48.5 21.5t-9.5 52.5z" />
<glyph unicode="o&#x323;" horiz-adv-x="681" d="M106.5 215.5q-4.5 65.5 10.5 132.5q14 68 46 133.5t79 116.5t108 83t135 32t123 -32t75 -83t31 -116.5t-9 -133.5t-47 -133t-80.5 -116.5t-109.5 -83t-136 -31.5t-122 31.5t-73.5 83t-30 117zM178 243.5q2 -53.5 20.5 -96.5t55.5 -70.5t92 -27.5t102.5 27.5t84 70.5 t61 96.5t37.5 104.5q10 49 8 102.5t-20.5 97.5t-54.5 71.5t-91 27.5t-103 -27.5t-85 -70.5t-61.5 -96.5t-35.5 -104.5q-12 -51 -10 -104.5zM237 -162q6 29 31 51.5t57 22.5q33 0 49.5 -22.5t10.5 -51.5q-6 -31 -32 -52.5t-58 -21.5q-33 0 -48.5 21.5t-9.5 52.5z" />
<glyph unicode="O&#x309;" horiz-adv-x="950" d="M164 271.5q-6 93.5 18 207.5q25 113 70 207t108.5 159.5t144.5 102.5t175 37q92 0 157.5 -37t100.5 -102.5t41 -159.5t-18 -207q-25 -115 -70 -208t-108.5 -158.5t-144.5 -102.5t-173 -37q-94 0 -159.5 37t-100.5 102.5t-41 159zM247 321.5q1 -77.5 25.5 -138t74.5 -97.5 t134 -37q82 0 148.5 37t116 97.5t83 138t50.5 157.5q16 80 16 157t-24.5 138.5t-75 98t-131.5 36.5q-84 0 -151 -36.5t-117 -98t-83.5 -138.5t-50.5 -157q-16 -80 -15 -157.5zM614 1287q16 25 54 53t106 28q53 0 84 -31.5t16 -94.5q-6 -35 -28.5 -68t-49 -58.5t-50 -43 t-31.5 -23.5q-2 0 -9.5 5t-15.5 11q-8 8 -20 19q43 29 83.5 66.5t51.5 84.5q8 45 -14.5 56.5t-41.5 11.5q-25 0 -44 -7t-31.5 -16.5t-15.5 -13.5l-9 -12l-16 16q-8 8 -19 17z" />
<glyph unicode="o&#x309;" horiz-adv-x="677" d="M106.5 215.5q-4.5 65.5 10.5 132.5q14 68 46 133.5t79 116.5t108 83t135 32t123 -32t75 -83t31 -116.5t-9 -133.5t-47 -133t-80.5 -116.5t-109.5 -83t-136 -31.5t-122 31.5t-73.5 83t-30 117zM178 243.5q2 -53.5 20.5 -96.5t55.5 -70.5t92 -27.5t102.5 27.5t84 70.5 t61 96.5t37.5 104.5q10 49 8 102.5t-20.5 97.5t-54.5 71.5t-91 27.5t-103 -27.5t-85 -70.5t-61.5 -96.5t-35.5 -104.5q-12 -51 -10 -104.5zM432 1002q16 25 54 53t106 28q53 0 84 -31.5t16 -94.5q-6 -35 -28.5 -68t-49 -58.5t-50 -43t-31.5 -23.5q-2 0 -9.5 5t-15.5 11 q-8 8 -20 19q43 29 83.5 66.5t51.5 84.5q8 45 -14.5 56.5t-41.5 11.5q-25 0 -44 -7t-31.5 -16.5t-15.5 -13.5l-9 -12l-16 16q-8 8 -19 17z" />
<glyph unicode="&#xd4;&#x301;" horiz-adv-x="950" d="M164 271.5q-6 93.5 18 207.5q25 113 70 207t108.5 159.5t144.5 102.5t175 37q92 0 157.5 -37t100.5 -102.5t41 -159.5t-18 -207q-25 -115 -70 -208t-108.5 -158.5t-144.5 -102.5t-173 -37q-94 0 -159.5 37t-100.5 102.5t-41 159zM247 321.5q1 -77.5 25.5 -138t74.5 -97.5 t134 -37q82 0 148.5 37t116 97.5t83 138t50.5 157.5q16 80 16 157t-24.5 138.5t-75 98t-131.5 36.5q-84 0 -151 -36.5t-117 -98t-83.5 -138.5t-50.5 -157q-16 -80 -15 -157.5zM493 1047l211 178h55l136 -178h-87l-92 108l-133 -108h-90zM885 1194l182 213h121l-240 -213h-63 z" />
<glyph unicode="&#xf4;&#x301;" horiz-adv-x="677" d="M106.5 215.5q-4.5 65.5 10.5 132.5q14 68 46 133.5t79 116.5t108 83t135 32t123 -32t75 -83t31 -116.5t-9 -133.5t-47 -133t-80.5 -116.5t-109.5 -83t-136 -31.5t-122 31.5t-73.5 83t-30 117zM178 243.5q2 -53.5 20.5 -96.5t55.5 -70.5t92 -27.5t102.5 27.5t84 70.5 t61 96.5t37.5 104.5q10 49 8 102.5t-20.5 97.5t-54.5 71.5t-91 27.5t-103 -27.5t-85 -70.5t-61.5 -96.5t-35.5 -104.5q-12 -51 -10 -104.5zM295 762l211 178h55l136 -178h-87l-92 108l-133 -108h-90zM664 924l182 213h121l-240 -213h-63z" />
<glyph unicode="&#xd4;&#x300;" horiz-adv-x="942" d="M164 271.5q-6 93.5 18 207.5q25 113 70 207t108.5 159.5t144.5 102.5t175 37q92 0 157.5 -37t100.5 -102.5t41 -159.5t-18 -207q-25 -115 -70 -208t-108.5 -158.5t-144.5 -102.5t-173 -37q-94 0 -159.5 37t-100.5 102.5t-41 159zM247 321.5q1 -77.5 25.5 -138t74.5 -97.5 t134 -37q82 0 148.5 37t116 97.5t83 138t50.5 157.5q16 80 16 157t-24.5 138.5t-75 98t-131.5 36.5q-84 0 -151 -36.5t-117 -98t-83.5 -138.5t-50.5 -157q-16 -80 -15 -157.5zM493 1053l211 178h55l136 -178h-87l-92 108l-133 -108h-90zM793 1405h118l95 -213h-66z" />
<glyph unicode="&#xf4;&#x300;" horiz-adv-x="675" d="M106.5 215.5q-4.5 65.5 10.5 132.5q14 68 46 133.5t79 116.5t108 83t135 32t123 -32t75 -83t31 -116.5t-9 -133.5t-47 -133t-80.5 -116.5t-109.5 -83t-136 -31.5t-122 31.5t-73.5 83t-30 117zM178 243.5q2 -53.5 20.5 -96.5t55.5 -70.5t92 -27.5t102.5 27.5t84 70.5 t61 96.5t37.5 104.5q10 49 8 102.5t-20.5 97.5t-54.5 71.5t-91 27.5t-103 -27.5t-85 -70.5t-61.5 -96.5t-35.5 -104.5q-12 -51 -10 -104.5zM303 793l211 178h55l136 -178h-87l-92 108l-133 -108h-90zM576 1143h118l95 -213h-66z" />
<glyph unicode="&#xd4;&#x309;" horiz-adv-x="946" d="M164 271.5q-6 93.5 18 207.5q25 113 70 207t108.5 159.5t144.5 102.5t175 37q92 0 157.5 -37t100.5 -102.5t41 -159.5t-18 -207q-25 -115 -70 -208t-108.5 -158.5t-144.5 -102.5t-173 -37q-94 0 -159.5 37t-100.5 102.5t-41 159zM247 321.5q1 -77.5 25.5 -138t74.5 -97.5 t134 -37q82 0 148.5 37t116 97.5t83 138t50.5 157.5q16 80 16 157t-24.5 138.5t-75 98t-131.5 36.5q-84 0 -151 -36.5t-117 -98t-83.5 -138.5t-50.5 -157q-16 -80 -15 -157.5zM493 1053l211 178h55l136 -178h-87l-92 108l-133 -108h-90zM839 1426q16 25 54 53t106 28 q53 0 84 -31.5t16 -94.5q-6 -35 -28.5 -68t-49 -58.5t-50 -43t-31.5 -23.5q-2 0 -9.5 5t-15.5 11q-8 8 -20 19q43 29 83.5 66.5t51.5 84.5q8 45 -14.5 56.5t-41.5 11.5q-25 0 -44 -7t-31.5 -16.5t-15.5 -13.5l-9 -12l-16 16q-8 8 -19 17z" />
<glyph unicode="&#xf4;&#x309;" horiz-adv-x="679" d="M106.5 215.5q-4.5 65.5 10.5 132.5q14 68 46 133.5t79 116.5t108 83t135 32t123 -32t75 -83t31 -116.5t-9 -133.5t-47 -133t-80.5 -116.5t-109.5 -83t-136 -31.5t-122 31.5t-73.5 83t-30 117zM178 243.5q2 -53.5 20.5 -96.5t55.5 -70.5t92 -27.5t102.5 27.5t84 70.5 t61 96.5t37.5 104.5q10 49 8 102.5t-20.5 97.5t-54.5 71.5t-91 27.5t-103 -27.5t-85 -70.5t-61.5 -96.5t-35.5 -104.5q-12 -51 -10 -104.5zM303 789l211 178h55l136 -178h-87l-92 108l-133 -108h-90zM633 1147q16 25 54 53t106 28q53 0 84 -31.5t16 -94.5q-6 -35 -28.5 -68 t-49 -58.5t-50 -43t-31.5 -23.5q-2 0 -9.5 5t-15.5 11q-8 8 -20 19q43 29 83.5 66.5t51.5 84.5q8 45 -14.5 56.5t-41.5 11.5q-25 0 -44 -7t-31.5 -16.5t-15.5 -13.5l-9 -12l-16 16q-8 8 -19 17z" />
<glyph unicode="&#xd4;&#x303;" horiz-adv-x="954" d="M164 271.5q-6 93.5 18 207.5q25 113 70 207t108.5 159.5t144.5 102.5t175 37q92 0 157.5 -37t100.5 -102.5t41 -159.5t-18 -207q-25 -115 -70 -208t-108.5 -158.5t-144.5 -102.5t-173 -37q-94 0 -159.5 37t-100.5 102.5t-41 159zM247 321.5q1 -77.5 25.5 -138t74.5 -97.5 t134 -37q82 0 148.5 37t116 97.5t83 138t50.5 157.5q16 80 16 157t-24.5 138.5t-75 98t-131.5 36.5q-84 0 -151 -36.5t-117 -98t-83.5 -138.5t-50.5 -157q-16 -80 -15 -157.5zM487 1055l211 178h55l136 -178h-87l-92 108l-133 -108h-90zM569 1302q10 53 40 93.5t77 40.5 q25 0 44 -9.5t37.5 -21.5t37 -21.5t41.5 -9.5q12 0 28.5 15.5t24.5 50.5h55q-12 -55 -47 -92t-84 -37q-20 0 -40.5 9t-40 20.5t-37 20.5t-29.5 9q-18 0 -30.5 -19.5t-20.5 -48.5h-56z" />
<glyph unicode="&#xf4;&#x303;" horiz-adv-x="679" d="M106.5 215.5q-4.5 65.5 10.5 132.5q14 68 46 133.5t79 116.5t108 83t135 32t123 -32t75 -83t31 -116.5t-9 -133.5t-47 -133t-80.5 -116.5t-109.5 -83t-136 -31.5t-122 31.5t-73.5 83t-30 117zM178 243.5q2 -53.5 20.5 -96.5t55.5 -70.5t92 -27.5t102.5 27.5t84 70.5 t61 96.5t37.5 104.5q10 49 8 102.5t-20.5 97.5t-54.5 71.5t-91 27.5t-103 -27.5t-85 -70.5t-61.5 -96.5t-35.5 -104.5q-12 -51 -10 -104.5zM307 772l211 178h55l136 -178h-87l-92 108l-133 -108h-90zM379 1003q10 53 40 93.5t77 40.5q25 0 44 -9.5t37.5 -21.5t37 -21.5 t41.5 -9.5q12 0 28.5 15.5t24.5 50.5h55q-12 -55 -47 -92t-84 -37q-20 0 -40.5 9t-40 20.5t-37 20.5t-29.5 9q-18 0 -30.5 -19.5t-20.5 -48.5h-56z" />
<glyph unicode="&#xd4;&#x323;" horiz-adv-x="954" d="M164 271.5q-6 93.5 18 207.5q25 113 70 207t108.5 159.5t144.5 102.5t175 37q92 0 157.5 -37t100.5 -102.5t41 -159.5t-18 -207q-25 -115 -70 -208t-108.5 -158.5t-144.5 -102.5t-173 -37q-94 0 -159.5 37t-100.5 102.5t-41 159zM247 321.5q1 -77.5 25.5 -138t74.5 -97.5 t134 -37q82 0 148.5 37t116 97.5t83 138t50.5 157.5q16 80 16 157t-24.5 138.5t-75 98t-131.5 36.5q-84 0 -151 -36.5t-117 -98t-83.5 -138.5t-50.5 -157q-16 -80 -15 -157.5zM362 -162q6 29 31 51.5t57 22.5q33 0 49.5 -22.5t10.5 -51.5q-6 -31 -32 -52.5t-58 -21.5 q-33 0 -48.5 21.5t-9.5 52.5zM496 1063l211 178h55l136 -178h-87l-92 108l-133 -108h-90z" />
<glyph unicode="&#xf4;&#x323;" horiz-adv-x="679" d="M106.5 215.5q-4.5 65.5 10.5 132.5q14 68 46 133.5t79 116.5t108 83t135 32t123 -32t75 -83t31 -116.5t-9 -133.5t-47 -133t-80.5 -116.5t-109.5 -83t-136 -31.5t-122 31.5t-73.5 83t-30 117zM178 243.5q2 -53.5 20.5 -96.5t55.5 -70.5t92 -27.5t102.5 27.5t84 70.5 t61 96.5t37.5 104.5q10 49 8 102.5t-20.5 97.5t-54.5 71.5t-91 27.5t-103 -27.5t-85 -70.5t-61.5 -96.5t-35.5 -104.5q-12 -51 -10 -104.5zM239 -162q6 29 31 51.5t57 22.5q33 0 49.5 -22.5t10.5 -51.5q-6 -31 -32 -52.5t-58 -21.5q-33 0 -48.5 21.5t-9.5 52.5zM305 793 l211 178h55l136 -178h-87l-92 108l-133 -108h-90z" />
<glyph unicode="&#x1a0;&#x301;" horiz-adv-x="946" d="M166 279.5q-6 93.5 18 207.5q25 113 70 207t108.5 160t144.5 102.5t175 36.5q82 0 141.5 -28.5t98.5 -81.5q35 25 66.5 58.5t53.5 84.5l84 -2q-27 -72 -80 -125t-96 -74q55 -131 13 -338q-25 -115 -70 -208t-108.5 -158.5t-144.5 -102t-173 -36.5q-94 0 -159.5 36.5 t-100.5 102t-41 159zM248 329.5q0 -77.5 24.5 -138t74.5 -97.5t134 -37q82 0 148.5 37t117 97.5t84 138.5t50.5 157q16 80 16 157t-24.5 138.5t-74.5 98.5t-132 37q-84 0 -150.5 -37t-117 -98.5t-84 -138.5t-50.5 -157q-16 -80 -16 -157.5zM592 1070l182 213h121l-240 -213 h-63z" />
<glyph unicode="&#x1a1;&#x301;" horiz-adv-x="700" d="M117 215.5q-4 65.5 10 132.5q14 68 46 133.5t79 116.5t108.5 83t135.5 32q59 0 116.5 -30t83.5 -93q35 23 56.5 56.5t44.5 84.5h86q-23 -47 -56.5 -102.5t-109.5 -98.5q6 -25 8 -73.5t-10 -108.5q-14 -68 -47 -133t-80 -116.5t-109.5 -83t-136.5 -31.5t-122 31.5 t-73.5 83t-29.5 117zM188.5 243.5q1.5 -53.5 20 -96.5t55.5 -70.5t92 -27.5t102.5 27.5t84.5 70.5t61.5 96.5t36.5 104.5q10 49 8 102.5t-20.5 97.5t-54 71.5t-91.5 27.5q-55 0 -103 -27.5t-85 -70.5t-61.5 -96.5t-34.5 -104.5q-12 -51 -10.5 -104.5zM457 791l182 213h121 l-240 -213h-63z" />
<glyph unicode="&#x1a0;&#x300;" horiz-adv-x="950" d="M166 279.5q-6 93.5 18 207.5q25 113 70 207t108.5 160t144.5 102.5t175 36.5q82 0 141.5 -28.5t98.5 -81.5q35 25 66.5 58.5t53.5 84.5l84 -2q-27 -72 -80 -125t-96 -74q55 -131 13 -338q-25 -115 -70 -208t-108.5 -158.5t-144.5 -102t-173 -36.5q-94 0 -159.5 36.5 t-100.5 102t-41 159zM248 329.5q0 -77.5 24.5 -138t74.5 -97.5t134 -37q82 0 148.5 37t117 97.5t84 138.5t50.5 157q16 80 16 157t-24.5 138.5t-74.5 98.5t-132 37q-84 0 -150.5 -37t-117 -98.5t-84 -138.5t-50.5 -157q-16 -80 -16 -157.5zM566 1283h118l95 -213h-66z" />
<glyph unicode="&#x1a1;&#x300;" horiz-adv-x="700" d="M117 215.5q-4 65.5 10 132.5q14 68 46 133.5t79 116.5t108.5 83t135.5 32q59 0 116.5 -30t83.5 -93q35 23 56.5 56.5t44.5 84.5h86q-23 -47 -56.5 -102.5t-109.5 -98.5q6 -25 8 -73.5t-10 -108.5q-14 -68 -47 -133t-80 -116.5t-109.5 -83t-136.5 -31.5t-122 31.5 t-73.5 83t-29.5 117zM188.5 243.5q1.5 -53.5 20 -96.5t55.5 -70.5t92 -27.5t102.5 27.5t84.5 70.5t61.5 96.5t36.5 104.5q10 49 8 102.5t-20.5 97.5t-54 71.5t-91.5 27.5q-55 0 -103 -27.5t-85 -70.5t-61.5 -96.5t-34.5 -104.5q-12 -51 -10.5 -104.5zM347 1004h118l95 -213 h-66z" />
<glyph unicode="&#x1a0;&#x309;" horiz-adv-x="950" d="M166 279.5q-6 93.5 18 207.5q25 113 70 207t108.5 160t144.5 102.5t175 36.5q82 0 141.5 -28.5t98.5 -81.5q35 25 66.5 58.5t53.5 84.5l84 -2q-27 -72 -80 -125t-96 -74q55 -131 13 -338q-25 -115 -70 -208t-108.5 -158.5t-144.5 -102t-173 -36.5q-94 0 -159.5 36.5 t-100.5 102t-41 159zM248 329.5q0 -77.5 24.5 -138t74.5 -97.5t134 -37q82 0 148.5 37t117 97.5t84 138.5t50.5 157q16 80 16 157t-24.5 138.5t-74.5 98.5t-132 37q-84 0 -150.5 -37t-117 -98.5t-84 -138.5t-50.5 -157q-16 -80 -16 -157.5zM606 1297q16 25 54 53t106 28 q53 0 84 -31.5t16 -94.5q-6 -35 -28.5 -68t-49 -58.5t-50 -43t-31.5 -23.5q-2 0 -9.5 5t-15.5 11q-8 8 -20 19q43 29 83.5 66.5t51.5 84.5q8 45 -14.5 56.5t-41.5 11.5q-25 0 -44 -7t-31.5 -16.5t-15.5 -13.5l-9 -12l-16 16q-8 8 -19 17z" />
<glyph unicode="&#x1a1;&#x309;" horiz-adv-x="696" d="M117 215.5q-4 65.5 10 132.5q14 68 46 133.5t79 116.5t108.5 83t135.5 32q59 0 116.5 -30t83.5 -93q35 23 56.5 56.5t44.5 84.5h86q-23 -47 -56.5 -102.5t-109.5 -98.5q6 -25 8 -73.5t-10 -108.5q-14 -68 -47 -133t-80 -116.5t-109.5 -83t-136.5 -31.5t-122 31.5 t-73.5 83t-29.5 117zM188.5 243.5q1.5 -53.5 20 -96.5t55.5 -70.5t92 -27.5t102.5 27.5t84.5 70.5t61.5 96.5t36.5 104.5q10 49 8 102.5t-20.5 97.5t-54 71.5t-91.5 27.5q-55 0 -103 -27.5t-85 -70.5t-61.5 -96.5t-34.5 -104.5q-12 -51 -10.5 -104.5zM424 1016q16 25 54 53 t106 28q53 0 84 -31.5t16 -94.5q-6 -35 -28.5 -68t-49 -58.5t-50 -43t-31.5 -23.5q-2 0 -9.5 5t-15.5 11q-8 8 -20 19q43 29 83.5 66.5t51.5 84.5q8 45 -14.5 56.5t-41.5 11.5q-25 0 -44 -7t-31.5 -16.5t-15.5 -13.5l-9 -12l-16 16q-8 8 -19 17z" />
<glyph unicode="&#x1a0;&#x303;" horiz-adv-x="950" d="M166 279.5q-6 93.5 18 207.5q25 113 70 207t108.5 160t144.5 102.5t175 36.5q82 0 141.5 -28.5t98.5 -81.5q35 25 66.5 58.5t53.5 84.5l84 -2q-27 -72 -80 -125t-96 -74q55 -131 13 -338q-25 -115 -70 -208t-108.5 -158.5t-144.5 -102t-173 -36.5q-94 0 -159.5 36.5 t-100.5 102t-41 159zM248 329.5q0 -77.5 24.5 -138t74.5 -97.5t134 -37q82 0 148.5 37t117 97.5t84 138.5t50.5 157q16 80 16 157t-24.5 138.5t-74.5 98.5t-132 37q-84 0 -150.5 -37t-117 -98.5t-84 -138.5t-50.5 -157q-16 -80 -16 -157.5zM512 1108q10 53 40 93.5t77 40.5 q25 0 44 -9.5t37.5 -21.5t37 -21.5t41.5 -9.5q12 0 28.5 15.5t24.5 50.5h55q-12 -55 -47 -92t-84 -37q-20 0 -40.5 9t-40 20.5t-37 20.5t-29.5 9q-18 0 -30.5 -19.5t-20.5 -48.5h-56z" />
<glyph unicode="&#x1a1;&#x303;" horiz-adv-x="700" d="M117 215.5q-4 65.5 10 132.5q14 68 46 133.5t79 116.5t108.5 83t135.5 32q59 0 116.5 -30t83.5 -93q35 23 56.5 56.5t44.5 84.5h86q-23 -47 -56.5 -102.5t-109.5 -98.5q6 -25 8 -73.5t-10 -108.5q-14 -68 -47 -133t-80 -116.5t-109.5 -83t-136.5 -31.5t-122 31.5 t-73.5 83t-29.5 117zM188.5 243.5q1.5 -53.5 20 -96.5t55.5 -70.5t92 -27.5t102.5 27.5t84.5 70.5t61.5 96.5t36.5 104.5q10 49 8 102.5t-20.5 97.5t-54 71.5t-91.5 27.5q-55 0 -103 -27.5t-85 -70.5t-61.5 -96.5t-34.5 -104.5q-12 -51 -10.5 -104.5zM329 802q10 53 40 93.5 t77 40.5q25 0 44 -9.5t37.5 -21.5t37 -21.5t41.5 -9.5q12 0 28.5 15.5t24.5 50.5h55q-12 -55 -47 -92t-84 -37q-20 0 -40.5 9t-40 20.5t-37 20.5t-29.5 9q-18 0 -30.5 -19.5t-20.5 -48.5h-56z" />
<glyph unicode="&#x1a0;&#x323;" horiz-adv-x="946" d="M166 279.5q-6 93.5 18 207.5q25 113 70 207t108.5 160t144.5 102.5t175 36.5q82 0 141.5 -28.5t98.5 -81.5q35 25 66.5 58.5t53.5 84.5l84 -2q-27 -72 -80 -125t-96 -74q55 -131 13 -338q-25 -115 -70 -208t-108.5 -158.5t-144.5 -102t-173 -36.5q-94 0 -159.5 36.5 t-100.5 102t-41 159zM248 329.5q0 -77.5 24.5 -138t74.5 -97.5t134 -37q82 0 148.5 37t117 97.5t84 138.5t50.5 157q16 80 16 157t-24.5 138.5t-74.5 98.5t-132 37q-84 0 -150.5 -37t-117 -98.5t-84 -138.5t-50.5 -157q-16 -80 -16 -157.5zM362 -162q6 29 31 51.5t57 22.5 q33 0 49.5 -22.5t10.5 -51.5q-6 -31 -32 -52.5t-58 -21.5q-33 0 -48.5 21.5t-9.5 52.5z" />
<glyph unicode="&#x1a1;&#x323;" horiz-adv-x="704" d="M117 215.5q-4 65.5 10 132.5q14 68 46 133.5t79 116.5t108.5 83t135.5 32q59 0 116.5 -30t83.5 -93q35 23 56.5 56.5t44.5 84.5h86q-23 -47 -56.5 -102.5t-109.5 -98.5q6 -25 8 -73.5t-10 -108.5q-14 -68 -47 -133t-80 -116.5t-109.5 -83t-136.5 -31.5t-122 31.5 t-73.5 83t-29.5 117zM188.5 243.5q1.5 -53.5 20 -96.5t55.5 -70.5t92 -27.5t102.5 27.5t84.5 70.5t61.5 96.5t36.5 104.5q10 49 8 102.5t-20.5 97.5t-54 71.5t-91.5 27.5q-55 0 -103 -27.5t-85 -70.5t-61.5 -96.5t-34.5 -104.5q-12 -51 -10.5 -104.5zM239 -162q6 29 31 51.5 t57 22.5q33 0 49.5 -22.5t10.5 -51.5q-6 -31 -32 -52.5t-58 -21.5q-33 0 -48.5 21.5t-9.5 52.5z" />
<glyph unicode="U&#x323;" horiz-adv-x="940" d="M176 297l143 674h78l-141 -672q-14 -66 -2 -112t43 -74.5t77 -42t101 -13.5q53 0 105.5 13.5t95.5 42t75.5 74.5t47.5 112l141 672h76l-144 -674q-33 -158 -143.5 -239t-269.5 -81q-160 0 -238 81t-45 239zM356 -162q6 29 31 51.5t57 22.5q33 0 49.5 -22.5t10.5 -51.5 q-6 -31 -32 -52.5t-58 -21.5q-33 0 -48.5 21.5t-9.5 52.5z" />
<glyph unicode="u&#x323;" horiz-adv-x="722" d="M136 169q-1 44 5 75l99 469h73l-98 -471q-20 -90 24 -141.5t121 -51.5q45 0 86 20.5t74 54.5t55.5 77t32.5 88l90 424h76l-119 -559q-14 -68 -9 -98.5t9 -53.5l-73 -27q-4 12 -13.5 40t2.5 87q-45 -63 -111.5 -91.5t-127.5 -28.5q-76 0 -117 29.5t-59.5 71.5t-19.5 86z M252 -162q6 29 31 51.5t57 22.5q33 0 49.5 -22.5t10.5 -51.5q-6 -31 -32 -52.5t-58 -21.5q-33 0 -48.5 21.5t-9.5 52.5z" />
<glyph unicode="U&#x309;" horiz-adv-x="940" d="M176 297l143 674h78l-141 -672q-14 -66 -2 -112t43 -74.5t77 -42t101 -13.5q53 0 105.5 13.5t95.5 42t75.5 74.5t47.5 112l141 672h76l-144 -674q-33 -158 -143.5 -239t-269.5 -81q-160 0 -238 81t-45 239zM604 1268q16 25 54 53t106 28q53 0 84 -31.5t16 -94.5 q-6 -35 -28.5 -68t-49 -58.5t-50 -43t-31.5 -23.5q-2 0 -9.5 5t-15.5 11q-8 8 -20 19q43 29 83.5 66.5t51.5 84.5q8 45 -14.5 56.5t-41.5 11.5q-25 0 -44 -7t-31.5 -16.5t-15.5 -13.5l-9 -12l-16 16q-8 8 -19 17z" />
<glyph unicode="u&#x309;" horiz-adv-x="724" d="M136 169q-1 44 5 75l99 469h73l-98 -471q-20 -90 24 -141.5t121 -51.5q45 0 86 20.5t74 54.5t55.5 77t32.5 88l90 424h76l-119 -559q-14 -68 -9 -98.5t9 -53.5l-73 -27q-4 12 -13.5 40t2.5 87q-45 -63 -111.5 -91.5t-127.5 -28.5q-76 0 -117 29.5t-59.5 71.5t-19.5 86z M440 1026q16 25 54 53t106 28q53 0 84 -31.5t16 -94.5q-6 -35 -28.5 -68t-49 -58.5t-50 -43t-31.5 -23.5q-2 0 -9.5 5t-15.5 11q-8 8 -20 19q43 29 83.5 66.5t51.5 84.5q8 45 -14.5 56.5t-41.5 11.5q-25 0 -44 -7t-31.5 -16.5t-15.5 -13.5l-9 -12l-16 16q-8 8 -19 17z" />
<glyph unicode="&#x1af;&#x301;" horiz-adv-x="933" d="M181.5 195.5q-11.5 66.5 4.5 144.5l133 629h78l-133 -627q-14 -66 -3 -119t42 -90t76 -56.5t100 -19.5q53 0 106.5 19.5t97.5 56.5t77 90t47 119l133 627h76l-27 -129q43 16 79 55t52 111h74q-6 -31 -22.5 -69t-43 -73t-65.5 -62.5t-90 -37.5l-90 -424 q-16 -78 -54 -144.5t-93.5 -114.5t-124 -76t-148.5 -28t-139.5 28t-95 76t-47 114.5zM617 1070l182 213h121l-240 -213h-63z" />
<glyph unicode="&#x1b0;&#x301;" horiz-adv-x="731" d="M142 169q-1 44 5 75l99 469h73l-98 -471q-20 -90 24 -141.5t122 -51.5q45 0 86 20.5t73.5 54.5t55 77t32.5 88l91 422h75l-26 -129q43 16 78.5 55t52.5 111h73q-6 -31 -23 -69t-46 -73t-67 -63.5t-85 -36.5l-75 -354v2q-14 -68 -13.5 -98.5t4.5 -53.5l-73 -27 q-4 12 -9.5 40t7.5 87q-45 -63 -112 -91.5t-128 -28.5q-76 0 -117 29.5t-59.5 71.5t-19.5 86zM459 791l182 213h121l-240 -213h-63z" />
<glyph unicode="&#x1af;&#x300;" horiz-adv-x="937" d="M181.5 195.5q-11.5 66.5 4.5 144.5l133 629h78l-133 -627q-14 -66 -3 -119t42 -90t76 -56.5t100 -19.5q53 0 106.5 19.5t97.5 56.5t77 90t47 119l133 627h76l-27 -129q43 16 79 55t52 111h74q-6 -31 -22.5 -69t-43 -73t-65.5 -62.5t-90 -37.5l-90 -424 q-16 -78 -54 -144.5t-93.5 -114.5t-124 -76t-148.5 -28t-139.5 28t-95 76t-47 114.5zM566 1283h118l95 -213h-66z" />
<glyph unicode="&#x1b0;&#x300;" horiz-adv-x="727" d="M142 169q-1 44 5 75l99 469h73l-98 -471q-20 -90 24 -141.5t122 -51.5q45 0 86 20.5t73.5 54.5t55 77t32.5 88l91 422h75l-26 -129q43 16 78.5 55t52.5 111h73q-6 -31 -23 -69t-46 -73t-67 -63.5t-85 -36.5l-75 -354v2q-14 -68 -13.5 -98.5t4.5 -53.5l-73 -27 q-4 12 -9.5 40t7.5 87q-45 -63 -112 -91.5t-128 -28.5q-76 0 -117 29.5t-59.5 71.5t-19.5 86zM390 1004h118l95 -213h-66z" />
<glyph unicode="&#x1af;&#x309;" horiz-adv-x="933" d="M181.5 195.5q-11.5 66.5 4.5 144.5l133 629h78l-133 -627q-14 -66 -3 -119t42 -90t76 -56.5t100 -19.5q53 0 106.5 19.5t97.5 56.5t77 90t47 119l133 627h76l-27 -129q43 16 79 55t52 111h74q-6 -31 -22.5 -69t-43 -73t-65.5 -62.5t-90 -37.5l-90 -424 q-16 -78 -54 -144.5t-93.5 -114.5t-124 -76t-148.5 -28t-139.5 28t-95 76t-47 114.5zM604 1305q16 25 54 53t106 28q53 0 84 -31.5t16 -94.5q-6 -35 -28.5 -68t-49 -58.5t-50 -43t-31.5 -23.5q-2 0 -9.5 5t-15.5 11q-8 8 -20 19q43 29 83.5 66.5t51.5 84.5q8 45 -14.5 56.5 t-41.5 11.5q-25 0 -44 -7t-31.5 -16.5t-15.5 -13.5l-9 -12l-16 16q-8 8 -19 17z" />
<glyph unicode="&#x1b0;&#x309;" horiz-adv-x="731" d="M142 169q-1 44 5 75l99 469h73l-98 -471q-20 -90 24 -141.5t122 -51.5q45 0 86 20.5t73.5 54.5t55 77t32.5 88l91 422h75l-26 -129q43 16 78.5 55t52.5 111h73q-6 -31 -23 -69t-46 -73t-67 -63.5t-85 -36.5l-75 -354v2q-14 -68 -13.5 -98.5t4.5 -53.5l-73 -27 q-4 12 -9.5 40t7.5 87q-45 -63 -112 -91.5t-128 -28.5q-76 0 -117 29.5t-59.5 71.5t-19.5 86zM444 1029q16 25 54 53t106 28q53 0 84 -31.5t16 -94.5q-6 -35 -28.5 -68t-49 -58.5t-50 -43t-31.5 -23.5q-2 0 -9.5 5t-15.5 11q-8 8 -20 19q43 29 83.5 66.5t51.5 84.5 q8 45 -14.5 56.5t-41.5 11.5q-25 0 -44 -7t-31.5 -16.5t-15.5 -13.5l-9 -12l-16 16q-8 8 -19 17z" />
<glyph unicode="&#x1af;&#x303;" horiz-adv-x="931" d="M181.5 195.5q-11.5 66.5 4.5 144.5l133 629h78l-133 -627q-14 -66 -3 -119t42 -90t76 -56.5t100 -19.5q53 0 106.5 19.5t97.5 56.5t77 90t47 119l133 627h76l-27 -129q43 16 79 55t52 111h74q-6 -31 -22.5 -69t-43 -73t-65.5 -62.5t-90 -37.5l-90 -424 q-16 -78 -54 -144.5t-93.5 -114.5t-124 -76t-148.5 -28t-139.5 28t-95 76t-47 114.5zM536 1067q10 53 40 93.5t77 40.5q25 0 44 -9.5t37.5 -21.5t37 -21.5t41.5 -9.5q12 0 28.5 15.5t24.5 50.5h55q-12 -55 -47 -92t-84 -37q-20 0 -40.5 9t-40 20.5t-37 20.5t-29.5 9 q-18 0 -30.5 -19.5t-20.5 -48.5h-56z" />
<glyph unicode="&#x1b0;&#x303;" horiz-adv-x="727" d="M142 169q-1 44 5 75l99 469h73l-98 -471q-20 -90 24 -141.5t122 -51.5q45 0 86 20.5t73.5 54.5t55 77t32.5 88l91 422h75l-26 -129q43 16 78.5 55t52.5 111h73q-6 -31 -23 -69t-46 -73t-67 -63.5t-85 -36.5l-75 -354v2q-14 -68 -13.5 -98.5t4.5 -53.5l-73 -27 q-4 12 -9.5 40t7.5 87q-45 -63 -112 -91.5t-128 -28.5q-76 0 -117 29.5t-59.5 71.5t-19.5 86zM352 829q10 53 40 93.5t77 40.5q25 0 44 -9.5t37.5 -21.5t37 -21.5t41.5 -9.5q12 0 28.5 15.5t24.5 50.5h55q-12 -55 -47 -92t-84 -37q-20 0 -40.5 9t-40 20.5t-37 20.5t-29.5 9 q-18 0 -30.5 -19.5t-20.5 -48.5h-56z" />
<glyph unicode="&#x1af;&#x323;" horiz-adv-x="927" d="M181.5 195.5q-11.5 66.5 4.5 144.5l133 629h78l-133 -627q-14 -66 -3 -119t42 -90t76 -56.5t100 -19.5q53 0 106.5 19.5t97.5 56.5t77 90t47 119l133 627h76l-27 -129q43 16 79 55t52 111h74q-6 -31 -22.5 -69t-43 -73t-65.5 -62.5t-90 -37.5l-90 -424 q-16 -78 -54 -144.5t-93.5 -114.5t-124 -76t-148.5 -28t-139.5 28t-95 76t-47 114.5zM362 -162q6 29 31 51.5t57 22.5q33 0 49.5 -22.5t10.5 -51.5q-6 -31 -32 -52.5t-58 -21.5q-33 0 -48.5 21.5t-9.5 52.5z" />
<glyph unicode="&#x1b0;&#x323;" horiz-adv-x="722" d="M142 169q-1 44 5 75l99 469h73l-98 -471q-20 -90 24 -141.5t122 -51.5q45 0 86 20.5t73.5 54.5t55 77t32.5 88l91 422h75l-26 -129q43 16 78.5 55t52.5 111h73q-6 -31 -23 -69t-46 -73t-67 -63.5t-85 -36.5l-75 -354v2q-14 -68 -13.5 -98.5t4.5 -53.5l-73 -27 q-4 12 -9.5 40t7.5 87q-45 -63 -112 -91.5t-128 -28.5q-76 0 -117 29.5t-59.5 71.5t-19.5 86zM246 -162q6 29 31 51.5t57 22.5q33 0 49.5 -22.5t10.5 -51.5q-6 -31 -32 -52.5t-58 -21.5q-33 0 -48.5 21.5t-9.5 52.5z" />
<glyph unicode="Y&#x300;" horiz-adv-x="733" d="M219 973l72 26l174 -512l395 510l60 -26q-88 -113 -170 -217q-35 -45 -72 -92.5t-72 -92.5t-66.5 -86t-54.5 -71l-86 -412h-71l86 412v2zM431 1283h118l95 -213h-66z" />
<glyph unicode="y&#x300;" horiz-adv-x="684" d="M35 -256q59 23 96 40t66 45t55.5 72t63.5 119l-138 680l82 33l117 -622l365 622l59 -33l-21 -36q-22 -37 -57 -96.5t-80 -134.5t-91 -153.5t-91 -154.5t-81 -135.5t-57.5 -95t-23.5 -37.5q-23 -37 -48 -65t-60 -50q-55 -33 -95 -45t-53 -19zM367 1004h118l95 -213h-66z " />
<glyph unicode="Y&#x323;" horiz-adv-x="741" d="M219 973l72 26l174 -512l395 510l60 -26q-88 -113 -170 -217q-35 -45 -72 -92.5t-72 -92.5t-66.5 -86t-54.5 -71l-86 -412h-71l86 412v2zM258 -162q6 29 31 51.5t57 22.5q33 0 49.5 -22.5t10.5 -51.5q-6 -31 -32 -52.5t-58 -21.5q-33 0 -48.5 21.5t-9.5 52.5z" />
<glyph unicode="y&#x323;" horiz-adv-x="679" d="M35 -256q59 23 96 40t66 45t55.5 72t63.5 119l-138 680l82 33l117 -622l365 622l59 -33l-21 -36q-22 -37 -57 -96.5t-80 -134.5t-91 -153.5t-91 -154.5t-81 -135.5t-57.5 -95t-23.5 -37.5q-23 -37 -48 -65t-60 -50q-55 -33 -95 -45t-53 -19zM297 -242q6 29 31 51.5 t57 22.5q33 0 49.5 -22.5t10.5 -51.5q-6 -31 -32 -52.5t-58 -21.5q-33 0 -48.5 21.5t-9.5 52.5z" />
<glyph unicode="Y&#x309;" horiz-adv-x="737" d="M219 973l72 26l174 -512l395 510l60 -26q-88 -113 -170 -217q-35 -45 -72 -92.5t-72 -92.5t-66.5 -86t-54.5 -71l-86 -412h-71l86 412v2zM497 1280q16 25 54 53t106 28q53 0 84 -31.5t16 -94.5q-6 -35 -28.5 -68t-49 -58.5t-50 -43t-31.5 -23.5q-2 0 -9.5 5t-15.5 11 q-8 8 -20 19q43 29 83.5 66.5t51.5 84.5q8 45 -14.5 56.5t-41.5 11.5q-25 0 -44 -7t-31.5 -16.5t-15.5 -13.5l-9 -12l-16 16q-8 8 -19 17z" />
<glyph unicode="y&#x309;" horiz-adv-x="688" d="M39 -256q59 23 96 40t66 45t55.5 72t63.5 119l-138 680l82 33l117 -622l365 622l59 -33l-21 -36q-22 -37 -57 -96.5t-80 -134.5t-91 -153.5t-91 -154.5t-81 -135.5t-57.5 -95t-23.5 -37.5q-23 -37 -48 -65t-60 -50q-55 -33 -95 -45t-53 -19zM436 1018q16 25 54 53t106 28 q53 0 84 -31.5t16 -94.5q-6 -35 -28.5 -68t-49 -58.5t-50 -43t-31.5 -23.5q-2 0 -9.5 5t-15.5 11q-8 8 -20 19q43 29 83.5 66.5t51.5 84.5q8 45 -14.5 56.5t-41.5 11.5q-25 0 -44 -7t-31.5 -16.5t-15.5 -13.5l-9 -12l-16 16q-8 8 -19 17z" />
<glyph unicode="Y&#x303;" horiz-adv-x="733" d="M219 973l72 26l174 -512l395 510l60 -26q-88 -113 -170 -217q-35 -45 -72 -92.5t-72 -92.5t-66.5 -86t-54.5 -71l-86 -412h-71l86 412v2zM411 1058q10 53 40 93.5t77 40.5q25 0 44 -9.5t37.5 -21.5t37 -21.5t41.5 -9.5q12 0 28.5 15.5t24.5 50.5h55q-12 -55 -47 -92 t-84 -37q-20 0 -40.5 9t-40 20.5t-37 20.5t-29.5 9q-18 0 -30.5 -19.5t-20.5 -48.5h-56z" />
<glyph unicode="y&#x303;" horiz-adv-x="677" d="M33 -256q59 23 96 40t66 45t55.5 72t63.5 119l-138 680l82 33l117 -622l365 622l59 -33l-21 -36q-22 -37 -57 -96.5t-80 -134.5t-91 -153.5t-91 -154.5t-81 -135.5t-57.5 -95t-23.5 -37.5q-23 -37 -48 -65t-60 -50q-55 -33 -95 -45t-53 -19zM344 817q10 53 40 93.5 t77 40.5q25 0 44 -9.5t37.5 -21.5t37 -21.5t41.5 -9.5q12 0 28.5 15.5t24.5 50.5h55q-12 -55 -47 -92t-84 -37q-20 0 -40.5 9t-40 20.5t-37 20.5t-29.5 9q-18 0 -30.5 -19.5t-20.5 -48.5h-56z" />
<glyph unicode="&#xe4f;&#x22;" horiz-adv-x="933" d="M186 340q31 143 154 244.5t266 101.5q141 0 221.5 -102.5t51.5 -243.5q-31 -143 -154 -244.5t-266 -101.5t-223 101.5t-50 244.5zM258 340q-25 -115 38.5 -196t176.5 -81q115 0 212 82t122 195q25 115 -38.5 194.5t-178.5 79.5q-113 0 -210 -79.5t-122 -194.5zM330 340 q16 84 89 143.5t156 59.5q84 0 130 -59.5t30 -143.5q-18 -84 -90 -144.5t-156 -60.5t-131 60.5t-28 144.5zM401 340q-12 -55 18 -93t85 -38t101.5 38t58.5 93q10 53 -20 92t-85 39t-101 -39t-57 -92zM506 772l49 330h97l-90 -330h-56zM684 772l50 330h96l-90 -330h-56z" />
<glyph unicode="&#xe24;&#xe32;" horiz-adv-x="1341" d="M184 582q6 12 33 52t79 85t129 80t183 37q59 0 103.5 -11.5t76 -30t52 -41.5t34.5 -48q47 59 111 95t143 36q51 0 90 -11.5t67 -29t44.5 -39t22.5 -41.5q4 4 15 2t24 -19q14 -23 7 -33t-24 -24q-16 -12 -22 -43l-234 -1096h-80l236 1110q4 12 7 22.5t13 20.5 q-6 14 -18 33t-33.5 35t-53.5 27.5t-75 11.5q-63 0 -110.5 -28.5t-81.5 -80.5q-6 -10 -23 -24q-18 -14 -25 -43l-229 -1084h-80l234 1096q2 25 18 43q-4 8 -17.5 29.5t-38 42t-65.5 37t-100 16.5q-70 0 -122 -17.5t-90 -42t-62.5 -51t-36.5 -45.5l69 -51q16 16 46 35.5 t55 23.5q2 0 12 -20t16 -35q-68 -29 -96.5 -70.5t-34.5 -72.5l-37 -172q31 12 56 12q57 0 87.5 -40t18.5 -95q-10 -55 -58 -95t-106 -40q-55 0 -84.5 40t-19.5 95l63 297q6 25 17.5 46t17.5 30zM276 125q-4 -29 11.5 -47.5t42.5 -18.5q29 0 52.5 18.5t27.5 47.5 q6 29 -9.5 47t-44.5 18q-27 0 -50 -18t-30 -47z" />
<glyph unicode="&#xe26;&#xe32;" horiz-adv-x="1370" d="M57 127q10 55 57.5 94t104.5 39q12 0 22.5 -2t22.5 -6l35 170q6 25 17.5 46t17.5 30l-123 84q6 12 32.5 52t79 85t129 80t183.5 37q119 0 178 -42.5t86 -91.5q47 61 111.5 97.5t146.5 36.5q51 0 90 -11.5t66.5 -29t44 -39t22.5 -41.5q4 4 15.5 2t23.5 -19q14 -23 7 -33 t-23 -24q-16 -12 -23 -43l-233 -1096h-80l236 1110q4 12 7 22.5t13 20.5q-6 14 -18.5 33t-34 35t-53 27.5t-74.5 11.5q-63 0 -111.5 -30t-83.5 -81q-4 -8 -22 -22t-25 -43l-229 -1084h-80l233 1096q2 25 19 43q-4 8 -17.5 29.5t-38 42t-65.5 37t-100 16.5q-70 0 -122 -17.5 t-90 -42t-62.5 -51t-37.5 -45.5l70 -51q16 16 46 35.5t54 23.5q2 0 12.5 -20t16.5 -35q-68 -29 -96.5 -70.5t-34.5 -72.5l-53 -248q4 -10 3 -22.5t-3 -22.5q-12 -57 -59.5 -96t-102.5 -39q-57 0 -88 39t-19 96zM125 127q-6 -29 9 -48.5t44 -19.5q27 0 50.5 19.5t29.5 48.5 q4 27 -11.5 46.5t-41.5 19.5q-29 0 -52.5 -19.5t-27.5 -46.5z" />
<glyph unicode="fi" horiz-adv-x="573" d="M20 -213q41 39 70 96.5t43 122.5l137 645h-123l29 62h107l26 123q14 63 44 103t70 60.5t88 20.5t97 -14l-24 -66q-41 8 -75 9t-59.5 -12t-43 -44t-29.5 -84l-21 -96h265l-150 -713h-74l138 651h-191l-137 -643q-12 -55 -32.5 -99t-41.5 -77q-23 -37 -49 -65z" />
<glyph unicode="fl" horiz-adv-x="614" d="M20 -213q41 39 70 96.5t43 122.5l137 645h-123l29 62h107l26 123q14 63 55.5 108t98.5 65.5t123.5 16.5t132.5 -39l-209 -987h-74l199 942q-90 25 -163 -4t-95 -129l-21 -96h160l-29 -62h-143l-137 -643q-12 -55 -32.5 -99t-41.5 -77q-23 -37 -49 -65z" />
<glyph unicode="AS&#x2e;Aksaramatee&#x28;c&#x29;" horiz-adv-x="1927" d="M289 416v53h1691v-53h-1691zM305 254q0 41 25.5 64.5t77.5 23.5q41 0 61 -14.5t25 -46.5h-54q-2 14 -11 21t-26 7q-23 0 -35 -14t-12 -41t12.5 -39t32.5 -12q16 0 27.5 6t11.5 18h54q-2 -31 -23.5 -46t-67.5 -15q-47 0 -72.5 21.5t-25.5 66.5zM315 526h31l10 160 q2 14 12.5 19.5t22.5 5.5t22.5 -5.5t12.5 -19.5l4 -43h-39q10 0 10 12.5t-14 16.5q-20 2 -25 -23q-4 -18 8.5 -27.5t28.5 -9.5h33l4 -86h31l-12 158q-2 29 -20.5 42t-43.5 13q-27 0 -45 -13t-22 -42zM469 827h109l40 578q10 49 48.5 69.5t83.5 20.5q41 0 77.5 -20.5 t42.5 -69.5l15 -158h-135q16 0 25 14.5t7 33t-13 35t-36 20.5q-39 10 -62.5 -13.5t-27.5 -62.5q-10 -68 30 -100.5t103 -32.5h117l16 -314h111l-39 568q-2 51 -22.5 88t-52.5 61.5t-72.5 36.5t-83.5 12q-94 0 -161 -48t-79 -150zM498 555q0 -35 30 -31q25 0 21 23 q-4 10 -12.5 11t-12.5 -3l-2 23l19 18q29 -12 39 -51l6 -19h28l-10 23q-8 29 -19.5 44t-23.5 23l55 54h-36l-58 -54l2 103h-26v-164zM506 252q0 41 27.5 63.5t76.5 22.5t76 -22.5t27 -63.5q-2 -41 -29 -63.5t-78 -22.5q-49 0 -74.5 23.5t-25.5 62.5zM545 0l43 90h28l41 -90 h-26l-8 18h-48l-4 -18h-26zM555 252q0 -27 13.5 -39t39.5 -12q23 0 39.5 12t14.5 37q2 27 -14.5 42t-39.5 15q-27 0 -40 -15t-13 -40zM586 35h30l-14 37zM632 564.5q-3 -9.5 7 -19.5q6 -12 24.5 -15.5t28.5 -3.5q23 0 37 10.5t14 28.5q0 25 -15 32t-30 11q-35 10 -34 23 q0 14 18 16q12 4 23.5 0t15.5 -20l18 8q2 10 -9 22.5t-40 12.5q-23 0 -39 -11.5t-14 -27.5q0 -25 20.5 -33t30.5 -12q29 -8 29 -21q0 -8 -7.5 -11t-15.5 -3q-10 -2 -17 0t-11 4q4 10 -3.5 19.5t-21.5 3.5q-6 -4 -9 -13.5zM659 0v90h23v-70h43v-20h-66zM727 0v90h25v-70h45 v-20h-70zM735 174v164h86q76 0 76 -55q0 -51 -82 -52h-35v-57h-45zM770 571q-2 -25 15.5 -38t41.5 -11q25 0 35 19v-15h25v97q0 20 -16.5 34.5t-41.5 14.5q-31 0 -51 -15q-18 -14 -8 -28q6 -10 18.5 -5t8.5 17q8 6 32 6q10 0 21.5 -7t11.5 -17v-50q0 -10 -9 -19t-26 -9 q-16 0 -23 8t-7 18q0 16 11 21.5t21 5.5t23 -6v20q-29 16 -55.5 2t-26.5 -43zM778 260h31q20 0 29.5 6t9.5 17q0 12 -8.5 16t-28.5 4h-31zM848 0v90h45q33 0 33 -22q0 -23 -23 -23q18 -2 19.5 -18.5t7.5 -26.5h-25q-2 2 -4 23q0 8 -3 10t-13 2h-15v-35h-22zM870 55h15 q16 0 16 8q0 10 -16 11h-15v-19zM891 338h53l47 -70l47 70h52l-80 -109l2 -55h-47v57zM918 526h26v84q0 10 7 22.5t26 10.5q-4 -10 8.5 -15t20.5 5q4 8 1 18.5t-14 14.5q-29 10 -51 -13l2 15h-26v-142zM940 0v90h21v-90h-21zM973 43q0 25 13 37t38 12q18 0 29.5 -9t13.5 -24 h-25q0 8 -5 11.5t-13 3.5q-14 0 -20.5 -7.5t-6.5 -21.5q0 -12 6.5 -20.5t20.5 -8.5q6 0 10 1t6 1l2 15h-18v18h43v-45q-8 -6 -18.5 -7t-22.5 -1q-27 0 -40 11t-13 34zM1030 571q-2 -25 15.5 -38t41.5 -11q25 0 35 19v-15h25v97q0 20 -16.5 34.5t-40.5 14.5q-31 0 -52 -15 q-18 -14 -8 -28q6 -10 18.5 -5t8.5 17q8 6 33 6q10 0 21 -7t11 -17v-50q0 -10 -9 -19t-26 -9q-16 0 -23 8t-7 18q0 16 11 21.5t22 5.5q10 0 22 -6v20q-29 16 -55.5 2t-26.5 -43zM1079 0v90h25v-35h43v35h24v-90h-24l-2 37h-43l2 -37h-25zM1108 1004q-2 -31 9 -63t42 -58.5 t83 -43t134 -16.5q129 2 202 60.5t73 154.5q0 61 -26 101.5t-64.5 67t-83.5 42t-84 27.5t-71 20.5t-54.5 19.5t-34.5 27.5t-12 40.5q0 14 5 32t20.5 33t42 26.5t69.5 13.5q55 2 88 -6t50 -22.5t22.5 -32t5.5 -33.5h118q0 29 -8 63.5t-35.5 64t-81 50t-141.5 20.5 q-74 0 -124 -19.5t-81.5 -50t-45 -66.5t-13.5 -68q0 -59 23.5 -97.5t60.5 -63t81 -37.5t83 -24q80 -23 130 -49t50 -86q0 -29 -17.5 -47t-42 -29.5t-53 -16.5t-53.5 -5q-51 0 -79.5 7t-45.5 17q-10 4 -15 9.5t-11 11.5q18 6 26 24.5t5 38t-17 36t-41 18.5q-39 4 -61.5 -27 t-26.5 -65zM1110 174v164h92q37 0 53.5 -10.5t18.5 -32.5q0 -18 -11.5 -27.5t-35.5 -13.5q18 -2 27.5 -6t11.5 -12q0 -6 4 -27t10 -35h-49q-4 2 -10 41q-2 12 -8.5 16.5t-26.5 4.5h-29v-62h-47zM1157 264h31q20 0 28.5 6t8.5 17q0 8 -7.5 12t-29.5 4h-31v-39zM1174 555 q0 -33 32 -33q10 2 16.5 8.5t2.5 16.5t-12.5 11t-12.5 -3v63q0 14 8.5 19.5t16.5 5.5q20 0 24 -25v-92h27v92q0 16 8 20.5t14 4.5q14 0 19.5 -9t5.5 -16v-92h27v95q-2 18 -13.5 33.5t-38.5 15.5q-10 0 -22 -4t-16 -13q-10 16 -31 17q-18 0 -31 -17l2 15h-26v-113zM1178 72 v18h86v-18h-31v-72h-25v72h-30zM1298 174v164h50v-164h-50zM1317 0v90h45q33 0 33 -22q0 -23 -23 -23q18 -2 19.5 -18.5t7.5 -26.5h-25q-2 2 -4 23q0 8 -3 10t-13 2h-15v-35h-22zM1339 55h15q16 0 16 8q0 10 -16 11h-15v-19zM1372 254q0 41 25.5 63.5t77.5 22.5 q41 0 63.5 -13.5t24.5 -41.5h-52q-2 10 -10 17t-28 7q-25 0 -38.5 -14t-13.5 -37q0 -31 13.5 -43t44.5 -12q8 0 17 1t17 3v29h-40v28h90v-84q-18 -4 -39 -7t-45 -3q-53 0 -80 21.5t-27 62.5zM1382 571q-2 -25 15.5 -38t42.5 -11q25 0 35 19v-15h24v97q0 20 -16.5 34.5 t-40.5 14.5q-31 0 -51 -15q-18 -14 -9 -28q6 -10 18.5 -5t8.5 17q8 6 33 6q10 0 21.5 -7t11.5 -17v-50q0 -10 -9.5 -19t-25.5 -9t-23.5 8t-7.5 18q0 16 11.5 21.5t21.5 5.5t22 -6v20q-29 16 -55.5 2t-26.5 -43zM1405 0v90h70v-18h-48v-17h46l-3 -18h-45v-19h50l2 -18h-72z M1485 27v4h24l-2 -2q2 -6 6.5 -9.5t12.5 -3.5t11 2t3 9q0 6 -19.5 10t-26.5 10t-7 14q-2 14 9 22.5t30 8.5q18 0 25.5 -8t9.5 -21h-21q-2 12 -18 13q-14 0 -15 -10q2 -6 22.5 -10.5t26 -11.5t7.5 -17q0 -14 -10.5 -21.5t-28.5 -7.5t-28.5 7t-10.5 22zM1524 641h20l-2 -74 q0 -16 7 -24t15.5 -12.5t15.5 -5.5t9 -1q33 0 31 31q-6 20 -23 18q-12 -2 -13 -13t7 -11q2 -2 0 -2h-6q-14 0 -14 18v76h41v25h-41v34h-27v-34h-20v-25zM1575 0v90h70v-18h-48v-17h43l-2 -18h-43v-19h47l3 -18h-70zM1591 174v164h49v-64h86v64h48v-164h-48l-2 66h-86l2 -66 h-49zM1645.5 626q-9.5 -34 5.5 -63q20 -43 69 -39q48 0 64 47l-25 9q-8 -27 -43 -31q-8 0 -21.5 3t-21.5 21q-10 18 -3 42t30 28q14 4 27.5 -2t17.5 -23l-29 -10q0 10 -10 13.5t-18 -7.5q-6 -8 0 -22t28 -10l62 26q-4 31 -25.5 51.5t-58.5 10.5q-39 -10 -48.5 -44zM1651 0 v90h45q33 0 33 -22q0 -23 -23 -23q18 -2 19 -18.5t8 -26.5h-25q-2 2 -4 23q0 8 -3 10t-13 2h-15v-35h-22zM1673 55h15q16 0 16 8q0 10 -16 11h-15v-19zM1724 90h25l25 -67l26 67h23l-37 -90h-27zM1763 1475q0 53 34 87.5t87 34.5t89 -34.5t36 -87.5t-35 -88t-88 -35t-88 35 t-35 88zM1782 1473q2 -43 31.5 -73t72.5 -30t74 30t29 73q2 43 -29 73.5t-74 30.5t-72.5 -30.5t-31.5 -73.5zM1792 301v37h180v-37h-67v-127h-50v127h-63zM1811.5 626q-9.5 -34 5.5 -63q20 -43 69 -39q48 0 64 47l-25 9q-8 -27 -43 -31q-8 0 -21.5 3t-21.5 21q-10 18 -3 42 t30 28q14 4 27.5 -2t17.5 -23l-29 -10q0 10 -10 13.5t-19 -7.5q-6 -8 0.5 -22t28.5 -10l62 26q-4 31 -26 51.5t-58 10.5q-39 -10 -48.5 -44zM1817 1477q0 33 18 53t47 20q27 0 43.5 -14.5t16.5 -34.5h-33q-2 10 -9.5 15.5t-17.5 5.5q-14 0 -21.5 -10.5t-5.5 -32.5 q0 -27 7.5 -38t23.5 -11q8 0 16.5 6t6.5 18h35q0 -23 -16.5 -37t-43.5 -14q-29 0 -48 18.5t-19 55.5zM1825 0v90h69v-18h-45v-17h43l-2 -18h-43v-19h47l2 -18h-71zM1905 0v90h43q25 0 38 -11t13 -36q-2 -25 -14.5 -34t-36.5 -9h-43zM1927 20h17q12 0 20 6.5t8 16.5 q-2 14 -9 21.5t-19 7.5h-17v-52z" />
<glyph unicode="&#xd;" horiz-adv-x="452" />
<glyph unicode=" "  horiz-adv-x="450" />
<glyph unicode="&#x09;" horiz-adv-x="450" />
<glyph unicode="&#xa0;" horiz-adv-x="450" />
<glyph unicode="!" horiz-adv-x="466" d="M184 70q6 29 31 47t55 18q27 0 42.5 -18t9.5 -47q-8 -31 -31 -50.5t-49 -19.5q-31 0 -48.5 19.5t-9.5 50.5zM256 231l137 740h101l-172 -740h-66z" />
<glyph unicode="&#x22;" horiz-adv-x="411" d="M223 631l49 330h97l-90 -330h-56zM401 631l50 330h96l-90 -330h-56z" />
<glyph unicode="#" horiz-adv-x="698" d="M100 305l15 64h139q18 59 37.5 114.5t38.5 112.5h-140l15 66h147q25 72 51.5 147.5t51.5 146.5h67l-100 -294h172q25 72 50.5 147.5t47.5 146.5h72l-100 -294h133l-15 -66h-141q-18 -57 -37.5 -112.5t-38.5 -114.5h142l-15 -64h-147q-25 -78 -51.5 -152.5t-51.5 -152.5 h-71l102 305h-170l-100 -305h-72l100 305h-131zM326 369h170q18 59 37.5 114.5t37.5 112.5h-172q-16 -57 -35.5 -112.5t-37.5 -114.5z" />
<glyph unicode="$" horiz-adv-x="778" d="M80 102l80 64q25 -33 69.5 -70t130.5 -47l84 404q-117 47 -167 119.5t-39 156.5q6 47 30.5 92t66.5 81t98 60.5t126 28.5l23 105h71l-22 -105q66 -6 127 -27.5t98 -54.5l-55 -69q-29 23 -75 44t-112 27l-84 -395q61 -23 111.5 -46.5t84.5 -55t48 -73.5t2 -99 q-25 -111 -116 -183.5t-244 -83.5l-21 -98h-71l20 98q-53 2 -94 15.5t-74 32t-56.5 40t-39.5 39.5zM328 743q-14 -61 23.5 -109t113.5 -87l78 364q-86 -8 -143.5 -55t-71.5 -113zM432 51q98 8 170 55.5t86 114.5q16 72 -23.5 115t-152.5 90z" />
<glyph unicode="%" horiz-adv-x="1198" d="M282 626q-3 46 7 97q10 49 32.5 95t54.5 81t72.5 56.5t86.5 21.5q45 0 76.5 -21.5t49 -56.5t20.5 -81t-7 -95q-10 -51 -34 -97t-55.5 -82t-72.5 -56.5t-86 -20.5t-77 20.5t-48 56.5t-19 82zM293 -23l723 1016h71l-725 -1016h-69zM347 654.5q-1 -33.5 7 -62.5t28.5 -46.5 t55.5 -17.5q37 0 64.5 17.5t49 46.5t35 62.5t21.5 68.5q6 33 7 66.5t-8 61.5t-28.5 46t-56.5 18q-35 0 -63.5 -18t-49 -46t-34 -61.5t-19.5 -66.5q-8 -35 -9 -68.5zM722 163q-3 46 7 95t32.5 96t55.5 82t73 56.5t87 21.5q45 0 76.5 -21.5t48 -56.5t19.5 -82t-7 -96 t-32.5 -95t-54.5 -81t-73 -56.5t-86 -21.5q-47 0 -77.5 21.5t-48 56.5t-20.5 81zM787.5 191.5q-1.5 -33.5 7 -62.5t29 -47.5t57.5 -18.5q35 0 63.5 18.5t49 47.5t34.5 62.5t21 66.5q6 33 7 67.5t-8.5 62.5t-30 46.5t-54.5 18.5q-37 0 -65 -18.5t-48.5 -46.5t-34.5 -62.5 t-20 -67.5t-7.5 -66.5z" />
<glyph unicode="&#x26;" horiz-adv-x="878" d="M119.5 151.5q-13.5 53.5 1.5 120.5q12 55 39.5 99.5t66.5 79t83 64.5t87 58q2 2 9 7q-16 25 -31 52t-25 57t-14 62.5t4 69.5q8 45 32.5 78t56.5 54.5t69 32.5t71 11q37 0 69 -10t55.5 -31.5t32.5 -53.5t1 -77q-10 -43 -31.5 -79.5t-50.5 -67.5t-63.5 -57.5t-67.5 -51.5 l191 -303q39 63 70.5 145.5t49.5 157.5l78 -4q-29 -94 -63.5 -186t-94.5 -172l123 -201h-114l-76 127q-70 -72 -141.5 -109.5t-157.5 -37.5q-66 0 -120 19.5t-90 56t-49.5 90zM209 197q10 -41 35.5 -71t63.5 -45t81 -15q72 0 133.5 33.5t120.5 93.5l-203 325 q-25 -16 -60.5 -41.5t-71.5 -56.5t-63.5 -63.5t-33.5 -65.5q-12 -53 -2 -94zM426 819q-12 -53 8.5 -105t44.5 -87q23 20 48.5 40.5t49 43t42 49t24.5 59.5q10 49 -17.5 72.5t-70.5 23.5q-41 0 -80 -21.5t-49 -74.5z" />
<glyph unicode="'" horiz-adv-x="366" d="M289 629l16 176l33 156h96l-33 -156l-55 -176h-57z" />
<glyph unicode="(" horiz-adv-x="409" d="M151.5 128q-16.5 151 12.5 292t106.5 283.5t221.5 308.5h57q-123 -145 -201 -299t-106 -297q-33 -147 -20 -296t79 -284h-61q-72 141 -88.5 292z" />
<glyph unicode=")" horiz-adv-x="409" d="M37 -162q123 135 199.5 283.5t107.5 296.5q31 143 18.5 296.5t-71.5 299.5h57q72 -166 88.5 -308.5t-14.5 -283.5q-29 -141 -111 -291.5t-213 -292.5h-61z" />
<glyph unicode="*" horiz-adv-x="722" d="M272 723q0 16 13.5 32.5t29.5 14.5l183 -25l-80 152q-8 12 2 29.5t31 21.5q14 6 24 0t12 -16l33 -174q10 14 27.5 40.5t36 55.5t33 52.5t20.5 31.5q10 10 23.5 12t23.5 -4q8 -4 11 -18.5t-7 -24.5q-6 -8 -24.5 -28.5t-42 -45t-47 -47t-35.5 -37.5l192 27q14 0 23.5 -6 t5.5 -23q4 -16 -11.5 -31.5t-31.5 -13.5l-182 25l81 -152q4 -14 -5 -30.5t-27 -20.5q-14 -4 -25.5 0t-13.5 17l-33 174q-10 -16 -27.5 -43t-35 -54.5t-32 -51t-20.5 -32.5q-10 -10 -24.5 -11t-22.5 3q-10 6 -12 19.5t6 23.5q6 8 26.5 28.5t44 45.5t46 48.5t37.5 37.5 l-195 -29q-14 -4 -23.5 6.5t-7.5 20.5z" />
<glyph unicode="+" horiz-adv-x="790" d="M158 295l16 80h262l64 293h73l-63 -293h262l-16 -80h-262l-62 -295h-74l62 295h-262z" />
<glyph unicode="," horiz-adv-x="409" d="M88 -106q47 16 84 47.5t47 60.5q-39 -14 -64.5 9.5t-17.5 60.5q4 23 31 49t63 26q43 0 61.5 -25.5t8.5 -68.5q-8 -41 -29.5 -73.5t-49 -59t-57.5 -45t-54 -29.5l-3 6q-4 7 -8 16t-8 16.5t-4 9.5z" />
<glyph unicode="-" horiz-adv-x="790" d="M158 295l16 80h598l-16 -80h-598z" />
<glyph unicode="." horiz-adv-x="370" d="M126 74.5q5 27.5 28.5 51.5t60.5 24t50.5 -24t8 -51.5t-29 -51t-60.5 -23.5t-50 23.5t-8 51z" />
<glyph unicode="/" horiz-adv-x="356" d="M-27 -84l541 1102h80l-549 -1102h-72z" />
<glyph unicode="0" horiz-adv-x="806" d="M138.5 244q-11.5 100 21.5 248q37 174 98 276t128 154.5t129.5 68t100.5 15.5q133 0 203 -93q47 -66 55.5 -171t-20.5 -250q-63 -287 -211 -414q-111 -92 -244 -92q-135 0 -202 92q-47 66 -58.5 166zM244 492q-55 -250 24 -351q49 -66 150 -65q82 0 141 38t100 97t68 133 t43 148q53 258 -22 358q-53 68 -150 68q-102 0 -178 -68q-59 -51 -104 -140t-72 -218z" />
<glyph unicode="1" horiz-adv-x="583" d="M258 752l313 225q16 10 30.5 7t31.5 -13q12 -10 14 -25.5t-14 -30.5q-8 -4 -14.5 -8t-10.5 -8q-6 -4 -12 -6l-190 -895h-87l177 827l-187 -131z" />
<glyph unicode="2" horiz-adv-x="778" d="M68 5q-9 5 4 40q8 20 12 29.5t9 12.5t10.5 2t17.5 -1q35 45 102.5 101.5t143.5 109.5q61 43 122.5 89t112.5 96.5t87 102.5t46 107q12 80 -19.5 129t-83.5 65.5t-115.5 0t-119.5 -69.5q-37 -43 -53 -91t-16 -83l-84 -20q2 39 18.5 105.5t81.5 139.5q33 37 76 61.5t88 37 t91 11.5t87 -13q78 -25 115 -94.5t20 -174.5q-10 -72 -53 -136t-103.5 -122.5t-130 -111t-133.5 -97.5q-47 -33 -94 -70.5t-82 -72.5h412l55 76q0 2 10.5 -4t22.5 -15q14 -8 31 -20l-84 -125h-566q-29 0 -38 5z" />
<glyph unicode="3" horiz-adv-x="815" d="M104 266l84 25q4 -70 28 -116t59.5 -72.5t78.5 -37t88 -6.5q53 4 103.5 33t88.5 72t63.5 95t32.5 103.5t-7 97.5t-55 75q-49 35 -107.5 32.5t-93.5 -18.5q-2 -2 -9 -8t-18 -17q-10 -10 -24 -22q-16 -14 -26.5 -7t-20.5 17q-10 14 -13.5 24.5t11.5 22.5l352 324h-334 l-70 -125q-18 10 -32 18q-12 6 -22.5 11.5t-10.5 7.5l90 174h524q18 0 23.5 -7.5t-6.5 -35.5q-14 -33 -18.5 -38t-22.5 -5h-11l-258 -228q84 0 152 -43q18 -12 36.5 -30.5t33 -46t20.5 -65.5t0 -87q-10 -90 -50 -161.5t-94.5 -124t-117 -81t-119.5 -28.5q-59 0 -114.5 10 t-99.5 40t-74.5 85t-39.5 143z" />
<glyph unicode="4" horiz-adv-x="741" d="M77 266.5q1 12.5 9 22.5l662 688q10 14 20 9t18.5 -17.5t10.5 -25.5t-2 -17l-19 -25l-127 -600h133l-18 -82h-133l-45 -219h-86l45 219h-445q-6 0 -12 6t-9 17.5t-2 24zM203 301h360l103 483z" />
<glyph unicode="5" horiz-adv-x="815" d="M127 119l70 63q35 -39 66.5 -64.5t64 -37.5t69.5 -13t80 9q76 16 139.5 71.5t92.5 116.5q10 25 24.5 72t12 99t-30 98.5t-99.5 66.5q-102 29 -197 -17t-161 -149q-20 8 -35 15q-12 4 -23.5 8t-11.5 6l29 72.5t45.5 117t49 130t40.5 114.5q-6 4 -9 14.5t7 32.5 q12 23 20.5 26t28.5 3h512l-16 -86h-459q-14 -43 -45 -120t-59 -153q172 111 330 68q76 -20 114.5 -67.5t50 -109t-1 -130t-39.5 -129.5q-18 -43 -48.5 -83t-69.5 -74t-85 -58.5t-96 -36.5q-33 -8 -76.5 -11t-91 8t-97.5 40.5t-95 87.5z" />
<glyph unicode="6" horiz-adv-x="829" d="M151.5 350.5q8.5 98.5 40 194.5t81 182t110.5 143q74 70 161 96.5t163.5 12.5t130 -71.5t55.5 -157.5l-76 -21q0 72 -40 117t-99.5 57t-128 -9.5t-127.5 -82.5q-29 -31 -57.5 -75t-53 -94t-42 -101.5t-23.5 -94.5q49 80 113.5 128.5t131 68t129 12t110.5 -41t76 -91 t23 -137.5q-4 -86 -38.5 -163t-92 -133t-134.5 -86t-165 -23q-98 6 -155.5 59t-79 133t-13 178.5zM248 227q2 -61 44 -105t101.5 -59.5t127 2t124.5 74.5q92 92 103 232q6 74 -25 123t-84 67.5t-119.5 6t-130.5 -57.5q-25 -18 -50.5 -46t-47 -63.5t-33.5 -78.5t-10 -95z" />
<glyph unicode="7" horiz-adv-x="743" d="M227 758q2 43 4 80q2 31 3.5 57.5t3.5 30.5q4 18 18 31.5t33 13.5h614q16 0 19.5 -15.5t-23.5 -62.5q-8 -12 -16.5 -11t-12.5 -1q-8 -25 -10 -39.5t-7 -27.5t-17.5 -30.5t-40.5 -46.5q-147 -150 -265 -342t-182 -397h-84q35 104 84 211.5t110.5 211t131 198t145.5 169.5 l29.5 29.5t12.5 18t4 18.5t7 31h-466l-7 -101z" />
<glyph unicode="8" horiz-adv-x="831" d="M131 169q-14 58 0 126q20 98 90 172t162 108q-41 33 -57.5 83.5t-3.5 105.5q10 49 36.5 92t66.5 75t91 50t107 18q53 0 96 -17t69.5 -49t37 -75t-0.5 -94q-10 -43 -33.5 -84t-62.5 -70l-22.5 -18t-22.5 -14q25 -12 46.5 -27t37.5 -35q35 -45 48 -102.5t-1 -118.5 q-14 -70 -54 -128t-95.5 -101t-123 -67t-136.5 -24q-72 0 -129.5 25t-94.5 68t-51 101zM221 295q-23 -113 37 -179.5t164 -66.5q111 0 193.5 65.5t107.5 180.5q10 49 0 93t-37 76t-69 50t-93 18q-53 0 -102 -18t-90 -50t-71 -75t-40 -94zM408.5 765q-11.5 -52 17.5 -93 q25 -27 51.5 -40.5t65.5 -13.5q72 0 127 43.5t69 102.5q6 33 -2 60.5t-27.5 47t-47 29.5t-58.5 10q-39 0 -71.5 -14t-67.5 -41q-45 -39 -56.5 -91z" />
<glyph unicode="9" horiz-adv-x="829" d="M117 168l84 41q2 -55 51 -96t117 -52q86 -10 153.5 29t116.5 98q37 45 64.5 114t50.5 155q-37 -47 -88.5 -79t-107.5 -45.5t-112.5 -10t-105.5 25.5q-72 33 -106.5 94.5t-35.5 135t27.5 150.5t85 139.5t136 101.5t180.5 35q92 -4 153.5 -44t87.5 -120q23 -70 14.5 -170.5 t-36 -201.5t-67.5 -190.5t-79 -136.5q-72 -86 -158.5 -126t-201.5 -29q-92 10 -154.5 57t-68.5 125zM289 601q0 -56 24.5 -103t75.5 -74q57 -29 132 -21.5t132 48.5q66 45 103 121.5t36 152.5t-46.5 132t-141.5 61q-72 2 -130 -27t-99 -75t-63.5 -102.5t-22.5 -112.5z" />
<glyph unicode=":" horiz-adv-x="407" d="M147.5 72.5q6.5 27.5 30 51t60.5 23.5t50 -23.5t7 -51t-29.5 -51t-60.5 -23.5t-50.5 23.5t-7 51zM261 609.5q5 27.5 28.5 51t60.5 23.5t50.5 -23.5t8 -51t-29 -51t-60.5 -23.5t-50 23.5t-8 51z" />
<glyph unicode=";" horiz-adv-x="409" d="M92 -106q47 16 84 47.5t47 60.5q-39 -14 -64.5 9.5t-17.5 60.5q4 23 31 49t64 26q43 0 61 -25.5t8 -68.5q-8 -41 -29.5 -73.5t-49 -59t-57.5 -45t-54 -29.5l-3 6q-3 7 -7.5 16t-8.5 16.5t-4 9.5zM261 609.5q5 27.5 28.5 51t60.5 23.5t50.5 -23.5t8 -51t-29 -51 t-60.5 -23.5t-50 23.5t-8 51z" />
<glyph unicode="&#x3c;" horiz-adv-x="843" d="M152 315l16 72l731 311l-18 -88l-637 -260l522 -278l-18 -88z" />
<glyph unicode="=" horiz-adv-x="872" d="M135 172l19 82h665l-18 -82h-666zM195 451l16 77h666l-17 -77h-665z" />
<glyph unicode="&#x3e;" horiz-adv-x="823" d="M80 -16l18 88l641 278l-526 260l18 88l600 -311l-16 -72z" />
<glyph unicode="?" horiz-adv-x="710" d="M270 834q41 70 104.5 115.5t147.5 56.5q84 12 151.5 -9.5t92.5 -78.5q25 -55 20.5 -106.5t-26 -98.5t-57 -89t-74.5 -77q-55 -53 -101.5 -103.5t-58.5 -115.5l-27 -117h-82l27 117q18 88 75.5 152.5t119.5 119.5q152 139 104 266q-12 35 -56 53.5t-104 12.5 q-68 -8 -117 -50t-73 -89zM297 80q6 31 32.5 52.5t61.5 21.5q29 0 47.5 -21.5t12.5 -52.5q-8 -35 -35 -56.5t-56 -21.5q-35 0 -53 21.5t-10 56.5z" />
<glyph unicode="@" horiz-adv-x="1124" d="M180 481q23 104 81 198.5t140 165t181.5 111.5t205.5 41q86 0 155 -23.5t118 -66.5t75.5 -101t26.5 -128q0 -59 -11 -124t-35.5 -126t-62.5 -113.5t-93 -87.5q-35 -23 -79 -33t-81 -2.5t-59.5 34t-14.5 77.5q-14 -29 -39.5 -50.5t-56.5 -35.5t-65 -18t-64 4 q-45 12 -67.5 48t-28 84t6 102.5t33.5 103.5q20 45 53 91t75 83t92.5 58.5t105.5 19.5q39 -2 63.5 -23.5t26.5 -60.5l33 82h66q-39 -96 -81 -205t-79 -207q-23 -61 -10.5 -95t45 -41t77.5 15.5t87 72.5t71 131t29 191q2 133 -88 207t-238 74q-96 0 -184 -38t-158 -100.5 t-119 -145.5t-67 -175q-27 -123 7 -223t112.5 -158.5t192.5 -63.5t247 60l-14 -61q-135 -68 -260 -63t-213.5 69.5t-128 179.5t-9.5 266zM468 404.5q-7 -52.5 5 -92.5t51 -52t76 0t69.5 41t59.5 71t47 89q51 121 46 197.5t-77 76.5q-51 0 -98 -31.5t-85 -81t-62.5 -107.5 t-31.5 -110.5z" />
<glyph unicode="A" horiz-adv-x="839" d="M12 0q156 264 281 473q53 90 102 174t90 152q47 78 88 149q18 29 38 40t26 13q18 4 32.5 -12t16.5 -24q2 -6 -5 -14.5t-11 -12.5l155 -938l-84 -16l-43 284h-446l-166 -284zM293 336h393l-88 516z" />
<glyph unicode="B" horiz-adv-x="800" d="M119 0l184 874q4 18 0 29.5t-9 19l-9 13.5t0 16q6 10 22.5 26.5t36.5 16.5q6 0 15.5 -7t13.5 -17h231q61 0 105.5 -19.5t70 -52.5t33.5 -76q4 -19 3 -39q0 -24 -5 -49q-10 -51 -33.5 -90t-54.5 -66.5t-63.5 -44t-61.5 -20.5q37 -4 73 -22.5t61.5 -49t36.5 -73.5 q5 -21 6 -44q0 -25 -7 -53q-29 -135 -116 -203.5t-197 -68.5h-336zM213 80h221q213 0 256 190q5 22 5 43q0 16 -3 31q-6 35 -30.5 62.5t-67.5 44t-109 16.5h-190zM313 543h170q86 0 157 47t89 137q6 30 6 54q1 45 -21 71q-34 39 -143 39h-184z" />
<glyph unicode="C" horiz-adv-x="819" d="M160 274q-3 25 -3 53q0 67 17 152q27 123 73 207t100 139.5t108.5 86t95.5 44.5q71 24 139 24q36 0 71 -6q101 -20 163 -87l-56 -80q-20 31 -54 51.5t-75 29.5q-34 7 -70 7h-17q-46 -2 -91 -18q-111 -39 -189.5 -144.5t-111.5 -253.5q-14 -68 -14 -127q0 -68 19 -124 q36 -104 128 -144q35 -14 78 -18q18 -2 36 -3q26 1 53 5q46 6 92 25.5t83 53.5l41 -67q-49 -39 -105.5 -63.5t-112.5 -34.5q-35 -6 -70 -6q-20 0 -40 2q-54 6 -100 26q-35 14 -76 45t-71.5 86t-40.5 139z" />
<glyph unicode="D" horiz-adv-x="923" d="M109 0l184 874q4 18 0 29.5t-9 19t-9.5 13.5t-0.5 16q6 10 22.5 26.5t37.5 16.5q6 0 15 -7t13 -17h189q106 0 192 -31t140.5 -91.5t72.5 -151.5q8 -39 9 -82q0 -59 -15 -128q-25 -121 -82 -212t-137 -152.5t-179 -92t-206 -30.5h-237zM205 80h176q92 0 172 28.5t142.5 83 t106.5 129t62 166.5q13 59 13 109q-1 40 -9 74q-18 78 -69 127t-128 71.5t-171 22.5h-123z" />
<glyph unicode="E" horiz-adv-x="700" d="M119 0l184 874q4 18 0 29.5t-9 19l-9 13.5t0 16q6 10 22.5 26.5t36.5 16.5q6 0 15.5 -7t13.5 -17h456l-16 -80h-424l-74 -348h379l-16 -80h-379l-82 -383h422l-16 -80h-504z" />
<glyph unicode="F" horiz-adv-x="684" d="M115 0l184 874q4 18 0 29.5t-9 19t-9.5 13.5t0.5 16q6 10 22 26.5t37 16.5q6 0 15.5 -7t13.5 -17h456l-16 -80h-424l-74 -348h379l-16 -80h-379l-98 -463h-82z" />
<glyph unicode="G" horiz-adv-x="864" d="M159 276q-1 16 -1 32q0 80 20 173q20 94 61.5 184.5t102.5 161t140 114.5t175 44q49 0 94.5 -13.5t80 -39t56 -65.5t23.5 -91l-90 -31q-2 82 -55 121t-127 39q-80 0 -142.5 -38t-109.5 -98t-79 -136t-48 -152q-17 -89 -17 -165v-8q1 -79 28.5 -135t84 -88t146.5 -32 q47 0 98 13.5t102 29.5l68 314h-223l16 79h252q20 18 35 19q20 0 29.5 -16.5t11.5 -26.5q0 -10 -6 -15.5t-13.5 -11.5t-15.5 -16t-12 -29l-76 -360q-86 -35 -163 -47.5t-163 -12.5q-90 0 -150.5 37t-94 104.5t-38.5 161.5z" />
<glyph unicode="H" horiz-adv-x="864" d="M115 0l204 971h80l-90 -428h477l91 428h75l-204 -971h-76l98 463h-477l-98 -463h-80z" />
<glyph unicode="I" horiz-adv-x="333" d="M131 0l205 971h78l-205 -971h-78z" />
<glyph unicode="J" horiz-adv-x="512" d="M31 20l39 68q10 -12 28.5 -22.5t43 -15.5t54 -2t60.5 18q43 23 74.5 62.5t42.5 92.5l159 750h80l-155 -738q-20 -90 -72.5 -149t-105.5 -82q-59 -25 -109 -25q-16 0 -32 3q-62 10 -107 40z" />
<glyph unicode="K" horiz-adv-x="802" d="M125 0l205 971h78l-97 -451l576 459l80 -21l-566 -450l400 -508l-99 -12l-395 506l-104 -494h-78z" />
<glyph unicode="L" horiz-adv-x="663" d="M86 18q0 8 6 15.5t15.5 14.5t17.5 18.5t12 29.5l187 875h79l-190 -899h420l-15 -72h-450q-10 -10 -22.5 -17.5t-18.5 -7.5q-20 0 -29.5 16.5t-11.5 26.5z" />
<glyph unicode="M" horiz-adv-x="1132" d="M39 4l356 920l-10 18q-4 10 15.5 29.5t41.5 23.5q10 2 19.5 -6t16.5 -18t11.5 -20.5t4.5 -12.5l108 -801l449 801q2 2 10 12.5t19.5 20.5t23.5 18t22 6q18 -4 30.5 -23.5t2.5 -29.5l-18 -18l-33 -920l-80 -18l33 831l-438 -786v-15q4 -12 -7.5 -21t-27 -14.5t-30.5 -4.5 t-17 14l-111 827l-319 -831z" />
<glyph unicode="N" horiz-adv-x="872" d="M111 0l184 877q4 18 1 28t-7 17.5t-8.5 12.5t0.5 15q4 10 21 26.5t38 16.5q6 0 14 -7t15 -17l342 -836l178 838h78l-205 -971h-70l-340 772l-164 -772h-77z" />
<glyph unicode="O" horiz-adv-x="940" d="M164 272q-1 19 -1 38q0 78 19 169q25 113 70 207t108.5 159.5t144.5 102.5t175 37q92 0 157.5 -37t100.5 -102.5t41 -159.5q1 -19 1 -38q0 -78 -19 -169q-25 -115 -70 -208t-108.5 -158.5t-144.5 -102.5t-173 -37q-94 0 -159.5 37t-100.5 102.5t-41 159.5zM247 322 q1 -78 25.5 -138.5t74.5 -97.5t134 -37q82 0 148.5 37t116 97.5t83 138t50.5 157.5q16 80 16 157t-24.5 138.5t-75 98t-131.5 36.5q-84 0 -151 -36.5t-117 -98t-83.5 -138.5t-50.5 -157q-15 -75 -15 -148v-9z" />
<glyph unicode="P" horiz-adv-x="749" d="M121 0l184 872q4 18 0 29.5t-9 20t-9 14.5t0 16q6 10 22.5 26.5t36.5 16.5q6 0 15.5 -7t13.5 -17h172q68 0 128 -14.5t103 -48.5q44 -34 62 -89q9 -28 9 -63q0 -34 -9 -76q-18 -84 -60.5 -139.5t-99.5 -88t-121.5 -47t-126.5 -14.5h-149l-82 -391h-80zM299 467h145 q137 0 216 57.5t102 155.5q5 23 5 44q0 60 -38 108q-51 64 -194 65h-144z" />
<glyph unicode="Q" horiz-adv-x="931" d="M160 274q-1 18 -1 38q0 78 19 169q25 113 70 206t108.5 158.5t143.5 102.5t174 37t158.5 -37t99.5 -102.5t41 -158.5q1 -18 1 -37q0 -78 -20 -169q-43 -213 -159 -348l100 -104l-66 -62l-98 105q-121 -98 -272 -99q-94 0 -158.5 37t-99.5 103.5t-41 160.5zM244 323.5 q0 -77.5 24.5 -137t74.5 -96.5t132 -37q59 0 109.5 19.5t93.5 54.5l-88 90l67 64l82 -91q49 59 82 135t49 156q16 78 16 151q0 80 -24 140q-24 59 -74.5 96t-132.5 37t-147.5 -37t-114.5 -96t-83 -135t-50 -156t-16 -157.5z" />
<glyph unicode="R" horiz-adv-x="800" d="M121 0l184 874q4 18 0 29.5t-9 19l-9 13.5t0 16q6 10 22.5 26.5t36.5 16.5q6 0 15.5 -7t13.5 -17h172q68 0 128 -14.5t103 -48.5q44 -34 62 -89q9 -28 9 -63q0 -34 -9 -76q-12 -63 -41 -110.5t-68 -80t-84 -54t-94 -32.5l172 -401l-86 -20l-176 409h-180l-82 -391h-80z M299 467h145q137 0 216 57.5t102 155.5q5 23 5 44q0 60 -38 108q-51 64 -194 65h-144z" />
<glyph unicode="S" horiz-adv-x="794" d="M80 102l80 64q14 -18 33.5 -39t48 -38t67.5 -28.5t92 -11.5t101.5 13.5t87.5 37t64.5 54t33.5 67.5q4 21 4 39q0 16 -3 30q-7 30 -34.5 55.5t-75 49t-118.5 51.5q-127 47 -181 122q-44 61 -45 128q0 16 3 33q6 49 34.5 97t74.5 85t108.5 59.5t138.5 22.5q35 0 73 -6 t72.5 -17.5t65.5 -26.5t51 -34l-55 -69q-35 29 -90.5 51t-137.5 22q-96 0 -162.5 -49t-82.5 -121q-4 -17 -4 -32q0 -54 43 -98q55 -56 165 -97q59 -23 109.5 -47.5t84.5 -56t48 -72.5q8 -22 7 -49q0 -23 -5 -49q-27 -117 -127 -192t-274 -77q-59 0 -106.5 12.5t-83 32 t-61.5 43t-44 41.5z" />
<glyph unicode="T" horiz-adv-x="681" d="M220 907.5q-1 10.5 1 22.5q2 23 7 32t24 9h588q18 0 20 -9.5t-6 -31.5q-4 -12 -8 -22.5t-15 -10.5h-260l-190 -897h-78l191 897h-263q-10 0 -11 10.5z" />
<glyph unicode="U" horiz-adv-x="931" d="M176 297l143 674h78l-141 -672q-8 -36 -8 -65q0 -25 6 -47q12 -46 43 -74.5t77 -42t101 -13.5q53 0 105.5 13.5t95.5 42t75.5 74.5t47.5 112l141 672h76l-144 -674q-33 -158 -143.5 -239t-269.5 -81q-160 0 -238 81q-55 57 -55 152q0 40 10 87z" />
<glyph unicode="V" horiz-adv-x="841" d="M217 971l84 16l141 -874l514 874l74 -16l-278 -471q-53 -88 -103.5 -172t-89.5 -150.5t-51 -86.5l-35 -60l-16.5 -16.5t-21.5 -19.5t-21.5 -15.5t-14.5 -6.5q-20 4 -32.5 22.5t-4.5 29.5l17 18z" />
<glyph unicode="W" horiz-adv-x="1142" d="M190 29l19 18l35 920l80 18l-35 -831l463 827q8 12 23.5 13t29.5 -4t20 -14t-2 -22l-8 -14l105 -786l321 831l72 -18l-359 -920l11 -18q4 -10 -15.5 -29.5t-40.5 -24.5q-10 -2 -19 6.5t-16.5 18.5t-11.5 19.5t-4 13.5l-108 801l-449 -801q-2 -4 -10 -13.5t-19.5 -19.5 t-23.5 -18.5t-23 -6.5q-20 4 -31.5 23.5t-3.5 30.5z" />
<glyph unicode="X" horiz-adv-x="770" d="M23 51l432 484l-205 426l76 40l188 -409l365 407l57 -38l-395 -441l231 -475l-70 -41l-217 457l-411 -453z" />
<glyph unicode="Y" horiz-adv-x="731" d="M219 973l72 26l174 -512l395 510l60 -26q-88 -113 -170 -217q-35 -45 -72 -92.5t-72 -92.5t-66.5 -86t-54.5 -71l-86 -412h-71l86 412v2z" />
<glyph unicode="Z" horiz-adv-x="811" d="M45 18q-4 14 3 20.5t24 18.5q12 8 20 15.5t17 15.5l698 803h-555l16 80h609q4 4 10 8q4 4 10 7t10 7t18.5 2t26.5 -18q14 -23 8 -33t-22 -24l-35 -37l-700 -803h553l-17 -80h-610q-10 0 -19.5 -7t-19.5 -11t-21.5 2t-23.5 34z" />
<glyph unicode="[" horiz-adv-x="374" d="M63 -186l261 1220h168l-15 -65h-88l-231 -1090h88l-15 -65h-168z" />
<glyph unicode="\" horiz-adv-x="333" d="M156 999h71l170 -1036l-67 2z" />
<glyph unicode="]" horiz-adv-x="370" d="M57 -186l15 65h88l231 1090h-88l14 65h168l-260 -1220h-168z" />
<glyph unicode="^" horiz-adv-x="790" d="M154 317l405 605h62l149 -605h-70l-127 523l-350 -523h-69z" />
<glyph unicode="_" horiz-adv-x="659" d="M-37 -178l17 78h657l-16 -78h-658z" />
<glyph unicode="`" horiz-adv-x="333" d="M227 944h97l71 -192h-59z" />
<glyph unicode="a" horiz-adv-x="716" d="M106 214q-1 15 -1 31q0 52 12 103q14 68 46 134.5t79 117.5t109.5 83t135.5 32q80 0 128.5 -36t70.5 -93l29 129h78l-117 -551q-12 -52 -12 -82q0 -8 1 -16l9 -54l-74 -26q-4 12 -13 40q-4 12 -4 29q0 24 7 58q-47 -59 -112.5 -95t-145.5 -36q-74 0 -123 31.5t-74 82.5 t-29 118zM177 248q1 -51 18.5 -94t54.5 -71t96 -28q53 0 99.5 22.5t82 58.5t62 81t41.5 92l16 80q1 16 1 33q0 29 -4 57q-7 45 -27.5 81t-56.5 58.5t-89 22.5q-59 0 -107.5 -27.5t-84 -70.5t-59 -95.5t-34.5 -99.5q-9 -45 -10 -91q1 -4 1 -9z" />
<glyph unicode="b" horiz-adv-x="724" d="M47 12q14 23 30.5 53.5t33.5 98.5l180 854h76l-93 -432q47 57 112 92t144 35q74 0 123 -32t75 -83q26 -50 30 -116q1 -15 1 -30q0 -51 -11 -104q-14 -68 -46 -134.5t-79.5 -117.5t-109.5 -82.5t-136 -31.5q-80 0 -130 38t-75 93q-12 -59 -32.5 -87t-30.5 -40zM217 309 q-3 -22 -3 -43q0 -25 4 -49q7 -45 27.5 -81t56.5 -58.5t89 -22.5q59 0 107.5 28t85.5 70t60.5 94t33.5 101q8 39 8 81v17q-2 52 -19.5 95t-54.5 70.5t-96 27.5q-53 0 -99 -22.5t-82 -58.5t-61.5 -80t-40.5 -89z" />
<glyph unicode="c" horiz-adv-x="604" d="M120 198q-2 17 -2 37q0 50 13 115q18 88 53 150.5t74 103.5t78 63.5t70 32.5q52 19 103 19q27 1 53 -5q76 -16 122 -69l-47 -74q-12 25 -37 41.5t-54.5 23.5t-62 6t-63.5 -11q-80 -29 -136.5 -102.5t-78.5 -178.5q-11 -49 -11 -92q0 -47 14 -86q26 -74 93 -102 q23 -10 53 -14q13 -1 26 -1q19 0 39 3q34 5 66.5 19.5t59.5 41.5l35 -58l-7 -4q-63 -53 -151 -71q-32 -6 -62 -6q-53 0 -102 20q-27 10 -56.5 32.5t-52 63t-29.5 102.5z" />
<glyph unicode="d" horiz-adv-x="731" d="M119 214q-1 15 -1 30q0 52 11 104q14 68 45 133.5t78 116.5t109.5 83t136.5 32q80 0 130 -35t72 -92l93 432h75l-180 -854q-12 -52 -12 -82q0 -8 1 -16l9 -54l-74 -26q-4 12 -13 40q-4 12 -4 29q0 24 7 58q-47 -55 -112.5 -93t-145.5 -38q-74 0 -123 31.5t-73.5 82.5 t-28.5 118zM208 153q18 -42 54.5 -70t95.5 -28q53 0 99.5 22.5t82 58.5t62.5 81t41 92l16 80q1 16 1 33q0 28 -4 56q-7 44 -27.5 80t-56 58.5t-89.5 22.5q-59 0 -107 -27.5t-84 -70.5t-59.5 -94.5t-33.5 -98.5t-10 -96q1 -56 19 -99z" />
<glyph unicode="e" horiz-adv-x="720" d="M113 226q-1 12 -1 24q0 44 11 94q12 59 44 125t82 120t117.5 89t153.5 35q100 0 150 -44q52 -45 70 -103q16 -50 15 -101v-17q-3 -60 -10 -88q-6 -31 -20 -41q-10 -8 -47 -8h-473q-7 -34 -8 -65q-1 -50 21 -90q34 -64 87 -88q40 -18 79 -18h2q40 0 75 11t61.5 24t38.5 21 l33 -61q-27 -16 -71 -32.5t-93 -24.5q-36 -6 -72 -6q-14 0 -28 1q-51 3 -90 25q-35 18 -62.5 49t-44 73t-20.5 96zM219 389h455q6 30 6 64v18q-2 45 -21.5 84t-57.5 64.5t-99 25.5q-63 0 -112.5 -27.5t-84.5 -67.5t-56.5 -84t-29.5 -77z" />
<glyph unicode="f" horiz-adv-x="397" d="M20 -213q41 39 70 96.5t43 122.5l137 645h-123l29 62h107l26 123q14 63 44 103t70 60.5t88 20.5t97 -14l-24 -66q-41 8 -75 9t-59.5 -12t-43 -44t-29.5 -84l-21 -96h166l-28 -62h-150l-137 -643q-12 -55 -32.5 -99t-41.5 -77q-23 -37 -49 -65z" />
<glyph unicode="g" horiz-adv-x="735" d="M113 210q-1 15 -1 30q0 52 11 106q14 68 46 134.5t80 118.5t110.5 84t136.5 32q80 0 128.5 -36t71.5 -95q12 59 35 88.5t33 42.5l61 -27q-14 -23 -30.5 -53.5t-32.5 -97.5l-109 -525q-25 -115 -85 -182.5t-134 -100t-148 -37.5q-22 -1 -42 -1q-48 0 -84 8q14 27 22 39 t12.5 18t5.5 8.5t3 6.5q34 -7 68 -7q26 0 51 4q61 9 112 39.5t89 86t57 137.5l14 73q-49 -57 -113.5 -92t-142.5 -35q-74 0 -123 32t-73.5 84t-28.5 117zM182 245q2 -52 20.5 -95.5t55.5 -71t96 -27.5q53 0 99.5 22.5t82 58.5t61.5 81t40 90l16 82q3 21 3 42q0 24 -4 49 q-7 46 -27.5 83t-56.5 59.5t-89 22.5q-59 0 -108 -27.5t-85 -70.5t-60.5 -95.5t-35.5 -101.5q-8 -41 -8 -84v-17z" />
<glyph unicode="h" horiz-adv-x="727" d="M96 0l215 1018h76l-94 -447q41 55 103.5 92t131.5 37q55 0 97.5 -20.5t68 -56t33.5 -83.5q3 -19 3 -40q0 -31 -7 -64l-68 -315q-5 -27 -6 -52q0 -13 2 -25q4 -36 8 -38l-73 -26q-4 12 -10 46q-2 12 -3 26q0 29 9 69l67 315q5 27 5 50q0 21 -4 39q-9 38 -30.5 61.5t-51 35 t-58.5 11.5q-47 0 -89 -20.5t-77 -55.5t-59.5 -79t-34.5 -93l-80 -385h-74z" />
<glyph unicode="i" horiz-adv-x="282" d="M104 0l150 713h74l-150 -713h-74zM268 905q6 27 28.5 44.5t49.5 17.5q25 0 38 -17.5t7 -44.5q-4 -25 -25.5 -43t-46.5 -18q-27 0 -41 18.5t-10 42.5z" />
<glyph unicode="j" horiz-adv-x="282" d="M-143 -242q78 6 122 23.5t67.5 47.5t34.5 76t25 111l148 697h74l-156 -733q-16 -72 -35.5 -123.5t-53.5 -84t-83 -51t-123 -26.5q2 0 -2 10t-8 21.5t-8 21.5t-2 10zM266 903q6 27 28.5 44.5t47.5 17.5q27 0 40 -17.5t7 -44.5q-4 -25 -25.5 -43t-48.5 -18q-25 0 -39 18.5 t-10 42.5z" />
<glyph unicode="k" horiz-adv-x="634" d="M102 0l215 1018h76l-121 -574l387 281l60 -27l-387 -284l291 -410l-72 -24l-293 401l-80 -381h-76z" />
<glyph unicode="l" horiz-adv-x="282" d="M104 0l211 997l45 37h37l-219 -1034h-74z" />
<glyph unicode="m" horiz-adv-x="1112" d="M94 0l115 545q6 33 8 56.5t1 39.5t-4 27.5t-5 21.5l76 27q4 -12 11 -40q3 -12 3 -28q0 -23 -6 -55q41 55 102.5 88t122.5 33q72 0 121 -39t57 -107q39 66 106.5 106t139.5 40q76 0 116 -32t55 -75q13 -38 13 -79v-11q-2 -47 -8 -78l-67 -315q-5 -27 -5 -52q0 -13 1 -25 q4 -36 8 -38l-74 -26q-4 12 -10 47q-2 12 -2 26q0 29 8 68l72 332q6 31 6 57q0 48 -21 80q-33 49 -108 49q-47 0 -86 -19.5t-71 -52t-53.5 -75.5t-31.5 -88l-86 -408h-74l97 457q5 27 5 50q0 53 -28 87q-41 49 -115 49q-47 0 -84 -19.5t-66.5 -52t-49 -75.5t-29.5 -88 l-86 -408h-74z" />
<glyph unicode="n" horiz-adv-x="698" d="M94 0l115 547q8 33 10 56.5t0 38.5t-5 26.5t-5 21.5l76 27q4 -12 12 -41q3 -12 3 -28q0 -25 -7 -60q43 63 107.5 96t125.5 33q76 0 116 -30t56.5 -72t16.5 -86t-6 -74l-72 -334q-6 -30 -5 -57v-20q3 -36 7 -38l-74 -26q-4 12 -9 46q-1 10 -1 23q0 30 8 72l72 336 q6 28 6 52q0 53 -28 85q-40 47 -117 47q-45 0 -85 -19.5t-71 -51t-52.5 -73.5t-31.5 -87l-86 -410h-76z" />
<glyph unicode="o" horiz-adv-x="673" d="M106 216q-1 15 -1 30q0 51 12 102q14 68 46 133.5t79 116.5t108 83t135 32t123 -32t75 -83q26 -50 31 -116q1 -17 1 -35q0 -49 -10 -99q-14 -68 -47 -133t-80.5 -116.5t-109.5 -83t-136 -31.5t-122 31.5t-74 83t-30 117.5zM178 244q2 -54 20.5 -97t55.5 -70.5t92 -27.5 t102.5 27.5t84 70.5t61 96.5t37.5 104.5q8 41 8 85v17q-2 54 -20.5 98t-54.5 71.5t-91 27.5t-103 -27.5t-85 -70.5t-61.5 -96.5t-35.5 -104.5q-10 -44 -11 -89q1 -7 1 -15z" />
<glyph unicode="p" horiz-adv-x="731" d="M-6 -295q4 2 21.5 38t27.5 77l152 719q12 52 12 82q0 9 -1 17q-5 30 -9 52l73 27l14 -42q3 -12 3 -29q0 -25 -8 -60q47 59 113.5 96t146.5 37q74 0 123 -32t73.5 -84t28.5 -119q1 -14 1 -29q0 -52 -11 -105q-14 -70 -46 -135t-79 -117.5t-109.5 -84t-136.5 -31.5 q-80 0 -130 34.5t-73 92.5l-61 -289q-12 -59 -32.5 -94t-31.5 -48zM223 309q-2 -18 -2 -36q0 -27 4 -54q6 -45 26.5 -82t56.5 -59.5t89 -22.5q59 0 107.5 28t84.5 71t60.5 95t34.5 101q8 41 8 84v18q-2 52 -20.5 95t-54 70.5t-95.5 27.5q-55 0 -100 -22.5t-81 -59.5 t-61.5 -83t-39.5 -91z" />
<glyph unicode="q" horiz-adv-x="741" d="M123 216q-1 14 -1 29q0 51 11 105q14 68 46 134.5t79 118.5t109.5 84t136.5 32q80 0 130 -38t73 -97q12 59 32.5 90t30.5 43l64 -27q-14 -23 -31 -53.5t-33 -97.5l-152 -719q-7 -29 -7 -56q0 -11 1 -21q4 -36 9 -38l-76 -27q-4 12 -9 47q-2 10 -2 23q0 30 9 72l61 289 q-47 -57 -111.5 -92t-144.5 -35q-74 0 -123 31.5t-73.5 84t-28.5 118.5zM194 249q1 -52 19 -95t54 -71t95 -28q53 0 99.5 22.5t82.5 59.5t61.5 82t41.5 90l17 80q3 20 3 40q0 25 -5 51q-7 46 -27.5 83t-56 59.5t-91.5 22.5q-59 0 -107 -27.5t-84 -70.5t-59.5 -95.5 t-33.5 -101.5q-9 -45 -9 -92v-9z" />
<glyph unicode="r" horiz-adv-x="454" d="M96 0l113 539q12 52 12 82q0 9 -1 17q-5 30 -9 52l74 27q4 -13 11 -57q2 -12 2 -25q0 -34 -13 -74q20 55 56 92t80 55q39 16 81 15h10q47 -2 92 -25l-53 -71q-29 16 -70 16t-83 -24.5t-80.5 -79t-63.5 -146.5l-82 -393h-76z" />
<glyph unicode="s" horiz-adv-x="581" d="M41 76l65 55q23 -27 68 -55q42 -27 115 -27h10q80 2 135 34t68 85q3 15 3 27q0 37 -26 60q-35 30 -143 71q-94 37 -139 86q-34 37 -34 84q0 15 3 30q8 37 30.5 73t58.5 63.5t83 45t104 17.5q53 0 111.5 -20.5t85.5 -42.5l-47 -68q-14 12 -60.5 35.5t-107.5 23.5 q-72 0 -119 -33.5t-57 -82.5q-2 -11 -2 -21q0 -40 32 -64q40 -30 121 -63q45 -18 83 -36.5t62 -42.5q26 -23 36 -54q6 -18 5 -39q0 -16 -3 -35q-18 -88 -93 -143t-206 -57q-53 0 -93 9t-68 22.5t-47.5 30.5t-33.5 32z" />
<glyph unicode="t" horiz-adv-x="409" d="M152 651l28 62h96l39 176l56 37h26l-47 -213h166l-29 -62h-149l-105 -495q-5 -24 -6 -42q1 -29 15 -41q22 -20 65 -20q18 0 35.5 6.5t32.5 10.5l8 -70q-23 -4 -52.5 -11t-49.5 -7q-59 0 -87 19t-38 49q-6 19 -6 40q0 12 2 26q6 36 14 70l98 465h-112z" />
<glyph unicode="u" horiz-adv-x="727" d="M136 169v12q0 36 5 63l99 469h73l-98 -471q-6 -28 -6 -52q0 -54 30 -90q44 -52 121 -51q45 0 86 20.5t74 54.5t55.5 77t32.5 88l90 424h76l-120 -559q-10 -50 -10 -80q0 -10 2 -18q5 -30 8 -54l-72 -27q-4 12 -14 40q-4 12 -4 31q0 23 7 56q-45 -63 -111.5 -91.5 t-127.5 -28.5q-76 0 -117 29.5t-59.5 71.5t-19.5 86z" />
<glyph unicode="v" horiz-adv-x="686" d="M188 709l80 14l97 -608l356 608l74 -14q-119 -199 -211 -355q-39 -68 -77 -131t-67.5 -112.5t-47.5 -80.5l-17 -30q-8 -16 -24.5 -19.5t-31 3t-22.5 16.5t2 23l6 8z" />
<glyph unicode="w" horiz-adv-x="1064" d="M190 711l80 18l60 -616l325 594q8 12 22.5 13t28 -4t19.5 -14.5t-2 -21.5l-12 -27l65 -540l322 618l71 -18l-356 -672l2 -21q0 -14 -15.5 -22t-33.5 -9t-33.5 5t-11.5 22l-72 549l-307 -549q-4 -16 -20.5 -22t-35 -5t-29.5 9t-5 22l10 21z" />
<glyph unicode="x" horiz-adv-x="679" d="M49 35l318 319l-179 338l72 43l164 -325l303 325l51 -43l-323 -338l184 -319l-72 -47l-166 311l-299 -311z" />
<glyph unicode="y" horiz-adv-x="708" d="M47 -256q59 23 96 40t66 45t55.5 72t63.5 119l-138 680l82 33l117 -622l365 622l59 -33l-21 -36q-22 -37 -57 -96.5t-80 -134.5t-91 -153.5t-91 -154.5t-81 -135.5t-57.5 -95t-23.5 -37.5q-23 -37 -48 -65t-60 -50q-55 -33 -95 -45t-53 -19z" />
<glyph unicode="z" horiz-adv-x="636" d="M46 36q3 13 11.5 24.5t20.5 11.5l536 567h-413l14 74h508q12 0 16 -11.5t1 -25.5t-11 -25.5t-20 -11.5l-539 -567h436l-14 -72h-529q-12 0 -16 11.5t-1 24.5z" />
<glyph unicode="{" horiz-adv-x="374" d="M88 -113l94 441q4 27 0 49t-30 33l8 30q25 10 41 33t22 49l92 441q8 35 40 65.5t75 30.5h98l-24 -27l-49 -4q-16 -4 -39 -16.5t-29 -46.5l-92 -433q-4 -16 -15.5 -34.5t-25.5 -35t-27.5 -26.5t-21.5 -12q16 -2 33.5 -37t9.5 -70l-90 -432q-8 -35 8 -47t33 -16l47 -4 l14 -27h-98q-43 0 -62.5 31t-11.5 65z" />
<glyph unicode="|" horiz-adv-x="266" d="M113 0l204 971h58l-205 -971h-57z" />
<glyph unicode="}" horiz-adv-x="385" d="M29 -209l26 27l47 4q16 4 39 16t31 47l90 432q4 16 15.5 35t24.5 34t26.5 26.5t21.5 11.5q-14 4 -31.5 39t-9.5 69l92 433q6 35 -10 47t-33 16l-45 4l-16 27h98q43 0 62.5 -31t11.5 -65l-92 -441q-6 -27 -1 -49t27 -33l-4 -30q-29 -10 -44 -33t-19 -49l-94 -441 q-8 -35 -40 -65.5t-75 -30.5h-98z" />
<glyph unicode="~" horiz-adv-x="831" d="M154 311q39 45 91 88t126 43q31 0 66.5 -14t71.5 -32.5t70.5 -33t63.5 -14.5q23 0 45.5 11.5t44 29t40 36.5t30.5 38l37 -55q-41 -53 -93.5 -95.5t-123.5 -42.5q-37 0 -71 14.5t-66.5 32t-64.5 31.5t-65 14q-55 0 -100 -40.5t-74 -79.5z" />
<glyph unicode="&#xa1;" horiz-adv-x="317" d="M47 -270l176 739h66l-142 -739h-100zM223 643q6 29 31 47.5t55 18.5q27 0 42 -18.5t9 -47.5q-6 -31 -29.5 -50.5t-49.5 -19.5q-31 0 -47.5 19.5t-10.5 50.5z" />
<glyph unicode="&#xa2;" horiz-adv-x="677" d="M180 330.5q-8 60.5 10 148.5t52 148.5t73 100.5t78 61.5t70 31.5q18 6 35.5 10.5t36.5 6.5l22 106h43l-20 -104q45 -4 86 -20.5t69 -51.5l-47 -74q-45 66 -125 72l-123 -576q39 0 79 13.5t77 48.5l35 -49q-45 -45 -98.5 -64.5t-106.5 -21.5l-25 -117h-43l25 119 q-18 4 -33.5 7t-32.5 9q-25 10 -55.5 32.5t-52 62.5t-29.5 100.5zM264 479q-23 -104 1.5 -175.5t90.5 -98.5q10 -4 20.5 -6t20.5 -6l123 571q-98 -14 -164.5 -91t-91.5 -194z" />
<glyph unicode="&#xa3;" horiz-adv-x="782" d="M86 0l10 51q76 39 126 83t79 95.5t42 107.5t17 120h-176l29 61h152q0 35 -6.5 81t1.5 93q27 141 121 212t213 71q63 0 112.5 -25.5t70.5 -54.5l-41 -64q-16 29 -60.5 53.5t-97.5 24.5q-98 0 -162.5 -60.5t-79.5 -158.5q-6 -53 -2 -95t4 -77h230l-29 -61h-205 q0 -49 -14 -105.5t-42 -109t-66 -98.5t-85 -74h494l-14 -70h-621z" />
<glyph unicode="&#xa4;" horiz-adv-x="901" d="M164 186l149 123q-18 33 -25 75t3 89t32.5 88t55.5 74l-94 121l45 39l98 -119q39 29 86 45t94 16t85 -16t67 -43l145 117l31 -39l-143 -117q16 -35 24 -77t-2 -89t-36.5 -89t-61.5 -77l98 -121l-47 -39l-98 119q-37 -25 -82 -40t-92 -15t-85 16.5t-65 42.5l-153 -123z M356 473q-18 -82 27 -139.5t127 -57.5q41 0 80 15.5t71.5 42t55 62.5t33.5 77q16 84 -29 141.5t-127 57.5q-41 0 -80 -15.5t-71.5 -42t-55 -63.5t-31.5 -78z" />
<glyph unicode="&#xa5;" horiz-adv-x="782" d="M162 274l14 64h244l20 100l-8 27h-229l12 57h195q-57 143 -88 221t-46.5 118t-19.5 54.5t-10 26.5l76 41l180 -459q84 104 142 177t98 121t63.5 76t38 43t21.5 23.5t16 18.5l55 -41l-348 -420h200l-12 -57h-235l-21 -27l-20 -100h250l-15 -64h-250l-59 -280h-80l60 280 h-244z" />
<glyph unicode="&#xa6;" horiz-adv-x="358" d="M90 -260l107 504h71l-106 -504h-72zM246 475l106 504h72l-107 -504h-71z" />
<glyph unicode="&#xa7;" horiz-adv-x="782" d="M147 -14l46 59q20 -25 63 -44t111 -19q84 0 142 38.5t73 104.5q6 31 3 55.5t-21.5 46t-53.5 40t-90 38.5q-113 39 -163 85t-32 132q8 37 36 79t93 87q-39 43 -22 113q18 92 100 146t191 54q70 0 117.5 -17t76.5 -36l-49 -61q-23 18 -64.5 36.5t-103.5 18.5 q-70 0 -125 -37t-67 -92q-6 -33 4 -57.5t33.5 -44t58.5 -34.5t78 -30q43 -16 79.5 -34.5t61.5 -41t35 -54.5t0 -77q-10 -55 -42 -97t-81 -81q14 -16 22.5 -50t-0.5 -77q-10 -51 -39.5 -91t-70.5 -67.5t-92.5 -43t-106.5 -15.5q-72 0 -122 18.5t-79 49.5zM291 526 q-8 -41 21.5 -83t133.5 -78q63 -25 97.5 -36.5t54.5 -27.5q29 27 55.5 59.5t34.5 69.5q10 45 -21.5 84t-113.5 70q-37 12 -83 30.5t-77 38.5q-90 -61 -102 -127z" />
<glyph unicode="&#xa8;" horiz-adv-x="475" d="M233 887q4 29 26 47t50 18q29 0 43.5 -18.5t9.5 -46.5q-6 -29 -28.5 -46.5t-50.5 -17.5q-29 0 -42.5 17.5t-7.5 46.5zM487 887q4 29 26 47t50 18q29 0 43.5 -18.5t9.5 -46.5q-6 -29 -28.5 -46.5t-50.5 -17.5q-29 0 -42.5 17.5t-7.5 46.5z" />
<glyph unicode="&#xa9;" horiz-adv-x="1097" d="M155.5 283.5q-18.5 93.5 4.5 199.5q23 104 81 197.5t140 163t180.5 110.5t200.5 41q100 0 181 -41t133 -110.5t71.5 -162.5t-2.5 -198q-23 -106 -82 -199.5t-141 -163t-180.5 -110.5t-198.5 -41q-102 0 -183 41t-133.5 110.5t-71 163zM217 308q16 -83 62.5 -144.5 t117 -97t160.5 -35.5t176 35.5t158 97t123 144.5t71 175q18 92 2 175t-61 144.5t-115.5 97.5t-160.5 36t-176.5 -36t-159 -97.5t-123.5 -144.5t-70 -175q-20 -92 -4 -175zM376 341q-7 54 9 134q16 78 47 132.5t67 90t73.5 55t66.5 29.5q72 25 141.5 10.5t112.5 -63.5 l-43 -59q-31 45 -88 57t-117 -8q-70 -23 -121 -87.5t-71 -156.5t4 -157.5t84 -88.5q47 -16 111.5 -9t115.5 54l33 -53q-29 -25 -66 -41t-75.5 -23t-78.5 -4t-73 15q-25 8 -53.5 28.5t-50 55.5t-28.5 89z" />
<glyph unicode="&#xaa;" horiz-adv-x="516" d="M171 531q-3 42 7 85t30.5 85t50.5 75t69 53.5t88 20.5q51 0 80.5 -22.5t44.5 -59.5l18 82h57l-81 -387l-11 -66h-59l14 68q-31 -37 -72 -59.5t-92 -22.5q-49 0 -79.5 20.5t-46 53t-18.5 74.5zM235 557.5q1 -29.5 12 -54t31.5 -39.5t55.5 -15q63 0 106 49t62 127 q14 66 -9.5 112.5t-86.5 46.5q-35 0 -63 -16t-49.5 -41t-34.5 -54.5t-19 -56.5q-6 -29 -5 -58.5z" />
<glyph unicode="&#xab;" horiz-adv-x="614" d="M145 328q-8 18 7 37l225 268h82l-246 -287l125 -287h-82zM365 328q-8 18 6 37l225 268h82l-246 -287l125 -287h-82z" />
<glyph unicode="&#xac;" horiz-adv-x="837" d="M164 504l14 74h717l-82 -388h-80l68 314h-637z" />
<glyph unicode="&#xad;" horiz-adv-x="790" d="M158 295l16 80h598l-16 -80h-598z" />
<glyph unicode="&#xae;" horiz-adv-x="1101" d="M155.5 283.5q-18.5 93.5 4.5 199.5t81 199.5t140 163t179.5 110.5t199.5 41q100 0 181 -41t133 -110.5t71.5 -162.5t-2.5 -200q-23 -106 -82.5 -199.5t-140 -163t-179 -109.5t-198.5 -40q-102 0 -183 40t-133.5 109.5t-71 163zM215 308q16 -83 62.5 -144.5t117 -97 t160.5 -35.5t176 35.5t158 97t123 144.5t71 175q18 92 2 175t-61 145.5t-115.5 98.5t-160.5 36t-176.5 -36t-159 -98.5t-123.5 -145.5t-70 -175q-20 -92 -4 -175zM420 164l121 569q2 12 -8.5 22.5t-4.5 22.5q4 4 13.5 10.5t21.5 6.5q10 0 21 -9h106q43 0 83 -9t67.5 -30.5 t40 -57.5t0.5 -89q-16 -80 -69.5 -122t-113.5 -58l111 -254l-61 -12l-115 260h-113l-51 -250h-49zM532 461h91q90 0 142 41t64 100q10 53 -21.5 94t-127.5 41h-88z" />
<glyph unicode="&#xaf;" horiz-adv-x="442" d="M240 864l14 66h326l-15 -66h-325z" />
<glyph unicode="&#xb0;" horiz-adv-x="442" d="M219 807q16 72 76.5 122t132.5 50t112 -50t23 -122q-16 -72 -76.5 -122t-132.5 -50t-110.5 50t-24.5 122zM274 807q-10 -49 17 -83t76 -34q47 0 89 34t52 83q10 47 -16.5 83t-73.5 36q-49 0 -91 -36t-53 -83z" />
<glyph unicode="&#xb1;" horiz-adv-x="829" d="M88 0l14 72h656l-15 -72h-655zM184 461l17 78h288l62 288h80l-62 -288h287l-16 -78h-287l-61 -291h-80l61 291h-289z" />
<glyph unicode="&#xb2;" horiz-adv-x="530" d="M170 426q6 18 11 26.5t20 8.5h2q14 16 32.5 33.5t39 34t39 29.5t30.5 22q74 53 133.5 104t71.5 109q8 39 -4.5 68.5t-44.5 39.5q-31 10 -65 1t-62 -38q-20 -27 -27.5 -49t-7.5 -51l-70 -19q3 99 60 160q41 45 99 61.5t112 -1.5q47 -16 70.5 -62.5t11.5 -111.5 q-10 -41 -36 -79t-62 -72t-74.5 -62.5t-75.5 -53.5q-33 -23 -52.5 -35t-35.5 -28h215q2 4 7 9t9 11q6 8 10 17q2 0 23.5 -8.5t38.5 -14.5l-60 -86h-331q-41 -2 -27 37z" />
<glyph unicode="&#xb3;" horiz-adv-x="532" d="M174 561l70 21q4 -70 38.5 -104t79 -35t88.5 28t68 86q18 43 13 83t-27.5 63.5t-58 21.5t-76.5 -41q-14 -12 -24.5 -7t-16.5 13q-4 6 -9.5 17.5t11.5 23.5q43 39 80 74q33 29 62.5 57.5t41.5 38.5h-162q-4 -4 -10 -17.5t-14 -25.5q-8 -16 -19 -33q-39 20 -46 24.5t-5 4.5 l57 117h310q10 2 17 -5.5t5 -17.5q-4 -12 -14 -32.5t-27 -14.5q-4 -2 -21.5 -17.5t-40 -36t-44 -38.5t-29.5 -27q70 2 100.5 -35.5t31.5 -92t-25.5 -115t-71.5 -99.5q-51 -47 -109.5 -58t-107.5 6.5t-82 62.5t-33 110z" />
<glyph unicode="&#xb4;" horiz-adv-x="442" d="M334 791l182 213h121l-240 -213h-63z" />
<glyph unicode="&#xb5;" horiz-adv-x="788" d="M45 -338l225 1055h76l-100 -475q-20 -90 23.5 -141.5t121.5 -51.5q45 0 86 20.5t74 54.5t55.5 77t32.5 88l92 428h76l-121 -563q-14 -68 -13 -98.5t5 -53.5l-74 -27q-4 12 -9 40t7 87q-45 -63 -111.5 -91.5t-128.5 -28.5q-59 0 -97 19t-60 48l-86 -387h-74z" />
<glyph unicode="&#xb6;" horiz-adv-x="782" d="M197 713q16 74 51 123t81 79.5t101 44t111 13.5h346l-10 -51h-74l-248 -1172l-63 -2l249 1174h-106l-248 -1172h-59l151 713h-45q-45 0 -93 11t-85 40t-56.5 77t-2.5 122z" />
<glyph unicode="&#xb7;" horiz-adv-x="471" d="M207 477q12 57 60 97t106 40q57 0 89 -39.5t19 -97.5q-12 -57 -60 -97t-106 -40q-57 0 -88.5 40t-19.5 97z" />
<glyph unicode="&#xb8;" horiz-adv-x="442" d="M8 -266l39 59q18 -12 40 -16t40 -4q29 0 55.5 9t32.5 36q6 35 -29.5 47t-89.5 16l103 127h77l-73 -80q41 -8 69.5 -32.5t18.5 -65.5q-14 -66 -69.5 -93.5t-119.5 -27.5q-20 0 -48.5 6t-45.5 19z" />
<glyph unicode="&#xb9;" horiz-adv-x="442" d="M270 844l183 125h2q12 10 22 6t21 -8q4 -4 10 -10.5t4 -14.5v-2q-4 -12 -33 -31q-2 -6 -14 -63q-10 -49 -32.5 -155.5t-63.5 -301.5h-68q25 121 47 219q18 86 33.5 160t19.5 90q-10 -6 -25.5 -16.5t-31.5 -20.5q-18 -12 -39 -24z" />
<glyph unicode="&#xba;" horiz-adv-x="516" d="M141 623q12 57 43 104t73 79t89 49t94 17q57 0 100.5 -19t69 -52t32.5 -77t-3 -93q-14 -66 -48 -113t-77 -76.5t-90 -44t-88 -14.5q-106 0 -161.5 67.5t-33.5 172.5zM210 546q9 -34 30.5 -56.5t51.5 -34t60 -11.5q68 0 133.5 45.5t85.5 137.5q6 31 2 63.5t-20 59t-46 44 t-77 17.5q-45 0 -82 -16.5t-64.5 -42t-46 -59.5t-26.5 -68q-10 -45 -1 -79z" />
<glyph unicode="&#xbb;" horiz-adv-x="618" d="M82 59l244 287l-123 287h82l110 -268q8 -20 -6 -37l-225 -269h-82zM301 59l244 287l-123 287h82l110 -268q8 -20 -6 -37l-225 -269h-82z" />
<glyph unicode="&#xbc;" horiz-adv-x="1134" d="M215 -18l805 993h70l-807 -993h-68zM258 844l182 125q14 10 24.5 6t20.5 -8l10.5 -10.5t4.5 -14.5v-2q-2 -10 -33 -27v-2q0 -2 -5 -25.5t-13.5 -60.5t-17.5 -83t-19 -95q-23 -113 -56 -258h-67q25 121 47 219q18 86 33.5 160t19.5 90q-10 -6 -25.5 -16.5t-31.5 -20.5 q-18 -12 -39 -24zM641.5 146.5q-4.5 17.5 5.5 35.5l406 396q10 12 20 11t17.5 -9.5t10.5 -20.5t-3 -20l-4 -4q-4 -4 -4 -9q0 -2 -5.5 -24.5t-12.5 -58t-16 -76.5t-16.5 -77t-13.5 -62.5t-6 -30.5h76l-17 -72h-75q-2 -6 -5.5 -26.5t-7.5 -43.5q-6 -25 -12 -55h-70q6 31 13 55 q4 23 7 43.5t5 26.5h-272q-16 4 -20.5 21.5zM750 197h200q2 6 8.5 37.5t14.5 71.5t16 78t12 54q-14 -14 -51 -50t-79 -75t-76.5 -72.5t-44.5 -43.5z" />
<glyph unicode="&#xbd;" horiz-adv-x="1159" d="M188 -18l805 993h70l-805 -993h-70zM258 844l182 125h2q12 10 22.5 6t20.5 -8l10.5 -10.5t4.5 -14.5v-2q-2 -10 -33 -27v-2q0 -2 -5 -25.5t-13.5 -60.5t-17.5 -83t-19 -95q-23 -113 -56 -258h-67q25 121 47 219q18 86 33.5 160t19.5 90q-10 -6 -25.5 -16.5t-31.5 -20.5 q-18 -12 -39 -24zM684 37q8 18 13 26.5t20 8.5h2q12 16 31.5 33.5t39 34t38 29.5t30.5 21q74 53 134.5 104.5t70.5 108.5q10 39 -3 69t-44 40t-64.5 1t-62.5 -38q-23 -27 -30 -49.5t-7 -50.5l-70 -19q3 94 62 160q41 45 98 61.5t111 -2.5q49 -16 72.5 -62t9.5 -112 q-8 -41 -35 -78.5t-61.5 -71.5t-74.5 -62.5t-75 -53.5q-33 -16 -52.5 -31.5t-35.5 -31.5h215q2 4 7 9t9 11q6 8 10 17q2 0 22.5 -8.5t37.5 -14.5l-58 -86h-331q-41 -2 -29 37z" />
<glyph unicode="&#xbe;" horiz-adv-x="1198" d="M193 561q0 -66 32.5 -110.5t81.5 -62t107.5 -6.5t109.5 58q45 39 72 99.5t26 115t-32 92t-101 35.5q8 8 30 26.5t44.5 39t40 36t21.5 17.5q16 -6 26.5 14.5t14.5 32.5q2 10 -5.5 17.5t-17.5 5.5h-309l-55 -111q-2 -6 4 -10t45 -25q10 16 18 33q8 12 14.5 25.5t10.5 17.5 h161q-12 -10 -41.5 -38.5t-62.5 -57.5q-37 -35 -80 -74q-16 -12 -11 -23.5t9 -17.5q6 -8 16.5 -13t24.5 7q41 39 77 41t58.5 -21.5t27.5 -63.5t-13 -83q-25 -57 -69 -86t-88 -28t-79 35t-39 104zM311 -18l807 993h70l-805 -993h-72zM709 146.5q4 -17.5 20 -21.5h272 q-2 -6 -5 -26.5t-7 -43.5q-6 -25 -12 -55h70q6 31 12 55q4 23 7 43.5t5 26.5h76l16 72h-76q0 4 6.5 30.5t13.5 62.5t16.5 77t16.5 76.5t12 58t5 24.5q0 4 4 9l4 4q6 8 3 20t-10 20.5t-17.5 9.5t-20.5 -11l-405 -396q-10 -18 -6 -35.5zM817 197q10 10 45 43.5t77 72.5t79 75 t51 50q-4 -16 -12 -54t-16.5 -78t-14.5 -71.5t-8 -37.5h-201z" />
<glyph unicode="&#xbf;" horiz-adv-x="706" d="M90 -102.5q4 51.5 25.5 98.5t56.5 89t74 77q57 53 102 103t60 116l24 117h82l-25 -117q-18 -88 -76.5 -152.5t-117.5 -119.5q-154 -139 -107 -267q12 -35 56.5 -53t103.5 -12q68 8 117 50t76 89l65 -41q-41 -70 -105.5 -116t-146.5 -56q-84 -12 -151.5 9.5t-91.5 78.5 q-25 55 -21 106.5zM428 637q6 31 32.5 52.5t61.5 21.5q29 0 47.5 -21.5t12.5 -52.5q-8 -35 -35 -56.5t-55 -21.5q-35 0 -53.5 21.5t-10.5 56.5z" />
<glyph unicode="&#xc2;" horiz-adv-x="847" d="M12 0q156 264 281 473q53 90 102 174t90 152q47 78 88 149q18 29 38 40t26 13q18 4 32.5 -12t16.5 -24q2 -6 -5 -14.5t-11 -12.5l155 -938l-84 -16l-43 284h-446l-166 -284zM293 336h393l-88 516zM434 1071l211 178h55l136 -178h-87l-92 108l-133 -108h-90z" />
<glyph unicode="&#xc4;" horiz-adv-x="847" d="M12 0q156 264 281 473q53 90 102 174t90 152q47 78 88 149q18 29 38 40t26 13q18 4 32.5 -12t16.5 -24q2 -6 -5 -14.5t-11 -12.5l155 -938l-84 -16l-43 284h-446l-166 -284zM293 336h393l-88 516zM471 1166q4 29 26 47t50 18q29 0 43.5 -18.5t9.5 -46.5 q-6 -29 -28.5 -46.5t-50.5 -17.5q-29 0 -42.5 17.5t-7.5 46.5zM725 1166q4 29 26 47t50 18q29 0 43.5 -18.5t9.5 -46.5q-6 -29 -28.5 -46.5t-50.5 -17.5q-29 0 -42.5 17.5t-7.5 46.5z" />
<glyph unicode="&#xc5;" horiz-adv-x="845" d="M12 0q156 264 281 473q53 90 102 174t90 152q47 78 88 149q18 29 38 40t26 13q18 4 32.5 -12t16.5 -24q2 -6 -5 -14.5t-11 -12.5l155 -938l-84 -16l-43 284h-446l-166 -284zM293 336h393l-88 516zM530 1182q12 57 59.5 97t104.5 40t89 -40t20 -97t-60.5 -96t-105.5 -39 t-88 39t-19 96zM590 1182q-6 -33 11 -55.5t50 -22.5t60.5 22.5t33.5 55.5q8 33 -10 55.5t-51 22.5t-59.5 -22.5t-34.5 -55.5z" />
<glyph unicode="&#xc6;" horiz-adv-x="1153" d="M8 23l701 886q16 27 42.5 46.5t55.5 19.5h508l-21 -80h-401l-74 -350h357l-15 -80h-358l-82 -383h401l-16 -80h-410q-37 0 -51 24.5t-8 51.5l39 182h-383l-223 -274zM348 334h344l119 555v4l-37 -2z" />
<glyph unicode="&#xc7;" horiz-adv-x="815" d="M160 274q-10 84 14 205q27 123 73 207t100 139.5t108.5 86t95.5 44.5q109 37 210 17.5t163 -86.5l-56 -80q-20 31 -54 51.5t-75 29.5t-87 7t-91 -18q-111 -39 -189.5 -144.5t-111.5 -253.5q-31 -147 5 -251.5t128 -143.5q35 -14 78 -18.5t89 2t92 26t83 53.5l41 -67 q-49 -39 -105.5 -63.5t-112.5 -34t-110.5 -4t-99.5 25.5q-35 14 -76 45t-71.5 86t-40.5 139zM284 -266l39 59q18 -12 40 -16t40 -4q29 0 55.5 9t32.5 36q6 35 -29.5 47t-89.5 16l103 127h77l-73 -80q41 -8 69.5 -32.5t18.5 -65.5q-14 -66 -69.5 -93.5t-119.5 -27.5 q-20 0 -48.5 6t-45.5 19z" />
<glyph unicode="&#xca;" horiz-adv-x="753" d="M119 0l184 874q4 18 0 29.5t-9 19l-9 13.5t0 16q6 10 22.5 26.5t36.5 16.5q6 0 15.5 -7t13.5 -17h456l-16 -80h-424l-74 -348h379l-16 -80h-379l-82 -383h422l-16 -80h-504zM405 1069l211 178h55l136 -178h-87l-92 108l-133 -108h-90z" />
<glyph unicode="&#xcb;" horiz-adv-x="753" d="M119 0l184 874q4 18 0 29.5t-9 19l-9 13.5t0 16q6 10 22.5 26.5t36.5 16.5q6 0 15.5 -7t13.5 -17h456l-16 -80h-424l-74 -348h379l-16 -80h-379l-82 -383h422l-16 -80h-504zM434 1166q4 29 26 47t50 18q29 0 43.5 -18.5t9.5 -46.5q-6 -29 -28.5 -46.5t-50.5 -17.5 q-29 0 -42.5 17.5t-7.5 46.5zM688 1166q4 29 26 47t50 18q29 0 43.5 -18.5t9.5 -46.5q-6 -29 -28.5 -46.5t-50.5 -17.5q-29 0 -42.5 17.5t-7.5 46.5z" />
<glyph unicode="&#xce;" horiz-adv-x="331" d="M131 0l205 971h78l-205 -971h-78zM197 1069l211 178h55l136 -178h-87l-92 108l-133 -108h-90z" />
<glyph unicode="&#xcf;" horiz-adv-x="331" d="M131 0l205 971h78l-205 -971h-78zM227 1166q4 29 26 47t50 18q29 0 43.5 -18.5t9.5 -46.5q-6 -29 -28.5 -46.5t-50.5 -17.5q-29 0 -42.5 17.5t-7.5 46.5zM481 1166q4 29 26 47t50 18q29 0 43.5 -18.5t9.5 -46.5q-6 -29 -28.5 -46.5t-50.5 -17.5q-29 0 -42.5 17.5 t-7.5 46.5z" />
<glyph unicode="&#xd0;" horiz-adv-x="974" d="M100 455l17 77h131l76 359q0 8 -4.5 15t-8.5 15.5t-6 15.5t2 17t19.5 22.5t35.5 12.5q12 0 27 -18h189q106 0 192 -31t140.5 -91.5t72.5 -151.5t-6 -210q-25 -121 -82 -212t-137 -152.5t-179.5 -92t-205.5 -30.5h-238l96 455h-131zM231 80h177q92 0 171.5 28.5t142 83 t106.5 129t63 166.5q23 106 4.5 183.5t-70 126.5t-128 71.5t-171.5 22.5h-123l-75 -359h221l-17 -77h-221z" />
<glyph unicode="&#xd1;" horiz-adv-x="880" d="M111 0l184 877q4 18 1 28t-7 17.5t-8.5 12.5t0.5 15q4 10 21 26.5t38 16.5q6 0 14 -7t15 -17l342 -836l178 838h78l-205 -971h-70l-340 772l-164 -772h-77zM497 1108q10 53 40 93.5t77 40.5q25 0 44 -9.5t37.5 -21.5t37 -21.5t41.5 -9.5q12 0 28.5 15.5t24.5 50.5h55 q-12 -55 -47 -92t-84 -37q-20 0 -40.5 9t-40 20.5t-37 20.5t-29.5 9q-18 0 -30.5 -19.5t-20.5 -48.5h-56z" />
<glyph unicode="&#xd4;" horiz-adv-x="950" d="M164 271.5q-6 93.5 18 207.5q25 113 70 207t108.5 159.5t144.5 102.5t175 37q92 0 157.5 -37t100.5 -102.5t41 -159.5t-18 -207q-25 -115 -70 -208t-108.5 -158.5t-144.5 -102.5t-173 -37q-94 0 -159.5 37t-100.5 102.5t-41 159zM247 321.5q1 -77.5 25.5 -138t74.5 -97.5 t134 -37q82 0 148.5 37t116 97.5t83 138t50.5 157.5q16 80 16 157t-24.5 138.5t-75 98t-131.5 36.5q-84 0 -151 -36.5t-117 -98t-83.5 -138.5t-50.5 -157q-16 -80 -15 -157.5zM496 1071l211 178h55l136 -178h-87l-92 108l-133 -108h-90z" />
<glyph unicode="&#xd6;" horiz-adv-x="950" d="M164 271.5q-6 93.5 18 207.5q25 113 70 207t108.5 159.5t144.5 102.5t175 37q92 0 157.5 -37t100.5 -102.5t41 -159.5t-18 -207q-25 -115 -70 -208t-108.5 -158.5t-144.5 -102.5t-173 -37q-94 0 -159.5 37t-100.5 102.5t-41 159zM247 321.5q1 -77.5 25.5 -138t74.5 -97.5 t134 -37q82 0 148.5 37t116 97.5t83 138t50.5 157.5q16 80 16 157t-24.5 138.5t-75 98t-131.5 36.5q-84 0 -151 -36.5t-117 -98t-83.5 -138.5t-50.5 -157q-16 -80 -15 -157.5zM526 1166q4 29 26 47t50 18q29 0 43.5 -18.5t9.5 -46.5q-6 -29 -28.5 -46.5t-50.5 -17.5 q-29 0 -42.5 17.5t-7.5 46.5zM780 1166q4 29 26 47t50 18q29 0 43.5 -18.5t9.5 -46.5q-6 -29 -28.5 -46.5t-50.5 -17.5q-29 0 -42.5 17.5t-7.5 46.5z" />
<glyph unicode="&#xd7;" horiz-adv-x="819" d="M135 92l295 244l-192 246l63 53l195 -246l290 246l41 -53l-290 -244l198 -254l-63 -51l-201 254l-295 -246z" />
<glyph unicode="&#xd8;" horiz-adv-x="954" d="M109.5 -82q-9.5 6 1.5 19l125 161q-47 68 -58.5 170.5t15.5 231.5q25 113 69.5 206t108 158.5t144.5 102.5t175 37q121 0 193 -60l98 129q10 12 18.5 7t18.5 -11q12 -8 20.5 -13t-2.5 -18l-108 -143q47 -66 59 -166t-16 -229q-25 -115 -70 -208t-108.5 -159.5 t-144.5 -103.5t-173 -37q-121 0 -192 59l-117 -149q-10 -12 -17.5 -8t-19.5 10q-10 8 -19.5 14zM257 323q3 -85 38 -147l532 696q-55 55 -153 56q-84 0 -150.5 -37t-117 -97.5t-84.5 -137t-50 -156.5q-18 -92 -15 -177zM336 123q29 -27 67 -41t89 -14q82 0 148.5 36.5 t115.5 98t82.5 139.5t50.5 158q18 88 16 172t-35 147z" />
<glyph unicode="&#xdb;" horiz-adv-x="935" d="M176 297l143 674h78l-141 -672q-14 -66 -2 -112t43 -74.5t77 -42t101 -13.5q53 0 105.5 13.5t95.5 42t75.5 74.5t47.5 112l141 672h76l-144 -674q-33 -158 -143.5 -239t-269.5 -81q-160 0 -238 81t-45 239zM491 1071l211 178h55l136 -178h-87l-92 108l-133 -108h-90z" />
<glyph unicode="&#xdc;" horiz-adv-x="935" d="M176 297l143 674h78l-141 -672q-14 -66 -2 -112t43 -74.5t77 -42t101 -13.5q53 0 105.5 13.5t95.5 42t75.5 74.5t47.5 112l141 672h76l-144 -674q-33 -158 -143.5 -239t-269.5 -81q-160 0 -238 81t-45 239zM520 1166q4 29 26 47t50 18q29 0 43.5 -18.5t9.5 -46.5 q-6 -29 -28.5 -46.5t-50.5 -17.5q-29 0 -42.5 17.5t-7.5 46.5zM774 1166q4 29 26 47t50 18q29 0 43.5 -18.5t9.5 -46.5q-6 -29 -28.5 -46.5t-50.5 -17.5q-29 0 -42.5 17.5t-7.5 46.5z" />
<glyph unicode="&#xde;" horiz-adv-x="806" d="M111 0l211 995h65l-39 -182h187q74 0 134 -16.5t99 -50t54 -85.5t1 -124q-35 -160 -152.5 -229.5t-295.5 -69.5h-150l-49 -238h-65zM240 307h153q152 0 243 51t116 168q12 59 -1.5 101.5t-46 70t-79.5 40t-103 12.5h-188z" />
<glyph unicode="&#xdf;" horiz-adv-x="847" d="M55 -326l238 1123q12 59 40.5 110t69.5 89t94.5 58.5t116.5 18.5q47 0 88 -10t74 -41q39 -37 48.5 -81t-1.5 -91q-6 -33 -23.5 -63.5t-38 -54t-43 -39t-38.5 -17.5q47 -25 81 -56.5t54 -74.5q20 -41 22.5 -91.5t-10.5 -109.5q-16 -72 -52 -137.5t-88 -114.5t-119.5 -78.5 t-143.5 -29.5l-166 -2l14 67h148q63 0 120.5 23.5t103.5 64.5t78 96.5t44 116.5t-1 115.5t-46 94.5t-83 63.5t-112 23.5h-141l14 68h146h2h2q29 0 60.5 3t60 15t52 38t34.5 69q14 59 2.5 95t-39.5 54q-41 33 -106.5 34t-123.5 -30q-12 -6 -30.5 -19t-37 -37t-34.5 -60.5 t-29 -92.5l-235 -1110h-66z" />
<glyph unicode="&#xe2;" horiz-adv-x="731" d="M106.5 214q-4.5 67 10.5 134q14 68 46 134.5t79 117.5t109.5 83t135.5 32q80 0 128.5 -36t70.5 -93l29 129h78l-117 -551q-16 -68 -11 -98.5t9 -53.5l-74 -26q-4 12 -13 39.5t3 87.5q-47 -59 -112.5 -95t-145.5 -36q-74 0 -123 31.5t-73.5 82.5t-29 118zM177 248 q1 -51 18.5 -94t54.5 -71t96 -28q53 0 99.5 22.5t82 58.5t62 81t41.5 92l16 80q4 45 -3 90t-27.5 81t-56.5 58.5t-89 22.5q-59 0 -107.5 -27.5t-84 -70.5t-59 -95.5t-34.5 -99.5q-10 -49 -9 -100zM303 797l211 178h55l136 -178h-87l-92 108l-133 -108h-90z" />
<glyph unicode="&#xe4;" horiz-adv-x="731" d="M106.5 214q-4.5 67 10.5 134q14 68 46 134.5t79 117.5t109.5 83t135.5 32q80 0 128.5 -36t70.5 -93l29 129h78l-117 -551q-16 -68 -11 -98.5t9 -53.5l-74 -26q-4 12 -13 39.5t3 87.5q-47 -59 -112.5 -95t-145.5 -36q-74 0 -123 31.5t-73.5 82.5t-29 118zM177 248 q1 -51 18.5 -94t54.5 -71t96 -28q53 0 99.5 22.5t82 58.5t62 81t41.5 92l16 80q4 45 -3 90t-27.5 81t-56.5 58.5t-89 22.5q-59 0 -107.5 -27.5t-84 -70.5t-59 -95.5t-34.5 -99.5q-10 -49 -9 -100zM323 887q4 29 26 47t50 18q29 0 43.5 -18.5t9.5 -46.5q-6 -29 -28.5 -46.5 t-50.5 -17.5q-29 0 -42.5 17.5t-7.5 46.5zM577 887q4 29 26 47t50 18q29 0 43.5 -18.5t9.5 -46.5q-6 -29 -28.5 -46.5t-50.5 -17.5q-29 0 -42.5 17.5t-7.5 46.5z" />
<glyph unicode="&#xe5;" horiz-adv-x="731" d="M106.5 214q-4.5 67 10.5 134q14 68 46 134.5t79 117.5t109.5 83t135.5 32q80 0 128.5 -36t70.5 -93l29 129h78l-117 -551q-16 -68 -11 -98.5t9 -53.5l-74 -26q-4 12 -13 39.5t3 87.5q-47 -59 -112.5 -95t-145.5 -36q-74 0 -123 31.5t-73.5 82.5t-29 118zM177 248 q1 -51 18.5 -94t54.5 -71t96 -28q53 0 99.5 22.5t82 58.5t62 81t41.5 92l16 80q4 45 -3 90t-27.5 81t-56.5 58.5t-89 22.5q-59 0 -107.5 -27.5t-84 -70.5t-59 -95.5t-34.5 -99.5q-10 -49 -9 -100zM391 928q12 57 60.5 97t105.5 40t88 -40t19 -97q-10 -57 -59.5 -96.5 t-106.5 -39.5t-87 39.5t-20 96.5zM455 928q-6 -33 10 -53.5t49 -20.5t57.5 20.5t30.5 53.5q8 33 -8 53t-49 20t-57.5 -20t-32.5 -53z" />
<glyph unicode="&#xe6;" horiz-adv-x="1290" d="M123 213q-4 68 10 137q14 70 47 136.5t81 119.5t111.5 86t139.5 33q84 0 134 -35t75 -94l29 131h79l-22 -106q49 53 115.5 86.5t152.5 33.5q104 0 155.5 -45t72 -105.5t16.5 -119.5t-10 -90t-23 -43q-10 -8 -47 -8h-483q-20 -96 7.5 -156.5t88.5 -89.5q43 -18 85 -19.5 t78 8t62.5 24t40.5 22.5l35 -66q-29 -16 -74 -32.5t-96 -25.5t-102.5 -5t-92.5 26q-59 31 -90 90l-2 -6l-16 -104h-84l22 110q-49 -59 -115.5 -96t-150.5 -37q-76 0 -125 33t-74.5 86t-29.5 121zM195 246q2 -53 20 -97.5t56.5 -72t97.5 -27.5q57 0 104 23.5t84 60.5t63.5 83 t41.5 93l16 82q6 45 -1 91t-28.5 83t-59.5 60.5t-93 23.5q-59 0 -109.5 -28.5t-87.5 -71.5t-61.5 -96.5t-34.5 -102.5q-10 -51 -8 -104zM768 408h467q10 39 7 86t-22.5 85.5t-59.5 65.5t-103 27q-66 0 -115 -28t-85 -68.5t-58.5 -87t-30.5 -80.5z" />
<glyph unicode="&#xe7;" horiz-adv-x="620" d="M120 198.5q-7 61.5 11 151.5q18 88 53 150.5t74 103.5t78 63.5t70 32.5q80 29 156.5 13.5t121.5 -68.5l-47 -74q-12 25 -37 41.5t-54.5 23.5t-62 6t-63.5 -11q-80 -29 -136.5 -102.5t-78.5 -178.5q-23 -104 2.5 -178t93.5 -102q23 -10 53.5 -13.5t64.5 1.5t66.5 19.5 t59.5 41.5l35 -58l-7 -4q-63 -53 -151 -70.5t-164 13.5q-27 10 -56.5 32.5t-52 63.5t-29.5 102.5zM180 -266l39 59q18 -12 40 -16t40 -4q29 0 55.5 9t32.5 36q6 35 -29.5 47t-89.5 16l103 127h77l-73 -80q41 -8 69.5 -32.5t18.5 -65.5q-14 -66 -69.5 -93.5t-119.5 -27.5 q-20 0 -48.5 6t-45.5 19z" />
<glyph unicode="&#xea;" horiz-adv-x="737" d="M113 225.5q-4 53.5 10 118.5q12 59 44 125t82 120t117.5 89t153.5 35q100 0 150.5 -44t69 -102.5t15.5 -118t-10 -88.5q-6 -31 -20 -41q-10 -8 -47 -8h-473q-20 -92 13.5 -155.5t86.5 -87.5q41 -18 81 -17.5t75 11t61.5 23.5t38.5 21l33 -61q-27 -16 -71 -32.5t-93 -24.5 t-100 -5t-90 25q-35 18 -62.5 49t-44 73t-20.5 95.5zM219 389h455q8 37 6 82t-21.5 84t-57.5 64.5t-99 25.5q-63 0 -112.5 -27.5t-84.5 -67.5t-56.5 -84t-29.5 -77zM332 793l211 178h55l136 -178h-87l-92 108l-133 -108h-90z" />
<glyph unicode="&#xeb;" horiz-adv-x="745" d="M113 225.5q-4 53.5 10 118.5q12 59 44 125t82 120t117.5 89t153.5 35q100 0 150.5 -44t69 -102.5t15.5 -118t-10 -88.5q-6 -31 -20 -41q-10 -8 -47 -8h-473q-20 -92 13.5 -155.5t86.5 -87.5q41 -18 81 -17.5t75 11t61.5 23.5t38.5 21l33 -61q-27 -16 -71 -32.5t-93 -24.5 t-100 -5t-90 25q-35 18 -62.5 49t-44 73t-20.5 95.5zM219 389h455q8 37 6 82t-21.5 84t-57.5 64.5t-99 25.5q-63 0 -112.5 -27.5t-84.5 -67.5t-56.5 -84t-29.5 -77zM370 887q4 29 26 47t50 18q29 0 43.5 -18.5t9.5 -46.5q-6 -29 -28.5 -46.5t-50.5 -17.5q-29 0 -42.5 17.5 t-7.5 46.5zM624 887q4 29 26 47t50 18q29 0 43.5 -18.5t9.5 -46.5q-6 -29 -28.5 -46.5t-50.5 -17.5q-29 0 -42.5 17.5t-7.5 46.5z" />
<glyph unicode="&#xee;" horiz-adv-x="331" d="M125 0l149 711h80l-149 -711h-80zM135 795l211 178h55l136 -178h-87l-92 108l-133 -108h-90z" />
<glyph unicode="&#xef;" horiz-adv-x="331" d="M125 0l149 711h80l-149 -711h-80zM165 887q4 29 26 47t50 18q29 0 43.5 -18.5t9.5 -46.5q-6 -29 -28.5 -46.5t-50.5 -17.5q-29 0 -42.5 17.5t-7.5 46.5zM419 887q4 29 26 47t50 18q29 0 43.5 -18.5t9.5 -46.5q-6 -29 -28.5 -46.5t-50.5 -17.5q-29 0 -42.5 17.5t-7.5 46.5 z" />
<glyph unicode="&#xf0;" horiz-adv-x="851" d="M131 200.5q-12 65.5 4 143.5q18 88 64.5 158.5t108 121t131 77t136.5 26.5q59 0 111.5 -16.5t101.5 -67.5q-27 66 -67.5 124t-99.5 114q-66 -27 -129.5 -54.5t-126.5 -54.5l-13 59l213 93q-31 23 -71.5 44t-83.5 38l47 67q51 -25 100 -52.5t90 -62.5q51 23 107.5 47.5 t107.5 47.5l15 -64l-179 -74q57 -53 96.5 -117.5t63.5 -138.5q16 -66 17 -135t-15 -151q-23 -102 -70 -177t-109.5 -122t-133 -69.5t-135.5 -22.5q-78 0 -137.5 27.5t-95.5 76.5t-48 114.5zM209 219q12 -55 43 -93t76 -57.5t96 -19.5q59 0 115.5 20.5t103.5 59.5t82 97 t51 136t9 129.5t-33 86.5q-29 29 -74 55t-117 26q-74 0 -132 -28.5t-103 -73.5t-74 -100.5t-41 -110.5q-14 -72 -2 -127z" />
<glyph unicode="&#xf1;" horiz-adv-x="722" d="M94 0l115 547q8 33 10 56.5t0 38.5t-5 26.5t-5 21.5l76 27q4 -12 12 -41t-4 -88q43 63 107.5 96t125.5 33q76 0 116 -30t56.5 -72t16.5 -86t-6 -74l-72 -334q-8 -41 -5 -77t7 -38l-74 -26q-4 12 -9 46.5t7 94.5l72 336q18 90 -22 137t-117 47q-45 0 -85 -19.5t-71 -51 t-52.5 -73.5t-31.5 -87l-86 -410h-76zM340 796q10 53 40 93.5t77 40.5q25 0 44 -9.5t37.5 -21.5t37 -21.5t41.5 -9.5q12 0 28.5 15.5t24.5 50.5h55q-12 -55 -47 -92t-84 -37q-20 0 -40.5 9t-40 20.5t-37 20.5t-29.5 9q-18 0 -30.5 -19.5t-20.5 -48.5h-56z" />
<glyph unicode="&#xf4;" horiz-adv-x="694" d="M106.5 215.5q-4.5 65.5 10.5 132.5q14 68 46 133.5t79 116.5t108 83t135 32t123 -32t75 -83t31 -116.5t-9 -133.5t-47 -133t-80.5 -116.5t-109.5 -83t-136 -31.5t-122 31.5t-73.5 83t-30 117zM178 243.5q2 -53.5 20.5 -96.5t55.5 -70.5t92 -27.5t102.5 27.5t84 70.5 t61 96.5t37.5 104.5q10 49 8 102.5t-20.5 97.5t-54.5 71.5t-91 27.5t-103 -27.5t-85 -70.5t-61.5 -96.5t-35.5 -104.5q-12 -51 -10 -104.5zM313 795l211 178h55l136 -178h-87l-92 108l-133 -108h-90z" />
<glyph unicode="&#xf6;" horiz-adv-x="694" d="M106.5 215.5q-4.5 65.5 10.5 132.5q14 68 46 133.5t79 116.5t108 83t135 32t123 -32t75 -83t31 -116.5t-9 -133.5t-47 -133t-80.5 -116.5t-109.5 -83t-136 -31.5t-122 31.5t-73.5 83t-30 117zM178 243.5q2 -53.5 20.5 -96.5t55.5 -70.5t92 -27.5t102.5 27.5t84 70.5 t61 96.5t37.5 104.5q10 49 8 102.5t-20.5 97.5t-54.5 71.5t-91 27.5t-103 -27.5t-85 -70.5t-61.5 -96.5t-35.5 -104.5q-12 -51 -10 -104.5zM344 887q4 29 26 47t50 18q29 0 43.5 -18.5t9.5 -46.5q-6 -29 -28.5 -46.5t-50.5 -17.5q-29 0 -42.5 17.5t-7.5 46.5zM598 887 q4 29 26 47t50 18q29 0 43.5 -18.5t9.5 -46.5q-6 -29 -28.5 -46.5t-50.5 -17.5q-29 0 -42.5 17.5t-7.5 46.5z" />
<glyph unicode="&#xf7;" horiz-adv-x="946" d="M193 295l16 80h672l-17 -80h-671zM430 115q6 27 29.5 46t50.5 19t41 -19t8 -46q-4 -27 -26.5 -45.5t-49.5 -18.5t-42 18.5t-11 45.5zM524 551q4 27 27.5 45t50.5 18t41 -18t10 -45q-6 -27 -28.5 -46.5t-49.5 -19.5t-42 19.5t-9 46.5z" />
<glyph unicode="&#xf8;" horiz-adv-x="718" d="M103.5 -54.5q-5.5 5.5 2.5 15.5l87 115q-39 53 -46.5 128t9.5 156q14 66 43.5 130.5t76 114.5t105.5 81t133 31q82 0 135 -43l80 100q8 10 14.5 6t16.5 -8q10 -6 15 -11t-1 -16l-88 -112q37 -51 44 -124t-9 -149q-14 -68 -45 -131t-77 -114.5t-105.5 -82t-131.5 -30.5 q-41 0 -73.5 10.5t-55.5 26.5l-83 -107q-6 -10 -13.5 -7t-17.5 9t-15.5 11.5zM224 250q3 -57 26 -100l348 454q-35 39 -100 39q-55 0 -99.5 -26.5t-78 -67.5t-55.5 -91.5t-32 -97.5q-12 -53 -9 -110zM285 109q37 -33 92 -33t99 26.5t78 68.5t56.5 92t32.5 97q10 49 9 102.5 t-21 96.5z" />
<glyph unicode="&#xfb;" horiz-adv-x="737" d="M136 169q-1 44 5 75l99 469h73l-98 -471q-20 -90 24 -141.5t121 -51.5q45 0 86 20.5t74 54.5t55.5 77t32.5 88l90 424h76l-119 -559q-14 -68 -9 -98.5t9 -53.5l-73 -27q-4 12 -13.5 40t2.5 87q-45 -63 -111.5 -91.5t-127.5 -28.5q-76 0 -117 29.5t-59.5 71.5t-19.5 86z M332 793l211 178h55l136 -178h-87l-92 108l-133 -108h-90z" />
<glyph unicode="&#xfc;" horiz-adv-x="737" d="M136 169q-1 44 5 75l99 469h73l-98 -471q-20 -90 24 -141.5t121 -51.5q45 0 86 20.5t74 54.5t55.5 77t32.5 88l90 424h76l-119 -559q-14 -68 -9 -98.5t9 -53.5l-73 -27q-4 12 -13.5 40t2.5 87q-45 -63 -111.5 -91.5t-127.5 -28.5q-76 0 -117 29.5t-59.5 71.5t-19.5 86z M352 887q4 29 26 47t50 18q29 0 43.5 -18.5t9.5 -46.5q-6 -29 -28.5 -46.5t-50.5 -17.5q-29 0 -42.5 17.5t-7.5 46.5zM606 887q4 29 26 47t50 18q29 0 43.5 -18.5t9.5 -46.5q-6 -29 -28.5 -46.5t-50.5 -17.5q-29 0 -42.5 17.5t-7.5 46.5z" />
<glyph unicode="&#xfe;" horiz-adv-x="927" d="M49 -291l273 1276h69l-90 -418q61 72 146 116t178 44q74 0 133 -28.5t96 -80t50.5 -119t-3.5 -145.5q-16 -78 -58 -145.5t-100.5 -118.5t-130 -79.5t-145.5 -28.5q-92 0 -158.5 43t-97.5 114l-92 -430h-70zM256 234.5q10 -56.5 40 -97.5t77 -65.5t106 -24.5t117.5 24.5 t106 65.5t82 97.5t46.5 119.5q14 63 4 119.5t-40.5 97.5t-77.5 66t-107 25q-59 0 -116.5 -25t-105.5 -66t-82 -97.5t-48 -119.5q-12 -63 -2 -119.5z" />
<glyph unicode="&#xff;" horiz-adv-x="708" d="M47 -256q59 23 96 40t66 45t55.5 72t63.5 119l-138 680l82 33l117 -622l365 622l59 -33l-21 -36q-22 -37 -57 -96.5t-80 -134.5t-91 -153.5t-91 -154.5t-81 -135.5t-57.5 -95t-23.5 -37.5q-23 -37 -48 -65t-60 -50q-55 -33 -95 -45t-53 -19zM337 887q4 29 26 47t50 18 q29 0 43.5 -18.5t9.5 -46.5q-6 -29 -28.5 -46.5t-50.5 -17.5q-29 0 -42.5 17.5t-7.5 46.5zM591 887q4 29 26 47t50 18q29 0 43.5 -18.5t9.5 -46.5q-6 -29 -28.5 -46.5t-50.5 -17.5q-29 0 -42.5 17.5t-7.5 46.5z" />
<glyph unicode="&#x102;" horiz-adv-x="921" d="M53 0q156 264 281 473q53 90 102 174t90 152q47 78 88 149q18 29 38 40t26 13q18 4 32.5 -12t16.5 -24q2 -6 -5 -14.5t-11 -12.5l155 -938l-84 -16l-43 284h-446l-166 -284zM334 336h393l-88 516zM511 1206q-9 40 1 85h74q-16 -70 14.5 -112t97.5 -42q68 0 115 42t64 112 h73q-10 -45 -35.5 -85t-61.5 -71t-79 -48t-90 -17q-45 0 -83 17t-59.5 48t-30.5 71z" />
<glyph unicode="&#x103;" horiz-adv-x="731" d="M106.5 214q-4.5 67 10.5 134q14 68 46 134.5t79 117.5t109.5 83t135.5 32q80 0 128.5 -36t70.5 -93l29 129h78l-117 -551q-16 -68 -11 -98.5t9 -53.5l-74 -26q-4 12 -13 39.5t3 87.5q-47 -59 -112.5 -95t-145.5 -36q-74 0 -123 31.5t-73.5 82.5t-29 118zM177 248 q1 -51 18.5 -94t54.5 -71t96 -28q53 0 99.5 22.5t82 58.5t62 81t41.5 92l16 80q4 45 -3 90t-27.5 81t-56.5 58.5t-89 22.5q-59 0 -107.5 -27.5t-84 -70.5t-59 -95.5t-34.5 -99.5q-10 -49 -9 -100zM335 927q-9 40 1 85h74q-16 -70 14.5 -112t97.5 -42q68 0 115 42t64 112h73 q-10 -45 -35.5 -85t-61.5 -71t-79 -48t-90 -17q-45 0 -83 17t-59.5 48t-30.5 71z" />
<glyph unicode="&#x106;" horiz-adv-x="821" d="M160 274q-10 84 14 205q27 123 73 207t100 139.5t108.5 86t95.5 44.5q109 37 210 17.5t163 -86.5l-56 -80q-20 31 -54 51.5t-75 29.5t-87 7t-91 -18q-111 -39 -189.5 -144.5t-111.5 -253.5q-31 -147 5 -251.5t128 -143.5q35 -14 78 -18.5t89 2t92 26t83 53.5l41 -67 q-49 -39 -105.5 -63.5t-112.5 -34t-110.5 -4t-99.5 25.5q-35 14 -76 45t-71.5 86t-40.5 139zM570 1070l182 213h121l-240 -213h-63z" />
<glyph unicode="&#x107;" horiz-adv-x="616" d="M120 198.5q-7 61.5 11 151.5q18 88 53 150.5t74 103.5t78 63.5t70 32.5q80 29 156.5 13.5t121.5 -68.5l-47 -74q-12 25 -37 41.5t-54.5 23.5t-62 6t-63.5 -11q-80 -29 -136.5 -102.5t-78.5 -178.5q-23 -104 2.5 -178t93.5 -102q23 -10 53.5 -13.5t64.5 1.5t66.5 19.5 t59.5 41.5l35 -58l-7 -4q-63 -53 -151 -70.5t-164 13.5q-27 10 -56.5 32.5t-52 63.5t-29.5 102.5zM373 791l182 213h121l-240 -213h-63z" />
<glyph unicode="&#x10c;" horiz-adv-x="821" d="M160 274q-10 84 14 205q27 123 73 207t100 139.5t108.5 86t95.5 44.5q109 37 210 17.5t163 -86.5l-56 -80q-20 31 -54 51.5t-75 29.5t-87 7t-91 -18q-111 -39 -189.5 -144.5t-111.5 -253.5q-31 -147 5 -251.5t128 -143.5q35 -14 78 -18.5t89 2t92 26t83 53.5l41 -67 q-49 -39 -105.5 -63.5t-112.5 -34t-110.5 -4t-99.5 25.5q-35 14 -76 45t-71.5 86t-40.5 139zM539 1247h82l84 -117l141 117h86l-213 -178h-53z" />
<glyph unicode="&#x10d;" horiz-adv-x="616" d="M120 198.5q-7 61.5 11 151.5q18 88 53 150.5t74 103.5t78 63.5t70 32.5q80 29 156.5 13.5t121.5 -68.5l-47 -74q-12 25 -37 41.5t-54.5 23.5t-62 6t-63.5 -11q-80 -29 -136.5 -102.5t-78.5 -178.5q-23 -104 2.5 -178t93.5 -102q23 -10 53.5 -13.5t64.5 1.5t66.5 19.5 t59.5 41.5l35 -58l-7 -4q-63 -53 -151 -70.5t-164 13.5q-27 10 -56.5 32.5t-52 63.5t-29.5 102.5zM356 971h82l84 -117l141 117h86l-213 -178h-53z" />
<glyph unicode="&#x110;" horiz-adv-x="931" d="M137 430l17 78h122l82 381q8 35 33 57.5t58 22.5h161q217 0 309.5 -121t41.5 -363q-53 -244 -195.5 -364.5t-359.5 -120.5h-156q-47 0 -59.5 22.5t-4.5 59.5l74 348h-123zM266 80h176q92 0 164 28.5t125 82t88 128t55 166.5q45 213 -40.5 308.5t-272.5 95.5h-123 l-82 -381h199l-16 -76h-199z" />
<glyph unicode="&#x111;" horiz-adv-x="776" d="M135 214q-4 67 10 134q14 68 45 133.5t78 116.5t109.5 83t136.5 32q80 0 130 -35t73 -92l59 272h-164l13 62h163l25 118h76l-25 -118h107l-13 -62h-106l-160 -752l-14 -102h-82l20 107q-47 -55 -111.5 -92t-144.5 -37q-74 0 -123 31.5t-73.5 82.5t-28.5 118zM206 247 q1 -52 18.5 -94t54 -70t96.5 -28q53 0 99 22.5t82 58.5t62.5 81t40.5 92l17 80q4 45 -3 89t-27.5 80t-56.5 58.5t-89 22.5q-59 0 -107.5 -27.5t-84.5 -70.5t-59.5 -94.5t-33.5 -98.5q-10 -49 -9 -101z" />
<glyph unicode="&#x11e;" horiz-adv-x="862" d="M159 275.5q-5 93.5 19 205.5q20 94 61.5 184.5t102.5 161t140 114.5t175 44q49 0 94.5 -13.5t80 -39t56 -65.5t23.5 -91l-90 -31q-2 82 -55 121t-127 39q-80 0 -142.5 -38t-109.5 -98t-79 -136t-48 -152q-18 -94 -17 -173t28.5 -135t84 -88t146.5 -32q47 0 98 13.5 t102 29.5l68 314h-223l16 79h252q20 18 35 19q20 0 29.5 -16.5t11.5 -26.5q0 -10 -6 -15.5t-13.5 -11.5t-15.5 -16t-12 -29l-76 -360q-86 -35 -163 -47.5t-163 -12.5q-90 0 -150.5 37t-94 104.5t-38.5 161zM511 1206q-9 40 1 85h74q-16 -70 14.5 -112t97.5 -42q68 0 115 42 t64 112h73q-10 -45 -35.5 -85t-61.5 -71t-79 -48t-90 -17q-45 0 -83 17t-59.5 48t-30.5 71z" />
<glyph unicode="&#x11f;" horiz-adv-x="745" d="M113 210.5q-4 65.5 10 135.5q14 68 46 134.5t80 118.5t110.5 84t136.5 32q80 0 128.5 -36t71.5 -95q12 59 35 88.5t33 42.5l61 -27q-14 -23 -30.5 -53.5t-32.5 -97.5l-109 -525q-25 -115 -85 -182.5t-134 -100t-148.5 -37.5t-125.5 7q14 27 22 39t12.5 18t5.5 8.5t3 6.5 q59 -12 119.5 -3t111.5 39.5t89 86t57 137.5l14 73q-49 -57 -113.5 -92t-142.5 -35q-74 0 -123 32t-73.5 84t-28.5 117.5zM182 245q2 -52 20.5 -95.5t55.5 -71t96 -27.5q53 0 99.5 22.5t82 58.5t61.5 81t40 90l16 82q6 45 -1 91t-27.5 83t-56.5 59.5t-89 22.5 q-59 0 -108 -27.5t-85 -70.5t-60.5 -95.5t-35.5 -101.5q-10 -49 -8 -101zM351 927q-9 40 1 85h74q-16 -70 14.5 -112t97.5 -42q68 0 115 42t64 112h73q-10 -45 -35.5 -85t-61.5 -71t-79 -48t-90 -17q-45 0 -83 17t-59.5 48t-30.5 71z" />
<glyph unicode="&#x130;" horiz-adv-x="331" d="M125 0l211 995h82l-211 -995h-82zM342 1180q8 35 34.5 56t55.5 21q35 0 53.5 -21.5t10.5 -55.5q-6 -31 -34 -52.5t-63 -21.5q-29 0 -46 21.5t-11 52.5z" />
<glyph unicode="&#x131;" horiz-adv-x="331" d="M125 0l149 711h80l-149 -711h-80z" />
<glyph unicode="&#x141;" horiz-adv-x="651" d="M61 338l17 78l153 90l99 465h80l-86 -412l241 141l-16 -77l-244 -142l-86 -409h420l-14 -72h-451q-10 -10 -22.5 -17.5t-18.5 -7.5q-20 0 -29.5 16.5t-11.5 26.5q0 8 6 15.5t15.5 14.5t17.5 18.5t12 29.5l72 332z" />
<glyph unicode="&#x142;" horiz-adv-x="331" d="M102 391l17 78l123 84l98 463l45 39h37l-94 -439q29 20 61.5 42t61.5 42l-17 -77l-123 -88l-112 -535h-74l100 479q-29 -20 -61.5 -43.5t-61.5 -44.5z" />
<glyph unicode="&#x152;" horiz-adv-x="1312" d="M143.5 271.5q-6.5 93.5 18.5 207.5q25 113 69.5 207t108 159.5t144.5 102.5t175 37q104 0 173 -46t100 -130l18 82q0 8 -4 15t-8 15.5t-6 15.5t2 17t19.5 22.5t35.5 12.5q12 0 27 -18h457l-17 -80h-424l-74 -348h379l-16 -80h-379l-82 -383h422l-16 -80h-504l31 147 q-68 -84 -156 -129t-193 -45q-94 0 -159.5 37t-100 102.5t-41 159zM226.5 321.5q0.5 -77.5 25 -138t75 -97.5t134.5 -37q82 0 148.5 37t115.5 97.5t83 138t50 157.5t16 157t-24.5 138.5t-74.5 98t-132 36.5q-84 0 -150.5 -36.5t-116.5 -98t-84 -138.5t-50 -157t-15.5 -157.5 z" />
<glyph unicode="&#x153;" horiz-adv-x="1228" d="M131 225.5q-4 63.5 10 130.5q14 68 45 131.5t77 114.5t106.5 82t134.5 31q92 0 142 -49.5t67 -124.5q51 72 126 122t177 50q98 0 148 -43t68.5 -100.5t15.5 -115t-9 -85.5q-8 -33 -21.5 -40t-46.5 -10h-458q-20 -92 6 -149t86 -84q41 -18 81 -18t73.5 9t59 21.5 t38.5 20.5l33 -60q-27 -16 -70 -31.5t-91 -23.5t-97.5 -6t-88.5 25t-67.5 57.5t-44.5 85.5q-47 -72 -118 -120t-163 -48q-74 0 -120 30.5t-70.5 82t-28.5 115zM212 260q1 -49 17.5 -91t49.5 -68.5t88 -26.5q51 0 96 26.5t78.5 66.5t56.5 89t33 96t9 98.5t-16.5 93.5 t-48 69.5t-88.5 27.5q-55 0 -99 -26.5t-78 -68.5t-56.5 -92.5t-32.5 -97.5t-9 -96zM723 395h444q10 37 8.5 81t-20 82t-55.5 63.5t-99 25.5q-61 0 -109 -26.5t-83 -65.5t-56.5 -83t-29.5 -77z" />
<glyph unicode="&#x15e;" horiz-adv-x="794" d="M80 102l80 64q14 -18 33.5 -39t48 -38t67.5 -28.5t92 -11.5t101.5 13.5t87.5 37t64.5 54t33.5 67.5q8 39 1 68.5t-34.5 55.5t-75 49.5t-118.5 51.5q-127 47 -181.5 122t-41.5 161q6 49 34.5 97t74.5 85t108.5 59.5t138.5 22.5q35 0 73 -6t72.5 -17.5t65.5 -26.5t51 -34 l-55 -69q-35 29 -90.5 51t-137.5 22q-96 0 -162.5 -49t-82.5 -121q-16 -74 39 -130t165 -97q59 -23 109.5 -47.5t84.5 -56t48 -72.5t2 -98q-27 -117 -127 -192t-274 -77q-59 0 -106.5 12.5t-83 32t-61.5 43t-44 41.5zM186 -266l39 59q18 -12 40 -16t40 -4q29 0 55.5 9 t32.5 36q6 35 -29.5 47t-89.5 16l103 127h77l-73 -80q41 -8 69.5 -32.5t18.5 -65.5q-14 -66 -69.5 -93.5t-119.5 -27.5q-20 0 -48.5 6t-45.5 19z" />
<glyph unicode="&#x15f;" horiz-adv-x="581" d="M41 76l65 55q23 -27 68 -55.5t125 -26.5t135 34t68 85q12 57 -23 87t-143 71q-94 37 -139 86t-31 114q8 37 30.5 73t58.5 63.5t83 45t104 17.5q53 0 111.5 -20.5t85.5 -42.5l-47 -68q-14 12 -60.5 35.5t-107.5 23.5q-72 0 -119 -33.5t-57 -82.5q-10 -55 30.5 -85 t120.5 -63q45 -18 83 -36.5t62.5 -42t35 -54.5t2.5 -74q-18 -88 -93 -143t-206 -57q-53 0 -93 9t-68 22.5t-47.5 30.5t-33.5 32zM114 -266l39 59q18 -12 40 -16t40 -4q29 0 55.5 9t32.5 36q6 35 -29.5 47t-89.5 16l103 127h77l-73 -80q41 -8 69.5 -32.5t18.5 -65.5 q-14 -66 -69.5 -93.5t-119.5 -27.5q-20 0 -48.5 6t-45.5 19z" />
<glyph unicode="&#x160;" horiz-adv-x="798" d="M80 102l80 64q14 -18 33.5 -39t48 -38t67.5 -28.5t92 -11.5t101.5 13.5t87.5 37t64.5 54t33.5 67.5q8 39 1 68.5t-34.5 55.5t-75 49.5t-118.5 51.5q-127 47 -181.5 122t-41.5 161q6 49 34.5 97t74.5 85t108.5 59.5t138.5 22.5q35 0 73 -6t72.5 -17.5t65.5 -26.5t51 -34 l-55 -69q-35 29 -90.5 51t-137.5 22q-96 0 -162.5 -49t-82.5 -121q-16 -74 39 -130t165 -97q59 -23 109.5 -47.5t84.5 -56t48 -72.5t2 -98q-27 -117 -127 -192t-274 -77q-59 0 -106.5 12.5t-83 32t-61.5 43t-44 41.5zM465 1247h82l84 -117l141 117h86l-213 -178h-53z" />
<glyph unicode="&#x161;" horiz-adv-x="581" d="M41 76l65 55q23 -27 68 -55.5t125 -26.5t135 34t68 85q12 57 -23 87t-143 71q-94 37 -139 86t-31 114q8 37 30.5 73t58.5 63.5t83 45t104 17.5q53 0 111.5 -20.5t85.5 -42.5l-47 -68q-14 12 -60.5 35.5t-107.5 23.5q-72 0 -119 -33.5t-57 -82.5q-10 -55 30.5 -85 t120.5 -63q45 -18 83 -36.5t62.5 -42t35 -54.5t2.5 -74q-18 -88 -93 -143t-206 -57q-53 0 -93 9t-68 22.5t-47.5 30.5t-33.5 32zM307 971h82l84 -117l141 117h86l-213 -178h-53z" />
<glyph unicode="&#x178;" horiz-adv-x="722" d="M219 973l72 26l174 -512l395 510l60 -26q-88 -113 -170 -217q-35 -45 -72 -92.5t-72 -92.5t-66.5 -86t-54.5 -71l-86 -412h-71l86 412v2zM417 1166q4 29 26 47t50 18q29 0 43.5 -18.5t9.5 -46.5q-6 -29 -28.5 -46.5t-50.5 -17.5q-29 0 -42.5 17.5t-7.5 46.5zM671 1166 q4 29 26 47t50 18q29 0 43.5 -18.5t9.5 -46.5q-6 -29 -28.5 -46.5t-50.5 -17.5q-29 0 -42.5 17.5t-7.5 46.5z" />
<glyph unicode="&#x17d;" horiz-adv-x="784" d="M45 18q-4 14 3 20.5t24 18.5q12 8 20 15.5t17 15.5l698 803h-555l16 80h609q4 4 10 8q4 4 10 7t10 7t18.5 2t26.5 -18q14 -23 8 -33t-22 -24l-35 -37l-700 -803h553l-17 -80h-610q-10 0 -19.5 -7t-19.5 -11t-21.5 2t-23.5 34zM471 1247h82l84 -117l141 117h86l-213 -178 h-53z" />
<glyph unicode="&#x17e;" horiz-adv-x="643" d="M46 36q3 13 11.5 24.5t20.5 11.5l536 567h-413l14 74h508q12 0 16 -11.5t1 -25.5t-11 -25.5t-20 -11.5l-539 -567h436l-14 -72h-529q-12 0 -16 11.5t-1 24.5zM338 971h82l84 -117l141 117h86l-213 -178h-53z" />
<glyph unicode="&#x192;" horiz-adv-x="690" d="M-12 -115l32 58q74 -12 129.5 22.5t88.5 124.5l155 440h-151l22 50h148q2 8 12 37.5t21.5 63.5t21.5 63.5t14 39.5q80 190 244 191q37 0 63.5 -16.5t34.5 -24.5l-53 -45q-63 47 -122.5 13t-96.5 -120l-70 -202h148l-23 -50h-141q-12 -37 -30.5 -91t-39 -111.5t-40 -111.5 t-33.5 -91q-31 -86 -69 -137t-81 -78t-90 -31t-94 6z" />
<glyph unicode="&#x1a0;" horiz-adv-x="942" d="M166 279.5q-6 93.5 18 207.5q25 113 70 207t108.5 160t144.5 102.5t175 36.5q82 0 141.5 -28.5t98.5 -81.5q35 25 66.5 58.5t53.5 84.5l84 -2q-27 -72 -80 -125t-96 -74q55 -131 13 -338q-25 -115 -70 -208t-108.5 -158.5t-144.5 -102t-173 -36.5q-94 0 -159.5 36.5 t-100.5 102t-41 159zM248 329.5q0 -77.5 24.5 -138t74.5 -97.5t134 -37q82 0 148.5 37t117 97.5t84 138.5t50.5 157q16 80 16 157t-24.5 138.5t-74.5 98.5t-132 37q-84 0 -150.5 -37t-117 -98.5t-84 -138.5t-50.5 -157q-16 -80 -16 -157.5z" />
<glyph unicode="&#x1a1;" horiz-adv-x="704" d="M117 215.5q-4 65.5 10 132.5q14 68 46 133.5t79 116.5t108.5 83t135.5 32q59 0 116.5 -30t83.5 -93q35 23 56.5 56.5t44.5 84.5h86q-23 -47 -56.5 -102.5t-109.5 -98.5q6 -25 8 -73.5t-10 -108.5q-14 -68 -47 -133t-80 -116.5t-109.5 -83t-136.5 -31.5t-122 31.5 t-73.5 83t-29.5 117zM188.5 243.5q1.5 -53.5 20 -96.5t55.5 -70.5t92 -27.5t102.5 27.5t84.5 70.5t61.5 96.5t36.5 104.5q10 49 8 102.5t-20.5 97.5t-54 71.5t-91.5 27.5q-55 0 -103 -27.5t-85 -70.5t-61.5 -96.5t-34.5 -104.5q-12 -51 -10.5 -104.5z" />
<glyph unicode="&#x1af;" horiz-adv-x="933" d="M181.5 195.5q-11.5 66.5 4.5 144.5l133 629h78l-133 -627q-14 -66 -3 -119t42 -90t76 -56.5t100 -19.5q53 0 106.5 19.5t97.5 56.5t77 90t47 119l133 627h76l-27 -129q43 16 79 55t52 111h74q-6 -31 -22.5 -69t-43 -73t-65.5 -62.5t-90 -37.5l-90 -424 q-16 -78 -54 -144.5t-93.5 -114.5t-124 -76t-148.5 -28t-139.5 28t-95 76t-47 114.5z" />
<glyph unicode="&#x1b0;" horiz-adv-x="735" d="M142 169q-1 44 5 75l99 469h73l-98 -471q-20 -90 24 -141.5t122 -51.5q45 0 86 20.5t73.5 54.5t55 77t32.5 88l91 422h75l-26 -129q43 16 78.5 55t52.5 111h73q-6 -31 -23 -69t-46 -73t-67 -63.5t-85 -36.5l-75 -354v2q-14 -68 -13.5 -98.5t4.5 -53.5l-73 -27 q-4 12 -9.5 40t7.5 87q-45 -63 -112 -91.5t-128 -28.5q-76 0 -117 29.5t-59.5 71.5t-19.5 86z" />
<glyph unicode="&#x2c6;" horiz-adv-x="598" d="M303 971l211 178h55l136 -178h-87l-92 108l-133 -108h-90z" />
<glyph unicode="&#x2c7;" horiz-adv-x="694" d="M387 1149h82l84 -117l141 117h86l-213 -178h-53z" />
<glyph unicode="&#x2d8;" horiz-adv-x="614" d="M302 927q-9 40 1 85h74q-16 -70 14.5 -112t97.5 -42q68 0 115 42t64 112h73q-10 -45 -35.5 -85t-61.5 -71t-79 -48t-90 -17q-45 0 -83 17t-59.5 48t-30.5 71z" />
<glyph unicode="&#x2d9;" horiz-adv-x="323" d="M289 946q6 29 30.5 51.5t57.5 22.5t49 -22.5t10 -51.5q-6 -31 -31.5 -52.5t-58.5 -21.5t-48 21.5t-9 52.5z" />
<glyph unicode="&#x2da;" horiz-adv-x="569" d="M350 963q12 57 60.5 97t105.5 40t88 -40t19 -97q-10 -57 -59.5 -96.5t-106.5 -39.5t-87 39.5t-20 96.5zM414 963q-6 -33 10 -53.5t49 -20.5t57.5 20.5t30.5 53.5q8 33 -8 53t-49 20t-57.5 -20t-32.5 -53z" />
<glyph unicode="&#x2db;" horiz-adv-x="397" d="M110 -170q14 -66 69.5 -93.5t119.5 -27.5q20 0 48.5 6t45.5 19l-39 59q-18 -12 -40 -16t-40 -4q-29 0 -55.5 9t-32.5 36q-6 35 29.5 47t89.5 16l-103 127h-77l73 -80q-41 -8 -69.5 -32.5t-18.5 -65.5z" />
<glyph unicode="&#x2dc;" horiz-adv-x="454" d="M223 829q10 53 43 93.5t78 40.5q23 0 44.5 -8.5t42 -18.5t38.5 -19.5t35 -11.5q12 -2 26.5 11.5t22.5 50.5h57q-12 -55 -46 -92t-83 -37q-16 0 -35.5 9t-40 20.5t-39 20.5t-32.5 9q-18 0 -30.5 -19.5t-20.5 -48.5h-60z" />
<glyph unicode="&#x2dd;" horiz-adv-x="614" d="M254 791l182 213h121l-240 -213h-63zM461 791l182 213h121l-240 -213h-63z" />
<glyph unicode="&#x300;" horiz-adv-x="411" d="M281 1004h118l95 -213h-66z" />
<glyph unicode="&#x301;" horiz-adv-x="409" d="M240 791l182 213h121l-240 -213h-63z" />
<glyph unicode="&#x303;" horiz-adv-x="452" d="M223 829q10 53 40 93.5t77 40.5q25 0 44 -9.5t37.5 -21.5t37 -21.5t41.5 -9.5q12 0 28.5 15.5t24.5 50.5h55q-12 -55 -47 -92t-84 -37q-20 0 -40.5 9t-40 20.5t-37 20.5t-29.5 9q-18 0 -30.5 -19.5t-20.5 -48.5h-56z" />
<glyph unicode="&#x309;" horiz-adv-x="729" d="M479 1219q16 25 54 53t106 28q53 0 84 -31.5t16 -94.5q-6 -35 -28.5 -68t-49 -58.5t-50 -43t-31.5 -23.5q-2 0 -9.5 5t-15.5 11q-8 8 -20 19q43 29 83.5 66.5t51.5 84.5q8 45 -14.5 56.5t-41.5 11.5q-25 0 -44 -7t-31.5 -16.5t-15.5 -13.5l-9 -12l-16 16q-8 8 -19 17z " />
<glyph unicode="&#x323;" horiz-adv-x="323" d="M53 -162q6 29 31 51.5t57 22.5q33 0 49.5 -22.5t10.5 -51.5q-6 -31 -32 -52.5t-58 -21.5q-33 0 -48.5 21.5t-9.5 52.5z" />
<glyph unicode="&#xe00;" horiz-adv-x="874" />
<glyph unicode="&#xe01;" horiz-adv-x="872" d="M184 0l88 422q6 25 17.5 46t17.5 30l-123 84q6 12 33 52t79 85t129 80t183 37q59 0 103.5 -11.5t76 -31t53 -43t33.5 -48.5q6 4 17.5 2t23.5 -18q14 -23 7 -33t-23 -24q-18 -14 -25 -43l-122 -586h-80l127 598q2 25 18 43q-4 8 -17.5 29.5t-38 42t-65.5 37t-100 16.5 q-70 0 -122 -17.5t-90 -42t-62.5 -51t-36.5 -45.5l69 -51q16 16 46 35.5t55 23.5q2 0 12 -20t16 -35q-68 -29 -96.5 -70.5t-34.5 -72.5l-88 -420h-80z" />
<glyph unicode="&#xe02;" horiz-adv-x="770" d="M172 633q14 76 92 139q31 27 73 42t84 19.5t81 -5t65 -31.5q31 -25 44.5 -64t4.5 -80q-6 -43 -22 -76.5t-36.5 -58t-43 -44t-41.5 -36.5q-27 -23 -36 -37t-13 -32l-53 -244q-6 -35 -27 -47h242l157 741h80l-157 -739q-6 -29 -35 -51q-29 -29 -82 -29h-260q-10 0 -14.5 -3 t-14.5 -7q-16 -4 -24.5 -2t-20.5 30q-4 14 2 21.5t25 17.5q25 14 35 30.5t12 27.5l55 254q10 43 38 71.5t56 51.5q35 29 63.5 62.5t41.5 94.5q6 37 -5.5 61.5t-34 38t-51 15.5t-57.5 -6q33 -16 48.5 -50t5.5 -75q-12 -59 -60.5 -99t-107.5 -40q-57 0 -89 39.5t-20 99.5z M242 633q-6 -29 9 -48.5t44 -19.5t53.5 19.5t30.5 48.5t-10.5 48t-44.5 19q-29 0 -52.5 -19t-29.5 -48z" />
<glyph unicode="&#xe03;" horiz-adv-x="843" d="M171 601q5 42 24 83q47 96 139 135q55 25 113.5 15.5t93.5 -68.5q39 31 63.5 45t38.5 20.5t21.5 4.5t13.5 -5q16 -12 27.5 -33.5t18.5 -45t11 -45t4 -31.5q0 -31 -10 -52.5t-26.5 -38t-36 -29.5t-39.5 -28q-39 -29 -72 -58.5t-43 -76.5l-57 -268q-6 -35 -27 -47h238 l157 741h78l-158 -739q-6 -29 -34 -51q-29 -29 -82 -29h-254q-10 0 -14.5 -3t-14.5 -7q-16 -4 -24.5 -2t-20.5 30q-4 14 2 21.5t25 17.5q25 14 35 31.5t14 28.5l57 276q8 37 26.5 65.5t42 50t48 39l45.5 32.5q41 29 54.5 47t10.5 41q-2 27 -10 56.5t-20 39.5 q-12 -8 -29.5 -20.5t-40.5 -28.5q8 -23 3 -34t-21 -17q-35 -16 -45 12q-16 59 -60.5 80.5t-89.5 5.5q-23 -8 -49.5 -32.5t-34.5 -53.5q18 12 42 21.5t46 9.5q55 0 86 -39t19 -95q-12 -55 -59.5 -93t-102.5 -38q-47 0 -76 22.5t-40 58.5t-6 78zM254 573q-6 -29 9.5 -47 t43.5 -18q29 0 51.5 18.5t28.5 46.5q6 29 -8 47.5t-43 18.5t-52.5 -18.5t-29.5 -47.5z" />
<glyph unicode="&#xe04;" horiz-adv-x="890" d="M136.5 30.5q0.5 8.5 21.5 32.5q27 31 33 76t8 103.5t6 131t26 158.5q35 139 139.5 221.5t254.5 82.5q59 0 103 -12.5t77 -31t54.5 -42t35.5 -48.5q6 4 17.5 2t23.5 -18q14 -23 7 -33t-23 -24q-18 -14 -25 -43l-123 -586h-80l127 606q7 27 21 43q2 0 -7.5 17.5t-36 40 t-70.5 41t-114 18.5q-111 0 -192.5 -61.5t-112.5 -178.5q-16 -59 -23.5 -116.5t-10.5 -104.5t-5 -82t-6 -51q49 94 78 158.5t47.5 109.5t30.5 73t26 48q57 84 146 84q55 0 87 -40t19 -95q-10 -55 -58 -94t-103 -39q-57 0 -86 39q-18 -39 -41 -87t-50.5 -102.5t-65.5 -109 t-87 -105.5q-14 -14 -29.5 -14t-25.5 10q-14 14 -13.5 22.5zM496 510q-4 -29 10 -47.5t43 -18.5t51.5 18.5t26.5 47.5q6 29 -8.5 47t-43.5 18t-51 -18t-28 -47z" />
<glyph unicode="&#xe05;" horiz-adv-x="890" d="M137.5 31.5q1.5 9.5 20.5 31.5q27 33 35 85.5t11 118t6 140t21 154.5q25 104 83.5 167t164.5 97q37 10 75 -17.5t62 -64.5q41 37 82 64t72 18q55 -23 86 -57.5t45 -62.5q6 2 15.5 -1.5t19.5 -17.5q14 -23 7 -33t-23 -24q-18 -14 -25 -43l-123 -586h-80l127 602l7.5 22.5 t11.5 20.5q-6 25 -30 61.5t-71 53.5q-10 -4 -38.5 -25.5t-61.5 -50.5q-2 -4 -7 -11t-14 -11q-16 -10 -25 -3t-18 19q-47 82 -88 86q-68 -16 -108.5 -60.5t-62 -102.5t-30 -125.5t-10.5 -128t-3 -107.5t-9 -68q49 82 78 140.5t47.5 101.5t29.5 71.5t27 51.5q59 84 148 84 q55 0 87 -40t19 -96q-12 -55 -60 -95t-103 -40q-57 0 -86 41q-39 -78 -91.5 -177t-152.5 -202q-14 -14 -29.5 -14t-25.5 10q-14 14 -12.5 23.5zM496 485q-6 -29 9 -47t44 -18t51.5 18t28.5 47t-8.5 47.5t-42.5 18.5q-29 0 -52.5 -18.5t-29.5 -47.5z" />
<glyph unicode="&#xe06;" horiz-adv-x="983" d="M186.5 521q-8.5 36 0 79t24.5 80q23 51 61.5 87t71.5 50q27 12 58.5 16.5t60.5 0t54.5 -20.5t43.5 -45q39 29 62.5 44t38 20.5t21.5 3.5t13 -5q16 -8 28.5 -23t20 -33.5t11.5 -36t4 -27.5q2 -61 -34 -94t-75 -60t-71.5 -54.5t-42.5 -72.5l-17 -74q12 0 46 -5t79 -21.5 t93 -49t85 -87.5l135 626h80l-174 -819h-80l15 70q-23 70 -67 112.5t-90 65t-85 31t-51 10.5l-37 -174q-10 -49 -38 -82t-71 -41q-41 -6 -73.5 7t-52 40t-24.5 63.5t7 77.5q25 78 89.5 121t135.5 55l17 74q8 37 25.5 63.5t40 47t47 36t44.5 29.5q41 29 56.5 48.5t17.5 41.5 q2 29 -11 49.5t-20 24.5q-12 -10 -34.5 -24.5t-44.5 -30.5q6 -25 -0.5 -35t-18.5 -14q-20 -10 -31.5 -6t-15.5 16q-16 61 -55 80.5t-92 3.5q-16 -4 -44 -26.5t-38 -53.5q14 10 32.5 15t32.5 5q57 0 88 -36.5t21 -92.5q-12 -57 -60.5 -95t-103.5 -38q-49 0 -74.5 23.5 t-34 59.5zM258 571q-6 -29 8.5 -48t42.5 -19q29 0 51.5 19.5t28.5 47.5q6 29 -8 47.5t-43 18.5t-51.5 -18.5t-28.5 -47.5zM285 172q-12 -39 3 -80t64 -37q27 2 35 43l39 189q-18 -4 -38.5 -11.5t-40 -19.5t-36 -32.5t-26.5 -51.5z" />
<glyph unicode="&#xe07;" horiz-adv-x="665" d="M102 453l62 53q2 -4 26.5 -34t58.5 -74t73.5 -94t73.5 -94t58.5 -76t26.5 -36q10 6 15 21l4 12l94 444q-33 -14 -62 -14q-57 0 -87.5 40t-18.5 95q10 55 58 95t106 40q55 0 86 -38.5t18 -94.5l-5 -24q-5 -23 -13 -61t-18.5 -86t-20.5 -99l-57 -270q-8 -37 -16.5 -58.5 t-20 -38t-26.5 -30t-34 -31.5q-18 -16 -27.5 -14t-27.5 14q-12 8 -10 15.5t14 23.5q-84 106 -151 192q-29 37 -58.5 74t-54.5 67.5t-42 52t-24 28.5zM496 696q-6 -29 8 -47t43 -18q27 0 50.5 18.5t29.5 46.5q6 29 -9.5 47.5t-42.5 18.5q-29 0 -51 -18.5t-28 -47.5z" />
<glyph unicode="&#xe08;" horiz-adv-x="819" d="M141 428q18 106 59.5 183t99.5 126t127 73t142 24q104 0 171 -41t102 -91q6 4 17 2t22 -22q10 -23 3 -33t-24 -24q-6 -4 -15 -12.5t-16 -24.5l-190 -504q-10 -25 -34.5 -47.5t-53.5 -42.5q-27 -14 -47 12q-6 8 -4 16.5t8 14.5t14 11t13 11l-11 318q-41 -29 -90 -29 q-55 0 -86 39t-18 96q10 55 57 94t102 39q53 0 83 -33.5t28 -84.5l-8 -373l168 485q6 12 11 22.5t15 18.5q-10 14 -29.5 34t-48 37t-67.5 29.5t-86 12.5q-141 0 -230 -93t-116 -243h-68zM397 483q-6 -29 8.5 -48t43.5 -19t52 19.5t29 47.5q4 27 -11 46.5t-44 19.5 t-51.5 -19.5t-26.5 -46.5z" />
<glyph unicode="&#xe09;" horiz-adv-x="872" d="M180 598q20 43 59.5 86t91.5 77t115.5 54.5t135.5 20.5q61 0 108 -12.5t82 -31t58.5 -42t37.5 -48.5q6 4 17.5 2t23.5 -18q14 -23 7 -33t-23 -24q-18 -14 -25 -43l-63 -301q45 -23 54 -63t3 -75q-14 -63 -67.5 -106t-116.5 -43q-59 0 -98 39t-23 110q4 25 29.5 60 t60.5 51q-78 -8 -140.5 -52t-108.5 -92t-75.5 -86t-41.5 -34q-14 0 -25.5 10t-13.5 21q0 18 16 30.5t21 30.5l51 231q-18 -6 -41 -6q-55 0 -87 36t-20 91q12 57 59.5 94t102.5 37t86 -36.5t19 -94.5q-6 -33 -25 -59q-4 -8 -9 -31.5t-11.5 -53.5t-13.5 -60.5t-13 -53.5 q39 41 85 70t94 46t94 22.5t83 -1.5l62 287q4 12 7 22.5t13 20.5q-4 2 -16.5 20.5t-41 40t-74.5 39t-116 17.5q-45 0 -92 -12.5t-91 -35t-81 -58t-61 -80.5l-29 8q-10 4 -20.5 7t-12.5 5zM250 438q-6 -27 8 -46t43 -19t51.5 19.5t28.5 45.5q6 29 -8.5 48.5t-42.5 19.5 q-29 0 -51.5 -19.5t-28.5 -48.5zM631 147q-6 -31 11 -55t52 -24t61.5 23.5t35.5 55.5q6 33 -11.5 57.5t-52.5 24.5q-31 0 -60.5 -23.5t-35.5 -58.5z" />
<glyph unicode="&#xe0a;" horiz-adv-x="776" d="M154 612q12 55 54 103.5t101 77.5q49 20 99.5 24t93.5 -8t71.5 -42t32.5 -77q4 -61 -25.5 -115.5t-82.5 -107.5q-41 -43 -56.5 -64.5t-21.5 -52.5l-49 -225q-6 -35 -27 -47h250l90 430q-4 18 -16.5 31.5t-28.5 23.5q-18 10 -39 21q2 4 14.5 31.5t46 71.5t94 99.5 t156.5 116.5l17 -29q6 -10 11 -20t7 -10q-100 -59 -162.5 -113.5t-95.5 -112.5q12 -2 23 -10q23 -14 41 -39q14 -23 11 -54.5t-7 -45.5l-82 -389q-6 -29 -35 -51q-29 -29 -82 -29h-268q-10 0 -14.5 -3t-14.5 -7q-16 -4 -24.5 -2t-20.5 30q-4 14 2 21.5t25 17.5 q25 14 35 30.5t12 27.5l53 243q8 41 36 74t56 64q39 41 70 79.5t26 92.5q-2 33 -21.5 51t-48 25.5t-61 4t-63.5 -15.5q45 6 70.5 -34t15.5 -87q-12 -57 -59.5 -96t-104.5 -39q-55 0 -85 38t-19 97zM221 612q-6 -29 9.5 -48t41.5 -19q29 0 52.5 19t29.5 48q6 27 -9 46.5 t-44 19.5q-27 0 -50.5 -19.5t-29.5 -46.5z" />
<glyph unicode="&#xe0b;" horiz-adv-x="870" d="M159 589q5 42 21 79q20 47 62.5 87t85.5 58q55 23 110.5 14.5t89.5 -67.5q39 31 63.5 45t38 19t20.5 3l14 -4q12 -6 23 -25.5t18.5 -44t10.5 -50t-1 -44.5q-4 -27 -13.5 -45t-26 -36.5t-40 -40t-55.5 -54.5q-20 -18 -35 -37.5t-25 -64.5l-55 -256q-6 -35 -27 -47h250 l90 426q0 23 -13 37t-30 22q-18 8 -41 12q2 4 14.5 33t46 74t94 102.5t157.5 118.5l16 -29q6 -10 11 -20t7 -10q-100 -59 -162.5 -113.5t-95.5 -112.5q12 -2 23 -10q23 -14 41 -39q14 -23 11 -54.5t-7 -45.5l-82 -389q-6 -29 -35 -51q-29 -29 -82 -29h-268q-10 0 -14 -3 t-15 -7q-16 -4 -24 -2t-21 30q-4 14 2 21.5t25 17.5q25 14 35 30.5t12 27.5l57 270q10 39 29.5 70.5t67.5 74.5q43 41 75.5 73t34.5 48q2 14 -1 31.5t-7 33t-10 26t-11 8.5q-12 -8 -28.5 -20.5t-38.5 -29.5q8 -29 -31 -43q-31 -10 -39 25q-20 47 -49 63.5t-59.5 11.5 t-61 -28.5t-55.5 -56.5q39 25 77 24.5t64.5 -16.5t40 -47t4.5 -70q-12 -57 -60 -96t-103 -39q-47 0 -75 23.5t-39 59.5t-6 78zM242 563q-6 -29 8 -48t43 -19t51.5 19.5t28.5 47.5q6 27 -8 46.5t-43 19.5t-51.5 -19.5t-28.5 -46.5z" />
<glyph unicode="&#xe0c;" horiz-adv-x="1257" d="M184 582q6 12 33 52t79 85t129 80t183 37q121 0 183.5 -42t89.5 -92q6 4 17 2t24 -18q14 -23 7 -33t-24 -24q-18 -14 -24 -43l-45 -217q23 -2 57.5 -10.5t71 -27t73.5 -49t64 -79.5l131 616h80l-174 -819h-80l12 63q-6 63 -38 106.5t-71.5 70t-79.5 40t-63 15.5l-37 -178 q-10 -51 -40.5 -80t-73.5 -37q-31 -4 -59.5 8t-46 38t-22.5 66t11 89q29 82 90 118.5t115 47.5l49 231q2 25 18 43q-4 8 -18 29.5t-40 42t-68 37t-101 16.5q-70 0 -122 -17.5t-90 -42t-62.5 -51t-36.5 -45.5l69 -51q16 16 46 35.5t55 23.5q2 0 12 -20t16 -35 q-68 -29 -96.5 -70.5t-34.5 -72.5l-37 -172q31 12 56 12q57 0 87.5 -40t18.5 -95q-10 -55 -58 -95t-106 -40q-55 0 -84.5 40t-19.5 95l63 297q6 25 17.5 46t17.5 30zM276 125q-4 -29 11.5 -47.5t42.5 -18.5q29 0 52.5 18.5t27.5 47.5q6 29 -9.5 47t-44.5 18q-27 0 -50 -18 t-30 -47zM613 146.5q-1 -19.5 4.5 -38t16.5 -32t32 -13.5q6 0 16 5.5t16 33.5l41 189q-33 -8 -68.5 -34t-52.5 -79q-4 -12 -5 -31.5z" />
<glyph unicode="&#xe0d;" horiz-adv-x="1259" d="M184 582q6 12 33 52t79 85t129 80t183 37q59 0 103.5 -11.5t76 -31t53 -43t33.5 -48.5q6 4 17.5 2t23.5 -18q14 -23 7 -33t-23 -24q-18 -14 -25 -43l-98 -461q-6 -35 -26 -47h327l158 741h80l-164 -770q-12 -55 -32.5 -112.5t-53.5 -108.5t-81 -91t-116 -59 q-57 -16 -110 -15t-93 17.5t-60.5 49t-10.5 80.5q10 53 54 90t97 37q43 0 69 -21.5t32 -54.5t-9.5 -69t-54.5 -64q121 2 187.5 78.5t93.5 199.5h-369q-10 0 -13 -3t-13 -7q-16 -4 -25.5 -2t-19.5 31q-4 14 2 21t24 17q25 14 35 31t12 27l103 477q2 25 18 43q-4 8 -17.5 29.5 t-38 42t-65.5 37t-100 16.5q-70 0 -122 -17.5t-90 -42t-62.5 -51t-36.5 -45.5l69 -51q16 16 46 35.5t55 23.5q2 0 12 -20t16 -35q-68 -29 -96.5 -70.5t-34.5 -72.5l-37 -172q31 12 56 12q57 0 87.5 -40t18.5 -95q-10 -55 -58 -95t-106 -40q-55 0 -84.5 40t-19.5 95l63 297 q6 25 17.5 46t17.5 30zM276 125q-4 -29 11.5 -47.5t42.5 -18.5q29 0 52.5 18.5t27.5 47.5q6 29 -9.5 47t-44.5 18q-27 0 -50 -18t-30 -47zM659 -190q-6 -25 8.5 -42.5t39.5 -17.5q27 0 47 17.5t26 42.5q6 29 -7 45t-42 16q-24 0 -47 -16q-18 -18 -25 -45z" />
<glyph unicode="&#xe0e;" horiz-adv-x="894" d="M33 -330q8 41 33.5 71t59.5 48t72 24.5t74 0.5l23 104h80l-27 -123q20 -4 48 -19.5t54.5 -38t49 -51t37.5 -61.5q39 27 67.5 53.5t32.5 45.5l186 874q2 25 19 43q-4 8 -16.5 29.5t-38 42t-65.5 37t-99 16.5q-70 0 -122 -17.5t-90 -42t-62.5 -51t-37.5 -45.5l70 -51 q16 16 46 35.5t54 23.5q2 0 12.5 -20t16.5 -35q-68 -29 -96.5 -70.5t-34.5 -72.5l-53 -248q4 -10 3 -22.5t-3 -22.5q-12 -57 -59.5 -96t-102.5 -39q-57 0 -88 39t-19 96q10 55 57.5 94t104.5 39q12 0 22.5 -2t22.5 -6l35 170q6 25 17.5 46t17.5 30l-123 84q6 12 32.5 52 t79 85t129 80t183.5 37q59 0 103 -11.5t76 -31t52.5 -43t32.5 -48.5q6 4 17.5 2t23.5 -18q14 -23 7 -33t-23 -24q-18 -14 -25 -43l-182 -862q-8 -35 -35 -66t-59.5 -58.5t-66.5 -48t-54 -32.5q-16 -8 -31.5 -4t-21.5 18q-4 12 2 27.5t22 25.5q-23 47 -61.5 91t-75.5 57 q-10 -59 -33 -105q-20 -39 -58 -70.5t-100 -31.5q-72 0 -97 46t-15 97zM102 -348q0 -12 5.5 -24.5t17.5 -20.5t37 -8q41 0 62.5 26.5t29.5 57.5q2 10 5 31.5t3 31.5q-20 2 -44.5 2t-48.5 -6t-41 -23.5t-24 -48.5q-2 -6 -2 -18zM125 127q-6 -29 9 -48.5t44 -19.5 q27 0 50.5 19.5t29.5 48.5q4 27 -11.5 46.5t-41.5 19.5q-29 0 -52.5 -19.5t-27.5 -46.5z" />
<glyph unicode="&#xe0f;" horiz-adv-x="894" d="M-35 -383q-4 27 2 51q8 41 34 71t59.5 48t72.5 23.5t74 -3.5l22 107h78l-28 -133q41 -27 75.5 -70t57.5 -96q20 20 48.5 30.5t57.5 11.5t53.5 -5t34.5 -14q16 18 22.5 41.5t10.5 41.5l186 877q2 25 19 43q-4 8 -17.5 29.5t-38 42t-65.5 37t-100 16.5q-70 0 -122 -17.5 t-90 -42t-62.5 -51t-37.5 -45.5l70 -51q16 16 46 35.5t54 23.5q2 0 12.5 -20t16.5 -35q-68 -29 -96.5 -70.5t-34.5 -72.5l-53 -248q4 -10 3 -22.5t-3 -22.5q-12 -57 -59.5 -96t-102.5 -39q-57 0 -88 39t-19 96q10 55 57.5 94t104.5 39q12 0 22.5 -2t22.5 -6l35 170 q6 25 17.5 46t17.5 30l-123 84q6 12 32.5 52t79 85t129 80t183.5 37q59 0 103 -11.5t76 -31t53.5 -43t33.5 -48.5q6 4 17.5 2t23.5 -18q14 -23 7 -33t-23 -24q-18 -14 -25 -43l-182 -865q-10 -49 -27.5 -80.5t-38 -52t-40 -32t-33.5 -15.5q-16 -4 -29.5 3t-13.5 24 q-6 8 2 20q-6 0 -20.5 1t-34 -5t-42 -21.5t-43.5 -43.5q-10 -14 -26.5 -17.5t-26.5 4.5q-10 10 -10 24.5t12 27.5l4 4q-16 45 -36.5 85t-51.5 66q-8 -55 -31 -96q-20 -35 -56 -64.5t-99 -29.5q-35 0 -58.5 13t-37 33.5t-17.5 47.5zM35 -350q0 -12 5 -24.5t17 -20.5t37 -8 q31 0 56.5 20.5t31.5 50.5q0 4 2 15.5t4 23.5t4.5 22.5t2.5 16.5q-47 6 -95.5 -6t-62.5 -72q-2 -6 -2 -18zM125 127q-6 -29 9 -48.5t44 -19.5q27 0 50.5 19.5t29.5 48.5q4 27 -11.5 46.5t-41.5 19.5q-29 0 -52.5 -19.5t-27.5 -46.5z" />
<glyph unicode="&#xe10;" horiz-adv-x="782" d="M-98 -330q8 41 34.5 72t60.5 49.5t71.5 23.5t72.5 -5l25 122h80l-31 -149q41 -29 75 -71t56 -95q33 23 72 29q23 4 45 1t45 -12l16 76q-37 -16 -63 -16q-55 0 -86 40t-19 93q10 55 57.5 94t102.5 39q53 0 84 -40t21 -93l-50 -227q0 -37 -18 -43.5t-27 -6.5q-23 0 -28 15 q-16 14 -37 17t-41 -1q-23 -4 -43.5 -19.5t-40.5 -43.5q-10 -12 -23.5 -11.5t-27.5 7.5q-18 8 -15.5 19t13.5 24l4 4q2 2 2 4q-27 92 -88 145q-8 -53 -31 -94q-20 -35 -57 -63.5t-99 -28.5q-72 0 -97.5 46t-14.5 99zM-29 -350q0 -12 5.5 -24.5t17.5 -20.5t37 -8 q29 0 54.5 21.5t31.5 51.5q4 10 8 35t6 35q-18 12 -44 11t-49.5 -10t-40.5 -27.5t-24 -43.5q-2 -8 -2 -20zM201 586.5q10 25.5 45 64.5q33 37 68.5 71t80.5 60.5t101.5 41t128.5 10.5q35 -2 74.5 -12.5t76.5 -22t70 -21.5t51 -14l-37 -62q-14 2 -43 12.5t-66.5 22 t-80.5 20.5t-82 9q-100 0 -167 -41t-99 -78q104 8 181 4t130 -14t85 -24.5t48 -26.5q6 4 17.5 2t21.5 -23q10 -23 3 -33t-24 -24q-6 -4 -15 -12.5t-17 -24.5l-164 -434q-6 -16 -21.5 -29.5t-31.5 -9.5t-28.5 10t5.5 37q4 39 -8 117t-29 155q-23 -23 -51.5 -35t-58.5 -12 q-55 0 -87 39t-20 97q10 55 58.5 94t103.5 39q37 0 64.5 -18.5t37.5 -49.5q8 -18 15.5 -55t14.5 -80t12 -87t7 -75l119 326q8 23 25 32q-10 8 -43 22.5t-88.5 25t-134 12.5t-179.5 -12q-14 -23 -27.5 -30t-35.5 3q-16 8 -6 33.5zM326 406q-6 -29 9 -47.5t44 -18.5t51.5 18.5 t28.5 47.5q4 27 -10.5 46t-42.5 19q-29 0 -52.5 -19.5t-27.5 -45.5zM423 -171q-5 -24 9 -46q14 -19 43 -19q20 0 37.5 11.5t28 29t12.5 36t-10 32.5q-16 18 -43 18t-49 -18q-23 -20 -28 -44z" />
<glyph unicode="&#xe11;" horiz-adv-x="1034" d="M167 579.5q3 51.5 38 116.5q31 57 71.5 88t69.5 39q59 16 95 3t65 -54q47 31 78.5 52.5t64.5 -5.5q8 -6 19.5 -19.5t21.5 -29.5t18.5 -33.5t8.5 -31.5q0 -12 -10.5 -27.5t-26.5 -31t-35.5 -32t-38.5 -34.5q-18 -18 -29.5 -42t-21.5 -71l-51 -242q23 39 56.5 98.5 t72.5 125t79 133t71.5 121t52 87t22.5 33.5q86 -4 129 -17t68 -32q4 4 15 2t24 -18q14 -23 7 -33t-24 -25q-16 -12 -22 -43l-140 -657h-79l141 672q4 12 6 22.5t12 20.5q-10 10 -37.5 21.5t-68.5 8.5q-8 -10 -43 -66t-83 -136t-104.5 -171t-105.5 -170t-85 -134.5t-46 -61.5 q-6 -8 -17.5 -15t-35.5 13q-29 23 2 53q18 16 23 32.5t3 14.5l68 312q18 88 37.5 131t52.5 74q25 23 49.5 43t24.5 34q0 16 -15.5 34t-21.5 26q-10 -8 -27.5 -18.5t-34.5 -22.5q2 -14 -1 -26.5t-25 -22.5q-25 -10 -31 1t-12 25q-20 47 -49 60.5t-58.5 4.5t-56.5 -38t-41 -66 q16 18 42 27.5t46 9.5q55 0 86 -39t19 -96q-10 -55 -58.5 -93t-105.5 -40q-31 0 -59.5 17.5t-45 52t-13.5 86zM248 557q-4 -27 10 -46t43 -19t51.5 19t26.5 46q6 29 -8 48.5t-43 19.5t-51.5 -19.5t-28.5 -48.5z" />
<glyph unicode="&#xe12;" horiz-adv-x="1263" d="M159 25.5q3 11.5 19 27.5q20 20 32.5 45t10.5 78q0 47 -5 92t-7 91.5t0 96.5t14 105q23 106 84.5 171t167.5 99q35 10 78 -19.5t70 -66.5q41 39 79.5 65t71.5 15q59 -23 87 -59.5t32 -63.5q6 4 16.5 2t22.5 -18q14 -23 7 -33t-24 -24q-18 -14 -24 -43l-49 -234 q25 -2 58.5 -8t71.5 -23.5t73.5 -47t62.5 -78.5l133 624h78l-174 -819h-78l10 55q-6 63 -37.5 106.5t-70.5 71t-79 40t-63 14.5l-36 -172q-10 -49 -41 -82t-74 -39q-31 -6 -59.5 5t-46 36.5t-21.5 64.5t12 88q14 39 38 68t51.5 48.5t57 29.5t54.5 14l53 250q2 25 19 43 q0 2 -2.5 17.5t-11.5 34t-28.5 37t-52.5 28.5q-10 -4 -35.5 -18.5t-54.5 -49.5q0 -4 -2 -12l-9 -13.5t-20 -11.5q-16 -8 -27 0.5t-16 22.5q-4 12 -16 26.5t-26.5 27.5t-27.5 22.5t-22 11.5q-72 -18 -121 -68.5t-65 -128.5q-16 -80 -17 -138t3 -103t8 -83t0 -75 q18 20 44.5 46t54.5 51.5t54.5 48t47.5 38.5q-41 12 -61.5 48t-10.5 83q10 55 59 95t105 40q55 0 85.5 -39.5t20.5 -95.5q-8 -35 -26.5 -62.5t-43 -49t-50 -39t-46.5 -33.5q-33 -27 -73.5 -61.5t-81.5 -72.5t-77 -76t-56 -69q-29 -39 -62 -16q-18 10 -15 21.5zM489 483 q-6 -29 8.5 -48t43.5 -19t51 19.5t29 47.5q4 27 -10.5 46.5t-43.5 19.5t-51.5 -19.5t-26.5 -46.5zM623 87q16 -32 51 -32q6 0 17 8.5t18 36.5l39 183q-37 -4 -74 -32t-51 -79q-16 -53 0 -85z" />
<glyph unicode="&#xe13;" horiz-adv-x="1277" d="M184 582q6 12 33 52t79 85t129 80t183 37q59 0 103.5 -11.5t75 -31t51 -43t32.5 -48.5q6 4 17.5 2t23.5 -18q14 -23 7 -33t-23 -24q-18 -14 -25 -43l-86 -406q39 41 85 70t94.5 46t94.5 22.5t83 -1.5l108 502h78l-115 -534q45 -23 54.5 -63t3.5 -75q-14 -63 -67.5 -106 t-117.5 -43q-59 0 -98 39t-22 110q2 12 10 30t20.5 34t26.5 29.5t29 19.5q-78 -10 -139.5 -55t-106.5 -93.5t-75 -85t-42 -32.5q-14 0 -25.5 11t-13.5 22q0 18 16.5 30.5t20.5 30.5l109 510q2 25 18 43q-4 8 -16.5 29.5t-37 42t-64.5 37t-99 16.5q-70 0 -122 -17.5t-90 -42 t-62.5 -51t-36.5 -45.5l69 -51q16 16 46 35.5t55 23.5q2 0 12 -20t16 -35q-68 -29 -96.5 -70.5t-34.5 -72.5l-37 -172q31 12 56 12q57 0 87.5 -40t18.5 -95q-10 -55 -58 -95t-106 -40q-55 0 -84.5 40t-19.5 95l63 297q6 25 17.5 46t17.5 30zM276 125q-4 -29 11.5 -47.5 t42.5 -18.5q29 0 52.5 18.5t27.5 47.5q6 29 -9.5 47t-44.5 18q-27 0 -50 -18t-30 -47zM1038 147q-6 -31 11.5 -55t52.5 -24t61.5 23.5t34.5 55.5q6 33 -11.5 57.5t-51.5 24.5q-31 0 -61 -23.5t-36 -58.5z" />
<glyph unicode="&#xe14;" horiz-adv-x="876" d="M137 22.5q0 10.5 23 36.5q14 16 23.5 48t6.5 96q-4 63 -2 149t25 187q14 63 52 118.5t92.5 94.5t119 61.5t135.5 22.5q109 0 174.5 -41t94.5 -93q6 4 17 2t24 -18q14 -23 7 -33t-24 -24q-18 -14 -24 -43l-123 -586h-80l127 602q6 27 20 43l-12 19q-12 20 -38.5 42.5 t-69.5 41t-105 18.5q-55 0 -106.5 -16.5t-93.5 -46t-71.5 -70.5t-41.5 -90q-16 -61 -22.5 -115.5t-7.5 -100.5t0 -85t-1 -68q53 66 115.5 123t103.5 92q-39 14 -58.5 49t-8.5 80q12 57 59 96t104 39q55 0 86 -39t19 -96q-8 -35 -30.5 -64.5t-47.5 -51t-44 -32.5l-19 -12 q-84 -70 -164 -148.5t-150 -178.5q-29 -47 -57 -31q-27 12 -27 22.5zM475 518q-4 -27 10.5 -46t42.5 -19q27 0 51.5 19.5t28.5 45.5q6 29 -9 47.5t-42 18.5q-29 0 -52.5 -18.5t-29.5 -47.5z" />
<glyph unicode="&#xe15;" horiz-adv-x="878" d="M151 25.5q3 11.5 19 27.5q20 20 32.5 45t10.5 78q0 47 -5 92t-7 91.5t0 96.5t14 105q23 106 84 171t168 99q35 10 78 -19.5t69 -66.5q41 39 80 65t72 15q59 -23 87 -59.5t32 -63.5q6 4 16 2t23 -18q14 -23 7 -33t-24 -24q-18 -14 -24 -43l-123 -586h-80l127 598 q2 25 18 43q0 2 -2 17.5t-11 34t-28.5 37t-52.5 28.5q-10 -4 -35.5 -18.5t-54.5 -49.5q0 -4 -2 -12l-9 -13.5t-20 -11.5q-16 -8 -27.5 0.5t-15.5 22.5q-4 12 -16 26.5t-26.5 27.5t-28 22.5t-21.5 11.5q-72 -18 -121 -68.5t-65 -128.5q-16 -80 -17.5 -138t3 -103t8.5 -83 t0 -75q18 20 44.5 46t54.5 51.5t54.5 48t46.5 38.5q-41 12 -61.5 48t-9.5 83q10 55 59 95t104 40t86 -39.5t21 -95.5q-8 -35 -26.5 -62.5t-43 -49t-50 -39t-46.5 -33.5q-33 -27 -74 -61.5t-82 -72.5t-76.5 -76t-56.5 -69q-29 -39 -61 -16q-18 10 -15 21.5zM481 483 q-6 -29 8.5 -48t42.5 -19q29 0 51.5 19.5t28.5 47.5q4 27 -10 46.5t-43 19.5t-51.5 -19.5t-26.5 -46.5z" />
<glyph unicode="&#xe16;" horiz-adv-x="872" d="M184 582q6 12 33 52t79 85t129 80t183 37q59 0 103.5 -11.5t76 -31t53 -43t33.5 -48.5q6 4 17.5 2t23.5 -18q14 -23 7 -33t-23 -24q-18 -14 -25 -43l-122 -586h-80l127 598q2 25 18 43q-4 8 -17.5 29.5t-38 42t-65.5 37t-100 16.5q-70 0 -122 -17.5t-90 -42t-62.5 -51 t-36.5 -45.5l69 -51q16 16 46 35.5t55 23.5q2 0 12 -20t16 -35q-68 -29 -96.5 -70.5t-34.5 -72.5l-37 -172q31 12 56 12q57 0 87.5 -40t18.5 -95q-10 -55 -58 -95t-106 -40q-55 0 -84.5 40t-19.5 95l63 297q6 25 17.5 46t17.5 30zM276 125q-4 -29 11.5 -47.5t42.5 -18.5 q29 0 52.5 18.5t27.5 47.5q6 29 -9.5 47t-44.5 18q-27 0 -50 -18t-30 -47z" />
<glyph unicode="&#xe17;" horiz-adv-x="917" d="M180 692q12 55 59.5 95t102.5 40q57 0 88 -39.5t19 -95.5l-99 -463q23 39 58.5 97.5t77.5 124l84 131t77 119t57.5 86t24.5 32.5q92 0 138 -13t67 -32q4 4 15.5 2t23.5 -18q14 -23 7 -33t-24 -25q-16 -12 -22 -43l-141 -659h-80l143 674q4 12 6 22.5t12 20.5 q-10 10 -36.5 21.5t-77.5 8.5q-8 -10 -45 -66t-88.5 -136t-108.5 -171t-109.5 -170t-90 -134.5t-48.5 -61.5q-6 -8 -17 -15t-36 13q-29 23 2 53q18 16 23.5 35t5.5 17l98 462q-33 -14 -61 -14q-55 0 -85 40t-20 95zM248 692q-4 -29 11 -47t42 -18q29 0 52.5 18.5t27.5 46.5 q6 29 -9.5 47.5t-43.5 18.5q-27 0 -50.5 -18.5t-29.5 -47.5z" />
<glyph unicode="&#xe18;" horiz-adv-x="794" d="M165 536.5q1 10.5 21 45.5q23 41 61 87t90 84t121.5 61.5t157.5 19.5q33 -2 72 -11.5t76 -22t68.5 -22.5t52.5 -14l-37 -66q-18 2 -48 13.5t-66 21.5t-74.5 19.5t-75.5 9.5q-100 0 -175 -38t-122 -110q88 14 162.5 13.5t133 -12t99.5 -27t63 -29.5q4 4 15.5 2t23.5 -18 q14 -23 7 -33t-23 -25q-16 -12 -25 -43l-75 -362q-6 -29 -35 -51q-29 -29 -82 -29h-289q-10 0 -14 -3t-15 -7q-16 -4 -24 -2t-21 30q-4 14 2.5 21.5t24.5 17.5q25 14 35 31.5t14 28.5l92 438q-20 0 -54 -4t-56 -8l-17 -17q-6 -12 -24.5 -12t-30.5 6q-10 6 -9 16.5zM317 78 h271l80 379q4 12 7 22t11 21q-80 51 -250 55l-92 -430q-6 -35 -27 -47z" />
<glyph unicode="&#xe19;" horiz-adv-x="878" d="M184 694q10 55 58.5 95t103.5 40q66 0 93.5 -45t9.5 -104l-107 -498q39 41 91 70t108.5 45t112 20.5t98.5 -2.5l108 504h78l-115 -534q45 -23 54.5 -63t3.5 -75q-14 -63 -67.5 -106t-117.5 -43q-59 0 -98 39t-23 110q2 12 10.5 29t20.5 33t28.5 29.5t33.5 17.5 q-109 -10 -184.5 -54t-126 -91.5t-79 -84t-40.5 -32.5q-14 0 -25.5 12t-13.5 23q0 18 21.5 34.5t25.5 34.5l100 473q-29 -12 -57 -12q-55 0 -86 40t-19 95zM252 694q-6 -29 9 -47t42 -18q29 0 52.5 18.5t29.5 46.5q4 29 -11.5 47.5t-43.5 18.5q-27 0 -50.5 -18.5 t-27.5 -47.5zM649 147q-6 -31 11.5 -55t52.5 -24t61.5 23.5t34.5 55.5q6 33 -11.5 57.5t-52.5 24.5q-31 0 -60.5 -23.5t-35.5 -58.5z" />
<glyph unicode="&#xe1a;" horiz-adv-x="917" d="M184 20q-4 14 1 21.5t26 17.5q25 14 34 30.5t13 27.5l96 454q-33 -14 -61 -14q-55 0 -85 40t-18 97q10 55 58.5 95t103.5 40q57 0 88 -39.5t21 -95.5l-123 -569q-6 -35 -27 -47h424l158 741h80l-158 -737q-6 -27 -33 -51q-33 -29 -84 -29h-442q-10 0 -13 -3t-14 -7 q-16 -4 -25 -2t-20 30zM258 694q-6 -29 9 -48t42 -19q29 0 52.5 19.5t29.5 47.5q4 29 -11 47.5t-44 18.5q-27 0 -50.5 -18.5t-27.5 -47.5z" />
<glyph unicode="&#xe1b;" horiz-adv-x="917" d="M184 20q-4 14 1 21.5t26 17.5q25 14 34 30.5t13 27.5l96 454q-33 -14 -61 -14q-55 0 -85 40t-18 97q10 55 58.5 95t103.5 40q57 0 88 -39.5t21 -95.5l-123 -569q-6 -35 -27 -47h424l223 1050h80l-223 -1046q-6 -27 -33 -51q-33 -29 -84 -29h-442q-10 0 -13 -3t-14 -7 q-16 -4 -25 -2t-20 30zM258 694q-6 -29 9 -48t42 -19q29 0 52.5 19.5t29.5 47.5q4 29 -11 47.5t-44 18.5q-27 0 -50.5 -18.5t-27.5 -47.5z" />
<glyph unicode="&#xe1c;" horiz-adv-x="868" d="M115 6q-27 23 4 53q14 14 22 35q4 8 4 19l125 581q10 57 58.5 96t105.5 39q55 0 85 -38.5t20 -96.5q-12 -55 -59.5 -94t-102.5 -39q-31 0 -55 12l-89 -413l275 309q2 6 10 14q4 4 13.5 9.5t19.5 5.5t15 -5.5t9 -9.5q4 -8 5 -14l127 -305l139 655h78l-164 -764 q-4 -23 -7 -33t-28 -20q-16 -6 -24.5 -3t-14.5 11l-156 385q-111 -123 -178 -196.5t-106 -114.5t-55.5 -56.5t-24.5 -21.5q-6 -8 -16.5 -14t-34.5 14zM340 694q-6 -27 8 -46t43 -19t51.5 19.5t28.5 45.5q4 29 -9 48.5t-42 19.5t-52.5 -19.5t-27.5 -48.5z" />
<glyph unicode="&#xe1d;" horiz-adv-x="868" d="M115 6q-27 23 4 53q14 14 22 35q4 8 4 19l125 581q10 57 58.5 96t105.5 39q55 0 85 -38.5t20 -96.5q-12 -55 -59.5 -94t-102.5 -39q-31 0 -55 12l-89 -413l275 309q2 6 10 14q4 4 13.5 9.5t19.5 5.5t15 -5.5t9 -9.5q4 -8 5 -14l127 -305l204 971h78l-229 -1080 q-4 -23 -7 -33t-28 -20q-16 -6 -24.5 -3t-14.5 11l-156 385q-111 -123 -178 -196.5t-106 -114.5t-55.5 -56.5t-24.5 -21.5q-6 -8 -16.5 -14t-34.5 14zM340 694q-6 -27 8 -46t43 -19t51.5 19.5t28.5 45.5q4 29 -9 48.5t-42 19.5t-52.5 -19.5t-27.5 -48.5z" />
<glyph unicode="&#xe1e;" horiz-adv-x="983" d="M186 694q10 57 58.5 96t105.5 39q55 0 85 -38.5t20 -96.5q-27 -123 -49 -227q-18 -90 -37 -172t-23 -111l320 596l14 15q16 16 35 16q18 0 26 -16q4 -8 7 -15l75 -594l135 633h80l-166 -774q-6 -29 -11 -37t-34 -12t-37 3t-12 30v2t-3 18.5t-9 53t-17.5 108.5 t-27.5 183.5t-39 277.5l-342 -611q-10 -12 -21 -22q-10 -10 -23 -21.5t-30 -19.5q-14 -6 -20 -7t-19 9q-37 27 -6 51q16 16 22.5 30.5t10.5 41.5l96 450q-29 -12 -57 -12q-57 0 -88 39t-19 94zM254 694q-6 -27 9 -46t44 -19q27 0 50.5 19.5t29.5 45.5q4 29 -10.5 48.5 t-40.5 19.5q-29 0 -53.5 -19.5t-28.5 -48.5z" />
<glyph unicode="&#xe1f;" horiz-adv-x="983" d="M186 694q10 57 58.5 96t105.5 39q55 0 85 -38.5t20 -96.5q-27 -123 -49 -225q-10 -43 -19.5 -88t-17 -83t-14.5 -67.5t-9 -44.5l320 594l14 15q16 16 35 16q18 0 26 -16q4 -8 7 -15l75 -594l201 949h80l-232 -1090q-6 -29 -11 -37t-34 -12t-37 3t-12 30v2t-3 18.5t-9 53 t-17.5 108.5t-27.5 183.5t-39 277.5l-342 -611q-10 -12 -21 -22q-10 -10 -23 -21.5t-30 -19.5q-14 -6 -20 -7t-19 9q-37 27 -6 51q16 16 22.5 30.5t10.5 41.5l96 450q-29 -12 -57 -12q-57 0 -88 39t-19 94zM254 694q-6 -27 9 -46t44 -19q27 0 50.5 19.5t29.5 45.5 q4 29 -10.5 48.5t-40.5 19.5q-29 0 -53.5 -19.5t-28.5 -48.5z" />
<glyph unicode="&#xe20;" horiz-adv-x="897" d="M57 127q10 55 57.5 94t104.5 39q12 0 22.5 -2t22.5 -6l35 170q6 25 17.5 46t17.5 30l-123 84q6 12 32.5 52t79 85t129 80t183.5 37q59 0 103 -11.5t76 -31t53.5 -43t33.5 -48.5q6 4 17.5 2t23.5 -18q14 -23 7 -33t-23 -24q-18 -14 -25 -43l-123 -586h-80l127 598 q2 25 19 43q-4 8 -17.5 29.5t-38 42t-65.5 37t-100 16.5q-70 0 -122 -17.5t-90 -42t-62.5 -51t-37.5 -45.5l70 -51q16 16 46 35.5t54 23.5q2 0 12.5 -20t16.5 -35q-68 -29 -96.5 -70.5t-34.5 -72.5l-53 -248q4 -10 3 -22.5t-3 -22.5q-12 -57 -59.5 -96t-102.5 -39 q-57 0 -88 39t-19 96zM125 127q-6 -29 9 -48.5t44 -19.5q27 0 50.5 19.5t29.5 48.5q4 27 -11.5 46.5t-41.5 19.5q-29 0 -52.5 -19.5t-27.5 -46.5z" />
<glyph unicode="&#xe21;" horiz-adv-x="894" d="M114 109.5q-5 35.5 7 76.5q25 78 88 119t135 53l43 209q-25 -12 -57 -12q-55 0 -87 39t-20 94q12 57 60.5 96t103.5 39q57 0 88 -39t19 -96l-70 -326q10 0 46 -5t82 -21.5t96 -49t89 -87.5l133 620h78l-174 -819h-78l15 76q-23 70 -67 111.5t-91 65t-88 32t-53 8.5 l-37 -172q-10 -49 -39 -82t-74 -41q-41 -6 -71.5 7t-51 41t-25.5 63.5zM184 138.5q0 -21.5 7.5 -39t23.5 -29t41 -7.5q27 2 39 58l37 170q-39 -10 -79 -30.5t-63 -82.5q-6 -18 -6 -39.5zM293 688q-6 -27 8 -46t43 -19t51.5 19.5t28.5 45.5q6 29 -8.5 48.5t-42.5 19.5 q-29 0 -51.5 -19.5t-28.5 -48.5z" />
<glyph unicode="&#xe22;" horiz-adv-x="827" d="M139 20q-4 14 1 21.5t26 17.5q25 14 34 30.5t13 27.5l57 272q-74 41 -80 123q-6 55 14.5 111.5t60.5 102.5t93.5 74.5t110.5 28.5q53 0 86 -36.5t20 -98.5q-12 -55 -60 -95t-103 -40q-49 0 -80 31t-29 76q-20 -29 -29.5 -64t-5.5 -65q6 -49 38 -73t77 -29t97 6.5 t100 33.5l4 -72q-63 -29 -127 -35t-111 3l-53 -246q-6 -35 -27 -47h381l158 741h78l-158 -737q-6 -27 -33 -51q-33 -29 -84 -29h-397q-10 0 -13 -3t-14 -7q-16 -4 -25 -2t-20 30zM375 694q-6 -29 8 -47t43 -18t51.5 18.5t28.5 46.5q4 29 -10.5 47.5t-42.5 18.5 q-29 0 -51.5 -18.5t-26.5 -47.5z" />
<glyph unicode="&#xe23;" horiz-adv-x="724" d="M161 543.5q1 9.5 21 44.5q23 41 56.5 86t82 82t114 59.5t153.5 18.5q61 -4 126.5 -27t110.5 -31l-34 -65q-47 8 -104.5 30.5t-127.5 22.5q-100 0 -166.5 -36t-113.5 -107q80 12 146.5 8t116.5 -15.5t85 -26t53 -24.5q6 4 17.5 3t21.5 -17q14 -23 8 -33t-22 -24 q-18 -14 -25 -43l-70 -324q-10 -55 -58 -95t-106 -40q-55 0 -85.5 40t-20.5 95q12 55 60.5 95t103.5 40q31 0 53 -12l47 215q2 25 19 43q-16 14 -53.5 26.5t-88.5 20.5t-113.5 8t-127.5 -10l-13 -12q-4 -12 -25.5 -14.5t-31.5 3.5t-9 15.5zM410 125q-4 -29 10 -47.5 t43 -18.5t51.5 18.5t26.5 47.5q6 29 -8.5 47t-43.5 18t-51 -18t-28 -47z" />
<glyph unicode="&#xe24;" horiz-adv-x="872" d="M184 582q6 12 33 52t79 85t129 80t183 37q59 0 103.5 -11.5t76 -31t53 -43t33.5 -48.5q6 4 17.5 2t23.5 -18q14 -23 7 -33t-23 -24q-18 -14 -25 -43l-229 -1084h-80l234 1096q2 25 18 43q-4 8 -17.5 29.5t-38 42t-65.5 37t-100 16.5q-70 0 -122 -17.5t-90 -42t-62.5 -51 t-36.5 -45.5l69 -51q16 16 46 35.5t55 23.5q2 0 12 -20t16 -35q-68 -29 -96.5 -70.5t-34.5 -72.5l-37 -172q31 12 56 12q57 0 87.5 -40t18.5 -95q-10 -55 -58 -95t-106 -40q-55 0 -84.5 40t-19.5 95l63 297q6 25 17.5 46t17.5 30zM276 125q-4 -29 11.5 -47.5t42.5 -18.5 q29 0 52.5 18.5t27.5 47.5q6 29 -9.5 47t-44.5 18q-27 0 -50 -18t-30 -47z" />
<glyph unicode="&#xe25;" horiz-adv-x="876" d="M174 471q10 80 51 145.5t101.5 112.5t132 73.5t145.5 26.5q57 0 103.5 -12t80 -30.5t57 -41t38.5 -43.5q6 4 17 2t24 -18q14 -23 7 -33t-24 -24q-18 -14 -24 -43l-123 -586h-80q2 12 5 30.5t3 20.5q4 16 -14.5 82t-45 142.5t-54 147.5t-44.5 97q-47 -41 -110.5 -107.5 t-110.5 -160.5q18 8 45 8q55 0 87 -39t22 -94q-12 -57 -60.5 -96t-103.5 -39q-53 0 -86 33.5t-23 99.5q14 82 62.5 162t102 143.5t97.5 104t48 45.5q-4 16 10 30q10 10 18.5 13.5t14.5 3.5q8 0 14 -4q23 -18 48.5 -69.5t50 -113t43 -124t26.5 -103.5l82 393q6 27 20 43 q-8 12 -26.5 30.5t-48 36t-70.5 31t-94 13.5q-55 0 -110.5 -20.5t-103.5 -57.5t-81 -90t-41 -121h-78zM262 127q-6 -29 8.5 -48.5t42.5 -19.5q29 0 51.5 19.5t28.5 48.5q4 27 -10 46.5t-43 19.5t-51.5 -19.5t-26.5 -46.5z" />
<glyph unicode="&#xe26;" horiz-adv-x="901" d="M57 127q10 55 57.5 94t104.5 39q12 0 22.5 -2t22.5 -6l35 170q6 25 17.5 46t17.5 30l-123 84q6 12 32.5 52t79 85t129 80t183.5 37q59 0 103 -11.5t76 -31t53.5 -43t33.5 -48.5q6 4 17.5 2t23.5 -18q14 -23 7 -33t-23 -24q-18 -14 -25 -43l-229 -1084h-80l233 1096 q2 25 19 43q-4 8 -17.5 29.5t-38 42t-65.5 37t-100 16.5q-70 0 -122 -17.5t-90 -42t-62.5 -51t-37.5 -45.5l70 -51q16 16 46 35.5t54 23.5q2 0 12.5 -20t16.5 -35q-68 -29 -96.5 -70.5t-34.5 -72.5l-53 -248q4 -10 3 -22.5t-3 -22.5q-12 -57 -59.5 -96t-102.5 -39 q-57 0 -88 39t-19 96zM125 127q-6 -29 9 -48.5t44 -19.5q27 0 50.5 19.5t29.5 48.5q4 27 -11.5 46.5t-41.5 19.5q-29 0 -52.5 -19.5t-27.5 -46.5z" />
<glyph unicode="&#xe27;" horiz-adv-x="737" d="M156 422q2 84 29.5 158.5t76.5 131t115.5 89.5t144.5 33q51 0 90 -11.5t66 -29t43 -39t22 -41.5q6 4 17.5 2t23.5 -19q14 -23 7 -33t-23 -24q-18 -14 -25 -43l-100 -471q-10 -57 -58 -96t-104 -39q-55 0 -85.5 39t-20.5 96q12 55 60 94t104 39q33 0 51 -10l78 362 q4 12 7 22.5t11 20.5q-6 14 -18.5 31.5t-34 34t-53 28t-74.5 11.5q-57 0 -106.5 -23.5t-85 -66.5t-57 -100.5t-26.5 -125.5zM444 125q-4 -29 9.5 -48.5t42.5 -19.5t52 19.5t27 48.5q6 27 -8 46t-43 19t-51 -19t-29 -46z" />
<glyph unicode="&#xe28;" horiz-adv-x="880" d="M128 30.5q1 8.5 22 32.5q27 31 32.5 76t8 103.5t6.5 131t26 158.5q35 139 139.5 221.5t253.5 82.5q74 0 124.5 -17.5t84.5 -46.5q41 35 95.5 71t97.5 60l26 -57q-55 -35 -98 -62.5t-76 -56.5l17 -25q6 4 17 2t24 -18q14 -23 7 -33t-24 -24q-18 -14 -24 -43l-123 -586h-80 l127 606q6 27 20 43q2 0 -7 17.5t-35.5 40t-70.5 41t-114 18.5q-111 0 -192.5 -61.5t-112.5 -178.5q-16 -59 -23.5 -116.5t-10.5 -104.5t-5 -82t-6 -51q49 94 77.5 158.5t47 109.5t31 73t26.5 48q57 84 146 84q55 0 86.5 -40t19.5 -95q-10 -55 -58 -94t-104 -39 q-57 0 -86 39q-18 -39 -40.5 -87t-50 -102.5t-65.5 -109t-87 -105.5q-14 -14 -29.5 -14t-26.5 10q-14 14 -13 22.5zM487 510q-4 -29 10.5 -47.5t43.5 -18.5t51 18.5t26 47.5q6 29 -8 47t-43 18t-51 -18t-29 -47z" />
<glyph unicode="&#xe29;" horiz-adv-x="917" d="M184 20q-4 14 1 21.5t26 17.5q25 14 34 30.5t13 27.5l96 454q-33 -14 -61 -14q-55 0 -85 40t-18 97q10 55 58.5 95t103.5 40q57 0 88 -39.5t21 -95.5l-123 -569q-6 -35 -27 -47h424l68 321q-43 -49 -93.5 -74.5t-103.5 -29.5q-37 -4 -70.5 6t-57 30.5t-32 51.5t4.5 72 q16 59 64 98t108 33q53 -4 72.5 -39t-3.5 -80q-6 -12 -18 -23.5t-37 -3.5q-10 2 -13 9.5t-2 14.5t4 13l3 6q8 20 -5.5 30.5t-35 8.5t-44 -19.5t-30.5 -49.5q-8 -31 -1 -50.5t23.5 -28.5t37 -12.5t40.5 -1.5q27 2 61 15.5t66.5 40t60 69.5t42.5 105l49 229h80l-158 -737 q-6 -27 -33 -51q-33 -29 -84 -29h-442q-10 0 -13 -3t-14 -7q-16 -4 -25 -2t-20 30zM258 694q-6 -29 9 -48t42 -19q29 0 52.5 19.5t29.5 47.5q4 29 -11 47.5t-44 18.5q-27 0 -50.5 -18.5t-27.5 -47.5z" />
<glyph unicode="&#xe2a;" horiz-adv-x="876" d="M174 471q10 80 51 145.5t101.5 112.5t132 73.5t145.5 26.5q76 0 128 -19t91 -46q39 41 92.5 75.5t102.5 63.5l26 -57q-55 -35 -98 -63.5t-78 -59.5q4 -6 7.5 -11t7.5 -10q6 4 17 2t24 -18q14 -23 7 -33t-24 -24q-18 -14 -24 -43l-123 -586h-80q2 12 5 30.5t3 20.5 q4 16 -14.5 82t-45 142.5t-54 147.5t-44.5 97q-47 -41 -110.5 -107.5t-110.5 -160.5q18 8 45 8q55 0 87 -39t22 -94q-12 -57 -60.5 -96t-103.5 -39q-53 0 -86 33.5t-23 99.5q14 82 62.5 162t102 143.5t97.5 104t48 45.5q-4 16 10 30q10 10 18.5 13.5t14.5 3.5q8 0 14 -4 q23 -18 48.5 -69.5t50 -113t43 -124t26.5 -103.5l82 393q6 27 20 43q-8 12 -26.5 30.5t-48 36t-70.5 31t-94 13.5q-55 0 -110.5 -20.5t-103.5 -57.5t-81 -90t-41 -121h-78zM262 127q-6 -29 8.5 -48.5t42.5 -19.5q29 0 51.5 19.5t28.5 48.5q4 27 -10 46.5t-43 19.5 t-51.5 -19.5t-26.5 -46.5z" />
<glyph unicode="&#xe2b;" horiz-adv-x="911" d="M186 694q10 55 58.5 95t103.5 40q57 0 87 -39.5t20 -95.5l-111 -516l354 393q-31 12 -47 46t-6 77q12 61 66.5 100.5t119.5 39.5q59 0 96.5 -38t24.5 -102q-6 -29 -26.5 -60.5t-57.5 -53.5q6 -4 18.5 -14.5t20.5 -14.5q12 -10 11.5 -22.5t-7 -24.5t-13.5 -22.5t-7 -16.5 l-98 -465h-78l98 465q2 12 8 27.5t17 19.5q-4 8 -27 21.5t-47 15.5q-8 -10 -48 -53t-94.5 -103.5t-117 -127t-115.5 -124t-89 -96.5l-36 -39q-14 -14 -26.5 -14t-24.5 8q-37 18 -8 49q14 16 28.5 33.5t24.5 60.5l92 428q-29 -12 -59 -12q-55 0 -86 39t-19 96zM254 694 q-6 -29 9 -48t42 -19q29 0 52.5 19.5t29.5 47.5q4 27 -11.5 46.5t-43.5 19.5q-27 0 -50.5 -19.5t-27.5 -46.5zM715 694q-6 -25 9 -51.5t58 -26.5q41 0 70 26t35 52q4 27 -10.5 52.5t-59.5 25.5q-31 0 -62.5 -19.5t-39.5 -58.5z" />
<glyph unicode="&#xe2c;" horiz-adv-x="983" d="M186 694q10 57 58.5 96t105.5 39q55 0 85 -38.5t20 -96.5q-25 -121 -47 -221q-10 -43 -19.5 -86t-16.5 -81t-14.5 -66.5t-9.5 -42.5l297 493l14 15q16 16 33 16q16 0 29 -16q4 -8 6 -15l96 -504l140 654q-31 -12 -62 -13q-53 0 -84 40t-20 94q12 55 59 95t102 40 q45 0 75 -27t34 -68l100 91l47 -54l-161 -149l-181 -844q-6 -29 -11 -37t-34 -12t-37 3t-12 30l-8 43t-20.5 107.5t-26.5 138t-26.5 138t-20.5 107.5l-8 43l-328 -545q-10 -12 -21 -22q-10 -10 -23 -21.5t-30 -19.5q-14 -6 -20 -7t-19 9q-37 27 -6 51q16 16 22.5 30.5 t10.5 41.5l96 450q-29 -12 -57 -12q-57 0 -88 39t-19 94zM254 694q-6 -27 9 -46t44 -19q27 0 50.5 19.5t29.5 45.5q4 29 -10.5 48.5t-40.5 19.5q-29 0 -53.5 -19.5t-28.5 -48.5zM866 961q-4 -27 10.5 -45.5t41.5 -18.5q29 0 51 18.5t26 45.5q6 27 -8 46t-43 19t-50.5 -18.5 t-27.5 -46.5z" />
<glyph unicode="&#xe2d;" horiz-adv-x="862" d="M147 453q12 96 58.5 167.5t110 117.5t137 68.5t139.5 22.5q59 0 104 -11t78 -28.5t55.5 -40t36.5 -47.5q6 4 17.5 2t23.5 -18q14 -23 7 -33t-23 -24q-18 -14 -25 -43l-106 -502q-6 -31 -33 -53q-33 -29 -84 -29h-410q-10 0 -13 -3t-13 -7q-16 -4 -25.5 -2t-19.5 30 q-4 14 1 21.5t25 17.5q25 14 34 30.5t14 27.5l77 366q10 55 59.5 95t104.5 40t86 -39.5t21 -95.5q-12 -57 -60.5 -96t-103.5 -39q-33 0 -53 12l-52 -235q-6 -35 -26 -47h391l111 526q4 12 7 22.5t13 20.5q-6 12 -23.5 30.5t-46 37t-69.5 32t-94 13.5q-135 0 -233.5 -80 t-125.5 -227h-72zM383 483q-6 -29 8.5 -47t42.5 -18q29 0 51.5 18.5t28.5 46.5q4 29 -10 47.5t-43 18.5t-51.5 -18.5t-26.5 -47.5z" />
<glyph unicode="&#xe2e;" horiz-adv-x="782" d="M90 20q-4 14 1 21.5t26 17.5q25 14 34 30.5t13 27.5l55 266q10 53 58.5 88t101.5 35q57 0 88 -39t18 -96q-12 -55 -59 -95t-104 -40q-14 0 -25.5 4t-26.5 8l-26 -123q-6 -35 -27 -47h383l111 524q4 12 7 22.5t11 20.5q-4 4 -4 5t-10 7q-76 -49 -146.5 -74.5t-156.5 -23.5 q-57 0 -94 12.5t-57.5 29.5t-27 39t-2.5 44q6 29 31 55.5t62.5 48t86 35t101.5 13.5q86 0 138 -22.5t83 -51.5q35 29 78 73t82 97q2 -2 11 -7t20.5 -11.5t20.5 -11.5l9 -5q-14 -23 -36.5 -49.5t-47 -53t-50 -50t-44.5 -39.5l10 -7q16 12 39 -18q14 -23 7 -33t-23 -24 q-16 -12 -23 -43l-106 -498q-6 -27 -33 -51q-33 -29 -84 -29h-401q-10 0 -13.5 -3t-13.5 -7q-16 -4 -25.5 -2t-19.5 30zM285 371q-6 -29 9 -47.5t42 -18.5q29 0 52.5 18.5t29.5 47.5t-9 47t-44 18q-27 0 -50.5 -18.5t-29.5 -46.5zM311 682q-2 -12 26 -28.5t93 -16.5 q66 -2 117 17.5t112 54.5q-23 20 -63.5 33.5t-99.5 13.5q-53 0 -88 -8.5t-55.5 -20.5t-30 -24.5t-11.5 -20.5z" />
<glyph unicode="&#xe2f;" horiz-adv-x="735" d="M205 696q10 55 58 95t104 40q55 0 85.5 -39.5t20.5 -95.5q-10 -45 -48 -81.5t-95 -41.5q43 -23 99 -13.5t113.5 44.5t110 92.5t82.5 132.5l68 -18q-4 -2 -13.5 -24.5t-13.5 -26.5l-137 -647q-6 -33 -29.5 -66t-72.5 -55q-35 -14 -48 16q-6 14 -5 25.5t20 21.5 q23 10 39 30.5t20 43.5l105 492q-74 -72 -149 -104t-134 -30q-37 0 -74 15.5t-63.5 42t-39.5 65.5t-3 86zM272 696q-6 -29 8.5 -47t43.5 -18t52 18.5t30 46.5q6 29 -9.5 47.5t-44.5 18.5t-51 -18.5t-29 -47.5z" />
<glyph unicode="&#xe30;" horiz-adv-x="714" d="M115 162q12 55 60 95t104 40q55 0 87.5 -40t18.5 -95q-10 -41 -35.5 -67.5t-52.5 -31.5q49 -2 100.5 15.5t99.5 48.5t90 74t72 92l60 -31q-33 -53 -71 -94t-75.5 -69.5t-73.5 -47t-67 -26.5q-57 -18 -118.5 -20.5t-109.5 14t-75 51t-14 92.5zM184 162q-6 -29 8.5 -47.5 t43.5 -18.5t51 18.5t28 47.5t-8 47t-43 18t-51.5 -18.5t-28.5 -46.5zM225 678q12 55 60.5 95t103.5 40t88 -40t19 -95q-10 -41 -37 -67.5t-51 -30.5q49 -2 100 15t98 48t89 74t73 92l59 -31q-33 -53 -70.5 -94t-75.5 -69.5t-74 -47t-64 -26.5q-57 -18 -119 -20.5t-110 14 t-74.5 51.5t-14.5 92zM295 678q-6 -29 8 -47.5t43 -18.5t51.5 18.5t28.5 47.5t-8 47t-43 18t-51.5 -18t-28.5 -47z" />
<glyph unicode="&#xe31;" d="M-246 1120q10 53 55.5 90t98.5 37t80.5 -36.5t17.5 -90.5q-10 -51 -49 -80q45 -8 104.5 9.5t120 52.5t116.5 87t97 116l54 -31q-61 -102 -149.5 -167t-178.5 -97.5t-169 -35.5t-124 15q-41 18 -62.5 54t-11.5 77zM-180 1122q-6 -27 8 -44t41 -17t47.5 17.5t26.5 43.5 q6 27 -8.5 44.5t-40.5 17.5q-27 0 -47.5 -17.5t-26.5 -44.5z" />
<glyph unicode="&#xe32;" horiz-adv-x="714" d="M166 537q18 63 49 117.5t73 94t96 63.5t118 24q51 0 90 -11.5t66.5 -29t44 -39t22.5 -41.5q4 4 15.5 2t23.5 -19q14 -23 7 -33t-23 -24q-16 -12 -23 -43l-127 -598h-80l129 612q4 12 7 22.5t14 20.5q-6 14 -18.5 33t-34 35t-53.5 27.5t-75 11.5q-94 0 -154.5 -63.5 t-90.5 -161.5h-76z" />
<glyph unicode="&#xe33;" horiz-adv-x="714" d="M-125 1100q12 61 65.5 105t114.5 44t96 -44t23 -105q-6 -31 -24.5 -58.5t-43 -48t-53 -33t-59.5 -12.5q-63 0 -98 44.5t-21 107.5zM-53 1100q-8 -35 9 -57.5t50 -22.5t60.5 22.5t35.5 57.5q6 33 -11 55.5t-50 22.5t-60.5 -22.5t-33.5 -55.5zM166 537q18 63 49 117.5 t73 94t96 63.5t118 24q51 0 90 -11.5t66.5 -29t44 -39t22.5 -41.5q4 4 15.5 2t23.5 -19q14 -23 7 -33t-23 -24q-16 -12 -23 -43l-127 -598h-80l129 612q4 12 7 22.5t14 20.5q-6 14 -18.5 33t-34 35t-53.5 27.5t-75 11.5q-94 0 -154.5 -63.5t-90.5 -161.5h-76z" />
<glyph unicode="&#xe34;" horiz-adv-x="4" d="M-577 972.5q4 4.5 34 24.5q29 25 68 60t86 65.5t102.5 51t116.5 18.5q57 -2 103.5 -23.5t81 -55.5t57 -78t28.5 -93q4 -12 1 -25.5t-25 -27.5q-12 -10 -18.5 -9t-16.5 5q-88 35 -169 49t-154.5 16t-140 -4t-126.5 -14q-8 -2 -15 2t-11 20q-6 14 -2 18.5zM-469 991 q111 16 240 11t262 -60q-27 80 -85.5 131t-135.5 51q-57 0 -98.5 -13t-74 -33.5t-58 -44.5t-50.5 -42z" />
<glyph unicode="&#xe35;" horiz-adv-x="4" d="M-577 972.5q4 4.5 34 24.5q29 25 68 60t86 66.5t102.5 52t116.5 16.5q57 -4 98 -18.5t74 -49.5l39 179h76l-56 -256q14 -27 24.5 -47.5t16.5 -49.5q2 -12 -1 -29.5t-25 -31.5q-12 -10 -18.5 -9t-16.5 5q-88 35 -169 49t-154.5 16t-140 -4t-126.5 -14q-8 -2 -15 2t-11 20 q-6 14 -2 18.5zM-469 991q111 16 240 11t262 -60q-27 74 -80 128t-143 54q-53 0 -94.5 -13t-74 -32.5t-59 -43.5t-51.5 -44z" />
<glyph unicode="&#xe36;" horiz-adv-x="4" d="M-577 972.5q4 4.5 34 24.5q29 25 68 60t86 66.5t102.5 52t116.5 16.5q29 -2 58.5 -9t50.5 -20q-4 25 7 47.5t29.5 41t43 28.5t47.5 10q51 0 78.5 -29.5t17.5 -76.5q-8 -47 -40 -76t-81 -37q20 -29 35.5 -57.5t25.5 -67.5q2 -12 -1 -27.5t-25 -29.5q-12 -10 -18.5 -9 t-16.5 5q-88 35 -169 49t-154.5 16t-140 -4t-126.5 -14q-8 -2 -15 2t-11 20q-6 14 -2 18.5zM-471 991q111 16 241 11t263 -60q-27 72 -81 127t-140 55q-57 0 -99.5 -13t-74 -33.5t-58 -44.5t-51.5 -42zM-14 1178q-4 -27 12 -43q10 -14 27.5 -16.5t35 4.5t30.5 22.5t18 38.5 q4 20 -4.5 33.5t-23.5 19.5t-35 3t-36 -17q-20 -18 -24 -45z" />
<glyph unicode="&#xe37;" horiz-adv-x="6" d="M-577 972.5q4 4.5 34 24.5q29 25 68 60t86 66.5t102.5 52t116.5 16.5q29 -2 53.5 -5t46.5 -13l29 129h66l-35 -166q16 -16 30.5 -33t26.5 -37l51 236h68l-72 -338q0 -4 3 -12.5t3 -12.5q2 -12 0 -24.5t-24 -26.5q-12 -10 -18.5 -9t-16.5 5q-88 35 -169 49t-154.5 16 t-140 -4t-126.5 -14q-8 -2 -15 2t-11 20q-6 14 -2 18.5zM-469 991q111 16 242 10t264 -61q-29 74 -84 129t-141 55q-53 0 -95.5 -13t-75 -32.5t-59 -43.5t-51.5 -44z" />
<glyph unicode="&#xe38;" d="M-418 -211q10 53 56.5 91t99.5 38t82.5 -38t19.5 -91l-61 -289h-80l35 170q-23 -8 -51 -8q-49 0 -81 36t-20 91zM-350 -211q-6 -25 8 -43t39 -18q27 -2 48.5 17t27.5 44q4 25 -9.5 43t-39.5 18q-25 0 -47.5 -17t-26.5 -44z" />
<glyph unicode="&#xe39;" d="M-610 -209q10 53 56 91t99 38q51 0 84 -38t21 -91l-29 -137q-4 -16 -9 -31.5t-15 -28.5h120l70 322h80l-70 -326q-6 -33 -32.5 -54t-59.5 -21h-170q-4 -2 -5 -3t-5 -4q-33 -23 -53 13q-10 16 -5 26.5t29 26.5q31 18 39 51l8 45q-27 -10 -53 -10q-53 0 -83 39t-17 92z M-543 -209q-6 -25 7 -44t40 -19t48.5 18t27.5 45q4 27 -9 44.5t-40 17.5q-25 0 -47.5 -18.5t-26.5 -43.5z" />
<glyph unicode="&#xe3a;" d="M-295 -202.5q6 28.5 29.5 52t62.5 23.5q37 0 51.5 -23.5t8 -52t-29.5 -52.5t-60 -24q-39 0 -53.5 24t-8.5 52.5z" />
<glyph unicode="&#xe3f;" horiz-adv-x="753" d="M84 2l188 889q2 8 -2 16t-8 15.5t-7 14.5t1 17t19.5 22.5t35.5 12.5q6 0 14.5 -3t12.5 -13h174l23 104h67l-22 -104q59 -2 101 -22.5t66.5 -53.5t30.5 -75t-2 -87q-23 -102 -88 -156.5t-125 -64.5q37 -4 73 -20.5t61.5 -45t36.5 -70.5t1 -95q-33 -147 -119 -214t-196 -67 h-45l-23 -104h-67l22 104h-223zM178 80h146l82 387h-146zM276 543h146l74 348h-146zM391 80h8q111 0 172.5 46t83.5 153q16 76 -23.5 129t-158.5 59zM489 547q74 10 131.5 56t73.5 124q16 82 -11.5 121t-119.5 43z" />
<glyph unicode="&#xe40;" horiz-adv-x="428" d="M164 111l151 708h82l-123 -571q27 12 60 12q55 0 87 -39t19 -96q-10 -55 -59 -95t-105 -40q-53 0 -84.5 34.5t-27.5 86.5zM238 125q-4 -29 11 -47.5t44 -18.5q27 0 50.5 18.5t27.5 47.5q6 29 -9.5 48.5t-42.5 19.5q-29 0 -52 -19.5t-29 -48.5z" />
<glyph unicode="&#xe41;" horiz-adv-x="788" d="M164 111l151 708h82l-123 -571q27 12 60 12q55 0 87 -39t19 -96q-10 -55 -59 -95t-105 -40q-53 0 -84.5 34.5t-27.5 86.5zM238 125q-4 -29 11 -47.5t44 -18.5q27 0 50.5 18.5t27.5 47.5q6 29 -9.5 48.5t-42.5 19.5q-29 0 -52 -19.5t-29 -48.5zM524 111l152 708h82 l-123 -571q27 12 59 12q55 0 87 -39t20 -96q-10 -55 -59.5 -95t-104.5 -40q-53 0 -85 34.5t-28 86.5zM598 125q-4 -29 11 -47.5t44 -18.5q27 0 50.5 18.5t27.5 47.5q6 29 -9 48.5t-42 19.5q-29 0 -52.5 -19.5t-29.5 -48.5z" />
<glyph unicode="&#xe42;" horiz-adv-x="518" d="M203 1221q-18 20 1 38.5t42 47.5q23 27 58.5 64.5t82.5 70.5t102.5 56.5t116.5 23.5q68 0 118 -16.5t85 -45t56.5 -66.5t33.5 -79l-72 -37q-29 98 -91 135t-140 37q-43 0 -87 -19.5t-83 -46t-67.5 -54t-41.5 -46.5q68 0 114 -20.5t73.5 -45t41 -46t17.5 -23.5 q10 -12 6 -31.5t-24 -36.5l-178 -839q25 12 53 12q55 0 86 -39t18 -94q-12 -55 -59 -94t-103 -39q-53 0 -82.5 35.5t-21.5 89.5q0 2 2 4l107 508q20 94 39.5 186t35 164t24.5 116l9 44q-12 14 -27.5 30.5t-39 30.5t-57.5 23.5t-83 9.5q-4 0 -10 -4t-10 -8 q-16 -10 -25.5 -8.5t-19.5 12.5zM328 121q-6 -29 8 -47.5t41 -18.5q29 0 51.5 18.5t28.5 47.5q6 27 -8.5 46t-42.5 19q-27 0 -49.5 -19.5t-28.5 -45.5z" />
<glyph unicode="&#xe43;" horiz-adv-x="518" d="M242 1251q8 57 37.5 106.5t73.5 85.5t99.5 56.5t118.5 22.5q145 4 208 -84t28 -250q-8 -35 -18 -46.5t-39 -23.5q-14 -6 -44 -25.5t-65 -44t-68.5 -52t-56.5 -50.5l-149 -702q27 12 55 12q55 0 86 -39t18 -94q-10 -55 -58 -94t-103 -39t-85 39t-20 94l7 35t19.5 92 t28 129t31.5 145q37 174 84 398l-4 2q-8 10 -4 27.5t18 27.5q35 31 83 67.5t92 67.5t76 52.5t36 23.5q12 57 7 105t-25.5 83t-57.5 54.5t-92 17.5q-96 -4 -163.5 -59.5t-80.5 -133.5q-6 -39 12.5 -62.5t45 -33.5t55.5 -7t47 20q27 23 30 48t-7 38q-10 10 -24.5 11t-24.5 -5 q-16 -10 -23.5 -5t-15.5 15q-10 12 -14.5 21.5t10.5 19.5q39 31 82.5 33t70.5 -31q29 -33 21.5 -89t-60.5 -104q-41 -37 -92 -46t-96 6.5t-73 56.5t-17 108zM328 123q-6 -29 8 -47.5t43 -18.5q27 0 50.5 18.5t29.5 47.5q6 27 -9 46t-42 19q-29 0 -51.5 -19t-28.5 -46z" />
<glyph unicode="&#xe44;" horiz-adv-x="518" d="M156 1407l61 55q94 -43 144.5 -88t66.5 -104q45 47 85 75.5t75 47t64.5 29t54.5 20.5q8 4 16 4t22 -10q10 -6 28 -31t34 -54.5t29.5 -58t15.5 -47.5q2 -4 4 -19.5t-18 -31.5q-8 -8 -31 -12q-10 -2 -23 -4q-33 -12 -69.5 -35t-72.5 -50.5t-68.5 -59.5t-53.5 -60l-153 -725 q31 10 55 10q55 0 86 -39t18 -94q-10 -57 -58 -96t-103 -39t-86 39t-21 96l166 774q-23 14 -10 43q18 39 58 85t90 90t104.5 79t99.5 53q-2 12 -10 28.5t-18.5 34t-21.5 33t-20 21.5q-29 -12 -60.5 -25.5t-63 -34t-66.5 -50t-70 -74.5q-10 -16 -18 -20.5t-33 1.5 q-10 4 -13 9.5t5 21.5q-16 86 -72.5 136t-148.5 77zM328 125q-4 -29 10 -47.5t43 -18.5t51.5 18.5t26.5 47.5q6 27 -8 46t-43 19t-51.5 -19t-28.5 -46z" />
<glyph unicode="&#xe45;" horiz-adv-x="714" d="M166 537q18 63 49 117.5t73 94t96 63.5t118 24q51 0 90 -11.5t66.5 -29t44 -39t22.5 -41.5q4 4 15.5 2t23.5 -19q14 -23 7 -33t-23 -24q-16 -12 -23 -43l-233 -1096h-80l235 1110q4 12 7 22.5t14 20.5q-6 14 -18.5 33t-34 35t-53.5 27.5t-75 11.5q-94 0 -154.5 -63.5 t-90.5 -161.5h-76z" />
<glyph unicode="&#xe46;" horiz-adv-x="811" d="M201 588q8 47 32 90q29 51 75 88t100 49q72 16 128 -3t78 -81q20 16 43 35.5t43.5 35t38 21.5t29.5 -2q14 -8 40 -38.5t40 -59.5q6 2 14 -1t19 -17q14 -23 7 -33t-24 -25q-4 -6 -22.5 -19.5t-41 -38t-44 -62.5t-33.5 -93l-172 -809q-8 -33 -28.5 -63.5t-80.5 -59.5 q-16 -8 -26 -5t-21 26q-6 12 0 23.5t29 21.5q29 16 37 34.5t10 22.5l174 826q4 25 18.5 53t33 57t40 55.5t43.5 45.5q4 4 -7 32.5t-40 50.5q-18 -12 -42.5 -30.5t-49.5 -40.5q4 -23 -3 -32t-24 -17q-23 -10 -33 -9.5t-18 25.5q-16 59 -54 89t-95 15q-27 -6 -63 -29.5 t-52 -56.5q12 10 34.5 17.5t41.5 7.5q55 0 87 -40t19 -95q-10 -57 -59 -96t-105 -39q-49 0 -77.5 25.5t-37.5 63.5t-1 85zM279 549q-4 -29 10 -48.5t43 -19.5t52.5 19.5t27.5 48.5q6 29 -8.5 47t-43.5 18t-52 -18t-29 -47z" />
<glyph unicode="&#xe47;" d="M-410 1056.5q0 28.5 5.5 53.5t11.5 37q20 51 52 78.5t66.5 40t72.5 13.5t75 -1q111 -4 197 41t131 145q4 0 13 -2t19 -6q12 -4 27 -8q-37 -80 -86 -126t-103.5 -69.5t-108.5 -29.5t-103 -6q-78 0 -124 -11.5t-71 -70.5q-2 -4 -5 -18.5t-5 -32t-1 -37t7 -31.5 q18 31 44 58.5t54 39.5q4 4 7.5 13.5t15.5 11.5t25.5 0t11.5 -25v-2q4 -37 16 -67.5t41 -47.5q-4 10 -7 23.5t1 28.5q6 33 28.5 56t50 34.5t56.5 6.5t47 -28q23 -29 15.5 -70.5t-43.5 -70.5q-35 -29 -65 -35t-69 -4q-35 2 -58.5 12.5t-38.5 25.5t-22.5 34.5t-11.5 40.5 q-16 -12 -36.5 -36t-30.5 -50q0 -12 -23.5 -20.5t-34.5 3.5q-25 23 -34 51.5t-9 57zM-70.5 1049.5q-5.5 -17.5 4.5 -27.5q14 -18 41 -9t31 36q6 29 -16 37.5t-45 -9.5q-10 -10 -15.5 -27.5z" />
<glyph unicode="&#xe48;" d="M59 1393l64 301h76l-64 -301h-76z" />
<glyph unicode="&#xe49;" horiz-adv-x="4" d="M-36 1369q-5 7 7 24q8 12 14.5 16t10.5 4t10 -1t17 -1q39 18 56 38.5t34 45.5q-29 -10 -54.5 -8t-44 14t-29 32.5t-5.5 47.5q4 47 39.5 83t80.5 40q55 4 83 -25.5t28 -76t-27.5 -97.5t-79.5 -88q39 6 84 25.5t88 54.5t82 85t70 116l57 -19q-61 -121 -137 -187.5 t-146.5 -97t-128 -34.5t-81.5 -2q-23 4 -28 11zM44 1611q-17 -32 1 -59q12 -10 27.5 -10t31 6t26.5 19.5t13 31.5q-4 47 -49 48q-33 -4 -50 -36z" />
<glyph unicode="&#xe4a;" d="M-159 1458.5q-5 34.5 4.5 70.5t32 69.5t56.5 54.5q25 16 52.5 21t52 1t43 -16t27.5 -33q31 39 64.5 48t59 -3t41 -39.5t9.5 -62.5q-4 -29 -18.5 -64t-39.5 -63q86 33 128.5 96.5t60.5 163.5l10 2t21.5 6t20.5 6l9 2q-16 -82 -41.5 -139t-63.5 -97t-88.5 -64.5 t-115.5 -39.5q-12 -4 -16.5 3.5t-6.5 21.5q-2 10 4.5 13t12.5 7q16 12 36.5 46t28.5 83q4 29 -7 45.5t-28.5 19.5t-35 -7.5t-23.5 -30.5q0 -14 2 -30.5t2 -30.5h-51q-2 43 -13.5 69.5t-47.5 32.5q-20 4 -42 -3t-39.5 -21.5t-30.5 -36t-15 -46.5q10 16 32.5 26.5t40.5 10.5 q35 0 54.5 -24.5t9.5 -61.5q-6 -29 -25.5 -49t-44 -29.5t-50.5 -6.5t-44 22q-23 23 -28 57.5zM-90 1438q16 -20 41.5 -9t30.5 35q6 23 -14.5 33t-43.5 -6q-27 -27 -14 -53z" />
<glyph unicode="&#xe4b;" horiz-adv-x="4" d="M-51 1513l14 72h139l27 121h72l-27 -121h143l-14 -72h-143l-27 -122h-72l27 122h-139z" />
<glyph unicode="&#xe4c;" d="M-131 1346q8 68 61.5 107.5t120.5 53.5q39 8 77 17.5t69.5 23t54 34t35.5 50.5l57 -26q-18 -41 -49 -68t-68 -44t-77.5 -26.5t-81.5 -17.5q29 -10 41 -35.5t10 -54.5q-6 -51 -47 -88t-90 -41q-55 -4 -87 28.5t-26 86.5zM-70 1346q-4 -25 13.5 -41.5t46.5 -12.5 q23 2 41 20.5t22 43.5q4 27 -13 43t-40 12q-25 -4 -45.5 -21.5t-24.5 -43.5z" />
<glyph unicode="&#xe4d;" d="M-111 1155q14 61 69.5 105.5t117.5 44.5q61 0 98 -44t23 -106q-12 -63 -67.5 -107t-117.5 -44q-61 0 -98 44t-25 107zM-39 1155q-6 -35 13.5 -57.5t52.5 -22.5t62.5 22.5t35.5 57.5q8 33 -12.5 55.5t-53.5 22.5q-35 0 -62.5 -22.5t-35.5 -55.5z" />
<glyph unicode="&#xe4e;" d="M-225 1004q33 125 196 143q-47 41 -21.5 104.5t85 88t145.5 22.5l35 -19q-63 -2 -126.5 -34.5t-74 -87t48.5 -68.5l-20 -33q-158 -14 -182 -108q-8 -61 88 -62q31 0 49 2l-25 -43q-49 -6 -84 -6q-131 0 -114 101z" />
<glyph unicode="&#xe4f;" horiz-adv-x="923" d="M186 340q31 143 154 244.5t266 101.5q141 0 221.5 -102.5t51.5 -243.5q-31 -143 -154 -244.5t-266 -101.5t-223 101.5t-50 244.5zM258 340q-25 -115 38.5 -196t176.5 -81q115 0 212 82t122 195q25 115 -38.5 194.5t-178.5 79.5q-113 0 -210 -79.5t-122 -194.5zM330 340 q16 84 89 143.5t156 59.5q84 0 130 -59.5t30 -143.5q-18 -84 -90 -144.5t-156 -60.5t-131 60.5t-28 144.5zM401 340q-12 -55 18 -93t85 -38t101.5 38t58.5 93q10 53 -20 92t-85 39t-101 -39t-57 -92z" />
<glyph unicode="&#xe50;" horiz-adv-x="954" d="M184 285q12 61 52 116.5t96.5 96.5t125 64.5t142.5 23.5q63 0 122.5 -21.5t100.5 -60.5t60.5 -95.5t5.5 -123.5q-14 -68 -57.5 -123.5t-101.5 -94t-126 -60t-131 -21.5q-66 0 -124 21.5t-99 60t-60.5 94t-5.5 123.5zM252 285q-12 -55 4 -98.5t51 -73t82 -46t98 -16.5 q57 0 113.5 18.5t102 50.5t76 74t40.5 91q12 55 -4 98t-50 73.5t-81 47t-98 16.5t-105.5 -16.5t-101.5 -47t-81 -73.5t-46 -98z" />
<glyph unicode="&#xe51;" horiz-adv-x="1001" d="M186 231q12 82 53.5 145.5t100.5 108.5t134 69t153 24q74 0 134 -26t99 -71t54.5 -107.5t-1.5 -137.5q-29 -129 -120 -211t-213 -134l-21 66q31 12 73 33.5t83 55.5t73.5 81t45.5 109q12 57 0.5 105t-42 84t-77.5 55.5t-105 19.5q-61 0 -118.5 -18.5t-103.5 -52.5 t-79 -83t-41 -110q-6 -47 5.5 -82t35 -57.5t53 -31t60.5 0.5q-31 6 -46.5 39.5t-6.5 68.5q10 57 60 97t108 40q57 0 87.5 -40t20.5 -97q-6 -37 -39 -76t-81 -64.5t-107.5 -33.5t-120.5 14q-63 23 -93 84.5t-18 132.5zM440 174q-6 -29 9.5 -48.5t44.5 -19.5t52 19.5t29 48.5 q4 29 -10 48.5t-43 19.5t-53.5 -19.5t-28.5 -48.5z" />
<glyph unicode="&#xe52;" horiz-adv-x="1017" d="M114 12.5q1 12.5 5 28.5q4 27 13 31t26 8q6 25 16 75t20.5 115.5t18.5 142t7 153.5t-12 148.5t-38 127.5l70 51q31 -66 44 -143.5t14 -159.5t-7 -163t-19.5 -150.5t-22.5 -122t-18 -76.5h557q57 0 66 45l61 291q6 25 17 35q-10 23 -31.5 37t-54.5 12q-53 -2 -74.5 -36 t-30.5 -61q2 -16 1 -41.5t-5 -40.5h-69q10 72 -11.5 123.5t-87.5 55.5q-31 2 -58.5 -11.5t-48 -35t-33.5 -49t-17 -58.5q16 23 42.5 36t47.5 13q55 0 84.5 -39t19.5 -92q-12 -55 -58 -93t-102 -38q-55 0 -82.5 34t-33.5 84t10 108.5t51 107.5t85 79.5t114 28.5q41 -2 78 -19 t53 -56q16 31 52 51t71 24q47 8 86 -11t55 -56q6 4 16.5 3t20.5 -17q10 -18 5 -28.5t-21 -21.5q-12 -12 -19 -39l-59 -282q-10 -53 -53.5 -87t-102.5 -34h-643q-16 0 -15 12.5zM412 262q-6 -29 8 -47t41 -18q29 0 51.5 18t28.5 47q4 27 -10.5 45.5t-43.5 18.5 q-27 0 -49 -18.5t-26 -45.5z" />
<glyph unicode="&#xe53;" horiz-adv-x="1052" d="M160 242.5q8 64.5 30 117.5q39 92 118 151.5t167 63.5q29 2 58.5 -4t56 -21t49.5 -41t37 -65q25 53 72 84t98 39t98 -7t72 -54q6 4 16 3t21 -17q10 -18 5 -28.5t-22 -21.5q-12 -12 -18 -39l-84 -403h-74l86 414q6 27 17 37q-27 35 -68 42t-82 -11.5t-74.5 -58.5 t-46.5 -101l-61 -289q-2 -10 -14.5 -10h-28.5h-28.5t-10.5 10l61 289q6 76 -31.5 125t-109.5 47q-66 -2 -113 -37t-76.5 -89.5t-40 -117t-3.5 -119.5q4 31 18 55.5t35.5 42t46 26.5t49.5 9q59 0 91 -40t18 -99q-10 -57 -59.5 -97t-108.5 -40q-72 0 -110 39t-51 95t-5 120.5z M287 125q-4 -29 10 -48.5t43 -19.5t53.5 19.5t28.5 48.5q8 29 -8 48.5t-45 19.5t-51.5 -19.5t-30.5 -48.5z" />
<glyph unicode="&#xe54;" horiz-adv-x="1021" d="M190.5 287q-0.5 92 51.5 159q41 57 110.5 90t167.5 37q18 0 66.5 1t111 7.5t134 20.5t141 42t130 73t99.5 112l70 -24q-49 -82 -120 -135.5t-150.5 -87t-160.5 -50t-150.5 -23.5t-121 -8t-67.5 -3q-145 -16 -197 -88q-35 -49 -33 -137.5t47 -198.5h256q-51 35 -83.5 83 t-36.5 85q-4 33 9 65.5t36.5 59t55.5 42t67 15.5q57 0 89.5 -40t20.5 -99q-6 -25 -19.5 -47.5t-32.5 -41t-43 -28.5t-46 -10q12 -12 27.5 -26.5t33 -28t36 -22.5t34.5 -7h166l-15 -74h-624q-16 0 -21.5 10t-11.5 33q-4 10 5 17.5t16 9.5q-47 125 -47.5 217zM526 285 q-6 -29 9.5 -48.5t44.5 -19.5t52 19.5t30 48.5q6 29 -9.5 48t-44.5 19t-52.5 -19.5t-29.5 -47.5z" />
<glyph unicode="&#xe55;" horiz-adv-x="1021" d="M190.5 287q-0.5 92 51.5 159q41 57 110.5 92t167.5 35h64q-18 33 -12 69t29.5 66.5t59 51t76.5 20.5q33 0 58.5 -14t39 -39t13 -57.5t-20.5 -69.5q53 12 107.5 29.5t103.5 45t91 65.5t73 89l70 -24q-47 -82 -119 -135.5t-151.5 -87t-160.5 -50t-150.5 -23.5t-121 -8 t-67.5 -3q-145 -16 -197 -88q-35 -49 -33 -137.5t47 -198.5h256q-51 35 -83.5 83t-36.5 85q-4 33 9 65.5t36.5 59t55.5 42t67 15.5q57 0 89.5 -40t20.5 -99q-6 -25 -19.5 -47.5t-32.5 -41t-43 -28.5t-46 -10q12 -12 27.5 -26.5t33 -28t36 -22.5t34.5 -7h166l-15 -74h-624 q-16 0 -21.5 10t-11.5 33q-4 10 5 17.5t16 9.5q-47 125 -47.5 217zM526 285q-6 -29 9.5 -48.5t44.5 -19.5t52 19.5t30 48.5q6 29 -9.5 48t-44.5 19t-52.5 -19.5t-29.5 -47.5zM649 644q-4 -26 8 -42q10 -14 27.5 -17t35 3t31 20.5t17.5 34.5q4 18 -3 32.5t-20.5 22t-32 5 t-36.5 -16.5q-23 -16 -27 -42z" />
<glyph unicode="&#xe56;" horiz-adv-x="911" d="M51 844l84 6q-4 -31 16.5 -78t49 -96t58.5 -93t46 -69q70 47 156 67.5t166 14.5t140 -42t81 -101q20 -68 8 -133.5t-52 -123t-100.5 -104.5t-134.5 -76q-49 -18 -119.5 -25t-134 5t-102.5 49t-25 105q12 57 60.5 97t105.5 40q59 0 91 -40t20 -97q-6 -27 -22.5 -53.5 t-36.5 -37.5q68 -6 141.5 22t129.5 79t85 118.5t6 139.5q-20 63 -79.5 86.5t-133.5 17.5t-148.5 -36.5t-125.5 -73.5q-25 -25 -56 4q-16 16 -9 26.5t17 20.5q-31 39 -65.5 93t-62 109.5t-43 103.5t-11.5 75zM258 150q-6 -29 9.5 -48.5t43.5 -19.5q29 0 52.5 19.5t29.5 48.5 t-9 48t-44 19t-52.5 -19.5t-29.5 -47.5z" />
<glyph unicode="&#xe57;" horiz-adv-x="1232" d="M155.5 253.5q8.5 63.5 28.5 111.5q39 92 118 151t171 64q55 4 104.5 -26t77.5 -108q37 57 86.5 90t100.5 37q74 6 114.5 -25.5t55 -83.5t6.5 -113.5t-33 -112.5q39 45 81 103t83 121.5t79 127t68.5 119t52 97.5t29.5 62l62 -22q-45 -96 -120 -221t-158 -247t-166 -225.5 t-146 -156.5q-16 -12 -28.5 -7t-22.5 15q-20 20 -2 33q27 16 54.5 57t50 91.5t33.5 104.5t7 99t-29.5 74t-78.5 29q-39 0 -68 -18.5t-47.5 -43t-29.5 -49.5t-13 -37l-60 -285q-2 -6 -14 -7t-29 -1h-28.5t-9.5 8l59 281q4 74 -35 118t-102 40q-51 -2 -93 -30t-73 -71 t-45.5 -93t-9.5 -97q25 29 59.5 46t71.5 17q57 0 87.5 -41t18.5 -98t-60 -97t-106 -40q-68 0 -103.5 40t-46 98t-2 121.5zM266 131q-6 -29 10.5 -48.5t45.5 -19.5t52 19.5t29 48.5t-9 48.5t-44 19.5t-53.5 -19.5t-30.5 -48.5z" />
<glyph unicode="&#xe58;" horiz-adv-x="1087" d="M221 41q0 14 15 20q-94 252 6 385q41 57 108.5 90t165.5 37q98 6 201.5 19.5t198 44.5t172 82t120.5 129l72 -29q-41 -72 -102.5 -123t-133 -87t-148.5 -57.5t-149.5 -33.5t-136 -17t-108.5 -9q-145 -12 -197 -82q-35 -51 -39 -138.5t39 -197.5h74l174 256q6 10 16.5 6 t24.5 -12q12 -8 20.5 -13.5t-0.5 -15.5l-39 -55q0 -49 18.5 -83t44.5 -55.5t51.5 -32t41.5 -12.5q-25 31 -21.5 72t27 76t62.5 59.5t82 24.5q57 0 88.5 -41t19.5 -98q-10 -51 -45 -85t-79 -51.5t-93 -20.5t-90 7q-68 14 -109 58t-57 102l-100 -140q-4 -6 -12.5 -13t-16.5 -7 h-139q-16 0 -21.5 12.5t-5.5 28.5zM784 150q-6 -29 9.5 -48.5t44.5 -19.5t52 19.5t30 48.5q6 29 -9.5 48t-44.5 19t-52 -19.5t-30 -47.5z" />
<glyph unicode="&#xe59;" horiz-adv-x="997" d="M141 195q-8 94 43.5 175t149.5 130q33 16 54.5 27.5t34.5 17.5t22.5 11t19.5 9q33 27 54.5 33t41 -11.5t40 -57.5t54.5 -103q12 39 35 69.5t50.5 52t55 33t50.5 13.5q55 4 102 -18.5t56 -94.5q37 47 70.5 100.5t62 102.5t50 92t36.5 68l61 -35q-12 -25 -42 -79 t-68.5 -117.5t-84 -129t-88.5 -112.5q-6 -6 -18 -6t-23.5 4t-18.5 10t-1 12q10 63 -21.5 100t-89.5 27q-39 -8 -80.5 -53t-52.5 -125q2 -2 14.5 -40t30 -87t32.5 -99.5t24 -76.5l-74 -37q-23 90 -51.5 174t-58 151.5t-57.5 113.5t-48 63l-148 -74q-49 -25 -76.5 -53.5 t-42 -57t-17.5 -55t-1 -45.5q4 -31 14.5 -62.5t30.5 -45.5q2 31 16.5 58.5t38 49t54.5 34.5t61 13q57 0 89 -40t20 -97q-6 -29 -24.5 -54.5t-44 -44t-55.5 -29.5t-58 -11q-109 0 -163.5 59t-60.5 148zM340 127q-6 -29 9.5 -49.5t43.5 -20.5q29 0 53.5 20.5t30.5 49.5 t-9 48.5t-44 19.5t-53.5 -19.5t-30.5 -48.5z" />
<glyph unicode="&#xe5a;" horiz-adv-x="954" d="M221 696q6 27 21.5 51.5t39 43t50 29.5t55.5 11q55 0 86 -39.5t21 -95.5q-10 -45 -48 -81.5t-96 -41.5q43 -23 99.5 -13.5t114 44.5t109.5 92.5t83 132.5l67 -18q-4 -2 -13 -24.5t-13 -26.5l-35 -170q63 33 122.5 93t94.5 146l68 -18q-4 -2 -13.5 -24.5t-13.5 -26.5 l-137 -647q-6 -33 -30 -66t-73 -55q-35 -14 -47 16q-6 14 -5 25.5t20 21.5q23 10 39 30.5t20 43.5l104 492q-86 -84 -168 -115l-84 -393q-6 -33 -29.5 -66t-72.5 -55q-35 -14 -47 16q-6 14 -5 25.5t19 21.5q23 10 39.5 30.5t20.5 43.5l104 492q-74 -72 -148.5 -104 t-133.5 -30q-37 0 -75 15.5t-65.5 42t-41 65.5t-3.5 86zM293 696q-6 -29 8 -47t43 -18t52.5 18.5t29.5 46.5q6 29 -9 47.5t-44 18.5t-51.5 -18.5t-28.5 -47.5z" />
<glyph unicode="&#xe5b;" horiz-adv-x="1816" d="M190 424q37 164 132.5 268.5t228.5 108.5q106 -4 155.5 -67.5t31 -170t-78 -174t-131.5 -67.5q-55 0 -85.5 39.5t-18.5 95.5q12 55 59 95t103 40q27 0 44.5 -8.5t33.5 -24.5q20 55 -8.5 109.5t-114.5 54.5q-96 0 -169 -84t-104 -225q-23 -141 28.5 -215t164.5 -74 q137 0 232 92t144.5 239.5t51.5 184.5q115 -37 108 -264q29 41 75 129t42 119q90 -31 90 -207q35 37 63.5 89t37.5 95q100 -39 84 -221q33 29 54 80t23 80q16 -2 76 -63.5t244 -67.5q-133 -20 -182 -21q-80 0 -111 60q-41 -117 -135 -130q-20 0 -17.5 76t-13.5 107 q-78 -158 -164 -205q-20 0 -15 72.5t-20 130.5q-66 -174 -180 -234q-31 -4 -20.5 102.5t-5.5 131.5q-123 -440 -476 -449q-154 2 -223 98.5t-33 274.5zM492 457q-6 -29 9 -47.5t42 -18.5q29 0 52 18.5t30 47.5q6 29 -9.5 47t-44.5 18q-27 0 -50 -18.5t-29 -46.5z" />
<glyph unicode="&#x2000;" horiz-adv-x="859" />
<glyph unicode="&#x2001;" horiz-adv-x="1718" />
<glyph unicode="&#x2002;" horiz-adv-x="859" />
<glyph unicode="&#x2003;" horiz-adv-x="1718" />
<glyph unicode="&#x2004;" horiz-adv-x="572" />
<glyph unicode="&#x2005;" horiz-adv-x="429" />
<glyph unicode="&#x2006;" horiz-adv-x="286" />
<glyph unicode="&#x2007;" horiz-adv-x="286" />
<glyph unicode="&#x2008;" horiz-adv-x="214" />
<glyph unicode="&#x2009;" horiz-adv-x="343" />
<glyph unicode="&#x200a;" horiz-adv-x="95" />
<glyph unicode="&#x200c;" d="M-168 -631l238 1123h71l-237 -1123h-72z" />
<glyph unicode="&#x200d;" d="M-168 -631l197 938l-47 -43l-29 35l92 78l-59 80l43 35l57 -78l96 78l29 -35l-94 -80l61 -78l-45 -35l-33 43l-196 -938h-72z" />
<glyph unicode="&#x200e;" d="M-168 -631l221 1049h275l-27 37l39 34l86 -108l-131 -109l-25 37l41 35h-202l-205 -975h-72z" />
<glyph unicode="&#x200f;" d="M-262 381l131 108l27 -34l-43 -37h272l-221 -1049h-72l205 975h-201l29 -35l-41 -37z" />
<glyph unicode="&#x2010;" horiz-adv-x="790" d="M158 295l16 80h598l-16 -80h-598z" />
<glyph unicode="&#x2011;" horiz-adv-x="790" d="M158 295l16 80h598l-16 -80h-598z" />
<glyph unicode="&#x2012;" horiz-adv-x="790" d="M158 295l16 80h598l-16 -80h-598z" />
<glyph unicode="&#x2013;" horiz-adv-x="671" d="M55 305l13 60h688l-13 -60h-688z" />
<glyph unicode="&#x2014;" horiz-adv-x="1339" d="M55 305l13 60h1357l-12 -60h-1358z" />
<glyph unicode="&#x2018;" horiz-adv-x="409" d="M272 758q8 39 30 72.5t49.5 59t58 45t55.5 30.5l2 -7q2 -6 6 -15t8 -16t4 -9q-47 -16 -83.5 -48t-47.5 -61q39 14 64.5 -9.5t17.5 -60.5q-4 -23 -30.5 -49t-63.5 -26q-43 0 -61.5 25.5t-8.5 68.5z" />
<glyph unicode="&#x2019;" horiz-adv-x="409" d="M262 713q47 16 84 48t47 60q-39 -14 -64.5 9.5t-17.5 60.5q4 23 31 49.5t64 26.5q43 0 61 -26t8 -69q-8 -41 -29.5 -73.5t-49 -59t-57.5 -45t-54 -28.5l-3 6l-7.5 15t-8.5 16.5t-4 9.5z" />
</font>
</defs>
</svg>
