<?xml version="1.0" standalone="no"?>
<!DOCTYPE svg PUBLIC "-//W3C//DTD SVG 1.1//EN" "http://www.w3.org/Graphics/SVG/1.1/DTD/svg11.dtd" >
<svg xmlns="http://www.w3.org/2000/svg" xmlns:xlink="http://www.w3.org/1999/xlink" version="1.1">
<metadata></metadata>
<defs>
<font id="th_niramit_asregular" horiz-adv-x="0" >
<font-face units-per-em="2048" ascent="1638" descent="-410" />
<missing-glyph horiz-adv-x="450" />
<glyph unicode="A&#x300;" horiz-adv-x="847" d="M12 0q100 264 181 473l180 475q12 29 29.5 40t23.5 13q16 2 33.5 -13t21.5 -23q4 -6 -1 -14.5t-9 -12.5l354 -938l-80 -16l-102 284h-446l-107 -284zM223 336h393l-198 516zM271 1283h118l140 -213h-66z" />
<glyph unicode="A&#x301;" horiz-adv-x="847" d="M12 0q100 264 181 473l180 475q12 29 29.5 40t23.5 13q16 2 33.5 -13t21.5 -23q4 -6 -1 -14.5t-9 -12.5l354 -938l-80 -16l-102 284h-446l-107 -284zM223 336h393l-198 516zM269 1070l137 213h121l-195 -213h-63z" />
<glyph unicode="A&#x303;" horiz-adv-x="847" d="M12 0q100 264 181 473l180 475q12 29 29.5 40t23.5 13q16 2 33.5 -13t21.5 -23q4 -6 -1 -14.5t-9 -12.5l354 -938l-80 -16l-102 284h-446l-107 -284zM223 336h393l-198 516zM237 1108q0 53 21.5 93.5t68.5 40.5q25 0 46.5 -9.5t42 -21.5t41 -21.5t42.5 -9.5 q12 0 25.5 15.5t13.5 50.5h55q0 -55 -26.5 -92t-75.5 -37q-20 0 -42.5 9t-45.5 20.5t-42 20.5t-32 9q-18 0 -26.5 -19.5t-10.5 -48.5h-55z" />
<glyph unicode="E&#x300;" horiz-adv-x="755" d="M84 952q4 10 16.5 26.5t32.5 16.5q6 0 16.5 -7t18.5 -17h457v-80h-424v-348h379v-80h-379v-383h422v-80h-504v874q0 18 -6.5 29.5t-13.5 19t-12 13.5t-3 16zM197 1283h118l140 -213h-66z" />
<glyph unicode="E&#x301;" horiz-adv-x="753" d="M84 952q4 10 16.5 26.5t32.5 16.5q6 0 16.5 -7t18.5 -17h457v-80h-424v-348h379v-80h-379v-383h422v-80h-504v874q0 18 -6.5 29.5t-13.5 19t-12 13.5t-3 16zM273 1070l137 213h121l-195 -213h-63z" />
<glyph unicode="I&#x300;" horiz-adv-x="331" d="M-24 1283h118l140 -213h-66zM131 0v971h78v-971h-78z" />
<glyph unicode="I&#x301;" horiz-adv-x="331" d="M90 1070l137 213h121l-195 -213h-63zM131 0v971h78v-971h-78z" />
<glyph unicode="O&#x300;" horiz-adv-x="950" d="M82 479q0 113 25.5 207t74.5 159.5t122 102.5t167 37q92 0 165 -37t123 -102.5t75.5 -159.5t25.5 -207q0 -115 -25.5 -208t-75.5 -158.5t-123 -102.5t-165 -37q-94 0 -167 37t-122 102.5t-74.5 159t-25.5 207.5zM162 479q0 -80 17.5 -157.5t54 -138t95 -97.5t142.5 -37 q82 0 140.5 37t95 97.5t54 138t17.5 157.5t-17.5 157t-54 138.5t-95 98t-140.5 36.5q-84 0 -142.5 -36.5t-95 -98t-54 -138.5t-17.5 -157zM324 1283h118l140 -213h-66z" />
<glyph unicode="O&#x301;" horiz-adv-x="950" d="M82 479q0 113 25.5 207t74.5 159.5t122 102.5t167 37q92 0 165 -37t123 -102.5t75.5 -159.5t25.5 -207q0 -115 -25.5 -208t-75.5 -158.5t-123 -102.5t-165 -37q-94 0 -167 37t-122 102.5t-74.5 159t-25.5 207.5zM162 479q0 -80 17.5 -157.5t54 -138t95 -97.5t142.5 -37 q82 0 140.5 37t95 97.5t54 138t17.5 157.5t-17.5 157t-54 138.5t-95 98t-140.5 36.5q-84 0 -142.5 -36.5t-95 -98t-54 -138.5t-17.5 -157zM355 1070l137 213h121l-195 -213h-63z" />
<glyph unicode="O&#x303;" horiz-adv-x="950" d="M82 479q0 113 25.5 207t74.5 159.5t122 102.5t167 37q92 0 165 -37t123 -102.5t75.5 -159.5t25.5 -207q0 -115 -25.5 -208t-75.5 -158.5t-123 -102.5t-165 -37q-94 0 -167 37t-122 102.5t-74.5 159t-25.5 207.5zM162 479q0 -80 17.5 -157.5t54 -138t95 -97.5t142.5 -37 q82 0 140.5 37t95 97.5t54 138t17.5 157.5t-17.5 157t-54 138.5t-95 98t-140.5 36.5q-84 0 -142.5 -36.5t-95 -98t-54 -138.5t-17.5 -157zM291 1108q0 53 21.5 93.5t68.5 40.5q25 0 46.5 -9.5t42 -21.5t41 -21.5t42.5 -9.5q12 0 25.5 15.5t13.5 50.5h55q0 -55 -26.5 -92 t-75.5 -37q-20 0 -42.5 9t-45.5 20.5t-42 20.5t-32 9q-18 0 -26.5 -19.5t-10.5 -48.5h-55z" />
<glyph unicode="U&#x300;" horiz-adv-x="927" d="M115 297v674h78v-672q0 -66 22.5 -112t59 -74.5t86 -42t104.5 -13.5q53 0 102 13.5t86 42t59.5 74.5t22.5 112v672h76v-674q0 -158 -93 -239t-253 -81t-255 81t-95 239zM297 1283h118l140 -213h-66z" />
<glyph unicode="U&#x301;" horiz-adv-x="931" d="M115 297v674h78v-672q0 -66 22.5 -112t59 -74.5t86 -42t104.5 -13.5q53 0 102 13.5t86 42t59.5 74.5t22.5 112v672h76v-674q0 -158 -93 -239t-253 -81t-255 81t-95 239zM353 1070l137 213h121l-195 -213h-63z" />
<glyph unicode="Y&#x301;" horiz-adv-x="741" d="M14 973l66 26l282 -512l287 510l66 -26q-66 -113 -125 -217q-25 -45 -51.5 -92.5t-52 -92.5t-48 -86t-39.5 -71v-412h-71v412v2zM273 1070l137 213h121l-195 -213h-63z" />
<glyph unicode="a&#x300;" horiz-adv-x="731" d="M43 348q0 68 17.5 134.5t54.5 117.5t92 83t129 32q80 0 136 -36t91 -93v129h78v-551q0 -68 10.5 -98.5t20.5 -53.5l-68 -26q-6 12 -21.5 39.5t-15.5 87.5q-35 -59 -93 -95t-138 -36q-74 0 -129 31.5t-92 82.5t-54.5 118t-17.5 134zM113 348q0 -49 12 -100t38.5 -94 t69.5 -71t103 -28q53 0 94 22.5t69.5 58.5t45 81t20.5 92v80q-6 45 -22.5 90t-44 81t-68.5 58.5t-94 22.5q-59 0 -102.5 -27.5t-70 -70.5t-38.5 -95.5t-12 -99.5zM166 1004h118l140 -213h-66z" />
<glyph unicode="a&#x301;" horiz-adv-x="731" d="M43 348q0 68 17.5 134.5t54.5 117.5t92 83t129 32q80 0 136 -36t91 -93v129h78v-551q0 -68 10.5 -98.5t20.5 -53.5l-68 -26q-6 12 -21.5 39.5t-15.5 87.5q-35 -59 -93 -95t-138 -36q-74 0 -129 31.5t-92 82.5t-54.5 118t-17.5 134zM113 348q0 -49 12 -100t38.5 -94 t69.5 -71t103 -28q53 0 94 22.5t69.5 58.5t45 81t20.5 92v80q-6 45 -22.5 90t-44 81t-68.5 58.5t-94 22.5q-59 0 -102.5 -27.5t-70 -70.5t-38.5 -95.5t-12 -99.5zM244 791l137 213h121l-195 -213h-63z" />
<glyph unicode="a&#x303;" horiz-adv-x="731" d="M43 348q0 68 17.5 134.5t54.5 117.5t92 83t129 32q80 0 136 -36t91 -93v129h78v-551q0 -68 10.5 -98.5t20.5 -53.5l-68 -26q-6 12 -21.5 39.5t-15.5 87.5q-35 -59 -93 -95t-138 -36q-74 0 -129 31.5t-92 82.5t-54.5 118t-17.5 134zM113 348q0 -49 12 -100t38.5 -94 t69.5 -71t103 -28q53 0 94 22.5t69.5 58.5t45 81t20.5 92v80q-6 45 -22.5 90t-44 81t-68.5 58.5t-94 22.5q-59 0 -102.5 -27.5t-70 -70.5t-38.5 -95.5t-12 -99.5zM153 829q0 53 21.5 93.5t68.5 40.5q25 0 46.5 -9.5t42 -21.5t41 -21.5t42.5 -9.5q12 0 25.5 15.5t13.5 50.5 h55q0 -55 -26.5 -92t-75.5 -37q-20 0 -42.5 9t-45.5 20.5t-42 20.5t-32 9q-18 0 -26.5 -19.5t-10.5 -48.5h-55z" />
<glyph unicode="e&#x300;" horiz-adv-x="755" d="M51 344q0 59 18.5 125t56.5 120t98.5 89t146.5 35q100 0 159.5 -44t90 -102.5t40 -118t9.5 -88.5q0 -33 -13 -41q-8 -8 -45 -8h-473q0 -92 46 -155.5t106 -87.5q45 -18 86 -17.5t72.5 11t55 23.5t34.5 21l47 -61q-25 -16 -65 -32.5t-88 -24.5t-98 -5t-95 25 q-78 39 -133.5 122t-55.5 214zM137 389h455q2 37 -10.5 82t-40 84t-70.5 64.5t-104 25.5q-63 0 -106.5 -27.5t-71 -67.5t-40 -84t-12.5 -77zM191 1004h118l140 -213h-66z" />
<glyph unicode="e&#x301;" horiz-adv-x="737" d="M51 344q0 59 18.5 125t56.5 120t98.5 89t146.5 35q100 0 159.5 -44t90 -102.5t40 -118t9.5 -88.5q0 -33 -13 -41q-8 -8 -45 -8h-473q0 -92 46 -155.5t106 -87.5q45 -18 86 -17.5t72.5 11t55 23.5t34.5 21l47 -61q-25 -16 -65 -32.5t-88 -24.5t-98 -5t-95 25 q-78 39 -133.5 122t-55.5 214zM137 389h455q2 37 -10.5 82t-40 84t-70.5 64.5t-104 25.5q-63 0 -106.5 -27.5t-71 -67.5t-40 -84t-12.5 -77zM242 791l137 213h121l-195 -213h-63z" />
<glyph unicode="i&#x300;" horiz-adv-x="331" d="M-30 1004h118l140 -213h-66zM125 0v711h80v-711h-80z" />
<glyph unicode="i&#x301;" horiz-adv-x="331" d="M92 791l137 213h121l-195 -213h-63zM125 0v711h80v-711h-80z" />
<glyph unicode="o&#x300;" horiz-adv-x="686" d="M43 348q0 68 18.5 133.5t54.5 116.5t91 83t129 32t129 -32t92 -83t55.5 -116.5t18.5 -133.5t-18.5 -133t-55.5 -116.5t-92 -83t-129 -31.5t-129 31.5t-91 83t-54.5 117t-18.5 132.5zM115 348q0 -51 13 -104.5t41 -96.5t70 -70.5t97 -27.5t97 27.5t69.5 70.5t41 96.5 t13.5 104.5q0 49 -13.5 102.5t-41 97.5t-69.5 71.5t-97 27.5t-97 -27.5t-70 -70.5t-41 -96.5t-13 -104.5zM142 1004h118l140 -213h-66z" />
<glyph unicode="o&#x301;" horiz-adv-x="686" d="M43 348q0 68 18.5 133.5t54.5 116.5t91 83t129 32t129 -32t92 -83t55.5 -116.5t18.5 -133.5t-18.5 -133t-55.5 -116.5t-92 -83t-129 -31.5t-129 31.5t-91 83t-54.5 117t-18.5 132.5zM115 348q0 -51 13 -104.5t41 -96.5t70 -70.5t97 -27.5t97 27.5t69.5 70.5t41 96.5 t13.5 104.5q0 49 -13.5 102.5t-41 97.5t-69.5 71.5t-97 27.5t-97 -27.5t-70 -70.5t-41 -96.5t-13 -104.5zM215 791l137 213h121l-195 -213h-63z" />
<glyph unicode="o&#x303;" horiz-adv-x="694" d="M43 348q0 68 18.5 133.5t54.5 116.5t91 83t129 32t129 -32t92 -83t55.5 -116.5t18.5 -133.5t-18.5 -133t-55.5 -116.5t-92 -83t-129 -31.5t-129 31.5t-91 83t-54.5 117t-18.5 132.5zM115 348q0 -51 13 -104.5t41 -96.5t70 -70.5t97 -27.5t97 27.5t69.5 70.5t41 96.5 t13.5 104.5q0 49 -13.5 102.5t-41 97.5t-69.5 71.5t-97 27.5t-97 -27.5t-70 -70.5t-41 -96.5t-13 -104.5zM170 794q0 53 21.5 93.5t68.5 40.5q25 0 46.5 -9.5t42 -21.5t41 -21.5t42.5 -9.5q12 0 25.5 15.5t13.5 50.5h55q0 -55 -26.5 -92t-75.5 -37q-20 0 -42.5 9t-45.5 20.5 t-42 20.5t-32 9q-18 0 -26.5 -19.5t-10.5 -48.5h-55z" />
<glyph unicode="u&#x300;" horiz-adv-x="737" d="M90 244v469h74v-471q0 -90 54 -141.5t132 -51.5q45 0 82 20.5t62.5 54.5t40 77t14.5 88v424h76v-559q0 -68 10 -98.5t20 -53.5l-67 -27q-6 12 -21.5 40t-15.5 87q-31 -63 -92.5 -91.5t-122.5 -28.5q-76 0 -123 29.5t-74.5 71.5t-38 86t-10.5 75zM158 1004h118l140 -213 h-66z" />
<glyph unicode="u&#x301;" horiz-adv-x="737" d="M90 244v469h74v-471q0 -90 54 -141.5t132 -51.5q45 0 82 20.5t62.5 54.5t40 77t14.5 88v424h76v-559q0 -68 10 -98.5t20 -53.5l-67 -27q-6 12 -21.5 40t-15.5 87q-31 -63 -92.5 -91.5t-122.5 -28.5q-76 0 -123 29.5t-74.5 71.5t-38 86t-10.5 75zM273 791l137 213h121 l-195 -213h-63z" />
<glyph unicode="y&#x301;" horiz-adv-x="708" d="M43 700l74 33l250 -622l231 622l68 -33l-14 -36q-13 -37 -35.5 -96.5t-51 -134.5t-59.5 -153.5t-59.5 -154.5t-51 -135.5t-37 -95t-16.5 -37.5q-16 -37 -35.5 -65t-48.5 -50q-47 -33 -85 -45t-48 -19l-23 66q55 23 88 40t55.5 45t39 72t39.5 119zM281 791l137 213h121 l-195 -213h-63z" />
<glyph unicode="I&#x303;" horiz-adv-x="331" d="M-8 1108q-2 53 23.5 93.5t70.5 40.5q23 0 46.5 -8.5t45 -18.5t42 -19.5t38.5 -11.5q12 -2 23.5 11.5t11.5 50.5h58q0 -55 -26 -92t-75 -37q-16 0 -38.5 9t-45 20.5t-43 20.5t-35.5 9q-18 0 -26 -19.5t-11 -48.5h-59zM131 0v971h78v-971h-78z" />
<glyph unicode="i&#x303;" horiz-adv-x="329" d="M-12 833q-2 53 23.5 93.5t70.5 40.5q23 0 46.5 -8.5t45 -18.5t42 -19.5t38.5 -11.5q12 -2 23.5 11.5t11.5 50.5h58q0 -55 -26 -92t-75 -37q-16 0 -38.5 9t-45 20.5t-43 20.5t-35.5 9q-18 0 -26 -19.5t-11 -48.5h-59zM125 0v711h80v-711h-80z" />
<glyph unicode="U&#x303;" horiz-adv-x="923" d="M115 297v674h78v-672q0 -66 22.5 -112t59 -74.5t86 -42t104.5 -13.5q53 0 102 13.5t86 42t59.5 74.5t22.5 112v672h76v-674q0 -158 -93 -239t-253 -81t-255 81t-95 239zM289 1108q-2 53 23.5 93.5t70.5 40.5q23 0 46.5 -8.5t45 -18.5t42 -19.5t38.5 -11.5 q12 -2 23.5 11.5t11.5 50.5h58q0 -55 -26 -92t-75 -37q-16 0 -38.5 9t-45 20.5t-43 20.5t-35.5 9q-18 0 -26 -19.5t-11 -48.5h-59z" />
<glyph unicode="u&#x303;" horiz-adv-x="737" d="M90 244v469h74v-471q0 -90 54 -141.5t132 -51.5q45 0 82 20.5t62.5 54.5t40 77t14.5 88v424h76v-559q0 -68 10 -98.5t20 -53.5l-67 -27q-6 12 -21.5 40t-15.5 87q-31 -63 -92.5 -91.5t-122.5 -28.5q-76 0 -123 29.5t-74.5 71.5t-38 86t-10.5 75zM186 829q-2 53 23.5 93.5 t70.5 40.5q23 0 46.5 -8.5t45 -18.5t42 -19.5t38.5 -11.5q12 -2 23.5 11.5t11.5 50.5h58q0 -55 -26 -92t-75 -37q-16 0 -38.5 9t-45 20.5t-43 20.5t-35.5 9q-18 0 -26 -19.5t-11 -48.5h-59z" />
<glyph unicode="A&#x323;" horiz-adv-x="839" d="M12 0q100 264 181 473l180 475q12 29 29.5 40t23.5 13q16 2 33.5 -13t21.5 -23q4 -6 -1 -14.5t-9 -12.5l354 -938l-80 -16l-102 284h-446l-107 -284zM223 336h393l-198 516zM344 -162q0 29 20.5 51.5t53.5 22.5t53.5 -22.5t20.5 -51.5q0 -31 -20.5 -52.5t-53.5 -21.5 t-53.5 21.5t-20.5 52.5z" />
<glyph unicode="a&#x323;" horiz-adv-x="731" d="M43 348q0 68 17.5 134.5t54.5 117.5t92 83t129 32q80 0 136 -36t91 -93v129h78v-551q0 -68 10.5 -98.5t20.5 -53.5l-68 -26q-6 12 -21.5 39.5t-15.5 87.5q-35 -59 -93 -95t-138 -36q-74 0 -129 31.5t-92 82.5t-54.5 118t-17.5 134zM113 348q0 -49 12 -100t38.5 -94 t69.5 -71t103 -28q53 0 94 22.5t69.5 58.5t45 81t20.5 92v80q-6 45 -22.5 90t-44 81t-68.5 58.5t-94 22.5q-59 0 -102.5 -27.5t-70 -70.5t-38.5 -95.5t-12 -99.5zM272 -162q0 29 20.5 51.5t53.5 22.5t53.5 -22.5t20.5 -51.5q0 -31 -20.5 -52.5t-53.5 -21.5t-53.5 21.5 t-20.5 52.5z" />
<glyph unicode="A&#x309;" horiz-adv-x="847" d="M12 0q100 264 181 473l180 475q12 29 29.5 40t23.5 13q16 2 33.5 -13t21.5 -23q4 -6 -1 -14.5t-9 -12.5l354 -938l-80 -16l-102 284h-446l-107 -284zM223 336h393l-198 516zM282 1303q10 25 43 53t101 28q53 0 90 -31.5t37 -94.5q0 -35 -15.5 -68t-36 -58.5t-40 -43 t-27.5 -23.5q-2 0 -10.5 5t-18.5 11q-10 8 -25 19q37 29 70 66.5t33 84.5q0 45 -25.5 56.5t-44.5 11.5q-25 0 -42 -7t-28.5 -16.5t-13.5 -13.5l-6 -12l-20 16z" />
<glyph unicode="a&#x309;" horiz-adv-x="731" d="M43 348q0 68 17.5 134.5t54.5 117.5t92 83t129 32q80 0 136 -36t91 -93v129h78v-551q0 -68 10.5 -98.5t20.5 -53.5l-68 -26q-6 12 -21.5 39.5t-15.5 87.5q-35 -59 -93 -95t-138 -36q-74 0 -129 31.5t-92 82.5t-54.5 118t-17.5 134zM113 348q0 -49 12 -100t38.5 -94 t69.5 -71t103 -28q53 0 94 22.5t69.5 58.5t45 81t20.5 92v80q-6 45 -22.5 90t-44 81t-68.5 58.5t-94 22.5q-59 0 -102.5 -27.5t-70 -70.5t-38.5 -95.5t-12 -99.5zM207 1033q10 25 43 53t101 28q53 0 90 -31.5t37 -94.5q0 -35 -15.5 -68t-36 -58.5t-40 -43t-27.5 -23.5 q-2 0 -10.5 5t-18.5 11q-10 8 -25 19q37 29 70 66.5t33 84.5q0 45 -25.5 56.5t-44.5 11.5q-25 0 -42 -7t-28.5 -16.5t-13.5 -13.5l-6 -12l-20 16z" />
<glyph unicode="&#xc2;&#x301;" horiz-adv-x="847" d="M12 0q100 264 181 473l180 475q12 29 29.5 40t23.5 13q16 2 33.5 -13t21.5 -23q4 -6 -1 -14.5t-9 -12.5l354 -938l-80 -16l-102 284h-446l-107 -284zM217 1049l172 178h56l174 -178h-86l-117 108l-109 -108h-90zM223 336h393l-198 516zM574 1192l137 213h121l-195 -213 h-63z" />
<glyph unicode="&#xe2;&#x301;" horiz-adv-x="731" d="M43 348q0 68 17.5 134.5t54.5 117.5t92 83t129 32q80 0 136 -36t91 -93v129h78v-551q0 -68 10.5 -98.5t20.5 -53.5l-68 -26q-6 12 -21.5 39.5t-15.5 87.5q-35 -59 -93 -95t-138 -36q-74 0 -129 31.5t-92 82.5t-54.5 118t-17.5 134zM113 348q0 -49 12 -100t38.5 -94 t69.5 -71t103 -28q53 0 94 22.5t69.5 58.5t45 81t20.5 92v80q-6 45 -22.5 90t-44 81t-68.5 58.5t-94 22.5q-59 0 -102.5 -27.5t-70 -70.5t-38.5 -95.5t-12 -99.5zM135 793l172 178h56l174 -178h-86l-117 108l-109 -108h-90zM492 924l137 213h121l-195 -213h-63z" />
<glyph unicode="&#xc2;&#x300;" horiz-adv-x="847" d="M12 0q100 264 181 473l180 475q12 29 29.5 40t23.5 13q16 2 33.5 -13t21.5 -23q4 -6 -1 -14.5t-9 -12.5l354 -938l-80 -16l-102 284h-446l-107 -284zM219 1049l172 178h56l174 -178h-86l-117 108l-109 -108h-90zM223 336h393l-198 516zM424 1405h118l140 -213h-66z" />
<glyph unicode="&#xe2;&#x300;" horiz-adv-x="731" d="M43 348q0 68 17.5 134.5t54.5 117.5t92 83t129 32q80 0 136 -36t91 -93v129h78v-551q0 -68 10.5 -98.5t20.5 -53.5l-68 -26q-6 12 -21.5 39.5t-15.5 87.5q-35 -59 -93 -95t-138 -36q-74 0 -129 31.5t-92 82.5t-54.5 118t-17.5 134zM113 348q0 -49 12 -100t38.5 -94 t69.5 -71t103 -28q53 0 94 22.5t69.5 58.5t45 81t20.5 92v80q-6 45 -22.5 90t-44 81t-68.5 58.5t-94 22.5q-59 0 -102.5 -27.5t-70 -70.5t-38.5 -95.5t-12 -99.5zM135 793l172 178h56l174 -178h-86l-117 108l-109 -108h-90zM349 1137h118l140 -213h-66z" />
<glyph unicode="&#xc2;&#x309;" horiz-adv-x="847" d="M12 0q100 264 181 473l180 475q12 29 29.5 40t23.5 13q16 2 33.5 -13t21.5 -23q4 -6 -1 -14.5t-9 -12.5l354 -938l-80 -16l-102 284h-446l-107 -284zM217 1045l172 178h56l174 -178h-86l-117 108l-109 -108h-90zM223 336h393l-198 516zM461 1428q10 25 43 53t101 28 q53 0 90 -31.5t37 -94.5q0 -35 -15.5 -68t-36 -58.5t-40 -43t-27.5 -23.5q-2 0 -10.5 5t-18.5 11q-10 8 -25 19q37 29 70 66.5t33 84.5q0 45 -25.5 56.5t-44.5 11.5q-25 0 -42 -7t-28.5 -16.5t-13.5 -13.5l-6 -12l-20 16z" />
<glyph unicode="&#xe2;&#x309;" horiz-adv-x="731" d="M43 348q0 68 17.5 134.5t54.5 117.5t92 83t129 32q80 0 136 -36t91 -93v129h78v-551q0 -68 10.5 -98.5t20.5 -53.5l-68 -26q-6 12 -21.5 39.5t-15.5 87.5q-35 -59 -93 -95t-138 -36q-74 0 -129 31.5t-92 82.5t-54.5 118t-17.5 134zM113 348q0 -49 12 -100t38.5 -94 t69.5 -71t103 -28q53 0 94 22.5t69.5 58.5t45 81t20.5 92v80q-6 45 -22.5 90t-44 81t-68.5 58.5t-94 22.5q-59 0 -102.5 -27.5t-70 -70.5t-38.5 -95.5t-12 -99.5zM135 793l172 178h56l174 -178h-86l-117 108l-109 -108h-90zM391 1164q10 25 43 53t101 28q53 0 90 -31.5 t37 -94.5q0 -35 -15.5 -68t-36 -58.5t-40 -43t-27.5 -23.5q-2 0 -10.5 5t-18.5 11q-10 8 -25 19q37 29 70 66.5t33 84.5q0 45 -25.5 56.5t-44.5 11.5q-25 0 -42 -7t-28.5 -16.5t-13.5 -13.5l-6 -12l-20 16z" />
<glyph unicode="&#xc2;&#x303;" horiz-adv-x="847" d="M16 0q100 264 181 473l180 475q12 29 29.5 40t23.5 13q16 2 33.5 -13t21.5 -23q4 -6 -1 -14.5t-9 -12.5l354 -938l-80 -16l-102 284h-446l-107 -284zM217 1051l172 178h56l174 -178h-86l-117 108l-109 -108h-90zM227 336h393l-198 516zM240 1269q0 53 21.5 93.5 t68.5 40.5q25 0 46.5 -9.5t42 -21.5t41 -21.5t42.5 -9.5q12 0 25.5 15.5t13.5 50.5h55q0 -55 -26.5 -92t-75.5 -37q-20 0 -42.5 9t-45.5 20.5t-42 20.5t-32 9q-18 0 -26.5 -19.5t-10.5 -48.5h-55z" />
<glyph unicode="&#xe2;&#x303;" horiz-adv-x="731" d="M43 348q0 68 17.5 134.5t54.5 117.5t92 83t129 32q80 0 136 -36t91 -93v129h78v-551q0 -68 10.5 -98.5t20.5 -53.5l-68 -26q-6 12 -21.5 39.5t-15.5 87.5q-35 -59 -93 -95t-138 -36q-74 0 -129 31.5t-92 82.5t-54.5 118t-17.5 134zM113 348q0 -49 12 -100t38.5 -94 t69.5 -71t103 -28q53 0 94 22.5t69.5 58.5t45 81t20.5 92v80q-6 45 -22.5 90t-44 81t-68.5 58.5t-94 22.5q-59 0 -102.5 -27.5t-70 -70.5t-38.5 -95.5t-12 -99.5zM135 793l172 178h56l174 -178h-86l-117 108l-109 -108h-90zM156 1013q0 53 21.5 93.5t68.5 40.5 q25 0 46.5 -9.5t42 -21.5t41 -21.5t42.5 -9.5q12 0 25.5 15.5t13.5 50.5h55q0 -55 -26.5 -92t-75.5 -37q-20 0 -42.5 9t-45.5 20.5t-42 20.5t-32 9q-18 0 -26.5 -19.5t-10.5 -48.5h-55z" />
<glyph unicode="&#xc2;&#x323;" horiz-adv-x="858" d="M22 0q100 264 181 473l180 475q12 29 29.5 40t23.5 13q16 2 33.5 -13t21.5 -23q4 -6 -1 -14.5t-9 -12.5l354 -938l-80 -16l-102 284h-446l-107 -284zM217 1049l172 178h56l174 -178h-86l-117 108l-109 -108h-90zM233 336h393l-198 516zM356 -162q0 29 20.5 51.5 t53.5 22.5t53.5 -22.5t20.5 -51.5q0 -31 -20.5 -52.5t-53.5 -21.5t-53.5 21.5t-20.5 52.5z" />
<glyph unicode="&#xe2;&#x323;" horiz-adv-x="731" d="M43 348q0 68 17.5 134.5t54.5 117.5t92 83t129 32q80 0 136 -36t91 -93v129h78v-551q0 -68 10.5 -98.5t20.5 -53.5l-68 -26q-6 12 -21.5 39.5t-15.5 87.5q-35 -59 -93 -95t-138 -36q-74 0 -129 31.5t-92 82.5t-54.5 118t-17.5 134zM113 348q0 -49 12 -100t38.5 -94 t69.5 -71t103 -28q53 0 94 22.5t69.5 58.5t45 81t20.5 92v80q-6 45 -22.5 90t-44 81t-68.5 58.5t-94 22.5q-59 0 -102.5 -27.5t-70 -70.5t-38.5 -95.5t-12 -99.5zM135 793l172 178h56l174 -178h-86l-117 108l-109 -108h-90zM260 -162q0 29 20.5 51.5t53.5 22.5t53.5 -22.5 t20.5 -51.5q0 -31 -20.5 -52.5t-53.5 -21.5t-53.5 21.5t-20.5 52.5z" />
<glyph unicode="&#x102;&#x301;" horiz-adv-x="888" d="M39 0q100 264 181 473l180 475q12 29 29.5 40t23.5 13q16 2 33.5 -13t21.5 -23q4 -6 -1 -14.5t-9 -12.5l354 -938l-80 -16l-102 284h-446l-107 -284zM238 1286h74q0 -70 39 -112t106 -42q68 0 107 42t39 112h73q0 -45 -17 -85t-46 -71t-69 -48t-87 -17q-45 0 -86 17 t-69.5 48t-46 71t-17.5 85zM250 336h393l-198 516zM406 1252l137 213h121l-195 -213h-63z" />
<glyph unicode="&#x103;&#x301;" horiz-adv-x="731" d="M43 348q0 68 17.5 134.5t54.5 117.5t92 83t129 32q80 0 136 -36t91 -93v129h78v-551q0 -68 10.5 -98.5t20.5 -53.5l-68 -26q-6 12 -21.5 39.5t-15.5 87.5q-35 -59 -93 -95t-138 -36q-74 0 -129 31.5t-92 82.5t-54.5 118t-17.5 134zM113 348q0 -49 12 -100t38.5 -94 t69.5 -71t103 -28q53 0 94 22.5t69.5 58.5t45 81t20.5 92v80q-6 45 -22.5 90t-44 81t-68.5 58.5t-94 22.5q-59 0 -102.5 -27.5t-70 -70.5t-38.5 -95.5t-12 -99.5zM145 1024h74q0 -70 39 -112t106 -42q68 0 107 42t39 112h73q0 -45 -17 -85t-46 -71t-69 -48t-87 -17 q-45 0 -86 17t-69.5 48t-46 71t-17.5 85zM310 992l137 213h121l-195 -213h-63z" />
<glyph unicode="&#x102;&#x300;" horiz-adv-x="888" d="M41 0q100 264 181 473l180 475q12 29 29.5 40t23.5 13q16 2 33.5 -13t21.5 -23q4 -6 -1 -14.5t-9 -12.5l354 -938l-80 -16l-102 284h-446l-107 -284zM240 1286h74q0 -70 39 -112t106 -42q68 0 107 42t39 112h73q0 -45 -17 -85t-46 -71t-69 -48t-87 -17q-45 0 -86 17 t-69.5 48t-46 71t-17.5 85zM252 336h393l-198 516zM258 1467h118l140 -213h-66z" />
<glyph unicode="&#x103;&#x300;" horiz-adv-x="731" d="M43 348q0 68 17.5 134.5t54.5 117.5t92 83t129 32q80 0 136 -36t91 -93v129h78v-551q0 -68 10.5 -98.5t20.5 -53.5l-68 -26q-6 12 -21.5 39.5t-15.5 87.5q-35 -59 -93 -95t-138 -36q-74 0 -129 31.5t-92 82.5t-54.5 118t-17.5 134zM113 348q0 -49 12 -100t38.5 -94 t69.5 -71t103 -28q53 0 94 22.5t69.5 58.5t45 81t20.5 92v80q-6 45 -22.5 90t-44 81t-68.5 58.5t-94 22.5q-59 0 -102.5 -27.5t-70 -70.5t-38.5 -95.5t-12 -99.5zM117 1018h74q0 -70 39 -112t106 -42q68 0 107 42t39 112h73q0 -45 -17 -85t-46 -71t-69 -48t-87 -17 q-45 0 -86 17t-69.5 48t-46 71t-17.5 85zM131 1199h118l140 -213h-66z" />
<glyph unicode="&#x102;&#x309;" horiz-adv-x="921" d="M53 0q100 264 181 473l180 475q12 29 29.5 40t23.5 13q16 2 33.5 -13t21.5 -23q4 -6 -1 -14.5t-9 -12.5l354 -938l-80 -16l-102 284h-446l-107 -284zM238 1282h74q0 -70 39 -112t106 -42q68 0 107 42t39 112h73q0 -45 -17 -85t-46 -71t-69 -48t-87 -17q-45 0 -86 17 t-69.5 48t-46 71t-17.5 85zM264 336h393l-198 516zM307 1475q10 25 43 53t101 28q53 0 90 -31.5t37 -94.5q0 -35 -15.5 -68t-36 -58.5t-40 -43t-27.5 -23.5q-2 0 -10.5 5t-18.5 11q-10 8 -25 19q37 29 70 66.5t33 84.5q0 45 -25.5 56.5t-44.5 11.5q-25 0 -42 -7t-28.5 -16.5 t-13.5 -13.5l-6 -12l-20 16z" />
<glyph unicode="&#x103;&#x309;" horiz-adv-x="731" d="M43 348q0 68 17.5 134.5t54.5 117.5t92 83t129 32q80 0 136 -36t91 -93v129h78v-551q0 -68 10.5 -98.5t20.5 -53.5l-68 -26q-6 12 -21.5 39.5t-15.5 87.5q-35 -59 -93 -95t-138 -36q-74 0 -129 31.5t-92 82.5t-54.5 118t-17.5 134zM113 348q0 -49 12 -100t38.5 -94 t69.5 -71t103 -28q53 0 94 22.5t69.5 58.5t45 81t20.5 92v80q-6 45 -22.5 90t-44 81t-68.5 58.5t-94 22.5q-59 0 -102.5 -27.5t-70 -70.5t-38.5 -95.5t-12 -99.5zM115 1020h74q0 -70 39 -112t106 -42q68 0 107 42t39 112h73q0 -45 -17 -85t-46 -71t-69 -48t-87 -17 q-45 0 -86 17t-69.5 48t-46 71t-17.5 85zM182 1233q10 25 43 53t101 28q53 0 90 -31.5t37 -94.5q0 -35 -15.5 -68t-36 -58.5t-40 -43t-27.5 -23.5q-2 0 -10.5 5t-18.5 11q-10 8 -25 19q37 29 70 66.5t33 84.5q0 45 -25.5 56.5t-44.5 11.5q-25 0 -42 -7t-28.5 -16.5 t-13.5 -13.5l-6 -12l-20 16z" />
<glyph unicode="&#x102;&#x303;" horiz-adv-x="913" d="M53 0q100 264 181 473l180 475q12 29 29.5 40t23.5 13q16 2 33.5 -13t21.5 -23q4 -6 -1 -14.5t-9 -12.5l354 -938l-80 -16l-102 284h-446l-107 -284zM238 1274h74q0 -70 39 -112t106 -42q68 0 107 42t39 112h73q0 -45 -17 -85t-46 -71t-69 -48t-87 -17q-45 0 -86 17 t-69.5 48t-46 71t-17.5 85zM264 336h393l-198 516zM278 1318q0 53 21.5 93.5t68.5 40.5q25 0 46.5 -9.5t42 -21.5t41 -21.5t42.5 -9.5q12 0 25.5 15.5t13.5 50.5h55q0 -55 -26.5 -92t-75.5 -37q-20 0 -42.5 9t-45.5 20.5t-42 20.5t-32 9q-18 0 -26.5 -19.5t-10.5 -48.5h-55z " />
<glyph unicode="&#x103;&#x303;" horiz-adv-x="731" d="M43 348q0 68 17.5 134.5t54.5 117.5t92 83t129 32q80 0 136 -36t91 -93v129h78v-551q0 -68 10.5 -98.5t20.5 -53.5l-68 -26q-6 12 -21.5 39.5t-15.5 87.5q-35 -59 -93 -95t-138 -36q-74 0 -129 31.5t-92 82.5t-54.5 118t-17.5 134zM113 348q0 -49 12 -100t38.5 -94 t69.5 -71t103 -28q53 0 94 22.5t69.5 58.5t45 81t20.5 92v80q-6 45 -22.5 90t-44 81t-68.5 58.5t-94 22.5q-59 0 -102.5 -27.5t-70 -70.5t-38.5 -95.5t-12 -99.5zM113 1018h74q0 -70 39 -112t106 -42q68 0 107 42t39 112h73q0 -45 -17 -85t-46 -71t-69 -48t-87 -17 q-45 0 -86 17t-69.5 48t-46 71t-17.5 85zM156 1091q0 53 21.5 93.5t68.5 40.5q25 0 46.5 -9.5t42 -21.5t41 -21.5t42.5 -9.5q12 0 25.5 15.5t13.5 50.5h55q0 -55 -26.5 -92t-75.5 -37q-20 0 -42.5 9t-45.5 20.5t-42 20.5t-32 9q-18 0 -26.5 -19.5t-10.5 -48.5h-55z" />
<glyph unicode="&#x102;&#x323;" horiz-adv-x="847" d="M18 0q100 264 181 473l180 475q12 29 29.5 40t23.5 13q16 2 33.5 -13t21.5 -23q4 -6 -1 -14.5t-9 -12.5l354 -938l-80 -16l-102 284h-446l-107 -284zM197 1291h74q0 -70 39 -112t106 -42q68 0 107 42t39 112h73q0 -45 -17 -85t-46 -71t-69 -48t-87 -17q-45 0 -86 17 t-69.5 48t-46 71t-17.5 85zM229 336h393l-198 516zM346 -162q0 29 20.5 51.5t53.5 22.5t53.5 -22.5t20.5 -51.5q0 -31 -20.5 -52.5t-53.5 -21.5t-53.5 21.5t-20.5 52.5z" />
<glyph unicode="&#x103;&#x323;" horiz-adv-x="731" d="M43 348q0 68 17.5 134.5t54.5 117.5t92 83t129 32q80 0 136 -36t91 -93v129h78v-551q0 -68 10.5 -98.5t20.5 -53.5l-68 -26q-6 12 -21.5 39.5t-15.5 87.5q-35 -59 -93 -95t-138 -36q-74 0 -129 31.5t-92 82.5t-54.5 118t-17.5 134zM113 348q0 -49 12 -100t38.5 -94 t69.5 -71t103 -28q53 0 94 22.5t69.5 58.5t45 81t20.5 92v80q-6 45 -22.5 90t-44 81t-68.5 58.5t-94 22.5q-59 0 -102.5 -27.5t-70 -70.5t-38.5 -95.5t-12 -99.5zM121 1018h74q0 -70 39 -112t106 -42q68 0 107 42t39 112h73q0 -45 -17 -85t-46 -71t-69 -48t-87 -17 q-45 0 -86 17t-69.5 48t-46 71t-17.5 85zM270 -162q0 29 20.5 51.5t53.5 22.5t53.5 -22.5t20.5 -51.5q0 -31 -20.5 -52.5t-53.5 -21.5t-53.5 21.5t-20.5 52.5z" />
<glyph unicode="E&#x323;" horiz-adv-x="753" d="M84 952q4 10 16.5 26.5t32.5 16.5q6 0 16.5 -7t18.5 -17h457v-80h-424v-348h379v-80h-379v-383h422v-80h-504v874q0 18 -6.5 29.5t-13.5 19t-12 13.5t-3 16zM303 -162q0 29 20.5 51.5t53.5 22.5t53.5 -22.5t20.5 -51.5q0 -31 -20.5 -52.5t-53.5 -21.5t-53.5 21.5 t-20.5 52.5z" />
<glyph unicode="e&#x323;" horiz-adv-x="722" d="M51 344q0 59 18.5 125t56.5 120t98.5 89t146.5 35q100 0 159.5 -44t90 -102.5t40 -118t9.5 -88.5q0 -33 -13 -41q-8 -8 -45 -8h-473q0 -92 46 -155.5t106 -87.5q45 -18 86 -17.5t72.5 11t55 23.5t34.5 21l47 -61q-25 -16 -65 -32.5t-88 -24.5t-98 -5t-95 25 q-78 39 -133.5 122t-55.5 214zM137 389h455q2 37 -10.5 82t-40 84t-70.5 64.5t-104 25.5q-63 0 -106.5 -27.5t-71 -67.5t-40 -84t-12.5 -77zM321 -162q0 29 20.5 51.5t53.5 22.5t53.5 -22.5t20.5 -51.5q0 -31 -20.5 -52.5t-53.5 -21.5t-53.5 21.5t-20.5 52.5z" />
<glyph unicode="E&#x309;" horiz-adv-x="753" d="M98 952q4 10 16.5 26.5t32.5 16.5q6 0 16.5 -7t18.5 -17h457v-80h-424v-348h379v-80h-379v-383h422v-80h-504v874q0 18 -6.5 29.5t-13.5 19t-12 13.5t-3 16zM241 1282q10 25 43 53t101 28q53 0 90 -31.5t37 -94.5q0 -35 -15.5 -68t-36 -58.5t-40 -43t-27.5 -23.5 q-2 0 -10.5 5t-18.5 11q-10 8 -25 19q37 29 70 66.5t33 84.5q0 45 -25.5 56.5t-44.5 11.5q-25 0 -42 -7t-28.5 -16.5t-13.5 -13.5l-6 -12l-20 16z" />
<glyph unicode="e&#x309;" horiz-adv-x="724" d="M51 344q0 59 18.5 125t56.5 120t98.5 89t146.5 35q100 0 159.5 -44t90 -102.5t40 -118t9.5 -88.5q0 -33 -13 -41q-8 -8 -45 -8h-473q0 -92 46 -155.5t106 -87.5q45 -18 86 -17.5t72.5 11t55 23.5t34.5 21l47 -61q-25 -16 -65 -32.5t-88 -24.5t-98 -5t-95 25 q-78 39 -133.5 122t-55.5 214zM137 389h455q2 37 -10.5 82t-40 84t-70.5 64.5t-104 25.5q-63 0 -106.5 -27.5t-71 -67.5t-40 -84t-12.5 -77zM242 1034q10 24 43 51t102 27q53 0 90.5 -30.5t37.5 -90.5q0 -34 -16 -65.5t-36.5 -56t-40 -41.5t-27.5 -23q-2 0 -10.5 5t-18.5 11 q-10 7 -26 18q38 28 71 64t33 81q0 43 -25.5 54.5t-44.5 11.5q-26 0 -43 -7t-28.5 -16t-13.5 -13l-6 -12l-20 16z" />
<glyph unicode="E&#x303;" horiz-adv-x="753" d="M98 952q4 10 16.5 26.5t32.5 16.5q6 0 16.5 -7t18.5 -17h457v-80h-424v-348h379v-80h-379v-383h422v-80h-504v874q0 18 -6.5 29.5t-13.5 19t-12 13.5t-3 16zM199 1108q0 53 21.5 93.5t68.5 40.5q25 0 46.5 -9.5t42 -21.5t41 -21.5t42.5 -9.5q12 0 25.5 15.5t13.5 50.5h55 q0 -55 -26.5 -92t-75.5 -37q-20 0 -42.5 9t-45.5 20.5t-42 20.5t-32 9q-18 0 -26.5 -19.5t-10.5 -48.5h-55z" />
<glyph unicode="e&#x303;" horiz-adv-x="722" d="M51 344q0 59 18.5 125t56.5 120t98.5 89t146.5 35q100 0 159.5 -44t90 -102.5t40 -118t9.5 -88.5q0 -33 -13 -41q-8 -8 -45 -8h-473q0 -92 46 -155.5t106 -87.5q45 -18 86 -17.5t72.5 11t55 23.5t34.5 21l47 -61q-25 -16 -65 -32.5t-88 -24.5t-98 -5t-95 25 q-78 39 -133.5 122t-55.5 214zM137 389h455q2 37 -10.5 82t-40 84t-70.5 64.5t-104 25.5q-63 0 -106.5 -27.5t-71 -67.5t-40 -84t-12.5 -77zM194 811q0 53 21.5 93.5t68.5 40.5q25 0 46.5 -9.5t42 -21.5t41 -21.5t42.5 -9.5q12 0 25.5 15.5t13.5 50.5h55q0 -55 -26.5 -92 t-75.5 -37q-20 0 -42.5 9t-45.5 20.5t-42 20.5t-32 9q-18 0 -26.5 -19.5t-10.5 -48.5h-55z" />
<glyph unicode="&#xca;&#x301;" horiz-adv-x="753" d="M111 952q4 10 16.5 26.5t32.5 16.5q6 0 16.5 -7t18.5 -17h457v-80h-424v-348h379v-80h-379v-383h422v-80h-504v874q0 18 -6.5 29.5t-13.5 19t-12 13.5t-3 16zM204 1045l172 178h56l174 -178h-86l-117 108l-109 -108h-90zM566 1194l137 213h121l-195 -213h-63z" />
<glyph unicode="&#xea;&#x301;" horiz-adv-x="720" d="M51 344q0 59 18.5 125t56.5 120t98.5 89t146.5 35q100 0 159.5 -44t90 -102.5t40 -118t9.5 -88.5q0 -33 -13 -41q-8 -8 -45 -8h-473q0 -92 46 -155.5t106 -87.5q45 -18 86 -17.5t72.5 11t55 23.5t34.5 21l47 -61q-25 -16 -65 -32.5t-88 -24.5t-98 -5t-95 25 q-78 39 -133.5 122t-55.5 214zM137 389h455q2 37 -10.5 82t-40 84t-70.5 64.5t-104 25.5q-63 0 -106.5 -27.5t-71 -67.5t-40 -84t-12.5 -77zM172 795l172 178h56l174 -178h-86l-117 108l-109 -108h-90zM539 924l137 213h121l-195 -213h-63z" />
<glyph unicode="&#xca;&#x300;" horiz-adv-x="753" d="M102 952q4 10 16.5 26.5t32.5 16.5q6 0 16.5 -7t18.5 -17h457v-80h-424v-348h379v-80h-379v-383h422v-80h-504v874q0 18 -6.5 29.5t-13.5 19t-12 13.5t-3 16zM202 1045l172 178h56l174 -178h-86l-117 108l-109 -108h-90zM420 1405h118l140 -213h-66z" />
<glyph unicode="&#xea;&#x300;" horiz-adv-x="722" d="M51 344q0 59 18.5 125t56.5 120t98.5 89t146.5 35q100 0 159.5 -44t90 -102.5t40 -118t9.5 -88.5q0 -33 -13 -41q-8 -8 -45 -8h-473q0 -92 46 -155.5t106 -87.5q45 -18 86 -17.5t72.5 11t55 23.5t34.5 21l47 -61q-25 -16 -65 -32.5t-88 -24.5t-98 -5t-95 25 q-78 39 -133.5 122t-55.5 214zM137 389h455q2 37 -10.5 82t-40 84t-70.5 64.5t-104 25.5q-63 0 -106.5 -27.5t-71 -67.5t-40 -84t-12.5 -77zM161 795l172 178h56l174 -178h-86l-117 108l-109 -108h-90zM383 1139h118l140 -213h-66z" />
<glyph unicode="&#xca;&#x309;" horiz-adv-x="753" d="M84 952q4 10 16.5 26.5t32.5 16.5q6 0 16.5 -7t18.5 -17h457v-80h-424v-348h379v-80h-379v-383h422v-80h-504v874q0 18 -6.5 29.5t-13.5 19t-12 13.5t-3 16zM170 1045l172 178h56l174 -178h-86l-117 108l-109 -108h-90zM424 1424q10 25 43 53t101 28q53 0 90 -31.5 t37 -94.5q0 -35 -15.5 -68t-36 -58.5t-40 -43t-27.5 -23.5q-2 0 -10.5 5t-18.5 11q-10 8 -25 19q37 29 70 66.5t33 84.5q0 45 -25.5 56.5t-44.5 11.5q-25 0 -42 -7t-28.5 -16.5t-13.5 -13.5l-6 -12l-20 16z" />
<glyph unicode="&#xea;&#x309;" horiz-adv-x="722" d="M51 344q0 59 18.5 125t56.5 120t98.5 89t146.5 35q100 0 159.5 -44t90 -102.5t40 -118t9.5 -88.5q0 -33 -13 -41q-8 -8 -45 -8h-473q0 -92 46 -155.5t106 -87.5q45 -18 86 -17.5t72.5 11t55 23.5t34.5 21l47 -61q-25 -16 -65 -32.5t-88 -24.5t-98 -5t-95 25 q-78 39 -133.5 122t-55.5 214zM137 389h455q2 37 -10.5 82t-40 84t-70.5 64.5t-104 25.5q-63 0 -106.5 -27.5t-71 -67.5t-40 -84t-12.5 -77zM161 793l172 178h56l174 -178h-86l-117 108l-109 -108h-90zM424 1162q10 25 43 53t101 28q53 0 90 -31.5t37 -94.5q0 -35 -15.5 -68 t-36 -58.5t-40 -43t-27.5 -23.5q-2 0 -10.5 5t-18.5 11q-10 8 -25 19q37 29 70 66.5t33 84.5q0 45 -25.5 56.5t-44.5 11.5q-25 0 -42 -7t-28.5 -16.5t-13.5 -13.5l-6 -12l-20 16z" />
<glyph unicode="&#xca;&#x303;" horiz-adv-x="753" d="M84 952q4 10 16.5 26.5t32.5 16.5q6 0 16.5 -7t18.5 -17h457v-80h-424v-348h379v-80h-379v-383h422v-80h-504v874q0 18 -6.5 29.5t-13.5 19t-12 13.5t-3 16zM164 1049l172 178h56l174 -178h-86l-117 108l-109 -108h-90zM184 1280q0 53 21.5 93.5t68.5 40.5 q25 0 46.5 -9.5t42 -21.5t41 -21.5t42.5 -9.5q12 0 25.5 15.5t13.5 50.5h55q0 -55 -26.5 -92t-75.5 -37q-20 0 -42.5 9t-45.5 20.5t-42 20.5t-32 9q-18 0 -26.5 -19.5t-10.5 -48.5h-55z" />
<glyph unicode="&#xea;&#x303;" horiz-adv-x="722" d="M51 344q0 59 18.5 125t56.5 120t98.5 89t146.5 35q100 0 159.5 -44t90 -102.5t40 -118t9.5 -88.5q0 -33 -13 -41q-8 -8 -45 -8h-473q0 -92 46 -155.5t106 -87.5q45 -18 86 -17.5t72.5 11t55 23.5t34.5 21l47 -61q-25 -16 -65 -32.5t-88 -24.5t-98 -5t-95 25 q-78 39 -133.5 122t-55.5 214zM137 389h455q2 37 -10.5 82t-40 84t-70.5 64.5t-104 25.5q-63 0 -106.5 -27.5t-71 -67.5t-40 -84t-12.5 -77zM164 795l172 178h56l174 -178h-86l-117 108l-109 -108h-90zM184 1028q0 53 21.5 93.5t68.5 40.5q25 0 46.5 -9.5t42 -21.5t41 -21.5 t42.5 -9.5q12 0 25.5 15.5t13.5 50.5h55q0 -55 -26.5 -92t-75.5 -37q-20 0 -42.5 9t-45.5 20.5t-42 20.5t-32 9q-18 0 -26.5 -19.5t-10.5 -48.5h-55z" />
<glyph unicode="&#xca;&#x323;" horiz-adv-x="753" d="M113 952q4 10 16.5 26.5t32.5 16.5q6 0 16.5 -7t18.5 -17h457v-80h-424v-348h379v-80h-379v-383h422v-80h-504v874q0 18 -6.5 29.5t-13.5 19t-12 13.5t-3 16zM180 1051l172 178h56l174 -178h-86l-117 108l-109 -108h-90zM307 -162q0 29 20.5 51.5t53.5 22.5t53.5 -22.5 t20.5 -51.5q0 -31 -20.5 -52.5t-53.5 -21.5t-53.5 21.5t-20.5 52.5z" />
<glyph unicode="&#xea;&#x323;" horiz-adv-x="720" d="M51 344q0 59 18.5 125t56.5 120t98.5 89t146.5 35q100 0 159.5 -44t90 -102.5t40 -118t9.5 -88.5q0 -33 -13 -41q-8 -8 -45 -8h-473q0 -92 46 -155.5t106 -87.5q45 -18 86 -17.5t72.5 11t55 23.5t34.5 21l47 -61q-25 -16 -65 -32.5t-88 -24.5t-98 -5t-95 25 q-78 39 -133.5 122t-55.5 214zM137 389h455q2 37 -10.5 82t-40 84t-70.5 64.5t-104 25.5q-63 0 -106.5 -27.5t-71 -67.5t-40 -84t-12.5 -77zM161 795l172 178h56l174 -178h-86l-117 108l-109 -108h-90zM307 -162q0 29 20.5 51.5t53.5 22.5t53.5 -22.5t20.5 -51.5 q0 -31 -20.5 -52.5t-53.5 -21.5t-53.5 21.5t-20.5 52.5z" />
<glyph unicode="I&#x309;" horiz-adv-x="331" d="M35 1287q10 25 43 53t101 28q53 0 90 -31.5t37 -94.5q0 -35 -15.5 -68t-36 -58.5t-40 -43t-27.5 -23.5q-2 0 -10.5 5t-18.5 11q-10 8 -25 19q37 29 70 66.5t33 84.5q0 45 -25.5 56.5t-44.5 11.5q-25 0 -42 -7t-28.5 -16.5t-13.5 -13.5l-6 -12l-20 16zM131 0v971h78v-971 h-78z" />
<glyph unicode="i&#x309;" horiz-adv-x="331" d="M33 998q10 25 43 53t101 28q53 0 90 -31.5t37 -94.5q0 -35 -15.5 -68t-36 -58.5t-40 -43t-27.5 -23.5q-2 0 -10.5 5t-18.5 11q-10 8 -25 19q37 29 70 66.5t33 84.5q0 45 -25.5 56.5t-44.5 11.5q-25 0 -42 -7t-28.5 -16.5t-13.5 -13.5l-6 -12l-20 16zM125 0v711h80v-711 h-80z" />
<glyph unicode="I&#x323;" horiz-adv-x="331" d="M98 -162q0 29 20.5 51.5t53.5 22.5t53.5 -22.5t20.5 -51.5q0 -31 -20.5 -52.5t-53.5 -21.5t-53.5 21.5t-20.5 52.5zM131 0v971h78v-971h-78z" />
<glyph unicode="i&#x323;" horiz-adv-x="331" d="M100 -162q0 29 20.5 51.5t53.5 22.5t53.5 -22.5t20.5 -51.5q0 -31 -20.5 -52.5t-53.5 -21.5t-53.5 21.5t-20.5 52.5zM109 905q0 27 18 44.5t45 17.5q25 0 42.5 -17.5t17.5 -44.5q0 -25 -17.5 -43t-42.5 -18q-27 0 -45 18.5t-18 42.5zM135 0v713h74v-713h-74z" />
<glyph unicode="O&#x323;" horiz-adv-x="950" d="M82 479q0 113 25.5 207t74.5 159.5t122 102.5t167 37q92 0 165 -37t123 -102.5t75.5 -159.5t25.5 -207q0 -115 -25.5 -208t-75.5 -158.5t-123 -102.5t-165 -37q-94 0 -167 37t-122 102.5t-74.5 159t-25.5 207.5zM162 479q0 -80 17.5 -157.5t54 -138t95 -97.5t142.5 -37 q82 0 140.5 37t95 97.5t54 138t17.5 157.5t-17.5 157t-54 138.5t-95 98t-140.5 36.5q-84 0 -142.5 -36.5t-95 -98t-54 -138.5t-17.5 -157zM399 -162q0 29 20.5 51.5t53.5 22.5t53.5 -22.5t20.5 -51.5q0 -31 -20.5 -52.5t-53.5 -21.5t-53.5 21.5t-20.5 52.5z" />
<glyph unicode="o&#x323;" horiz-adv-x="681" d="M43 348q0 68 18.5 133.5t54.5 116.5t91 83t129 32t129 -32t92 -83t55.5 -116.5t18.5 -133.5t-18.5 -133t-55.5 -116.5t-92 -83t-129 -31.5t-129 31.5t-91 83t-54.5 117t-18.5 132.5zM115 348q0 -51 13 -104.5t41 -96.5t70 -70.5t97 -27.5t97 27.5t69.5 70.5t41 96.5 t13.5 104.5q0 49 -13.5 102.5t-41 97.5t-69.5 71.5t-97 27.5t-97 -27.5t-70 -70.5t-41 -96.5t-13 -104.5zM272 -162q0 29 20.5 51.5t53.5 22.5t53.5 -22.5t20.5 -51.5q0 -31 -20.5 -52.5t-53.5 -21.5t-53.5 21.5t-20.5 52.5z" />
<glyph unicode="O&#x309;" horiz-adv-x="950" d="M82 479q0 113 25.5 207t74.5 159.5t122 102.5t167 37q92 0 165 -37t123 -102.5t75.5 -159.5t25.5 -207q0 -115 -25.5 -208t-75.5 -158.5t-123 -102.5t-165 -37q-94 0 -167 37t-122 102.5t-74.5 159t-25.5 207.5zM162 479q0 -80 17.5 -157.5t54 -138t95 -97.5t142.5 -37 q82 0 140.5 37t95 97.5t54 138t17.5 157.5t-17.5 157t-54 138.5t-95 98t-140.5 36.5q-84 0 -142.5 -36.5t-95 -98t-54 -138.5t-17.5 -157zM342 1287q10 25 43 53t101 28q53 0 90 -31.5t37 -94.5q0 -35 -15.5 -68t-36 -58.5t-40 -43t-27.5 -23.5q-2 0 -10.5 5t-18.5 11 q-10 8 -25 19q37 29 70 66.5t33 84.5q0 45 -25.5 56.5t-44.5 11.5q-25 0 -42 -7t-28.5 -16.5t-13.5 -13.5l-6 -12l-20 16z" />
<glyph unicode="o&#x309;" horiz-adv-x="677" d="M43 348q0 68 18.5 133.5t54.5 116.5t91 83t129 32t129 -32t92 -83t55.5 -116.5t18.5 -133.5t-18.5 -133t-55.5 -116.5t-92 -83t-129 -31.5t-129 31.5t-91 83t-54.5 117t-18.5 132.5zM115 348q0 -51 13 -104.5t41 -96.5t70 -70.5t97 -27.5t97 27.5t69.5 70.5t41 96.5 t13.5 104.5q0 49 -13.5 102.5t-41 97.5t-69.5 71.5t-97 27.5t-97 -27.5t-70 -70.5t-41 -96.5t-13 -104.5zM219 1002q10 25 43 53t101 28q53 0 90 -31.5t37 -94.5q0 -35 -15.5 -68t-36 -58.5t-40 -43t-27.5 -23.5q-2 0 -10.5 5t-18.5 11q-10 8 -25 19q37 29 70 66.5t33 84.5 q0 45 -25.5 56.5t-44.5 11.5q-25 0 -42 -7t-28.5 -16.5t-13.5 -13.5l-6 -12l-20 16z" />
<glyph unicode="&#xd4;&#x301;" horiz-adv-x="950" d="M82 479q0 113 25.5 207t74.5 159.5t122 102.5t167 37q92 0 165 -37t123 -102.5t75.5 -159.5t25.5 -207q0 -115 -25.5 -208t-75.5 -158.5t-123 -102.5t-165 -37q-94 0 -167 37t-122 102.5t-74.5 159t-25.5 207.5zM162 479q0 -80 17.5 -157.5t54 -138t95 -97.5t142.5 -37 q82 0 140.5 37t95 97.5t54 138t17.5 157.5t-17.5 157t-54 138.5t-95 98t-140.5 36.5q-84 0 -142.5 -36.5t-95 -98t-54 -138.5t-17.5 -157zM274 1047l172 178h56l174 -178h-86l-117 108l-109 -108h-90zM633 1194l137 213h121l-195 -213h-63z" />
<glyph unicode="&#xf4;&#x301;" horiz-adv-x="677" d="M43 348q0 68 18.5 133.5t54.5 116.5t91 83t129 32t129 -32t92 -83t55.5 -116.5t18.5 -133.5t-18.5 -133t-55.5 -116.5t-92 -83t-129 -31.5t-129 31.5t-91 83t-54.5 117t-18.5 132.5zM115 348q0 -51 13 -104.5t41 -96.5t70 -70.5t97 -27.5t97 27.5t69.5 70.5t41 96.5 t13.5 104.5q0 49 -13.5 102.5t-41 97.5t-69.5 71.5t-97 27.5t-97 -27.5t-70 -70.5t-41 -96.5t-13 -104.5zM131 762l172 178h56l174 -178h-86l-117 108l-109 -108h-90zM469 924l137 213h121l-195 -213h-63z" />
<glyph unicode="&#xd4;&#x300;" horiz-adv-x="942" d="M82 479q0 113 25.5 207t74.5 159.5t122 102.5t167 37q92 0 165 -37t123 -102.5t75.5 -159.5t25.5 -207q0 -115 -25.5 -208t-75.5 -158.5t-123 -102.5t-165 -37q-94 0 -167 37t-122 102.5t-74.5 159t-25.5 207.5zM162 479q0 -80 17.5 -157.5t54 -138t95 -97.5t142.5 -37 q82 0 140.5 37t95 97.5t54 138t17.5 157.5t-17.5 157t-54 138.5t-95 98t-140.5 36.5q-84 0 -142.5 -36.5t-95 -98t-54 -138.5t-17.5 -157zM272 1053l172 178h56l174 -178h-86l-117 108l-109 -108h-90zM496 1405h118l140 -213h-66z" />
<glyph unicode="&#xf4;&#x300;" horiz-adv-x="675" d="M43 348q0 68 18.5 133.5t54.5 116.5t91 83t129 32t129 -32t92 -83t55.5 -116.5t18.5 -133.5t-18.5 -133t-55.5 -116.5t-92 -83t-129 -31.5t-129 31.5t-91 83t-54.5 117t-18.5 132.5zM115 348q0 -51 13 -104.5t41 -96.5t70 -70.5t97 -27.5t97 27.5t69.5 70.5t41 96.5 t13.5 104.5q0 49 -13.5 102.5t-41 97.5t-69.5 71.5t-97 27.5t-97 -27.5t-70 -70.5t-41 -96.5t-13 -104.5zM137 793l172 178h56l174 -178h-86l-117 108l-109 -108h-90zM334 1143h118l140 -213h-66z" />
<glyph unicode="&#xd4;&#x309;" horiz-adv-x="946" d="M82 479q0 113 25.5 207t74.5 159.5t122 102.5t167 37q92 0 165 -37t123 -102.5t75.5 -159.5t25.5 -207q0 -115 -25.5 -208t-75.5 -158.5t-123 -102.5t-165 -37q-94 0 -167 37t-122 102.5t-74.5 159t-25.5 207.5zM162 479q0 -80 17.5 -157.5t54 -138t95 -97.5t142.5 -37 q82 0 140.5 37t95 97.5t54 138t17.5 157.5t-17.5 157t-54 138.5t-95 98t-140.5 36.5q-84 0 -142.5 -36.5t-95 -98t-54 -138.5t-17.5 -157zM272 1053l172 178h56l174 -178h-86l-117 108l-109 -108h-90zM538 1426q10 25 43 53t101 28q53 0 90 -31.5t37 -94.5q0 -35 -15.5 -68 t-36 -58.5t-40 -43t-27.5 -23.5q-2 0 -10.5 5t-18.5 11q-10 8 -25 19q37 29 70 66.5t33 84.5q0 45 -25.5 56.5t-44.5 11.5q-25 0 -42 -7t-28.5 -16.5t-13.5 -13.5l-6 -12l-20 16z" />
<glyph unicode="&#xf4;&#x309;" horiz-adv-x="679" d="M43 348q0 68 18.5 133.5t54.5 116.5t91 83t129 32t129 -32t92 -83t55.5 -116.5t18.5 -133.5t-18.5 -133t-55.5 -116.5t-92 -83t-129 -31.5t-129 31.5t-91 83t-54.5 117t-18.5 132.5zM115 348q0 -51 13 -104.5t41 -96.5t70 -70.5t97 -27.5t97 27.5t69.5 70.5t41 96.5 t13.5 104.5q0 49 -13.5 102.5t-41 97.5t-69.5 71.5t-97 27.5t-97 -27.5t-70 -70.5t-41 -96.5t-13 -104.5zM139 789l172 178h56l174 -178h-86l-117 108l-109 -108h-90zM391 1147q10 25 43 53t101 28q53 0 90 -31.5t37 -94.5q0 -35 -15.5 -68t-36 -58.5t-40 -43t-27.5 -23.5 q-2 0 -10.5 5t-18.5 11q-10 8 -25 19q37 29 70 66.5t33 84.5q0 45 -25.5 56.5t-44.5 11.5q-25 0 -42 -7t-28.5 -16.5t-13.5 -13.5l-6 -12l-20 16z" />
<glyph unicode="&#xd4;&#x303;" horiz-adv-x="954" d="M82 479q0 113 25.5 207t74.5 159.5t122 102.5t167 37q92 0 165 -37t123 -102.5t75.5 -159.5t25.5 -207q0 -115 -25.5 -208t-75.5 -158.5t-123 -102.5t-165 -37q-94 0 -167 37t-122 102.5t-74.5 159t-25.5 207.5zM162 479q0 -80 17.5 -157.5t54 -138t95 -97.5t142.5 -37 q82 0 140.5 37t95 97.5t54 138t17.5 157.5t-17.5 157t-54 138.5t-95 98t-140.5 36.5q-84 0 -142.5 -36.5t-95 -98t-54 -138.5t-17.5 -157zM266 1055l172 178h56l174 -178h-86l-117 108l-109 -108h-90zM293 1302q0 53 21.5 93.5t68.5 40.5q25 0 46.5 -9.5t42 -21.5t41 -21.5 t42.5 -9.5q12 0 25.5 15.5t13.5 50.5h55q0 -55 -26.5 -92t-75.5 -37q-20 0 -42.5 9t-45.5 20.5t-42 20.5t-32 9q-18 0 -26.5 -19.5t-10.5 -48.5h-55z" />
<glyph unicode="&#xf4;&#x303;" horiz-adv-x="679" d="M43 348q0 68 18.5 133.5t54.5 116.5t91 83t129 32t129 -32t92 -83t55.5 -116.5t18.5 -133.5t-18.5 -133t-55.5 -116.5t-92 -83t-129 -31.5t-129 31.5t-91 83t-54.5 117t-18.5 132.5zM115 348q0 -51 13 -104.5t41 -96.5t70 -70.5t97 -27.5t97 27.5t69.5 70.5t41 96.5 t13.5 104.5q0 49 -13.5 102.5t-41 97.5t-69.5 71.5t-97 27.5t-97 -27.5t-70 -70.5t-41 -96.5t-13 -104.5zM145 772l172 178h56l174 -178h-86l-117 108l-109 -108h-90zM166 1003q0 53 21.5 93.5t68.5 40.5q25 0 46.5 -9.5t42 -21.5t41 -21.5t42.5 -9.5q12 0 25.5 15.5 t13.5 50.5h55q0 -55 -26.5 -92t-75.5 -37q-20 0 -42.5 9t-45.5 20.5t-42 20.5t-32 9q-18 0 -26.5 -19.5t-10.5 -48.5h-55z" />
<glyph unicode="&#xd4;&#x323;" horiz-adv-x="954" d="M82 479q0 113 25.5 207t74.5 159.5t122 102.5t167 37q92 0 165 -37t123 -102.5t75.5 -159.5t25.5 -207q0 -115 -25.5 -208t-75.5 -158.5t-123 -102.5t-165 -37q-94 0 -167 37t-122 102.5t-74.5 159t-25.5 207.5zM162 479q0 -80 17.5 -157.5t54 -138t95 -97.5t142.5 -37 q82 0 140.5 37t95 97.5t54 138t17.5 157.5t-17.5 157t-54 138.5t-95 98t-140.5 36.5q-84 0 -142.5 -36.5t-95 -98t-54 -138.5t-17.5 -157zM272 1063l172 178h56l174 -178h-86l-117 108l-109 -108h-90zM397 -162q0 29 20.5 51.5t53.5 22.5t53.5 -22.5t20.5 -51.5 q0 -31 -20.5 -52.5t-53.5 -21.5t-53.5 21.5t-20.5 52.5z" />
<glyph unicode="&#xf4;&#x323;" horiz-adv-x="679" d="M43 348q0 68 18.5 133.5t54.5 116.5t91 83t129 32t129 -32t92 -83t55.5 -116.5t18.5 -133.5t-18.5 -133t-55.5 -116.5t-92 -83t-129 -31.5t-129 31.5t-91 83t-54.5 117t-18.5 132.5zM115 348q0 -51 13 -104.5t41 -96.5t70 -70.5t97 -27.5t97 27.5t69.5 70.5t41 96.5 t13.5 104.5q0 49 -13.5 102.5t-41 97.5t-69.5 71.5t-97 27.5t-97 -27.5t-70 -70.5t-41 -96.5t-13 -104.5zM139 793l172 178h56l174 -178h-86l-117 108l-109 -108h-90zM274 -162q0 29 20.5 51.5t53.5 22.5t53.5 -22.5t20.5 -51.5q0 -31 -20.5 -52.5t-53.5 -21.5t-53.5 21.5 t-20.5 52.5z" />
<glyph unicode="&#x1a0;&#x301;" horiz-adv-x="946" d="M82 487q0 113 25.5 207t74.5 160t122 102.5t167 36.5q82 0 148.5 -28.5t115.5 -81.5q29 25 54.5 58.5t35.5 84.5l84 -2q-6 -37 -20.5 -68.5t-32.5 -57.5t-39.5 -44t-40.5 -29q84 -131 84 -338q0 -115 -25.5 -208t-75.5 -158.5t-123 -102t-165 -36.5q-94 0 -167 36.5 t-122 102t-74.5 159t-25.5 207.5zM162 487q0 -80 17.5 -157.5t54 -138t95 -97.5t142.5 -37q82 0 140.5 37t95 97.5t54 138.5t17.5 157q0 80 -17.5 157t-54 138.5t-95 98.5t-140.5 37q-84 0 -142.5 -37t-95 -98.5t-54 -138.5t-17.5 -157zM367 1070l137 213h121l-195 -213h-63 z" />
<glyph unicode="&#x1a1;&#x301;" horiz-adv-x="700" d="M53 348q0 68 18.5 133.5t54.5 116.5t91 83t129 32q59 0 122.5 -30t102.5 -93q31 23 46.5 56.5t25.5 84.5h86q-12 -47 -35.5 -102.5t-89.5 -98.5q12 -25 24.5 -73.5t12.5 -108.5q0 -68 -18.5 -133t-55.5 -116.5t-92 -83t-129 -31.5t-129 31.5t-91 83t-54.5 117 t-18.5 132.5zM125 348q0 -51 13.5 -104.5t41 -96.5t69.5 -70.5t97 -27.5t97 27.5t70 70.5t41 96.5t13 104.5q0 49 -13 102.5t-41 97.5t-70 71.5t-97 27.5t-97 -27.5t-69.5 -70.5t-41 -96.5t-13.5 -104.5zM289 791l137 213h121l-195 -213h-63z" />
<glyph unicode="&#x1a0;&#x300;" horiz-adv-x="950" d="M82 487q0 113 25.5 207t74.5 160t122 102.5t167 36.5q82 0 148.5 -28.5t115.5 -81.5q29 25 54.5 58.5t35.5 84.5l84 -2q-6 -37 -20.5 -68.5t-32.5 -57.5t-39.5 -44t-40.5 -29q84 -131 84 -338q0 -115 -25.5 -208t-75.5 -158.5t-123 -102t-165 -36.5q-94 0 -167 36.5 t-122 102t-74.5 159t-25.5 207.5zM162 487q0 -80 17.5 -157.5t54 -138t95 -97.5t142.5 -37q82 0 140.5 37t95 97.5t54 138.5t17.5 157q0 80 -17.5 157t-54 138.5t-95 98.5t-140.5 37q-84 0 -142.5 -37t-95 -98.5t-54 -138.5t-17.5 -157zM295 1283h118l140 -213h-66z" />
<glyph unicode="&#x1a1;&#x300;" horiz-adv-x="700" d="M53 348q0 68 18.5 133.5t54.5 116.5t91 83t129 32q59 0 122.5 -30t102.5 -93q31 23 46.5 56.5t25.5 84.5h86q-12 -47 -35.5 -102.5t-89.5 -98.5q12 -25 24.5 -73.5t12.5 -108.5q0 -68 -18.5 -133t-55.5 -116.5t-92 -83t-129 -31.5t-129 31.5t-91 83t-54.5 117 t-18.5 132.5zM125 348q0 -51 13.5 -104.5t41 -96.5t69.5 -70.5t97 -27.5t97 27.5t70 70.5t41 96.5t13 104.5q0 49 -13 102.5t-41 97.5t-70 71.5t-97 27.5t-97 -27.5t-69.5 -70.5t-41 -96.5t-13.5 -104.5zM134 1004h118l140 -213h-66z" />
<glyph unicode="&#x1a0;&#x309;" horiz-adv-x="950" d="M82 487q0 113 25.5 207t74.5 160t122 102.5t167 36.5q82 0 148.5 -28.5t115.5 -81.5q29 25 54.5 58.5t35.5 84.5l84 -2q-6 -37 -20.5 -68.5t-32.5 -57.5t-39.5 -44t-40.5 -29q84 -131 84 -338q0 -115 -25.5 -208t-75.5 -158.5t-123 -102t-165 -36.5q-94 0 -167 36.5 t-122 102t-74.5 159t-25.5 207.5zM162 487q0 -80 17.5 -157.5t54 -138t95 -97.5t142.5 -37q82 0 140.5 37t95 97.5t54 138.5t17.5 157q0 80 -17.5 157t-54 138.5t-95 98.5t-140.5 37q-84 0 -142.5 -37t-95 -98.5t-54 -138.5t-17.5 -157zM332 1297q10 25 43 53t101 28 q53 0 90 -31.5t37 -94.5q0 -35 -15.5 -68t-36 -58.5t-40 -43t-27.5 -23.5q-2 0 -10.5 5t-18.5 11q-10 8 -25 19q37 29 70 66.5t33 84.5q0 45 -25.5 56.5t-44.5 11.5q-25 0 -42 -7t-28.5 -16.5t-13.5 -13.5l-6 -12l-20 16z" />
<glyph unicode="&#x1a1;&#x309;" horiz-adv-x="696" d="M53 348q0 68 18.5 133.5t54.5 116.5t91 83t129 32q59 0 122.5 -30t102.5 -93q31 23 46.5 56.5t25.5 84.5h86q-12 -47 -35.5 -102.5t-89.5 -98.5q12 -25 24.5 -73.5t12.5 -108.5q0 -68 -18.5 -133t-55.5 -116.5t-92 -83t-129 -31.5t-129 31.5t-91 83t-54.5 117 t-18.5 132.5zM125 348q0 -51 13.5 -104.5t41 -96.5t69.5 -70.5t97 -27.5t97 27.5t70 70.5t41 96.5t13 104.5q0 49 -13 102.5t-41 97.5t-70 71.5t-97 27.5t-97 -27.5t-69.5 -70.5t-41 -96.5t-13.5 -104.5zM209 1016q10 25 43 53t101 28q53 0 90 -31.5t37 -94.5 q0 -35 -15.5 -68t-36 -58.5t-40 -43t-27.5 -23.5q-2 0 -10.5 5t-18.5 11q-10 8 -25 19q37 29 70 66.5t33 84.5q0 45 -25.5 56.5t-44.5 11.5q-25 0 -42 -7t-28.5 -16.5t-13.5 -13.5l-6 -12l-20 16z" />
<glyph unicode="&#x1a0;&#x303;" horiz-adv-x="950" d="M82 487q0 113 25.5 207t74.5 160t122 102.5t167 36.5q82 0 148.5 -28.5t115.5 -81.5q29 25 54.5 58.5t35.5 84.5l84 -2q-6 -37 -20.5 -68.5t-32.5 -57.5t-39.5 -44t-40.5 -29q84 -131 84 -338q0 -115 -25.5 -208t-75.5 -158.5t-123 -102t-165 -36.5q-94 0 -167 36.5 t-122 102t-74.5 159t-25.5 207.5zM162 487q0 -80 17.5 -157.5t54 -138t95 -97.5t142.5 -37q82 0 140.5 37t95 97.5t54 138.5t17.5 157q0 80 -17.5 157t-54 138.5t-95 98.5t-140.5 37q-84 0 -142.5 -37t-95 -98.5t-54 -138.5t-17.5 -157zM278 1108q0 53 21.5 93.5t68.5 40.5 q25 0 46.5 -9.5t42 -21.5t41 -21.5t42.5 -9.5q12 0 25.5 15.5t13.5 50.5h55q0 -55 -26.5 -92t-75.5 -37q-20 0 -42.5 9t-45.5 20.5t-42 20.5t-32 9q-18 0 -26.5 -19.5t-10.5 -48.5h-55z" />
<glyph unicode="&#x1a1;&#x303;" horiz-adv-x="700" d="M53 348q0 68 18.5 133.5t54.5 116.5t91 83t129 32q59 0 122.5 -30t102.5 -93q31 23 46.5 56.5t25.5 84.5h86q-12 -47 -35.5 -102.5t-89.5 -98.5q12 -25 24.5 -73.5t12.5 -108.5q0 -68 -18.5 -133t-55.5 -116.5t-92 -83t-129 -31.5t-129 31.5t-91 83t-54.5 117 t-18.5 132.5zM125 348q0 -51 13.5 -104.5t41 -96.5t69.5 -70.5t97 -27.5t97 27.5t70 70.5t41 96.5t13 104.5q0 49 -13 102.5t-41 97.5t-70 71.5t-97 27.5t-97 -27.5t-69.5 -70.5t-41 -96.5t-13.5 -104.5zM160 802q0 53 21.5 93.5t68.5 40.5q25 0 46.5 -9.5t42 -21.5 t41 -21.5t42.5 -9.5q12 0 25.5 15.5t13.5 50.5h55q0 -55 -26.5 -92t-75.5 -37q-20 0 -42.5 9t-45.5 20.5t-42 20.5t-32 9q-18 0 -26.5 -19.5t-10.5 -48.5h-55z" />
<glyph unicode="&#x1a0;&#x323;" horiz-adv-x="946" d="M82 487q0 113 25.5 207t74.5 160t122 102.5t167 36.5q82 0 148.5 -28.5t115.5 -81.5q29 25 54.5 58.5t35.5 84.5l84 -2q-6 -37 -20.5 -68.5t-32.5 -57.5t-39.5 -44t-40.5 -29q84 -131 84 -338q0 -115 -25.5 -208t-75.5 -158.5t-123 -102t-165 -36.5q-94 0 -167 36.5 t-122 102t-74.5 159t-25.5 207.5zM162 487q0 -80 17.5 -157.5t54 -138t95 -97.5t142.5 -37q82 0 140.5 37t95 97.5t54 138.5t17.5 157q0 80 -17.5 157t-54 138.5t-95 98.5t-140.5 37q-84 0 -142.5 -37t-95 -98.5t-54 -138.5t-17.5 -157zM397 -162q0 29 20.5 51.5t53.5 22.5 t53.5 -22.5t20.5 -51.5q0 -31 -20.5 -52.5t-53.5 -21.5t-53.5 21.5t-20.5 52.5z" />
<glyph unicode="&#x1a1;&#x323;" horiz-adv-x="704" d="M53 348q0 68 18.5 133.5t54.5 116.5t91 83t129 32q59 0 122.5 -30t102.5 -93q31 23 46.5 56.5t25.5 84.5h86q-12 -47 -35.5 -102.5t-89.5 -98.5q12 -25 24.5 -73.5t12.5 -108.5q0 -68 -18.5 -133t-55.5 -116.5t-92 -83t-129 -31.5t-129 31.5t-91 83t-54.5 117 t-18.5 132.5zM125 348q0 -51 13.5 -104.5t41 -96.5t69.5 -70.5t97 -27.5t97 27.5t70 70.5t41 96.5t13 104.5q0 49 -13 102.5t-41 97.5t-70 71.5t-97 27.5t-97 -27.5t-69.5 -70.5t-41 -96.5t-13.5 -104.5zM274 -162q0 29 20.5 51.5t53.5 22.5t53.5 -22.5t20.5 -51.5 q0 -31 -20.5 -52.5t-53.5 -21.5t-53.5 21.5t-20.5 52.5z" />
<glyph unicode="U&#x323;" horiz-adv-x="940" d="M115 297v674h78v-672q0 -66 22.5 -112t59 -74.5t86 -42t104.5 -13.5q53 0 102 13.5t86 42t59.5 74.5t22.5 112v672h76v-674q0 -158 -93 -239t-253 -81t-255 81t-95 239zM391 -162q0 29 20.5 51.5t53.5 22.5t53.5 -22.5t20.5 -51.5q0 -31 -20.5 -52.5t-53.5 -21.5 t-53.5 21.5t-20.5 52.5z" />
<glyph unicode="u&#x323;" horiz-adv-x="722" d="M90 244v469h74v-471q0 -90 54 -141.5t132 -51.5q45 0 82 20.5t62.5 54.5t40 77t14.5 88v424h76v-559q0 -68 10 -98.5t20 -53.5l-67 -27q-6 12 -21.5 40t-15.5 87q-31 -63 -92.5 -91.5t-122.5 -28.5q-76 0 -123 29.5t-74.5 71.5t-38 86t-10.5 75zM287 -162q0 29 20.5 51.5 t53.5 22.5t53.5 -22.5t20.5 -51.5q0 -31 -20.5 -52.5t-53.5 -21.5t-53.5 21.5t-20.5 52.5z" />
<glyph unicode="U&#x309;" horiz-adv-x="940" d="M115 297v674h78v-672q0 -66 22.5 -112t59 -74.5t86 -42t104.5 -13.5q53 0 102 13.5t86 42t59.5 74.5t22.5 112v672h76v-674q0 -158 -93 -239t-253 -81t-255 81t-95 239zM336 1268q10 25 43 53t101 28q53 0 90 -31.5t37 -94.5q0 -35 -15.5 -68t-36 -58.5t-40 -43 t-27.5 -23.5q-2 0 -10.5 5t-18.5 11q-10 8 -25 19q37 29 70 66.5t33 84.5q0 45 -25.5 56.5t-44.5 11.5q-25 0 -42 -7t-28.5 -16.5t-13.5 -13.5l-6 -12l-20 16z" />
<glyph unicode="u&#x309;" horiz-adv-x="724" d="M90 244v469h74v-471q0 -90 54 -141.5t132 -51.5q45 0 82 20.5t62.5 54.5t40 77t14.5 88v424h76v-559q0 -68 10 -98.5t20 -53.5l-67 -27q-6 12 -21.5 40t-15.5 87q-31 -63 -92.5 -91.5t-122.5 -28.5q-76 0 -123 29.5t-74.5 71.5t-38 86t-10.5 75zM221 1026q10 25 43 53 t101 28q53 0 90 -31.5t37 -94.5q0 -35 -15.5 -68t-36 -58.5t-40 -43t-27.5 -23.5q-2 0 -10.5 5t-18.5 11q-10 8 -25 19q37 29 70 66.5t33 84.5q0 45 -25.5 56.5t-44.5 11.5q-25 0 -42 -7t-28.5 -16.5t-13.5 -13.5l-6 -12l-20 16z" />
<glyph unicode="&#x1af;&#x301;" horiz-adv-x="933" d="M115 340v629h78v-627q0 -66 22.5 -119t61 -90t88 -56.5t104.5 -19.5q53 0 101 19.5t85 56.5t58.5 90t21.5 119v627h76v-129q41 16 68.5 55t27.5 111h74q0 -31 -8 -69t-27.5 -73t-52.5 -62.5t-82 -37.5v-424q0 -78 -23.5 -144.5t-68.5 -114.5t-107.5 -76t-142.5 -28 t-144.5 28t-111.5 76t-72.5 114.5t-25.5 144.5zM391 1070l137 213h121l-195 -213h-63z" />
<glyph unicode="&#x1b0;&#x301;" horiz-adv-x="731" d="M96 244v469h74v-471q0 -90 54.5 -141.5t131.5 -51.5q45 0 82 20.5t62.5 54.5t40 77t14.5 88v422h76v-129q41 16 68.5 55t27.5 111h74q0 -31 -10.5 -69t-31 -73t-52 -63.5t-76.5 -36.5v-354v2q0 -68 6 -98.5t16 -53.5l-67 -27q-6 12 -17.5 40t-11.5 87 q-31 -63 -92.5 -91.5t-122.5 -28.5q-76 0 -123 29.5t-74.5 71.5t-38 86t-10.5 75zM291 791l137 213h121l-195 -213h-63z" />
<glyph unicode="&#x1af;&#x300;" horiz-adv-x="937" d="M115 340v629h78v-627q0 -66 22.5 -119t61 -90t88 -56.5t104.5 -19.5q53 0 101 19.5t85 56.5t58.5 90t21.5 119v627h76v-129q41 16 68.5 55t27.5 111h74q0 -31 -8 -69t-27.5 -73t-52.5 -62.5t-82 -37.5v-424q0 -78 -23.5 -144.5t-68.5 -114.5t-107.5 -76t-142.5 -28 t-144.5 28t-111.5 76t-72.5 114.5t-25.5 144.5zM295 1283h118l140 -213h-66z" />
<glyph unicode="&#x1b0;&#x300;" horiz-adv-x="727" d="M96 244v469h74v-471q0 -90 54.5 -141.5t131.5 -51.5q45 0 82 20.5t62.5 54.5t40 77t14.5 88v422h76v-129q41 16 68.5 55t27.5 111h74q0 -31 -10.5 -69t-31 -73t-52 -63.5t-76.5 -36.5v-354v2q0 -68 6 -98.5t16 -53.5l-67 -27q-6 12 -17.5 40t-11.5 87 q-31 -63 -92.5 -91.5t-122.5 -28.5q-76 0 -123 29.5t-74.5 71.5t-38 86t-10.5 75zM177 1004h118l140 -213h-66z" />
<glyph unicode="&#x1af;&#x309;" horiz-adv-x="933" d="M115 340v629h78v-627q0 -66 22.5 -119t61 -90t88 -56.5t104.5 -19.5q53 0 101 19.5t85 56.5t58.5 90t21.5 119v627h76v-129q41 16 68.5 55t27.5 111h74q0 -31 -8 -69t-27.5 -73t-52.5 -62.5t-82 -37.5v-424q0 -78 -23.5 -144.5t-68.5 -114.5t-107.5 -76t-142.5 -28 t-144.5 28t-111.5 76t-72.5 114.5t-25.5 144.5zM330 1305q10 25 43 53t101 28q53 0 90 -31.5t37 -94.5q0 -35 -15.5 -68t-36 -58.5t-40 -43t-27.5 -23.5q-2 0 -10.5 5t-18.5 11q-10 8 -25 19q37 29 70 66.5t33 84.5q0 45 -25.5 56.5t-44.5 11.5q-25 0 -42 -7t-28.5 -16.5 t-13.5 -13.5l-6 -12l-20 16z" />
<glyph unicode="&#x1b0;&#x309;" horiz-adv-x="731" d="M96 244v469h74v-471q0 -90 54.5 -141.5t131.5 -51.5q45 0 82 20.5t62.5 54.5t40 77t14.5 88v422h76v-129q41 16 68.5 55t27.5 111h74q0 -31 -10.5 -69t-31 -73t-52 -63.5t-76.5 -36.5v-354v2q0 -68 6 -98.5t16 -53.5l-67 -27q-6 12 -17.5 40t-11.5 87 q-31 -63 -92.5 -91.5t-122.5 -28.5q-76 0 -123 29.5t-74.5 71.5t-38 86t-10.5 75zM223 1029q10 25 43 53t101 28q53 0 90 -31.5t37 -94.5q0 -35 -15.5 -68t-36 -58.5t-40 -43t-27.5 -23.5q-2 0 -10.5 5t-18.5 11q-10 8 -25 19q37 29 70 66.5t33 84.5q0 45 -25.5 56.5 t-44.5 11.5q-25 0 -42 -7t-28.5 -16.5t-13.5 -13.5l-6 -12l-20 16z" />
<glyph unicode="&#x1af;&#x303;" horiz-adv-x="931" d="M115 340v629h78v-627q0 -66 22.5 -119t61 -90t88 -56.5t104.5 -19.5q53 0 101 19.5t85 56.5t58.5 90t21.5 119v627h76v-129q41 16 68.5 55t27.5 111h74q0 -31 -8 -69t-27.5 -73t-52.5 -62.5t-82 -37.5v-424q0 -78 -23.5 -144.5t-68.5 -114.5t-107.5 -76t-142.5 -28 t-144.5 28t-111.5 76t-72.5 114.5t-25.5 144.5zM311 1067q0 53 21.5 93.5t68.5 40.5q25 0 46.5 -9.5t42 -21.5t41 -21.5t42.5 -9.5q12 0 25.5 15.5t13.5 50.5h55q0 -55 -26.5 -92t-75.5 -37q-20 0 -42.5 9t-45.5 20.5t-42 20.5t-32 9q-18 0 -26.5 -19.5t-10.5 -48.5h-55z " />
<glyph unicode="&#x1b0;&#x303;" horiz-adv-x="727" d="M96 244v469h74v-471q0 -90 54.5 -141.5t131.5 -51.5q45 0 82 20.5t62.5 54.5t40 77t14.5 88v422h76v-129q41 16 68.5 55t27.5 111h74q0 -31 -10.5 -69t-31 -73t-52 -63.5t-76.5 -36.5v-354v2q0 -68 6 -98.5t16 -53.5l-67 -27q-6 12 -17.5 40t-11.5 87 q-31 -63 -92.5 -91.5t-122.5 -28.5q-76 0 -123 29.5t-74.5 71.5t-38 86t-10.5 75zM176 829q0 53 21.5 93.5t68.5 40.5q25 0 46.5 -9.5t42 -21.5t41 -21.5t42.5 -9.5q12 0 25.5 15.5t13.5 50.5h55q0 -55 -26.5 -92t-75.5 -37q-20 0 -42.5 9t-45.5 20.5t-42 20.5t-32 9 q-18 0 -26.5 -19.5t-10.5 -48.5h-55z" />
<glyph unicode="&#x1af;&#x323;" horiz-adv-x="927" d="M115 340v629h78v-627q0 -66 22.5 -119t61 -90t88 -56.5t104.5 -19.5q53 0 101 19.5t85 56.5t58.5 90t21.5 119v627h76v-129q41 16 68.5 55t27.5 111h74q0 -31 -8 -69t-27.5 -73t-52.5 -62.5t-82 -37.5v-424q0 -78 -23.5 -144.5t-68.5 -114.5t-107.5 -76t-142.5 -28 t-144.5 28t-111.5 76t-72.5 114.5t-25.5 144.5zM397 -162q0 29 20.5 51.5t53.5 22.5t53.5 -22.5t20.5 -51.5q0 -31 -20.5 -52.5t-53.5 -21.5t-53.5 21.5t-20.5 52.5z" />
<glyph unicode="&#x1b0;&#x323;" horiz-adv-x="722" d="M96 244v469h74v-471q0 -90 54.5 -141.5t131.5 -51.5q45 0 82 20.5t62.5 54.5t40 77t14.5 88v422h76v-129q41 16 68.5 55t27.5 111h74q0 -31 -10.5 -69t-31 -73t-52 -63.5t-76.5 -36.5v-354v2q0 -68 6 -98.5t16 -53.5l-67 -27q-6 12 -17.5 40t-11.5 87 q-31 -63 -92.5 -91.5t-122.5 -28.5q-76 0 -123 29.5t-74.5 71.5t-38 86t-10.5 75zM281 -162q0 29 20.5 51.5t53.5 22.5t53.5 -22.5t20.5 -51.5q0 -31 -20.5 -52.5t-53.5 -21.5t-53.5 21.5t-20.5 52.5z" />
<glyph unicode="Y&#x300;" horiz-adv-x="733" d="M14 973l66 26l282 -512l287 510l66 -26q-66 -113 -125 -217q-25 -45 -51.5 -92.5t-52 -92.5t-48 -86t-39.5 -71v-412h-71v412v2zM160 1283h118l140 -213h-66z" />
<glyph unicode="y&#x300;" horiz-adv-x="684" d="M31 700l74 33l250 -622l231 622l68 -33l-14 -36q-13 -37 -35.5 -96.5t-51 -134.5t-59.5 -153.5t-59.5 -154.5t-51 -135.5t-37 -95t-16.5 -37.5q-16 -37 -35.5 -65t-48.5 -50q-47 -33 -85 -45t-48 -19l-23 66q55 23 88 40t55.5 45t39 72t39.5 119zM154 1004h118l140 -213 h-66z" />
<glyph unicode="Y&#x323;" horiz-adv-x="741" d="M14 973l66 26l282 -512l287 510l66 -26q-66 -113 -125 -217q-25 -45 -51.5 -92.5t-52 -92.5t-48 -86t-39.5 -71v-412h-71v412v2zM293 -162q0 29 20.5 51.5t53.5 22.5t53.5 -22.5t20.5 -51.5q0 -31 -20.5 -52.5t-53.5 -21.5t-53.5 21.5t-20.5 52.5z" />
<glyph unicode="y&#x323;" horiz-adv-x="679" d="M31 700l74 33l250 -622l231 622l68 -33l-14 -36q-13 -37 -35.5 -96.5t-51 -134.5t-59.5 -153.5t-59.5 -154.5t-51 -135.5t-37 -95t-16.5 -37.5q-16 -37 -35.5 -65t-48.5 -50q-47 -33 -85 -45t-48 -19l-23 66q55 23 88 40t55.5 45t39 72t39.5 119zM350 -242 q0 29 20.5 51.5t53.5 22.5t53.5 -22.5t20.5 -51.5q0 -31 -20.5 -52.5t-53.5 -21.5t-53.5 21.5t-20.5 52.5z" />
<glyph unicode="Y&#x309;" horiz-adv-x="737" d="M14 973l66 26l282 -512l287 510l66 -26q-66 -113 -125 -217q-25 -45 -51.5 -92.5t-52 -92.5t-48 -86t-39.5 -71v-412h-71v412v2zM227 1280q10 25 43 53t101 28q53 0 90 -31.5t37 -94.5q0 -35 -15.5 -68t-36 -58.5t-40 -43t-27.5 -23.5q-2 0 -10.5 5t-18.5 11 q-10 8 -25 19q37 29 70 66.5t33 84.5q0 45 -25.5 56.5t-44.5 11.5q-25 0 -42 -7t-28.5 -16.5t-13.5 -13.5l-6 -12l-20 16z" />
<glyph unicode="y&#x309;" horiz-adv-x="688" d="M35 700l74 33l250 -622l231 622l68 -33l-14 -36q-13 -37 -35.5 -96.5t-51 -134.5t-59.5 -153.5t-59.5 -154.5t-51 -135.5t-37 -95t-16.5 -37.5q-16 -37 -35.5 -65t-48.5 -50q-47 -33 -85 -45t-48 -19l-23 66q55 23 88 40t55.5 45t39 72t39.5 119zM221 1018q10 25 43 53 t101 28q53 0 90 -31.5t37 -94.5q0 -35 -15.5 -68t-36 -58.5t-40 -43t-27.5 -23.5q-2 0 -10.5 5t-18.5 11q-10 8 -25 19q37 29 70 66.5t33 84.5q0 45 -25.5 56.5t-44.5 11.5q-25 0 -42 -7t-28.5 -16.5t-13.5 -13.5l-6 -12l-20 16z" />
<glyph unicode="Y&#x303;" horiz-adv-x="733" d="M14 973l66 26l282 -512l287 510l66 -26q-66 -113 -125 -217q-25 -45 -51.5 -92.5t-52 -92.5t-48 -86t-39.5 -71v-412h-71v412v2zM188 1058q0 53 21.5 93.5t68.5 40.5q25 0 46.5 -9.5t42 -21.5t41 -21.5t42.5 -9.5q12 0 25.5 15.5t13.5 50.5h55q0 -55 -26.5 -92t-75.5 -37 q-20 0 -42.5 9t-45.5 20.5t-42 20.5t-32 9q-18 0 -26.5 -19.5t-10.5 -48.5h-55z" />
<glyph unicode="y&#x303;" horiz-adv-x="677" d="M29 700l74 33l250 -622l231 622l68 -33l-14 -36q-13 -37 -35.5 -96.5t-51 -134.5t-59.5 -153.5t-59.5 -154.5t-51 -135.5t-37 -95t-16.5 -37.5q-16 -37 -35.5 -65t-48.5 -50q-47 -33 -85 -45t-48 -19l-23 66q55 23 88 40t55.5 45t39 72t39.5 119zM172 817q0 53 21.5 93.5 t68.5 40.5q25 0 46.5 -9.5t42 -21.5t41 -21.5t42.5 -9.5q12 0 25.5 15.5t13.5 50.5h55q0 -55 -26.5 -92t-75.5 -37q-20 0 -42.5 9t-45.5 20.5t-42 20.5t-32 9q-18 0 -26.5 -19.5t-10.5 -48.5h-55z" />
<glyph unicode="&#xe4f;&#x22;" horiz-adv-x="933" d="M115 340q0 143 101 244.5t245 101.5q141 0 243.5 -102.5t102.5 -243.5q0 -143 -101.5 -244.5t-244.5 -101.5t-244.5 101.5t-101.5 244.5zM186 340q0 -115 81 -196t194 -81q115 0 194.5 82t79.5 195q0 115 -80 194.5t-194 79.5q-113 0 -194 -79.5t-81 -194.5zM258 340 q0 84 59.5 143.5t143.5 59.5t143.5 -59.5t59.5 -143.5t-59.5 -144.5t-143.5 -60.5t-143.5 60.5t-59.5 144.5zM324 1102h96l-21 -330h-55zM330 340q0 -55 38 -93t93 -38t93 38t38 93q0 53 -38 92t-93 39t-93 -39t-38 -92zM502 1102h96l-20 -330h-56z" />
<glyph unicode="&#xe24;&#xe32;" horiz-adv-x="1341" d="M61 582q2 12 21.5 52t61.5 85t112 80t176 37q119 0 187.5 -42t105.5 -89q35 59 91 95t136 36q51 0 92 -11.5t72 -29t52.5 -39t31.5 -41.5q4 4 15.5 2t27.5 -19q18 -23 14 -33t-18 -24t-14 -43v-1096h-80v1110q0 27 10 43q-8 14 -24.5 33t-41 35t-59.5 27.5t-78 11.5 q-63 0 -104 -28.5t-64 -80.5q-2 -8 -18 -24q-14 -14 -14 -43v-1084h-80v1096q0 27 10 43q-6 8 -23.5 29.5t-47 42t-73.5 37t-104 16.5q-70 0 -118 -17.5t-80.5 -42t-52 -51t-27.5 -45.5l80 -51q12 16 38.5 35.5t49.5 23.5q2 0 16 -20t25 -35q-61 -29 -81 -70.5t-20 -72.5 v-172q27 12 53 12q57 0 96.5 -40t39.5 -95t-39 -95t-97 -40q-55 0 -94 40t-39 95v297q0 25 7.5 46t11.5 30zM252 125q0 -29 19.5 -47.5t45.5 -18.5q29 0 48.5 18.5t19.5 47.5t-19.5 47t-48.5 18q-27 0 -46 -18t-19 -47z" />
<glyph unicode="&#xe26;&#xe32;" horiz-adv-x="1370" d="M31 127q0 55 39 94t96 39q12 0 22.5 -2t22.5 -6v170q0 25 7 46t11 30l-141 84q2 12 21.5 52t61.5 85t111.5 80t176.5 37q119 0 187.5 -42.5t105.5 -91.5q35 61 91 97.5t138 36.5q51 0 92 -11.5t72 -29t52.5 -39t31.5 -41.5q4 4 15 2t28 -19q18 -23 14 -33t-18 -24 t-15 -43v-1096h-79v1110q0 27 10 43q-8 14 -24.5 33t-41 35t-59.5 27.5t-78 11.5q-63 0 -105 -30t-65 -81q-2 -6 -7 -11l-11 -11q-14 -14 -15 -43v-1084h-80v1096q0 27 11 43q-6 8 -23.5 29.5t-47.5 42t-74 37t-103 16.5q-70 0 -118 -17.5t-81 -42t-52.5 -51t-27.5 -45.5 l80 -51q12 16 39 35.5t49 23.5q2 0 16.5 -20t24.5 -35q-61 -29 -80.5 -70.5t-19.5 -72.5v-248q8 -18 8 -45q0 -57 -39 -96t-94 -39q-57 0 -96 39t-39 96zM98 127q0 -29 19.5 -48.5t48.5 -19.5q27 0 46 19.5t19 48.5q0 27 -19 46.5t-46 19.5q-29 0 -48.5 -19.5t-19.5 -46.5z " />
<glyph unicode="fi" horiz-adv-x="573" d="M10 651l17 62h106v123q0 63 21.5 103t57.5 60.5t83 20.5t100 -14l-10 -66q-43 8 -77 9t-56.5 -12t-33.5 -44t-11 -84v-96h264v-713h-74v651h-190v-643q0 -55 -11.5 -99t-25.5 -77q-16 -37 -35 -65l-67 20q31 39 48 96.5t17 122.5v645h-123z" />
<glyph unicode="fl" horiz-adv-x="614" d="M10 651l17 62h106v123q0 63 32 108t84 65.5t119.5 16.5t141.5 -39v-987h-74v942q-47 12 -89 11t-72.5 -16t-49 -47t-18.5 -81v-96h160l-17 -62h-143v-643q0 -55 -11.5 -99t-25.5 -77q-16 -37 -35 -65l-67 20q31 39 48 96.5t17 122.5v645h-123z" />
<glyph unicode="AS&#x2e;Aksaramatee&#x28;c&#x29;" horiz-adv-x="1927" d="M121 416v53h1691v-53h-1691zM137 254q0 41 25.5 64.5t77.5 23.5q41 0 61.5 -14.5t24.5 -46.5h-54q-2 14 -11 21t-25 7q-23 0 -35.5 -14t-12.5 -41t12.5 -39t32.5 -12q16 0 27.5 6t11.5 18h54q-2 -31 -23.5 -46t-66.5 -15q-47 0 -73 21.5t-26 66.5zM147 526h31l10 160 q2 14 12.5 19.5t22.5 5.5t22.5 -5.5t12.5 -19.5l4 -43h-39q10 0 10 12.5t-14 16.5q-20 2 -24 -23q-4 -18 8 -27.5t28 -9.5h33l4 -86h31l-10 158q-2 29 -21.5 42t-44.5 13q-27 0 -44 -13t-21 -42zM303 827h109l41 578q8 49 46 69.5t83 20.5q41 0 77.5 -20.5t45.5 -69.5 l12 -158h-135q16 0 25 14.5t7 33t-13 35t-36 20.5q-39 10 -62.5 -13.5t-27.5 -62.5q-10 -68 30 -100.5t103 -32.5h117l18 -314h111l-41 568q-2 51 -22.5 88t-52 61.5t-72.5 36.5t-84 12q-94 0 -161 -48t-79 -150zM330 555q0 -35 30 -31q25 0 21 23q-4 10 -12.5 11t-12.5 -3 v23l19 18q27 -14 37 -51l6 -19h28l-8 23q-8 29 -19.5 44t-23.5 23l54 54h-37l-56 -54v103h-26v-164zM338 252q0 41 27.5 63.5t76.5 22.5t76 -22.5t27 -63.5t-28 -63.5t-79 -22.5q-49 0 -74.5 23.5t-25.5 62.5zM377 0l43 90h29l40 -90h-26l-6 18h-47l-7 -18h-26zM387 252 q0 -27 14.5 -39t40.5 -12q23 0 38.5 12t15.5 37q0 27 -15.5 42t-38.5 15q-27 0 -41 -15t-14 -40zM418 35h31l-15 37zM465 564.5q-2 -9.5 6 -19.5q8 -12 25.5 -15.5t27.5 -3.5q23 0 37 10.5t14 28.5q0 25 -15 32t-30 11q-35 10 -34 23q0 12 18 16q12 4 23.5 0t15.5 -20l20 8 q0 10 -11 22.5t-40 12.5q-23 0 -38 -11.5t-15 -27.5q0 -25 20.5 -33t32.5 -12q27 -8 27 -21q0 -8 -7 -11t-16 -3q-10 -2 -17 0t-11 4q4 10 -2.5 19.5t-20.5 3.5q-8 -4 -10 -13.5zM492 0v90h22v-70h43v-20h-65zM559 0v90h25v-70h45v-20h-70zM567 174v164h86q76 0 76 -55 q0 -51 -82 -52h-35v-57h-45zM602 571q0 -25 17.5 -38t39.5 -11q25 0 35 19v-15h25v97q0 20 -16.5 34.5t-40.5 14.5q-31 0 -52 -15q-18 -14 -8 -28q6 -10 19.5 -5t7.5 17q12 6 33 6q10 0 21 -7t11 -17v-50q0 -10 -9 -19t-26 -9q-16 0 -23 8t-7 18q0 16 11 21.5t22 5.5 q12 0 22 -6v20q-29 16 -55.5 2t-26.5 -43zM612 260h31q20 0 28.5 6t8.5 17q0 12 -8 16t-29 4h-31v-43zM680 0v90h45q33 0 33 -22q0 -23 -23 -23q18 -2 19.5 -18.5t7.5 -26.5h-25q-2 2 -4 23q0 8 -3 10t-13 2h-15v-35h-22zM702 55h15q16 0 16 8q0 10 -16 11h-15v-19zM723 338 h53l49 -70l45 70h52l-78 -109v-55h-47v57zM750 526h26v84q0 10 8.5 22.5t24.5 10.5q-4 -10 8.5 -15t20.5 5q4 8 1 18.5t-14 14.5q-16 6 -28.5 2t-20.5 -15v15h-26v-142zM772 0v90h21v-90h-21zM805 43q0 25 13 37t38 12q18 0 29.5 -9t13.5 -24h-25q0 8 -5 11.5t-13 3.5 q-14 0 -20.5 -7.5t-6.5 -21.5q0 -12 6.5 -20.5t20.5 -8.5q6 0 11 1t7 1v15h-18v18h43v-45q-8 -6 -18.5 -7t-22.5 -1q-27 0 -40 11t-13 34zM862 571q0 -25 17.5 -38t40.5 -11q25 0 34 19v-15h25v97q0 20 -16.5 34.5t-40.5 14.5q-31 0 -52 -15q-18 -14 -8 -28q6 -10 19.5 -5 t7.5 17q12 6 33 6q10 0 21 -7t11 -17v-50q0 -10 -9 -19t-25 -9t-23.5 8t-7.5 18q0 16 11 21.5t22 5.5q12 0 22 -6v20q-29 16 -55.5 2t-26.5 -43zM911 0v90h25v-35h43v35h25v-90h-25v37h-43v-37h-25zM940 1004q-2 -31 9.5 -63t42 -58.5t82.5 -43t134 -16.5q129 2 202 60.5 t73 154.5q0 61 -25.5 101.5t-64.5 67t-84 42t-84 27.5t-71 20.5t-54.5 19.5t-34.5 27.5t-12 40.5q0 14 6 32t21.5 33t42 26.5t67.5 13.5q55 2 88 -6t50.5 -22.5t22.5 -32t5 -33.5h119q0 29 -8.5 63.5t-36 64t-81 50t-141.5 20.5q-74 0 -124 -19.5t-81.5 -50t-45 -66.5 t-13.5 -68q0 -59 23.5 -97.5t60.5 -63t81 -37.5t83 -24q82 -23 131 -49t49 -86q0 -29 -16.5 -47t-41 -29.5t-53 -16.5t-53.5 -5q-51 0 -80.5 7t-46.5 17q-10 4 -26 21q18 6 26.5 24.5t5 38t-17.5 36t-41 18.5q-39 4 -61.5 -27t-26.5 -65zM942 174v164h92q37 0 54.5 -10.5 t17.5 -32.5q0 -18 -11.5 -27.5t-35.5 -13.5q18 -2 27.5 -6t11.5 -12q2 -6 5 -27t9 -35h-49q-4 2 -10 41q-2 12 -8.5 16.5t-26.5 4.5h-29v-62h-47zM989 264h31q20 0 28.5 6t8.5 17q0 8 -7.5 12t-29.5 4h-31v-39zM1006 555q0 -33 32 -33q10 2 16.5 8.5t2.5 16.5t-12.5 11 t-12.5 -3v63q0 14 8.5 19.5t16.5 5.5q10 0 17 -6t7 -19v-92h27v92q0 16 8 20.5t14 4.5q14 0 19.5 -9t5.5 -16v-92h27v95q0 18 -12.5 33.5t-39.5 15.5t-36 -17q-10 16 -33 17q-20 0 -29 -17v15h-26v-113zM1010 72v18h86v-18h-31v-72h-25v72h-30zM1130 174v164h50v-164h-50z M1149 0v90h45q33 0 33 -22q0 -23 -23 -23q18 -2 19.5 -18.5t7.5 -26.5h-25q-2 2 -4 23q0 8 -3 10t-13 2h-15v-35h-22zM1171 55h15q16 0 16 8q0 10 -16 11h-15v-19zM1204 254q0 41 25.5 63.5t77.5 22.5q41 0 63.5 -13.5t24.5 -41.5h-52q-2 10 -10 17t-28 7q-25 0 -38.5 -14 t-13.5 -37q0 -31 13.5 -43t44.5 -12q8 0 17.5 1t17.5 3v29h-41v28h90v-84q-18 -4 -39 -7t-45 -3q-53 0 -80 21.5t-27 62.5zM1214 571q0 -25 17.5 -38t40.5 -11q25 0 35 19v-15h24v97q0 20 -16.5 34.5t-40.5 14.5q-31 0 -51 -15q-18 -14 -9 -28q6 -10 19.5 -5t7.5 17 q12 6 33 6q10 0 21.5 -7t11.5 -17v-50q0 -10 -9.5 -19t-25.5 -9t-23.5 8t-7.5 18q0 16 11.5 21.5t21.5 5.5q12 0 22 -6v20q-29 16 -55.5 2t-26.5 -43zM1237 0v90h70v-18h-47v-17h45v-18h-45v-19h49v-18h-72zM1317 27v4h24v-2q0 -6 4.5 -9.5t12.5 -3.5t11 2t3 9q0 6 -19.5 10 t-26.5 10t-7 14q0 14 10 22.5t29 8.5q18 0 26.5 -8t8.5 -21h-21q0 12 -16 13q-14 0 -15 -10q0 -6 20.5 -10.5t27 -11.5t6.5 -17q0 -14 -10.5 -21.5t-28.5 -7.5t-28.5 7t-10.5 22zM1356 641h20v-74q0 -33 20.5 -38t24.5 -5q33 0 31 31q-4 23 -22 18q-12 -2 -12.5 -13t7.5 -11 q0 -2 -2 -2h-6q-14 0 -14 18v76h41v25h-41v34h-27v-34h-20v-25zM1407 0v90h70v-18h-47v-17h43v-18h-43v-19h47v-18h-70zM1423 174v164h50v-64h86v64h47v-164h-47v66h-86v-66h-50zM1477.5 626q-9.5 -34 5.5 -63q20 -43 69 -39q48 0 64 47l-25 9q-8 -27 -41 -31q-8 0 -21 3 t-24 21q-10 18 -3 42t30 28q14 4 27.5 -2t17.5 -23l-29 -10q0 10 -10 13.5t-18 -7.5q-6 -8 0 -22t28 -10l62 26q-4 31 -25.5 51.5t-58.5 10.5q-39 -10 -48.5 -44zM1483 0v90h45q33 0 33 -22q0 -23 -23 -23q18 -2 19.5 -18.5t7.5 -26.5h-25q-2 2 -4 23q0 8 -3 10t-13 2h-15 v-35h-22zM1505 55h15q16 0 16 8q0 10 -16 11h-15v-19zM1556 90h25l25 -67l26 67h23l-37 -90h-27zM1595 1475q0 53 35 87.5t88 34.5t88 -34.5t35 -87.5t-34.5 -88t-88.5 -35q-53 0 -88 35t-35 88zM1616 1473q0 -43 29.5 -73t72.5 -30t74 30t31 73t-31 73.5t-74 30.5 t-72.5 -30.5t-29.5 -73.5zM1624 301v37h180v-37h-67v-127h-49v127h-64zM1643.5 626q-9.5 -34 5.5 -63q20 -43 69 -39q48 0 64 47l-25 9q-8 -27 -41 -31q-8 0 -21.5 3t-23.5 21t-3 42t30 28q14 4 27.5 -2t17.5 -23l-29 -10q0 10 -10 13.5t-18 -7.5q-6 -8 0 -22t28 -10l62 26 q-4 31 -25.5 51.5t-58.5 10.5q-39 -10 -48.5 -44zM1649 1477q0 33 19.5 53t47.5 20q27 0 43.5 -14.5t16.5 -34.5h-33q-2 10 -9.5 15.5t-17.5 5.5q-14 0 -21 -10.5t-7 -32.5q0 -27 7 -38t23 -11q8 0 16.5 6t8.5 18h35q-2 -23 -18.5 -37t-43.5 -14q-29 0 -48 18.5t-19 55.5z M1657 0v90h69v-18h-45v-17h43v-18h-43v-19h48v-18h-72zM1737 0v90h43q25 0 38 -11t13 -36t-13.5 -34t-37.5 -9h-43zM1759 20h17q12 0 20 6.5t8 16.5q0 14 -8 21.5t-20 7.5h-17v-52z" />
<glyph unicode="&#xd;" horiz-adv-x="452" />
<glyph unicode=" "  horiz-adv-x="450" />
<glyph unicode="&#x09;" horiz-adv-x="450" />
<glyph unicode="&#xa0;" horiz-adv-x="450" />
<glyph unicode="!" horiz-adv-x="466" d="M170 70q0 29 20.5 47t51.5 18q27 0 46 -18t19 -47q0 -31 -19.5 -50.5t-45.5 -19.5q-31 0 -51.5 19.5t-20.5 50.5zM188 971h101l-17 -740h-65z" />
<glyph unicode="&#x22;" horiz-adv-x="411" d="M70 961h96l-21 -330h-55zM248 961h96l-20 -330h-56z" />
<glyph unicode="#" horiz-adv-x="698" d="M37 305v64h139q6 59 14.5 114.5t14.5 112.5h-139v66h147q10 72 19.5 147.5t19.5 146.5h67l-36 -294h172q10 72 18 147.5t16 146.5h72l-37 -294h133v-66h-141q-6 -57 -14 -112.5t-15 -114.5h142v-64h-148q-10 -78 -19 -152.5t-20 -152.5h-71l39 305h-170l-37 -305h-72 l37 305h-131zM248 369h170q6 59 14 114.5t14 112.5h-172q-4 -57 -12 -112.5t-14 -114.5z" />
<glyph unicode="$" horiz-adv-x="778" d="M59 102l66 64q33 -33 86 -70t139 -47v404q-129 47 -194.5 119.5t-71.5 156.5q-4 47 11.5 92t49 81t86 60.5t119.5 28.5v105h72v-105q66 -6 132.5 -27.5t109.5 -54.5l-41 -69q-35 23 -85.5 44t-115.5 27v-395q66 -23 121 -46.5t96 -55t63.5 -73.5t22.5 -99 q0 -111 -75 -183.5t-228 -83.5v-98h-72v98q-109 6 -179.5 48.5t-111.5 78.5zM170 743q0 -61 47 -109t133 -87v364q-84 -8 -132 -55t-48 -113zM422 51q96 8 158.5 55.5t62.5 114.5q0 70 -49 114t-172 91v-375z" />
<glyph unicode="%" horiz-adv-x="1198" d="M135 723q0 49 13.5 95t38 81t60.5 56.5t81 21.5t80.5 -21.5t60.5 -56.5t38 -81t13 -95q0 -51 -13 -97t-38 -82t-60.5 -56.5t-80.5 -20.5t-81 20.5t-60.5 56.5t-38 82t-13.5 97zM203 723q0 -35 6 -68.5t20.5 -62.5t39 -46.5t59.5 -17.5q37 0 60.5 17.5t38.5 46.5 t21.5 62.5t6.5 68.5q0 33 -6.5 66.5t-21.5 61.5t-38.5 46t-60.5 18q-35 0 -59.5 -18t-39 -46t-20.5 -61.5t-6 -66.5zM299 -23l506 1016h72l-508 -1016h-70zM676 258q0 49 12 96t37 82t60.5 56.5t82.5 21.5q45 0 81 -21.5t60.5 -56.5t38 -82t13.5 -96t-13.5 -95t-38 -81 t-60.5 -56.5t-81 -21.5q-47 0 -82.5 21.5t-60.5 56.5t-37 81t-12 95zM741 258q0 -33 6.5 -66.5t21.5 -62.5t38.5 -47.5t60.5 -18.5q35 0 59.5 18.5t40 47.5t21.5 62.5t6 66.5t-6 67.5t-21.5 62.5t-40 46.5t-59.5 18.5q-37 0 -60.5 -18.5t-38.5 -46.5t-21.5 -62.5t-6.5 -67.5 z" />
<glyph unicode="&#x26;" horiz-adv-x="878" d="M63 272q0 55 19.5 99.5t50.5 79t69 64.5t74 58q2 4 3.5 4.5t3.5 2.5q-41 51 -79 109.5t-38 131.5q0 45 16.5 78t44 54.5t62.5 32.5t69 11q37 0 72 -10t62.5 -31.5t44 -53.5t16.5 -77q0 -43 -14.5 -79.5t-37 -67.5t-51 -57.5t-57.5 -51.5l256 -303q25 63 39 145.5 t17 157.5l79 -4q-10 -94 -24.5 -186t-57.5 -172l166 -201h-114l-103 127q-55 -72 -118.5 -109.5t-149.5 -37.5q-66 0 -124 19.5t-101 56t-69 90t-26 120.5zM150 291q0 -53 19 -94t51 -71t73 -45t84 -15q72 0 126 33.5t101 93.5l-272 325q-23 -16 -53.5 -41.5t-59.5 -56.5 t-49 -63.5t-20 -65.5zM252 819q0 -53 31.5 -105t62.5 -87q18 20 40 40.5t40 43t30.5 49t12.5 59.5q0 49 -33 72.5t-76 23.5q-41 0 -74.5 -21.5t-33.5 -74.5z" />
<glyph unicode="'" horiz-adv-x="366" d="M135 805v156h96v-156l-18 -176h-57z" />
<glyph unicode="(" horiz-adv-x="409" d="M76 420q0 141 46 283.5t154 308.5h58q-92 -145 -136 -299t-44 -297q0 -147 45 -296t139 -284h-62q-102 141 -151 292t-49 292z" />
<glyph unicode=")" horiz-adv-x="409" d="M72 -162q94 135 139 283.5t45 296.5q0 143 -44 296.5t-136 299.5h57q109 -166 155 -308.5t46 -283.5t-49 -291.5t-152 -292.5h-61z" />
<glyph unicode="*" horiz-adv-x="722" d="M119 723q-4 16 7 32.5t28 14.5l186 -25l-113 152q-10 12 -3 29.5t26 21.5q12 6 24.5 0t16.5 -16l69 -174q6 14 18.5 40.5t24 55.5t21.5 52.5t14 31.5q8 10 21.5 12t23.5 -4q10 -4 16.5 -18.5t-1.5 -24.5q-4 -8 -19.5 -28.5t-34 -45t-36 -47t-27.5 -37.5l186 27 q14 0 24.5 -6t10.5 -23q8 -16 -4 -31.5t-29 -13.5l-188 25l115 -152q8 -14 2 -30.5t-23 -20.5q-33 -10 -43 17l-70 174q-6 -16 -18 -43t-23.5 -54.5t-21.5 -51t-14 -32.5q-8 -10 -21.5 -11t-23.5 3q-12 6 -16.5 19.5t1.5 23.5q4 8 19.5 28.5t34 45.5t37 48.5t28.5 37.5 l-188 -29q-12 -4 -23.5 6.5t-13.5 20.5z" />
<glyph unicode="+" horiz-adv-x="790" d="M96 295v80h262v293h74v-293h262v-80h-262v-295h-74v295h-262z" />
<glyph unicode="," horiz-adv-x="409" d="M113 -106q41 16 71.5 47.5t34.5 60.5q-35 -14 -65.5 9.5t-30.5 60.5q0 23 20.5 49t57.5 26q43 0 66.5 -25.5t23.5 -68.5q0 -41 -14.5 -73.5t-36 -59t-48 -45t-49.5 -29.5l-4 6q-4 7 -10 16l-11 16.5t-5 9.5z" />
<glyph unicode="-" horiz-adv-x="790" d="M96 295v80h598v-80h-598z" />
<glyph unicode="." horiz-adv-x="370" d="M111 74.5q0 27.5 18 51.5t55 24t55.5 -24t18.5 -51.5t-18.5 -51t-55.5 -23.5t-55 23.5t-18 51z" />
<glyph unicode="/" horiz-adv-x="356" d="M-10 -84l309 1102h80l-316 -1102h-73z" />
<glyph unicode="0" horiz-adv-x="806" d="M55 492q0 174 40 276t95.5 154.5t115 68t97.5 15.5q135 0 224 -93q123 -129 123 -421q0 -147 -31 -248t-92 -166q-89 -92 -224 -92t-223 92q-61 66 -93 166t-32 248zM139 492q0 -250 101 -351q61 -66 163 -65q82 0 133.5 38t80 97t39 133t10.5 148q0 256 -99 358 q-66 68 -164 68q-100 0 -163 -68q-101 -104 -101 -358z" />
<glyph unicode="1" horiz-adv-x="583" d="M98 752l267 225q16 10 30.5 7t32.5 -13q14 -10 20.5 -25.5t-10.5 -30.5q-6 -4 -11 -8t-9 -8q-6 -4 -10 -6v-895h-86v827l-160 -131z" />
<glyph unicode="2" horiz-adv-x="778" d="M63 45q4 20 6.5 29.5t6.5 12.5t10 2t16 -1q25 45 81.5 101.5t119.5 109.5q51 43 103.5 89t94.5 96.5t65.5 102.5t21.5 107q-4 80 -45 129t-97.5 65.5t-118 0t-104.5 -69.5q-29 -43 -34 -91t4 -83l-80 -20q-4 18 -6.5 45.5t1 59.5t15.5 68t37 72q27 37 63.5 61.5t79.5 37 t89 11.5t89 -13q84 -25 135.5 -94.5t57.5 -174.5q4 -72 -24.5 -136t-77 -122.5t-106.5 -111t-114 -97.5q-39 -33 -79 -70.5t-66 -72.5h411l39 76q0 2 11.5 -4t25.5 -15l37 -20l-59 -125h-566q-29 0 -39 5t-4 40z" />
<glyph unicode="3" horiz-adv-x="815" d="M49 266l78 25q18 -70 52 -116t75 -72.5t87 -37t89 -6.5q80 6 136.5 64.5t78 135.5t1 155t-90.5 121q-57 35 -114.5 32.5t-88.5 -18.5l-8 -8t-14 -17q-8 -10 -21 -22q-14 -14 -25.5 -7t-23.5 17q-14 14 -18 24.5t6 22.5l284 324h-333l-43 -125q-20 10 -37 18 q-14 6 -25.5 11.5t-11.5 7.5l53 174h524q18 0 24.5 -7.5t0.5 -35.5q-6 -33 -9 -38t-22 -5h-10l-211 -228q84 0 162 -43q20 -12 42.5 -30.5t43 -46t35 -65.5t18.5 -87q8 -90 -16.5 -161.5t-67.5 -124t-99 -81t-114 -28.5q-59 0 -116.5 10t-108.5 40t-93 85t-69 143z" />
<glyph unicode="4" horiz-adv-x="741" d="M21.5 266.5q-1.5 12.5 5.5 22.5l514 688q8 14 19 9t20.5 -17.5t15.5 -25.5t2 -17l-12 -25v-600h133v-82h-133v-219h-86v219h-445q-6 0 -13 6t-13 17.5t-7.5 24zM139 301h361v483z" />
<glyph unicode="5" horiz-adv-x="815" d="M90 463q6 20 15.5 72.5t19.5 117t20.5 130t16.5 114.5q-6 4 -11.5 14.5t1.5 32.5q6 23 14 26t29 3h512v-86h-459q-4 -43 -19.5 -120t-25.5 -153q147 111 315 68q80 -20 129 -67.5t73.5 -109t27 -130t-12.5 -129.5q-10 -43 -31.5 -83t-53.5 -74t-72.5 -58.5t-88.5 -36.5 q-31 -8 -73.5 -11t-93 8t-106.5 40.5t-114 87.5l58 63q86 -78 152.5 -102.5t150.5 -3.5q72 16 123 71.5t67 116.5q6 25 9.5 72t-10 99t-50.5 98.5t-113 66.5q-109 29 -194.5 -17t-128.5 -149q-20 8 -37 15q-14 4 -25.5 8t-13.5 6z" />
<glyph unicode="6" horiz-adv-x="829" d="M77 545q11 96 42 182t80 143q57 70 140 96.5t163 12.5t144.5 -71.5t88.5 -157.5l-71 -21q-16 72 -65.5 117t-111 57t-127 -9.5t-110.5 -82.5q-23 -31 -42.5 -75t-32.5 -94t-20.5 -101.5t-2.5 -94.5q33 80 87 128.5t115.5 68t127 12t120.5 -41t95 -91t53 -137.5 q14 -86 -4.5 -163t-64.5 -133t-116.5 -86t-158.5 -23q-100 6 -169 59t-108 133t-51 178.5t-1 194.5zM191.5 322q-3.5 -43 9.5 -95q16 -61 66 -105t112.5 -59.5t127 2t109.5 74.5q35 45 49.5 103.5t4.5 128.5q-10 74 -51 123t-98.5 67.5t-121 6t-116.5 -57.5q-20 -18 -41 -46 t-34 -63.5t-16.5 -78.5z" />
<glyph unicode="7" horiz-adv-x="743" d="M41 926q0 18 12.5 31.5t30.5 13.5h614q16 0 22.5 -15.5t-9.5 -62.5q-4 -12 -13.5 -11t-13.5 -1q-4 -25 -3 -39.5t-1 -27.5t-10 -30.5t-31 -46.5q-115 -150 -192.5 -342t-96.5 -397h-84q12 104 39 211.5t66 211t89 198t109 169.5q16 20 22.5 29.5t7.5 18t1 18.5t2 31h-467 l15 -101l-82 -26q-8 43 -15 80q-4 31 -8 57.5t-4 30.5z" />
<glyph unicode="8" horiz-adv-x="831" d="M70 295q0 98 54 172t138 108q-49 33 -75.5 83.5t-26.5 105.5q0 49 18.5 92t51 75t79.5 50t103 18q109 0 180.5 -65.5t71.5 -169.5q0 -43 -15.5 -84t-48.5 -70q-10 -8 -18.5 -18t-18.5 -14q27 -12 51.5 -27t44.5 -35q43 -45 69 -102.5t26 -118.5q0 -70 -28 -128t-74 -101 t-108.5 -67t-131.5 -24q-72 0 -134.5 25t-108.5 68t-72.5 101t-26.5 126zM160 295q0 -55 20.5 -101.5t54 -78t80 -49t97.5 -17.5q111 0 180.5 65.5t69.5 180.5q0 49 -19.5 93t-53.5 76t-80 50t-97 18q-53 0 -98.5 -18t-80 -50t-54 -75t-19.5 -94zM248 765q0 -52 37 -93 q29 -27 58.5 -40.5t68.5 -13.5q72 0 119 43.5t47 102.5q0 33 -14.5 60.5t-37 47t-53.5 29.5t-61 10q-39 0 -68.5 -14t-58.5 -41q-37 -39 -37 -91z" />
<glyph unicode="9" horiz-adv-x="829" d="M70.5 728q13.5 77 56.5 139.5t114.5 101.5t172.5 35q193 -6 276 -164q37 -70 50.5 -170.5t8 -201.5t-26 -190.5t-50.5 -136.5q-53 -86 -132 -126t-196 -29q-94 10 -167 57t-95 125l76 41q12 -55 70.5 -96t127.5 -52q88 -10 147.5 29t96.5 98q29 45 41 114t16 155 q-29 -47 -72.5 -79t-97 -45.5t-111 -10t-110.5 25.5q-80 33 -127 94.5t-64.5 135t-4 150.5zM160 713.5q-10 -56.5 2 -112.5t47 -103t92 -74q63 -29 136 -21.5t122 48.5q55 45 75.5 121.5t3.5 152.5t-73.5 132t-154.5 61q-72 2 -124.5 -27t-84 -75t-41.5 -102.5z" />
<glyph unicode=":" horiz-adv-x="407" d="M133 72.5q0 27.5 18.5 51t55.5 23.5t55.5 -23.5t18.5 -51t-18.5 -51t-55.5 -23.5t-55.5 23.5t-18.5 51zM133 609.5q0 27.5 18.5 51t55.5 23.5t55.5 -23.5t18.5 -51t-18.5 -51t-55.5 -23.5t-55.5 23.5t-18.5 51z" />
<glyph unicode=";" horiz-adv-x="409" d="M117 -106q41 16 71.5 47.5t34.5 60.5q-35 -14 -65.5 9.5t-30.5 60.5q0 23 20.5 49t57.5 26q43 0 66.5 -25.5t23.5 -68.5q0 -41 -14.5 -73.5t-36 -59t-48 -45t-49.5 -29.5l-4 6q-4 7 -10 16l-11 16.5t-5 9.5zM133 609.5q0 27.5 18.5 51t55.5 23.5t55.5 -23.5t18.5 -51 t-18.5 -51t-55.5 -23.5t-55.5 23.5t-18.5 51z" />
<glyph unicode="&#x3c;" horiz-adv-x="843" d="M86 315v72l666 311v-88l-582 -260l582 -278v-88z" />
<glyph unicode="=" horiz-adv-x="872" d="M100 172v82h666v-82h-666zM100 451v77h666v-77h-666z" />
<glyph unicode="&#x3e;" horiz-adv-x="823" d="M84 -16v88l582 278l-582 260v88l666 -311v-72z" />
<glyph unicode="?" horiz-adv-x="710" d="M94 834q25 70 80 115.5t135 56.5q80 12 153 -9.5t109 -78.5q37 -55 44.5 -106.5t-5 -98.5t-39 -89t-57.5 -77q-45 -53 -80 -103.5t-35 -115.5v-117h-82v117q0 88 44.5 152.5t93.5 119.5q61 70 74.5 135.5t-25.5 130.5q-20 35 -68.5 53.5t-105.5 12.5q-66 -8 -106 -50 t-56 -89zM281 80q0 31 22.5 52.5t56.5 21.5q29 0 51.5 -21.5t22.5 -52.5q0 -35 -22.5 -56.5t-51.5 -21.5q-35 0 -57 21.5t-22 56.5z" />
<glyph unicode="@" horiz-adv-x="1124" d="M80 481q0 104 38 198.5t104.5 165t157.5 111.5t198 41q86 0 159.5 -23.5t132 -66.5t96.5 -101t54 -128q12 -59 15 -124t-8 -126t-38.5 -113.5t-75.5 -87.5q-31 -23 -72.5 -33t-79.5 -2.5t-66.5 34t-30.5 77.5q-8 -29 -29 -50.5t-49.5 -35.5t-61 -18t-65.5 4 q-47 12 -78 48t-45 84t-15.5 102.5t11.5 103.5q10 45 33.5 91t58.5 83t80 58.5t100 19.5q39 -2 68.5 -23.5t40.5 -60.5l14 82h66q-16 -96 -36 -205t-36 -207q-10 -61 9.5 -95t54 -41t75.5 15.5t72 72.5t42 131t-11 191q-29 133 -133.5 207t-251.5 74q-96 0 -176 -38 t-137.5 -100.5t-88.5 -145.5t-31 -175q0 -123 55.5 -223t145.5 -158.5t205 -63.5t235 60v-61q-123 -68 -247.5 -63t-227 69.5t-167 179.5t-64.5 266zM383 404.5q4 -52.5 25.5 -92.5t62.5 -52q43 -12 77 0t59.5 41t44 71t28.5 89q25 121 3.5 197.5t-93.5 76.5 q-51 0 -92 -31.5t-68 -81t-39 -107.5t-8 -110.5z" />
<glyph unicode="A" horiz-adv-x="839" d="M12 0q100 264 181 473l180 475q12 29 29.5 40t23.5 13q16 2 33.5 -13t21.5 -23q4 -6 -1 -14.5t-9 -12.5l354 -938l-80 -16l-102 284h-446l-107 -284zM223 336h393l-198 516z" />
<glyph unicode="B" horiz-adv-x="800" d="M84 952q4 10 16.5 26.5t32.5 16.5q6 0 16.5 -7t18.5 -17h231q61 0 109.5 -19.5t81.5 -52.5t49 -76t16 -88q0 -51 -15 -90t-38.5 -66.5t-53.5 -44t-59 -20.5q39 -4 78 -22.5t71 -49t52.5 -73.5t20.5 -97q0 -135 -73 -203.5t-183 -68.5h-336v874q0 18 -6.5 29.5t-13.5 19 t-12 13.5t-3 16zM197 80h221q215 0 215 190q0 39 -13.5 74t-43 62.5t-76.5 44t-113 16.5h-190v-387zM199 543h170q86 0 146 47t60 137q0 86 -41.5 125t-150.5 39h-184v-348z" />
<glyph unicode="C" horiz-adv-x="819" d="M74 479q0 123 28.5 207t70.5 139.5t89 86t86 44.5q65 24 133 24q37 0 73 -6q106 -20 181 -87l-37 -80q-29 31 -66.5 51.5t-80.5 29.5q-35 7 -72 7h-16q-45 -2 -86 -18q-102 -39 -159.5 -144.5t-57.5 -253.5q0 -147 57 -251.5t160 -143.5q37 -14 82 -18q18 -2 37 -3 q26 1 52 5q44 6 85 25.5t72 53.5l55 -67q-84 -78 -196 -98q-36 -6 -72 -6q-74 0 -144 28q-39 14 -86 45t-89 86t-70.5 139t-28.5 205z" />
<glyph unicode="D" horiz-adv-x="923" d="M74 952q4 10 16 26.5t33 16.5q6 0 16.5 -7t18.5 -17h188q106 0 198.5 -31t160 -91.5t105.5 -151.5t38 -210q0 -121 -38 -212t-105.5 -152.5t-159.5 -92t-199 -30.5h-237v874q0 18 -6.5 29.5t-13.5 19t-12 13.5t-3 16zM188 80h177q92 0 165.5 28.5t125 83t79 129 t27.5 166.5q0 106 -35 183.5t-96.5 126.5t-143 71.5t-176.5 22.5h-123v-811z" />
<glyph unicode="E" horiz-adv-x="700" d="M84 952q4 10 16.5 26.5t32.5 16.5q6 0 16.5 -7t18.5 -17h457v-80h-424v-348h379v-80h-379v-383h422v-80h-504v874q0 18 -6.5 29.5t-13.5 19t-12 13.5t-3 16z" />
<glyph unicode="F" horiz-adv-x="684" d="M80 952q4 10 16.5 26.5t32.5 16.5q6 0 16.5 -7t18.5 -17h457v-80h-424v-348h378v-80h-378v-463h-82v874q0 18 -6.5 29.5t-13.5 19t-12 13.5t-3 16z" />
<glyph unicode="G" horiz-adv-x="864" d="M78 481q0 94 22.5 184.5t67.5 161t114.5 114.5t166.5 44q49 0 97 -13.5t88 -39t70.5 -65.5t43.5 -91l-84 -31q-18 82 -80 121t-135 39q-80 0 -134.5 -38t-89.5 -98t-50 -136t-15 -152q0 -94 18.5 -173t58 -135t102 -88t153.5 -32q47 0 96 13.5t96 29.5v314h-223v79h252 q14 18 30 19q20 0 32.5 -16.5t17.5 -26.5q2 -10 -2.5 -15.5t-10.5 -11.5t-12 -16t-6 -29v-360q-78 -35 -152.5 -47.5t-160.5 -12.5q-90 0 -159 37t-116 104.5t-71.5 161t-24.5 205.5z" />
<glyph unicode="H" horiz-adv-x="864" d="M115 0v971h80v-428h477v428h76v-971h-76v463h-477v-463h-80z" />
<glyph unicode="I" horiz-adv-x="333" d="M131 0v971h78v-971h-78z" />
<glyph unicode="J" horiz-adv-x="512" d="M27 20l24 68q12 -12 33.5 -22.5t48.5 -15.5t54.5 -2t56.5 18q39 23 61.5 62.5t22.5 92.5v750h80v-738q0 -90 -40 -149t-89 -82q-55 -25 -104 -25q-16 0 -31 3q-64 10 -117 40z" />
<glyph unicode="K" horiz-adv-x="802" d="M125 0v971h78v-451l477 459l84 -21l-469 -450l506 -508l-94 -12l-504 506v-494h-78z" />
<glyph unicode="L" horiz-adv-x="663" d="M84 18q-2 8 3 15.5t12 14.5t13.5 18.5t6.5 29.5v875h80v-899h419v-72h-450q-8 -10 -18.5 -17.5t-16.5 -7.5q-20 0 -32.5 16.5t-16.5 26.5z" />
<glyph unicode="M" horiz-adv-x="1132" d="M39 4l162 920l-15 18q-6 10 9.5 29.5t35.5 23.5q10 2 20.5 -6t20 -18t16.5 -20.5t7 -12.5l278 -801l279 801q0 2 6 12.5t15.5 20.5t20.5 18t21 6q20 -4 36 -23.5t10 -29.5l-15 -18l162 -920l-76 -18l-143 831l-273 -786l5 -15q6 -12 -2.5 -21t-23.5 -14.5t-29.5 -4.5 t-20.5 14l-287 827l-143 -831z" />
<glyph unicode="N" horiz-adv-x="872" d="M80 950q4 10 16.5 26.5t32.5 16.5q6 0 16.5 -7t18.5 -17l520 -836v838h78v-971h-70l-504 772v-772h-77v877q0 18 -6.5 28t-12.5 17.5l-10 12.5t-2 15z" />
<glyph unicode="O" horiz-adv-x="940" d="M82 479q0 113 25.5 207t74.5 159.5t122 102.5t167 37q92 0 165 -37t123 -102.5t75.5 -159.5t25.5 -207q0 -115 -25.5 -208t-75.5 -158.5t-123 -102.5t-165 -37q-94 0 -167 37t-122 102.5t-74.5 159t-25.5 207.5zM162 479q0 -80 17.5 -157.5t54 -138t95 -97.5t142.5 -37 q82 0 140.5 37t95 97.5t54 138t17.5 157.5t-17.5 157t-54 138.5t-95 98t-140.5 36.5q-84 0 -142.5 -36.5t-95 -98t-54 -138.5t-17.5 -157z" />
<glyph unicode="P" horiz-adv-x="749" d="M86 952q4 10 16.5 26.5t32.5 16.5q6 0 16.5 -7t18.5 -17h172q68 0 131.5 -14.5t112.5 -48.5t79.5 -89t30.5 -139t-30.5 -139.5t-80.5 -88t-111.5 -47t-123.5 -14.5h-149v-391h-80v872q0 18 -6 29.5t-13.5 20t-12.5 14.5t-3 16zM201 467h145q137 0 204.5 57.5t67.5 155.5 q0 88 -65.5 152.5t-208.5 64.5h-143v-430z" />
<glyph unicode="Q" horiz-adv-x="931" d="M78 481q0 113 24.5 206t73.5 158.5t122 102.5t167 37t167 -37t122 -102.5t74.5 -158.5t25.5 -206q0 -217 -86 -348l123 -104l-53 -62l-121 105q-98 -98 -252 -99q-94 0 -167 37t-122 103.5t-73.5 160t-24.5 207.5zM160 481q0 -80 16.5 -157.5t53 -137t95 -96.5t140.5 -37 q59 0 105 19.5t81 54.5l-106 90l53 64l102 -91q35 59 52.5 135t17.5 156t-17.5 156t-54 135t-94 96t-139.5 37t-140.5 -37t-95 -96t-53 -135t-16.5 -156z" />
<glyph unicode="R" horiz-adv-x="800" d="M86 952q4 10 16.5 26.5t32.5 16.5q6 0 16.5 -7t18.5 -17h172q68 0 131.5 -14.5t112.5 -48.5t79.5 -89t30.5 -139q0 -63 -18.5 -110.5t-49 -80t-72.5 -54t-87 -32.5l256 -401l-82 -20l-262 409h-180v-391h-80v874q0 18 -6 29.5t-13.5 19t-12.5 13.5t-3 16zM201 467h145 q137 0 204.5 57.5t67.5 155.5q0 88 -65.5 152.5t-208.5 64.5h-143v-430z" />
<glyph unicode="S" horiz-adv-x="794" d="M59 102l66 64q18 -18 43 -39t56.5 -38t72.5 -28.5t94 -11.5t99.5 13.5t80 37t53 54t19.5 67.5q0 39 -14.5 68.5t-46 55.5t-85 49.5t-130.5 51.5q-135 47 -206 122t-77 161q-1 9 -1 18q1 40 15 79q18 48 56.5 85t95.5 59.5t133 22.5q72 0 151.5 -23.5t129.5 -60.5l-41 -69 q-39 29 -99.5 51t-142.5 22q-96 0 -153.5 -49t-57.5 -121q0 -74 67.5 -130t186.5 -97q63 -23 118.5 -47.5t96.5 -56t63.5 -72.5t22.5 -98q0 -117 -85 -192t-259 -77q-59 0 -108.5 12.5t-89.5 32t-70.5 43t-53.5 41.5z" />
<glyph unicode="T" horiz-adv-x="681" d="M25 930q-4 23 0 32t22 9h588q18 0 22.5 -9.5t-0.5 -31.5q-2 -12 -4 -22.5t-12 -10.5h-260v-897h-78v897h-262q-10 0 -12 10.5t-4 22.5z" />
<glyph unicode="U" horiz-adv-x="931" d="M115 297v674h78v-672q0 -66 22.5 -112t59 -74.5t86 -42t104.5 -13.5q53 0 102 13.5t86 42t59.5 74.5t22.5 112v672h76v-674q0 -158 -93 -239t-253 -81t-255 81t-95 239z" />
<glyph unicode="V" horiz-adv-x="841" d="M12 971l80 16l328 -874l328 874l77 -16l-180 -471q-35 -88 -66.5 -172t-57 -150.5t-33.5 -86.5l-21 -60q-8 -12 -29.5 -36t-31.5 -22q-20 4 -37 22.5t-11 29.5l13 18z" />
<glyph unicode="W" horiz-adv-x="1142" d="M39 967l76 18l143 -831l287 827q6 12 20.5 13t29.5 -4t23.5 -14t2.5 -22l-5 -14l273 -786l143 831l76 -18l-162 -920l15 -18q6 -10 -9.5 -29.5t-36.5 -24.5q-10 -2 -21 6.5t-20.5 18.5t-15.5 19.5t-6 13.5l-279 801l-278 -801q0 -4 -7 -13.5t-16.5 -19.5t-19.5 -18.5 t-21 -6.5q-20 4 -35.5 23.5t-9.5 30.5l15 18z" />
<glyph unicode="X" horiz-adv-x="770" d="M12 51l330 484l-295 426l68 40l274 -409l279 407l65 -38l-301 -441l332 -475l-62 -41l-313 457l-315 -453z" />
<glyph unicode="Y" horiz-adv-x="731" d="M14 973l66 26l282 -512l287 510l66 -26q-66 -113 -125 -217q-25 -45 -51.5 -92.5t-52 -92.5t-48 -86t-39.5 -71v-412h-71v412v2z" />
<glyph unicode="Z" horiz-adv-x="811" d="M40 38.5q5 6.5 21 18.5q10 8 16.5 15.5t12.5 15.5l528 803h-555v80h609l8 8q10 10 16 14q4 4 18.5 2t30.5 -18q18 -23 15.5 -33t-17.5 -24l-26 -37l-531 -803h553v-80h-610q-10 0 -17.5 -7t-17.5 -11q-8 -4 -21.5 2t-29.5 34q-8 14 -3 20.5z" />
<glyph unicode="[" horiz-adv-x="374" d="M104 -186v1220h168v-65h-88v-1090h88v-65h-168z" />
<glyph unicode="\" horiz-adv-x="333" d="M-55 999h71l390 -1036l-68 2z" />
<glyph unicode="]" horiz-adv-x="370" d="M98 -121h88v1090h-88v65h168v-1220h-168v65z" />
<glyph unicode="^" horiz-adv-x="790" d="M88 317l277 605h61l279 -605h-70l-240 523l-237 -523h-70z" />
<glyph unicode="_" horiz-adv-x="659" d="M0 -100h659v-78h-659v78z" />
<glyph unicode="`" horiz-adv-x="333" d="M29 944h96l111 -192h-60z" />
<glyph unicode="a" horiz-adv-x="716" d="M43 348q0 68 17.5 134.5t54.5 117.5t92 83t129 32q80 0 136 -36t91 -93v129h78v-551q0 -68 10.5 -98.5t20.5 -53.5l-68 -26q-6 12 -21.5 39.5t-15.5 87.5q-35 -59 -93 -95t-138 -36q-74 0 -129 31.5t-92 82.5t-54.5 118t-17.5 134zM113 348q0 -49 12 -100t38.5 -94 t69.5 -71t103 -28q53 0 94 22.5t69.5 58.5t45 81t20.5 92v80q-6 45 -22.5 90t-44 81t-68.5 58.5t-94 22.5q-59 0 -102.5 -27.5t-70 -70.5t-38.5 -95.5t-12 -99.5z" />
<glyph unicode="b" horiz-adv-x="724" d="M45 12q10 23 20.5 53.5t10.5 98.5v854h76v-432q35 57 92 92t137 35q74 0 129 -32t92 -83t54.5 -116.5t17.5 -133.5t-17.5 -134.5t-54.5 -117.5t-92 -82.5t-129 -31.5q-80 0 -138 38t-93 93q0 -59 -15.5 -87t-21.5 -40zM152 309q4 -47 20 -92t45 -81t70 -58.5t94 -22.5 q59 0 102 28t70 70t39 94t12 101q0 47 -12 98.5t-39 94.5t-70 70.5t-102 27.5q-53 0 -94 -22.5t-69 -58.5t-44 -80t-22 -89v-80z" />
<glyph unicode="c" horiz-adv-x="604" d="M57 350q0 88 20.5 150.5t51.5 103.5t65.5 63.5t63.5 32.5q48 19 99 19q27 1 55 -5q80 -16 137 -69l-33 -74q-18 25 -46 41.5t-60 23.5q-28 6 -56 6h-8q-33 -1 -59 -11q-74 -29 -115 -102.5t-41 -178.5q0 -104 41 -178t115 -102q25 -10 57 -14q13 -1 26 -1q20 0 38 3 q32 5 62 19.5t50 41.5l47 -58l-4 -4q-53 -53 -137 -71q-30 -6 -61 -6l-107 20q-29 10 -63.5 32.5t-65.5 63.5t-51.5 102.5t-20.5 151.5z" />
<glyph unicode="d" horiz-adv-x="731" d="M55 348q0 68 17.5 133.5t54.5 116.5t92 83t129 32q80 0 137.5 -35t92.5 -92v432h75v-854q0 -68 10.5 -98.5t20.5 -53.5l-68 -26q-6 12 -21 39.5t-15 87.5q-35 -55 -93.5 -93t-138.5 -38q-74 0 -129 31.5t-92 82.5t-54.5 118t-17.5 134zM125 348q0 -49 12.5 -101t39 -94 t69.5 -70t102 -28q53 0 94 22.5t70 58.5t45 81t21 92v80q-6 45 -22.5 89t-44.5 80t-69 58.5t-94 22.5q-59 0 -102 -27.5t-69.5 -70.5t-39 -94.5t-12.5 -98.5z" />
<glyph unicode="e" horiz-adv-x="720" d="M51 344q0 59 18.5 125t56.5 120t98.5 89t146.5 35q100 0 159.5 -44t90 -102.5t40 -118t9.5 -88.5q0 -33 -13 -41q-8 -8 -45 -8h-473q0 -92 46 -155.5t106 -87.5q44 -18 84 -18h2q41 0 72.5 11t55 24t34.5 21l47 -61q-25 -16 -65 -32.5t-88 -24.5q-35 -6 -71 -6 q-13 0 -27 1q-50 3 -95 25q-78 39 -133.5 122t-55.5 214zM137 389h455v10q0 33 -10 72q-12 45 -40 84t-71 64.5t-104 25.5q-63 0 -106.5 -27.5t-71 -67.5t-40 -84t-12.5 -77z" />
<glyph unicode="f" horiz-adv-x="397" d="M10 651l17 62h106v123q0 63 21.5 103t57.5 60.5t83 20.5t100 -14l-10 -66q-43 8 -77 9t-56.5 -12t-33.5 -44t-11 -84v-96h166l-17 -62h-149v-643q0 -55 -11.5 -99t-25.5 -77q-16 -37 -35 -65l-67 20q31 39 48 96.5t17 122.5v645h-123z" />
<glyph unicode="g" horiz-adv-x="735" d="M51 346q0 68 17.5 134.5t54.5 118.5t92 84t129 32q80 0 137 -36t92 -95q0 59 16.5 88.5t22.5 42.5l68 -27q-10 -23 -20.5 -53.5t-10.5 -97.5l2 -525q0 -115 -46 -182.5t-111.5 -100t-139.5 -37.5q-21 -1 -41 -1q-48 0 -88 8q10 27 15.5 39t7.5 18t3 8.5t1 6.5 q35 -7 69 -7q25 0 51 4q58 9 103 39.5t71.5 86t26.5 137.5v73q-37 -57 -94 -92t-135 -35q-74 0 -129 32t-92 84t-54.5 117.5t-17.5 135.5zM119 346q0 -49 12 -101t40 -95.5t71 -71t102 -27.5q53 0 94 22.5t69 58.5t44 81t22 90v82q-4 45 -20 91t-45 83t-70 59.5t-94 22.5 q-59 0 -102 -27.5t-71 -70.5t-40 -95.5t-12 -101.5z" />
<glyph unicode="h" horiz-adv-x="727" d="M96 0v1018h76v-447q29 55 84 92t125 37q55 0 101 -20.5t79 -56t51.5 -83.5t18.5 -104v-315q0 -41 12 -77t16 -38l-67 -26q-6 12 -20.5 46.5t-14.5 94.5v315q0 51 -17.5 89t-44 61.5t-58 35t-60.5 11.5q-47 0 -85 -20.5t-65.5 -55.5t-42 -79t-14.5 -93v-385h-74z" />
<glyph unicode="i" horiz-adv-x="282" d="M78 905q0 27 18 44.5t45 17.5q25 0 42.5 -17.5t17.5 -44.5q0 -25 -17.5 -43t-42.5 -18q-27 0 -45 18.5t-18 42.5zM104 0v713h74v-713h-74z" />
<glyph unicode="j" horiz-adv-x="282" d="M-92 -242q78 6 118 23.5t57 47.5t19 76t2 111v697h74v-733q0 -72 -10 -123.5t-36 -84t-71.5 -51t-119.5 -26.5q2 0 -4.5 10t-12.5 21.5t-12 21.5t-4 10zM76 903q0 27 18 44.5t43 17.5q27 0 44.5 -17.5t17.5 -44.5q0 -25 -17.5 -43t-44.5 -18q-25 0 -43 18.5t-18 42.5z " />
<glyph unicode="k" horiz-adv-x="634" d="M102 0v1018h76v-574l328 281l65 -27l-325 -284l377 -410l-66 -24l-379 401v-381h-76z" />
<glyph unicode="l" horiz-adv-x="282" d="M104 0v997l37 37h37v-1034h-74z" />
<glyph unicode="m" horiz-adv-x="1112" d="M63 690l70 27q6 -12 18.5 -40t16.5 -83q29 55 83 88t116 33q72 0 129 -39t79 -107q25 66 84.5 106t131.5 40q76 0 121.5 -32t71.5 -75t34 -90t8 -78v-315q0 -41 11.5 -77t15.5 -38l-68 -26q-6 12 -19.5 47t-13.5 94v332q0 88 -43 137t-118 49q-47 0 -83 -19.5t-60.5 -52 t-37 -75.5t-12.5 -88v-408h-74v457q0 88 -51 137t-125 49q-47 0 -81 -19.5t-55.5 -52t-32.5 -75.5t-11 -88v-408h-74v545q0 68 -10 95.5t-21 49.5z" />
<glyph unicode="n" horiz-adv-x="698" d="M63 690l70 27l20.5 -41t14.5 -88q31 63 88 96t119 33q76 0 122 -30t71.5 -72t34.5 -86t9 -74v-334q0 -41 11.5 -77t15.5 -38l-68 -26q-6 12 -19 46.5t-13 94.5v336q0 90 -50.5 137t-128.5 47q-45 0 -80.5 -19.5t-60 -51t-37 -73.5t-12.5 -87v-410h-76v547q0 33 -3 56.5 t-8 38.5t-10 26.5t-10 21.5z" />
<glyph unicode="o" horiz-adv-x="673" d="M43 348q0 68 18.5 133.5t54.5 116.5t91 83t129 32t129 -32t92 -83t55.5 -116.5t18.5 -133.5t-18.5 -133t-55.5 -116.5t-92 -83t-129 -31.5t-129 31.5t-91 83t-54.5 117t-18.5 132.5zM115 348q0 -51 13 -104.5t41 -96.5t70 -70.5t97 -27.5t97 27.5t69.5 70.5t41 96.5 t13.5 104.5q0 49 -13.5 102.5t-41 97.5t-69.5 71.5t-97 27.5t-97 -27.5t-70 -70.5t-41 -96.5t-13 -104.5z" />
<glyph unicode="p" horiz-adv-x="731" d="M51 690l68 27q6 -12 21.5 -42t15.5 -89q35 59 93 96t138 37q74 0 129 -32t92 -84t54.5 -118.5t17.5 -134.5q0 -70 -17.5 -135t-54.5 -117.5t-92 -84t-129 -31.5q-80 0 -137 34.5t-92 92.5v-289q0 -59 -13.5 -94t-19.5 -48l-70 27q4 2 15.5 38t11.5 77v719 q0 68 -10.5 98.5t-20.5 52.5zM158 309q6 -45 22.5 -90t44 -82t68.5 -59.5t94 -22.5q59 0 101 28t70 71t40 95t12 101t-12 101.5t-40 95.5t-70 70.5t-101 27.5q-55 0 -96 -22.5t-68.5 -59.5t-44 -83t-20.5 -91v-80z" />
<glyph unicode="q" horiz-adv-x="741" d="M59 350q0 68 17.5 134.5t54.5 118.5t92.5 84t128.5 32q80 0 138.5 -38t93.5 -97q0 59 14 90t20 43l70 -27q-10 -23 -20.5 -53.5t-10.5 -97.5v-719q0 -41 11.5 -77t15.5 -38l-70 -27q-6 12 -19 47t-13 95v289q-35 -57 -92.5 -92t-137.5 -35q-74 0 -129 31.5t-92 84 t-54.5 118t-17.5 134.5zM129 350q0 -49 12.5 -101t40 -95t69.5 -71t101 -28q53 0 94 22.5t69 59.5t44 82t23 90v80q-4 45 -20.5 91t-44.5 83t-68.5 59.5t-96.5 22.5q-59 0 -101 -27.5t-69.5 -70.5t-40 -95.5t-12.5 -101.5z" />
<glyph unicode="r" horiz-adv-x="454" d="M66 690l67 27q2 -6 9.5 -20.5t13.5 -36t10 -47t0 -52.5q8 55 36.5 92t68.5 55q36 16 79 15h10q48 -2 97 -25l-39 -71q-31 16 -72 16t-78 -24.5t-64.5 -79t-31.5 -146.5v-393h-76v539q0 68 -10 98.5t-20 52.5z" />
<glyph unicode="s" horiz-adv-x="581" d="M27 76l53 55q29 -27 80 -55q48 -27 119 -27h10q80 2 129 34t49 85q0 29 -9 49.5t-32 37.5t-61.5 33.5t-96.5 37.5q-102 37 -157.5 86t-55.5 114q0 37 15.5 73t44 63.5t72.5 45t102 17.5q27 0 56.5 -6t59 -15.5t54 -20.5t41.5 -21l-33 -68q-16 12 -67.5 35.5t-112.5 23.5 q-72 0 -112 -33.5t-40 -82.5q0 -55 48 -85t134 -63q49 -18 91.5 -36.5t72 -42t47 -54.5t17.5 -74q0 -88 -63.5 -143t-194.5 -57q-53 0 -94 9t-72 22.5t-54.5 30.5t-39.5 32z" />
<glyph unicode="t" horiz-adv-x="409" d="M14 651l17 62h96v176l47 37h27v-213h166l-17 -62h-149v-495q0 -63 26.5 -83t69.5 -20q18 0 34.5 6.5t28.5 10.5l23 -70q-20 -4 -49 -11t-49 -7q-59 0 -91 19t-47.5 49t-17.5 66t-2 70v465h-113z" />
<glyph unicode="u" horiz-adv-x="727" d="M90 244v469h74v-471q0 -90 54 -141.5t132 -51.5q45 0 82 20.5t62.5 54.5t40 77t14.5 88v424h76v-559q0 -68 10 -98.5t20 -53.5l-67 -27q-6 12 -21.5 40t-15.5 87q-31 -63 -92.5 -91.5t-122.5 -28.5q-76 0 -123 29.5t-74.5 71.5t-38 86t-10.5 75z" />
<glyph unicode="v" horiz-adv-x="686" d="M39 709l76 14l227 -608l225 608l78 -14q-76 -199 -135 -355q-25 -68 -49.5 -131t-44 -112.5t-30.5 -80.5l-11 -30q-4 -16 -20.5 -19.5t-32 3t-24.5 16.5t-3 23l4 8z" />
<glyph unicode="w" horiz-adv-x="1064" d="M41 711l76 18l190 -616l199 594q6 12 20.5 13t28.5 -4t22.5 -14.5t2.5 -21.5l-7 -27l181 -540l190 618l76 -18l-215 -672l6 -21q4 -14 -10.5 -22t-32.5 -9t-33.5 5t-15.5 22l-189 549l-190 -549q0 -16 -15.5 -22t-34 -5t-32.5 9t-10 22l6 21z" />
<glyph unicode="x" horiz-adv-x="679" d="M43 35l250 319l-250 338l61 43l234 -325l233 325l62 -43l-252 -338l252 -319l-62 -47l-233 311l-232 -311z" />
<glyph unicode="y" horiz-adv-x="708" d="M43 700l74 33l250 -622l231 622l68 -33l-14 -36q-13 -37 -35.5 -96.5t-51 -134.5t-59.5 -153.5t-59.5 -154.5t-51 -135.5t-37 -95t-16.5 -37.5q-16 -37 -35.5 -65t-48.5 -50q-47 -33 -85 -45t-48 -19l-23 66q55 23 88 40t55.5 45t39 72t39.5 119z" />
<glyph unicode="z" horiz-adv-x="636" d="M39 36q0 13 6 24.5t18 11.5l416 567h-413v74h507q12 0 18.5 -11.5t6.5 -25.5t-6 -25.5t-19 -11.5l-417 -567h436v-72h-529q-12 0 -18 11.5t-6 24.5z" />
<glyph unicode="{" horiz-adv-x="374" d="M66 410l2 30q23 10 34 33t11 49v441q0 35 25.5 65.5t68.5 30.5h98l-20 -27l-47 -4q-16 -4 -36 -16.5t-20 -46.5v-433q0 -16 -7 -34.5t-17.5 -35t-21.5 -26.5t-19 -12q8 0 19 -11.5t21.5 -26.5t17.5 -33.5t7 -35.5v-432q0 -35 19.5 -47t36.5 -16l47 -4l20 -27h-98 q-43 0 -68.5 31t-25.5 65v441q0 27 -9.5 49t-37.5 33z" />
<glyph unicode="|" horiz-adv-x="266" d="M113 0v971h57v-971h-57z" />
<glyph unicode="}" horiz-adv-x="385" d="M74 -209l20 27l47 4q16 4 36 16t20 47v432q0 16 7 35t17 34t21.5 26.5t19.5 11.5q-8 2 -19.5 12t-21.5 26.5t-17 35t-7 34.5v433q0 35 -19.5 47t-36.5 16l-47 4l-20 27h98q43 0 68.5 -31t25.5 -65v-441q0 -27 11.5 -49t33.5 -33l2 -30q-29 -10 -38 -33t-9 -49v-441 q0 -35 -25.5 -65.5t-68.5 -30.5h-98z" />
<glyph unicode="~" horiz-adv-x="831" d="M88 311q14 23 31.5 46.5t41 42t52.5 30.5t66 12q31 0 68.5 -14t77.5 -32.5t78 -33t66 -14.5q23 0 43.5 11.5t38 29t30.5 36.5t24 38l49 -55q-29 -53 -73 -95.5t-116 -42.5q-37 0 -73.5 14.5t-72.5 32t-71 31.5t-67 14q-55 0 -91 -40.5t-59 -79.5z" />
<glyph unicode="&#xa1;" horiz-adv-x="317" d="M88 643q0 29 20.5 47.5t51.5 18.5q27 0 46 -18.5t19 -47.5q0 -31 -19.5 -50.5t-45.5 -19.5q-31 0 -51.5 19.5t-20.5 50.5zM106 -270l19 739h65l17 -739h-101z" />
<glyph unicode="&#xa2;" horiz-adv-x="677" d="M90 479q0 88 20.5 148.5t51.5 100.5t64.5 61.5t62.5 31.5q37 14 69 17v106h43v-104q47 -4 91.5 -20.5t80.5 -51.5l-32 -74q-29 35 -65 51.5t-75 20.5v-576q39 0 76 13.5t66 48.5l45 -49q-35 -45 -84 -64.5t-103 -21.5v-117h-43v119q-18 4 -35.5 7t-33.5 9 q-29 10 -62.5 32.5t-64.5 62.5t-51.5 100.5t-20.5 148.5zM164 479q0 -104 38.5 -175.5t110.5 -98.5q10 -4 21.5 -6t23.5 -6v571q-94 -14 -144 -91t-50 -194z" />
<glyph unicode="&#xa3;" horiz-adv-x="782" d="M86 0v51q70 39 110 83t58 95.5t19 107.5t-9 120h-176l16 61h152q-8 35 -23.5 81t-17.5 93q-4 141 75 212t197 71q63 0 119 -25.5t82 -54.5l-29 -64q-23 29 -71.5 53.5t-102.5 24.5q-98 0 -150 -60.5t-44 -158.5q4 -53 17.5 -95t21.5 -77h229l-16 -61h-205 q10 -49 7 -105.5t-18.5 -109t-44 -98.5t-69.5 -74h494v-70h-621z" />
<glyph unicode="&#xa4;" horiz-adv-x="901" d="M125 186l123 123q-25 33 -41.5 75t-16.5 89q0 94 56 162l-121 121l37 39l123 -119q35 29 78 45t90 16t89 -16t74 -43l121 117l39 -39l-119 -117q25 -35 41.5 -77t16.5 -89t-16.5 -89t-45.5 -77l123 -121l-39 -39l-123 119q-33 -25 -73.5 -40t-87.5 -15t-89 16.5t-75 42.5 l-127 -123zM256 473q0 -82 57.5 -139.5t139.5 -57.5t139 57.5t57 139.5q0 84 -57 141.5t-139 57.5t-139.5 -57.5t-57.5 -141.5z" />
<glyph unicode="&#xa5;" horiz-adv-x="782" d="M47 942l66 41l278 -459q92 158 144.5 244t80 129t38 57.5t18.5 28.5l65 -41l-260 -420h201v-57h-236l-14 -27v-100h250v-64h-250v-280h-80v280h-244v64h244v100l-14 27h-230v57h195q-86 143 -134 221t-71.5 118t-31 54.5t-15.5 26.5z" />
<glyph unicode="&#xa6;" horiz-adv-x="358" d="M145 244h72v-504h-72v504zM145 475v504h72v-504h-72z" />
<glyph unicode="&#xa7;" horiz-adv-x="782" d="M115 522q0 37 18.5 79t75.5 87q-23 20 -35 50t-12 63q0 92 70.5 146t179.5 54q70 0 121 -17t83 -36l-36 -61q-27 18 -72 36.5t-107 18.5q-70 0 -117.5 -37t-47.5 -92q0 -66 58 -101.5t150 -64.5q47 -16 88 -34.5t71 -41t46.5 -54.5t16.5 -77q0 -55 -22.5 -97t-63.5 -81 q18 -16 33.5 -50t15.5 -77q0 -102 -76 -159.5t-186 -57.5q-72 0 -126.5 18.5t-88.5 49.5l32 59q25 -25 72 -44t115 -19q84 0 135 38.5t51 104.5q0 31 -9 55.5t-31.5 46t-61.5 40t-99 38.5q-121 39 -181 85t-60 132zM180 526q0 -41 39 -83t152 -78q68 -25 104.5 -36.5 t59.5 -27.5q25 27 44 59.5t19 69.5q0 45 -40 84t-128 70q-41 12 -90 30.5t-84 38.5q-76 -61 -76 -127z" />
<glyph unicode="&#xa8;" horiz-adv-x="475" d="M45 887q0 29 17.5 47t46.5 18t47 -18.5t18 -46.5q0 -29 -18.5 -46.5t-46.5 -17.5q-29 0 -46.5 17.5t-17.5 46.5zM299 887q0 29 17.5 47t45.5 18q29 0 47.5 -18.5t18.5 -46.5q0 -29 -18.5 -46.5t-47.5 -17.5t-46 17.5t-17 46.5z" />
<glyph unicode="&#xa9;" horiz-adv-x="1097" d="M57 483q0 104 39 197.5t106.5 163t157 110.5t191.5 41q100 0 190 -41t157 -110.5t105.5 -162.5t38.5 -198q0 -106 -38.5 -199.5t-105.5 -163t-157 -110.5t-190 -41q-102 0 -191.5 41t-157 110.5t-106.5 163t-39 199.5zM119 483q0 -92 33.5 -175t92 -144.5t137.5 -97 t169 -35.5t169 35.5t137 97t92 144.5t34 175t-34 175t-92 144.5t-137 97.5t-169 36t-169 -36t-137.5 -97.5t-92 -144.5t-33.5 -175zM285 475q0 78 19.5 132.5t48 90t61 55t59.5 29.5q68 25 140.5 10.5t125.5 -63.5l-30 -59q-41 45 -100.5 57t-114.5 -8q-66 -23 -104 -87.5 t-38 -156.5t38 -157.5t104 -88.5q25 -8 54.5 -11t58 2t56 18.5t48.5 35.5l45 -53q-49 -49 -129 -64.5t-154 11.5q-27 8 -59.5 28.5t-61 55.5t-48 89t-19.5 134z" />
<glyph unicode="&#xaa;" horiz-adv-x="516" d="M49 616q0 43 11.5 85t34 75t57 53.5t84.5 20.5q51 0 85.5 -22.5t57.5 -59.5v82h57v-387l4 -66h-59v68q-23 -37 -58.5 -59.5t-86.5 -22.5q-49 0 -84 20.5t-57.5 53t-34 74.5t-11.5 85zM111 616q0 -29 7 -58.5t22.5 -54t40 -39.5t59.5 -15q63 0 96 49t35 127 q0 66 -34 112.5t-97 46.5q-35 0 -59.5 -16t-40 -41t-22.5 -54.5t-7 -56.5z" />
<glyph unicode="&#xab;" horiz-adv-x="614" d="M76 328q-10 18 0 37l168 268h82l-185 -287l185 -287h-82zM295 328q-10 18 0 37l168 268h82l-185 -287l185 -287h-82z" />
<glyph unicode="&#xac;" horiz-adv-x="837" d="M57 504v74h717v-388h-80v314h-637z" />
<glyph unicode="&#xad;" horiz-adv-x="790" d="M96 295v80h598v-80h-598z" />
<glyph unicode="&#xae;" horiz-adv-x="1101" d="M57 483q0 106 39 199.5t105.5 163t156 110.5t191.5 41q100 0 190 -41t157 -110.5t105.5 -162.5t38.5 -200q0 -106 -38.5 -199.5t-105.5 -163t-157 -109.5t-190 -40q-102 0 -191.5 40t-156 109.5t-105.5 163t-39 199.5zM117 483q0 -92 33.5 -175t92 -144.5t137.5 -97 t169 -35.5t169 35.5t137 97t92 144.5t34 175t-34 175t-92 145.5t-137 98.5t-169 36t-169 -36t-137.5 -98.5t-92 -145.5t-33.5 -175zM365 778q2 4 10 10.5t20 6.5q8 0 23 -9h106q43 0 85 -9t74 -30.5t51.5 -57.5t19.5 -89q0 -80 -43 -122t-101 -58l164 -254l-57 -12l-170 260 h-113v-250h-49v569q0 12 -12.5 22.5t-7.5 22.5zM436 461h90q90 0 133 41t43 100q0 53 -40.5 94t-137.5 41h-88v-276z" />
<glyph unicode="&#xaf;" horiz-adv-x="442" d="M57 864v66h326v-66h-326z" />
<glyph unicode="&#xb0;" horiz-adv-x="442" d="M49 807q0 72 50 122t122 50t122 -50t50 -122t-50 -122t-122 -50t-121 50t-51 122zM104 807q0 -49 34 -83t83 -34q47 0 82 34t35 83q0 47 -35 83t-82 36q-49 0 -84 -36t-33 -83z" />
<glyph unicode="&#xb1;" horiz-adv-x="829" d="M88 0v72h655v-72h-655zM88 461v78h289v288h80v-288h286v-78h-286v-291h-80v291h-289z" />
<glyph unicode="&#xb2;" horiz-adv-x="530" d="M80 426q4 18 7 26.5t17 8.5h2q20 33 57.5 67.5t57.5 51.5q63 53 111.5 104t48.5 109q0 39 -18.5 68.5t-53.5 39.5q-33 10 -64.5 1t-54.5 -38q-16 -27 -18 -49t4 -51l-65 -19q-19 97 26 160q31 45 85 61.5t112 -1.5q53 -16 86 -62.5t33 -111.5q0 -41 -18.5 -79t-46.5 -72 t-61.5 -62.5t-64.5 -53.5q-29 -23 -44 -35t-30 -28h215l19 37q2 0 24.5 -8.5t40.5 -14.5l-41 -86h-331q-41 -2 -35 37z" />
<glyph unicode="&#xb3;" horiz-adv-x="532" d="M55 561l66 21q18 -70 60 -104t86 -35t83 28t51 86q10 43 -4 83t-41.5 63.5t-62.5 21.5t-68 -41q-12 -12 -23.5 -7t-19.5 13q-6 6 -13 17.5t7 23.5q33 39 64 74q25 29 49 57.5t35 38.5h-162q-2 -4 -6 -17.5t-9 -25.5q-6 -16 -12 -33q-43 20 -51 24.5t-6 4.5l33 117h309 q10 2 18 -5.5t8 -17.5q0 -12 -6 -32.5t-24 -14.5q-2 -2 -16.5 -17.5t-33 -36t-36 -38.5t-25.5 -27q68 2 108 -35.5t52 -92t-1 -115t-50 -99.5q-41 -47 -96.5 -58t-108.5 6.5t-96 62.5t-58 110z" />
<glyph unicode="&#xb4;" horiz-adv-x="442" d="M166 791l137 213h121l-195 -213h-63z" />
<glyph unicode="&#xb5;" horiz-adv-x="788" d="M119 -338v1055h76v-475q0 -90 54 -141.5t132 -51.5q45 0 82 20.5t62.5 54.5t40 77t14.5 88v428h75v-563q0 -68 6.5 -98.5t16.5 -53.5l-68 -27q-6 12 -17 40t-11 87q-31 -63 -92.5 -91.5t-122.5 -28.5q-59 0 -101.5 19t-70.5 48l-2 -387h-74z" />
<glyph unicode="&#xb6;" horiz-adv-x="782" d="M47 713q0 74 24.5 123t64.5 79.5t92.5 44t107.5 13.5h346v-51h-74v-1172l-61 -2v1174h-107v-1172h-59v713h-45q-45 0 -95.5 11t-93.5 40t-71.5 77t-28.5 122z" />
<glyph unicode="&#xb7;" horiz-adv-x="471" d="M106 477q0 57 40 97t98 40q57 0 97 -39.5t40 -97.5q0 -57 -40 -97t-97 -40t-97.5 40t-40.5 97z" />
<glyph unicode="&#xb8;" horiz-adv-x="442" d="M66 -266l26 59q23 -12 44.5 -16t39.5 -4q29 0 53.5 9t24.5 36q0 35 -39 47t-92 16l76 127h77l-57 -80q41 -8 75 -32.5t34 -65.5q0 -66 -49.5 -93.5t-112.5 -27.5q-20 0 -51 6t-49 19z" />
<glyph unicode="&#xb9;" horiz-adv-x="442" d="M92 844l156 125h2q10 10 21.5 6t21.5 -8q6 -4 13 -10.5t7 -14.5v-2q0 -12 -26 -31v-520h-68v469q-8 -6 -21.5 -16.5t-27.5 -20.5q-16 -12 -33 -24z" />
<glyph unicode="&#xba;" horiz-adv-x="516" d="M10 623q0 57 21.5 104t55.5 79t78 49t91 17q57 0 104.5 -19t79 -52t49 -77t17.5 -93q0 -66 -23.5 -113t-60.5 -76.5t-81 -44t-85 -14.5q-53 0 -98 18.5t-78 50t-51.5 75.5t-18.5 96zM80 625q0 -45 16.5 -79t42 -56.5t57 -34t62.5 -11.5q68 0 124 45.5t56 137.5 q0 31 -10 63.5t-32.5 59t-56.5 44t-81 17.5q-45 0 -78 -16.5t-55.5 -42t-33.5 -59.5t-11 -68z" />
<glyph unicode="&#xbb;" horiz-adv-x="618" d="M70 59l184 287l-184 287h82l167 -268q10 -18 0 -37l-167 -269h-82zM289 59l184 287l-184 287h82l168 -268q10 -18 0 -37l-168 -269h-82z" />
<glyph unicode="&#xbc;" horiz-adv-x="1134" d="M80 844l156 125q12 10 23 6l22 -8q6 -4 13 -10.5t7 -14.5v-2q0 -8 -27 -27v-2v-522h-67v469q-8 -6 -21.5 -16.5t-27.5 -20.5q-16 -12 -33 -24zM219 -18l594 993h70l-596 -993h-68zM610 182l322 396q8 12 18.5 11t19.5 -9.5t13 -20.5t2 -20l-4 -4q-2 -2 -2 -9v-329h76v-72 h-76v-125h-70v125h-272q-18 4 -26.5 21.5t-0.5 35.5zM709 197h200v241q-10 -14 -39.5 -50t-63.5 -75t-61.5 -72.5t-35.5 -43.5z" />
<glyph unicode="&#xbd;" horiz-adv-x="1159" d="M80 844l156 125h2q10 10 21 6l22 -8q6 -4 13 -10.5t7 -14.5v-2q0 -8 -27 -27v-2v-522h-67v469q-8 -6 -21.5 -16.5t-27.5 -20.5q-16 -12 -33 -24zM193 -18l593 993h70l-594 -993h-69zM678 37q4 18 7 26.5t17 8.5h3q20 33 57 67.5t57 50.5q63 53 111.5 104.5t48.5 108.5 q0 39 -18.5 69t-53.5 40q-33 10 -64.5 1t-54.5 -38q-16 -27 -18 -49.5t4 -50.5l-65 -19q-19 97 26 160q31 45 85 61.5t112 -2.5q53 -16 86 -62t33 -112q0 -41 -18.5 -78.5t-46.5 -71.5t-61.5 -62.5t-64.5 -53.5q-29 -16 -44 -31.5t-30 -31.5h215l19 37q2 0 24.5 -8.5 t40.5 -14.5l-41 -86h-331q-41 -2 -35 37z" />
<glyph unicode="&#xbe;" horiz-adv-x="1198" d="M74 561q14 -66 57 -110.5t96.5 -62t108.5 -6.5t96 58q37 39 50.5 99.5t1 115t-52.5 92t-107 35.5q8 8 25.5 26.5t35.5 39t32.5 36t16.5 17.5q18 -6 24.5 14.5t6.5 32.5q0 10 -8 17.5t-19 5.5h-309l-33 -111q0 -6 7.5 -10t50.5 -25q6 16 12 33q4 12 8 25.5t6 17.5h162 q-10 -10 -34.5 -38.5t-49.5 -57.5q-31 -35 -63 -74q-14 -12 -7 -23.5t13 -17.5q8 -8 19 -13t24 7q33 39 67.5 41t62 -21.5t42 -63.5t4.5 -83q-12 -57 -51 -86t-83 -28t-86 35t-61 104zM315 -18l596 993h70l-594 -993h-72zM678 146.5q8 -17.5 27 -21.5h272v-125h70v125h75v72 h-75v329q0 6 2 9l4 4q2 8 -2 20t-13.5 20.5t-19.5 9.5t-19 -11l-321 -396q-8 -18 0 -35.5zM776 197q8 10 36 43.5t61.5 72.5t63.5 75t40 50v-241h-201z" />
<glyph unicode="&#xbf;" horiz-adv-x="706" d="M111.5 -102.5q-7.5 51.5 5 98.5t39 89t57.5 77q45 53 80 103t35 116v117h82v-117q0 -88 -44 -152.5t-94 -119.5q-61 -70 -74.5 -135.5t25.5 -131.5q20 -35 68.5 -53t105.5 -12q66 8 106 50t56 89l74 -41q-25 -70 -80 -116t-135 -56q-80 -12 -152.5 9.5t-109.5 78.5 q-37 55 -44.5 106.5zM293 637q0 31 22.5 52.5t57.5 21.5q29 0 51 -21.5t22 -52.5q0 -35 -22.5 -56.5t-50.5 -21.5q-35 0 -57.5 21.5t-22.5 56.5z" />
<glyph unicode="&#xc2;" horiz-adv-x="847" d="M12 0q100 264 181 473l180 475q12 29 29.5 40t23.5 13q16 2 33.5 -13t21.5 -23q4 -6 -1 -14.5t-9 -12.5l354 -938l-80 -16l-102 284h-446l-107 -284zM209 1071l172 178h56l174 -178h-86l-117 108l-109 -108h-90zM223 336h393l-198 516z" />
<glyph unicode="&#xc4;" horiz-adv-x="847" d="M12 0q100 264 181 473l180 475q12 29 29.5 40t23.5 13q16 2 33.5 -13t21.5 -23q4 -6 -1 -14.5t-9 -12.5l354 -938l-80 -16l-102 284h-446l-107 -284zM223 336h393l-198 516zM225 1166q0 29 17.5 47t46.5 18t47 -18.5t18 -46.5q0 -29 -18.5 -46.5t-46.5 -17.5 q-29 0 -46.5 17.5t-17.5 46.5zM479 1166q0 29 17.5 47t45.5 18q29 0 47.5 -18.5t18.5 -46.5q0 -29 -18.5 -46.5t-47.5 -17.5t-46 17.5t-17 46.5z" />
<glyph unicode="&#xc5;" horiz-adv-x="845" d="M12 0q100 264 181 473l180 475q12 29 29.5 40t23.5 13q16 2 33.5 -13t21.5 -23q4 -6 -1 -14.5t-9 -12.5l354 -938l-80 -16l-102 284h-446l-107 -284zM223 336h393l-198 516zM281 1182q0 57 38.5 97t96.5 40q57 0 97 -40t40 -97t-40 -96t-97 -39t-96 39t-39 96zM340 1182 q0 -33 22.5 -55.5t55.5 -22.5t55.5 22.5t22.5 55.5t-22.5 55.5t-55.5 22.5t-55.5 -22.5t-22.5 -55.5z" />
<glyph unicode="&#xc6;" horiz-adv-x="1153" d="M4 23l512 886q12 27 33.5 46.5t50.5 19.5h508l-2 -80h-401v-350h356l2 -80h-358v-383h401v-80h-410q-37 0 -56 24.5t-19 51.5l2 182h-383l-166 -274zM279 334h344v555v4l-37 -2z" />
<glyph unicode="&#xc7;" horiz-adv-x="815" d="M74 479q0 123 28.5 207t70.5 139.5t89 86t86 44.5q100 37 205.5 17.5t181.5 -86.5l-37 -80q-29 31 -66.5 51.5t-80.5 29.5t-88 7t-86 -18q-102 -39 -159.5 -144.5t-57.5 -253.5q0 -147 57 -251.5t160 -143.5q37 -14 82 -18.5t89 2t85 26t72 53.5l55 -67 q-84 -78 -196.5 -97.5t-215.5 21.5q-39 14 -86 45t-89 86t-70.5 139t-28.5 205zM342 -266l26 59q23 -12 44.5 -16t39.5 -4q29 0 53.5 9t24.5 36q0 35 -39 47t-92 16l76 127h77l-57 -80q41 -8 75 -32.5t34 -65.5q0 -66 -49.5 -93.5t-112.5 -27.5q-20 0 -51 6t-49 19z" />
<glyph unicode="&#xca;" horiz-adv-x="753" d="M84 952q4 10 16.5 26.5t32.5 16.5q6 0 16.5 -7t18.5 -17h457v-80h-424v-348h379v-80h-379v-383h422v-80h-504v874q0 18 -6.5 29.5t-13.5 19t-12 13.5t-3 16zM180 1069l172 178h56l174 -178h-86l-117 108l-109 -108h-90z" />
<glyph unicode="&#xcb;" horiz-adv-x="753" d="M84 952q4 10 16.5 26.5t32.5 16.5q6 0 16.5 -7t18.5 -17h457v-80h-424v-348h379v-80h-379v-383h422v-80h-504v874q0 18 -6.5 29.5t-13.5 19t-12 13.5t-3 16zM188 1166q0 29 17.5 47t46.5 18t47 -18.5t18 -46.5q0 -29 -18.5 -46.5t-46.5 -17.5q-29 0 -46.5 17.5 t-17.5 46.5zM442 1166q0 29 17.5 47t45.5 18q29 0 47.5 -18.5t18.5 -46.5q0 -29 -18.5 -46.5t-47.5 -17.5t-46 17.5t-17 46.5z" />
<glyph unicode="&#xce;" horiz-adv-x="331" d="M-31 1069l172 178h56l174 -178h-86l-117 108l-109 -108h-90zM131 0v971h78v-971h-78z" />
<glyph unicode="&#xcf;" horiz-adv-x="331" d="M-21 1166q0 29 17.5 47t46.5 18t47 -18.5t18 -46.5q0 -29 -18.5 -46.5t-46.5 -17.5q-29 0 -46.5 17.5t-17.5 46.5zM131 0v971h78v-971h-78zM233 1166q0 29 17.5 47t45.5 18q29 0 47.5 -18.5t18.5 -46.5q0 -29 -18.5 -46.5t-47.5 -17.5t-46 17.5t-17 46.5z" />
<glyph unicode="&#xd0;" horiz-adv-x="974" d="M4 455v77h131v359q-2 16 -18.5 30.5t-12.5 32.5q4 10 16.5 22.5t33.5 12.5q12 0 30 -18h189q106 0 198.5 -31t160 -91.5t105 -151.5t37.5 -210q0 -121 -37.5 -212t-105 -152.5t-160 -92t-198.5 -30.5h-238v455h-131zM215 80h176q92 0 166 28.5t125 83t78.5 129 t27.5 166.5q0 106 -34.5 183.5t-96 126.5t-143.5 71.5t-176 22.5h-123v-359h221v-77h-221v-375z" />
<glyph unicode="&#xd1;" horiz-adv-x="880" d="M80 950q4 10 16.5 26.5t32.5 16.5q6 0 16.5 -7t18.5 -17l520 -836v838h78v-971h-70l-504 772v-772h-77v877q0 18 -6.5 28t-12.5 17.5l-10 12.5t-2 15zM264 1108q0 53 21.5 93.5t68.5 40.5q25 0 46.5 -9.5t42 -21.5t41 -21.5t42.5 -9.5q12 0 25.5 15.5t13.5 50.5h55 q0 -55 -26.5 -92t-75.5 -37q-20 0 -42.5 9t-45.5 20.5t-42 20.5t-32 9q-18 0 -26.5 -19.5t-10.5 -48.5h-55z" />
<glyph unicode="&#xd4;" horiz-adv-x="950" d="M82 479q0 113 25.5 207t74.5 159.5t122 102.5t167 37q92 0 165 -37t123 -102.5t75.5 -159.5t25.5 -207q0 -115 -25.5 -208t-75.5 -158.5t-123 -102.5t-165 -37q-94 0 -167 37t-122 102.5t-74.5 159t-25.5 207.5zM162 479q0 -80 17.5 -157.5t54 -138t95 -97.5t142.5 -37 q82 0 140.5 37t95 97.5t54 138t17.5 157.5t-17.5 157t-54 138.5t-95 98t-140.5 36.5q-84 0 -142.5 -36.5t-95 -98t-54 -138.5t-17.5 -157zM270 1071l172 178h56l174 -178h-86l-117 108l-109 -108h-90z" />
<glyph unicode="&#xd6;" horiz-adv-x="950" d="M82 479q0 113 25.5 207t74.5 159.5t122 102.5t167 37q92 0 165 -37t123 -102.5t75.5 -159.5t25.5 -207q0 -115 -25.5 -208t-75.5 -158.5t-123 -102.5t-165 -37q-94 0 -167 37t-122 102.5t-74.5 159t-25.5 207.5zM162 479q0 -80 17.5 -157.5t54 -138t95 -97.5t142.5 -37 q82 0 140.5 37t95 97.5t54 138t17.5 157.5t-17.5 157t-54 138.5t-95 98t-140.5 36.5q-84 0 -142.5 -36.5t-95 -98t-54 -138.5t-17.5 -157zM281 1166q0 29 17.5 47t46.5 18t47 -18.5t18 -46.5q0 -29 -18.5 -46.5t-46.5 -17.5q-29 0 -46.5 17.5t-17.5 46.5zM535 1166 q0 29 17.5 47t45.5 18q29 0 47.5 -18.5t18.5 -46.5q0 -29 -18.5 -46.5t-47.5 -17.5t-46 17.5t-17 46.5z" />
<glyph unicode="&#xd7;" horiz-adv-x="819" d="M115 582l53 53l246 -246l239 246l52 -53l-240 -244l254 -254l-53 -51l-254 254l-244 -246l-51 51l243 244z" />
<glyph unicode="&#xd8;" horiz-adv-x="954" d="M88 500q0 113 25.5 206t75 158.5t122 102.5t166.5 37q119 0 207 -60l70 129q8 12 17 7t22 -11q14 -8 23 -13t1 -18l-78 -143q61 -66 94 -166t33 -229q0 -115 -25.5 -208t-75.5 -159.5t-123 -103.5t-165 -37q-121 0 -205 59l-84 -149q-8 -12 -16 -8t-22 10q-12 8 -22.5 14 t-2.5 19l90 161q-127 139 -127 402zM168 500q0 -92 21.5 -177t68.5 -147l385 696q-68 55 -166 56q-84 0 -142.5 -37t-95 -97.5t-54 -137t-17.5 -156.5zM311 123q35 -27 75 -41t91 -14q82 0 140.5 36.5t95.5 98t54 139.5t17 158q0 88 -20.5 172t-67.5 147z" />
<glyph unicode="&#xdb;" horiz-adv-x="935" d="M115 297v674h78v-672q0 -66 22.5 -112t59 -74.5t86 -42t104.5 -13.5q53 0 102 13.5t86 42t59.5 74.5t22.5 112v672h76v-674q0 -158 -93 -239t-253 -81t-255 81t-95 239zM266 1071l172 178h56l174 -178h-86l-117 108l-109 -108h-90z" />
<glyph unicode="&#xdc;" horiz-adv-x="935" d="M115 297v674h78v-672q0 -66 22.5 -112t59 -74.5t86 -42t104.5 -13.5q53 0 102 13.5t86 42t59.5 74.5t22.5 112v672h76v-674q0 -158 -93 -239t-253 -81t-255 81t-95 239zM274 1166q0 29 17.5 47t46.5 18t47 -18.5t18 -46.5q0 -29 -18.5 -46.5t-46.5 -17.5 q-29 0 -46.5 17.5t-17.5 46.5zM528 1166q0 29 17.5 47t45.5 18q29 0 47.5 -18.5t18.5 -46.5q0 -29 -18.5 -46.5t-47.5 -17.5t-46 17.5t-17 46.5z" />
<glyph unicode="&#xde;" horiz-adv-x="806" d="M111 0v995h65v-182h186q74 0 137.5 -16.5t110.5 -50t74 -85.5t27 -124q0 -160 -103.5 -229.5t-281.5 -69.5h-150v-238h-65zM176 307h154q152 0 231.5 51t79.5 168q0 59 -22.5 101.5t-60.5 70t-88 40t-105 12.5h-189v-443z" />
<glyph unicode="&#xdf;" horiz-adv-x="847" d="M125 -326v1123q0 59 17.5 110t51 89t82 58.5t111.5 18.5q47 0 90 -10t82 -41q47 -37 65.5 -81t18.5 -91q0 -33 -10 -63.5t-25.5 -54t-35 -39t-35.5 -17.5q108 -49 163 -131q29 -41 42.5 -91.5t13.5 -109.5q0 -72 -22.5 -137.5t-64.5 -114.5t-103.5 -78.5t-137.5 -29.5 l-166 -2v67h148q63 0 116.5 23.5t90 64.5t57 96.5t18.5 116.5t-26.5 115.5t-66.5 94.5t-96 63.5t-116 23.5h-141v68h145h2h2q29 0 59.5 3t57.5 15t44 38t19 69q2 59 -17 95t-50 54q-49 33 -114.5 34t-117.5 -30q-12 -6 -26 -19t-27.5 -37t-23 -60.5t-9.5 -92.5v-1110h-65z " />
<glyph unicode="&#xe2;" horiz-adv-x="731" d="M43 348q0 68 17.5 134.5t54.5 117.5t92 83t129 32q80 0 136 -36t91 -93v129h78v-551q0 -68 10.5 -98.5t20.5 -53.5l-68 -26q-6 12 -21.5 39.5t-15.5 87.5q-35 -59 -93 -95t-138 -36q-74 0 -129 31.5t-92 82.5t-54.5 118t-17.5 134zM113 348q0 -49 12 -100t38.5 -94 t69.5 -71t103 -28q53 0 94 22.5t69.5 58.5t45 81t20.5 92v80q-6 45 -22.5 90t-44 81t-68.5 58.5t-94 22.5q-59 0 -102.5 -27.5t-70 -70.5t-38.5 -95.5t-12 -99.5zM135 797l172 178h56l174 -178h-86l-117 108l-109 -108h-90z" />
<glyph unicode="&#xe4;" horiz-adv-x="731" d="M43 348q0 68 17.5 134.5t54.5 117.5t92 83t129 32q80 0 136 -36t91 -93v129h78v-551q0 -68 10.5 -98.5t20.5 -53.5l-68 -26q-6 12 -21.5 39.5t-15.5 87.5q-35 -59 -93 -95t-138 -36q-74 0 -129 31.5t-92 82.5t-54.5 118t-17.5 134zM113 348q0 -49 12 -100t38.5 -94 t69.5 -71t103 -28q53 0 94 22.5t69.5 58.5t45 81t20.5 92v80q-6 45 -22.5 90t-44 81t-68.5 58.5t-94 22.5q-59 0 -102.5 -27.5t-70 -70.5t-38.5 -95.5t-12 -99.5zM135 887q0 29 17.5 47t46.5 18t47 -18.5t18 -46.5q0 -29 -18.5 -46.5t-46.5 -17.5q-29 0 -46.5 17.5 t-17.5 46.5zM389 887q0 29 17.5 47t45.5 18q29 0 47.5 -18.5t18.5 -46.5q0 -29 -18.5 -46.5t-47.5 -17.5t-46 17.5t-17 46.5z" />
<glyph unicode="&#xe5;" horiz-adv-x="731" d="M43 348q0 68 17.5 134.5t54.5 117.5t92 83t129 32q80 0 136 -36t91 -93v129h78v-551q0 -68 10.5 -98.5t20.5 -53.5l-68 -26q-6 12 -21.5 39.5t-15.5 87.5q-35 -59 -93 -95t-138 -36q-74 0 -129 31.5t-92 82.5t-54.5 118t-17.5 134zM113 348q0 -49 12 -100t38.5 -94 t69.5 -71t103 -28q53 0 94 22.5t69.5 58.5t45 81t20.5 92v80q-6 45 -22.5 90t-44 81t-68.5 58.5t-94 22.5q-59 0 -102.5 -27.5t-70 -70.5t-38.5 -95.5t-12 -99.5zM196 928q0 57 39 97t97 40q57 0 97 -40t40 -97t-40 -96.5t-97 -39.5t-96.5 39.5t-39.5 96.5zM260 928 q0 -33 20.5 -53.5t53.5 -20.5t53 20.5t20 53.5t-20.5 53t-52.5 20q-33 0 -53.5 -20t-20.5 -53z" />
<glyph unicode="&#xe6;" horiz-adv-x="1290" d="M59 350q0 70 18.5 136.5t55.5 119.5t93.5 86t131.5 33q84 0 142.5 -35t95.5 -94v131h80v-106q39 53 98.5 86.5t145.5 33.5q104 0 165.5 -45t93 -105.5t41 -119.5t9.5 -90q0 -33 -15 -43q-8 -8 -45 -8h-483q0 -96 41 -156.5t109 -89.5q47 -18 89 -19.5t75.5 8t57 24 t36.5 22.5l49 -66q-25 -16 -67 -32.5t-91 -25.5t-101.5 -5t-97.5 26q-68 33 -110 90v-6l6 -104h-84l-2 110q-35 -59 -94.5 -96t-143.5 -37q-76 0 -132 33t-93 86t-55.5 121t-18.5 137zM129 350q0 -51 13.5 -104t41 -97.5t71.5 -72t103 -27.5q57 0 99.5 23.5t72 60.5t46 83 t20.5 93v82q-4 45 -21.5 91t-46 83t-71.5 60.5t-99 23.5q-59 0 -103 -28.5t-71.5 -71.5t-41 -96.5t-13.5 -102.5zM682 408h467q2 39 -10.5 86t-41 85.5t-73.5 65.5t-109 27q-66 0 -109.5 -28t-71 -68.5t-40 -87t-12.5 -80.5z" />
<glyph unicode="&#xe7;" horiz-adv-x="620" d="M57 350q0 88 20.5 150.5t51.5 103.5t65.5 63.5t63.5 32.5q74 29 154 13.5t137 -68.5l-33 -74q-18 25 -46 41.5t-59.5 23.5t-64.5 6t-59 -11q-74 -29 -115 -102.5t-41 -178.5q0 -104 41 -178t115 -102q25 -10 56.5 -13.5t64 1.5t62.5 19.5t50 41.5l47 -58l-4 -4 q-53 -53 -137 -70.5t-168 13.5q-29 10 -63.5 32.5t-65.5 63.5t-51.5 102.5t-20.5 151.5zM238 -266l26 59q23 -12 44.5 -16t39.5 -4q29 0 53.5 9t24.5 36q0 35 -39 47t-92 16l76 127h77l-57 -80q41 -8 75 -32.5t34 -65.5q0 -66 -49.5 -93.5t-112.5 -27.5q-20 0 -51 6t-49 19z " />
<glyph unicode="&#xea;" horiz-adv-x="737" d="M51 344q0 59 18.5 125t56.5 120t98.5 89t146.5 35q100 0 159.5 -44t90 -102.5t40 -118t9.5 -88.5q0 -33 -13 -41q-8 -8 -45 -8h-473q0 -92 46 -155.5t106 -87.5q45 -18 86 -17.5t72.5 11t55 23.5t34.5 21l47 -61q-25 -16 -65 -32.5t-88 -24.5t-98 -5t-95 25 q-78 39 -133.5 122t-55.5 214zM137 389h455q2 37 -10.5 82t-40 84t-70.5 64.5t-104 25.5q-63 0 -106.5 -27.5t-71 -67.5t-40 -84t-12.5 -77zM166 793l172 178h56l174 -178h-86l-117 108l-109 -108h-90z" />
<glyph unicode="&#xeb;" horiz-adv-x="745" d="M51 344q0 59 18.5 125t56.5 120t98.5 89t146.5 35q100 0 159.5 -44t90 -102.5t40 -118t9.5 -88.5q0 -33 -13 -41q-8 -8 -45 -8h-473q0 -92 46 -155.5t106 -87.5q45 -18 86 -17.5t72.5 11t55 23.5t34.5 21l47 -61q-25 -16 -65 -32.5t-88 -24.5t-98 -5t-95 25 q-78 39 -133.5 122t-55.5 214zM137 389h455q2 37 -10.5 82t-40 84t-70.5 64.5t-104 25.5q-63 0 -106.5 -27.5t-71 -67.5t-40 -84t-12.5 -77zM182 887q0 29 17.5 47t46.5 18t47 -18.5t18 -46.5q0 -29 -18.5 -46.5t-46.5 -17.5q-29 0 -46.5 17.5t-17.5 46.5zM436 887 q0 29 17.5 47t45.5 18q29 0 47.5 -18.5t18.5 -46.5q0 -29 -18.5 -46.5t-47.5 -17.5t-46 17.5t-17 46.5z" />
<glyph unicode="&#xee;" horiz-adv-x="331" d="M-33 795l172 178h56l174 -178h-86l-117 108l-109 -108h-90zM125 0v711h80v-711h-80z" />
<glyph unicode="&#xef;" horiz-adv-x="331" d="M-23 887q0 29 17.5 47t46.5 18t47 -18.5t18 -46.5q0 -29 -18.5 -46.5t-46.5 -17.5q-29 0 -46.5 17.5t-17.5 46.5zM125 0v711h80v-711h-80zM231 887q0 29 17.5 47t45.5 18q29 0 47.5 -18.5t18.5 -46.5q0 -29 -18.5 -46.5t-47.5 -17.5t-46 17.5t-17 46.5z" />
<glyph unicode="&#xf0;" horiz-adv-x="851" d="M63 344q0 88 31 158.5t82 121t114.5 77t131.5 26.5q59 0 115.5 -16.5t115.5 -67.5q-41 66 -94 124t-125 114q-59 -27 -116.5 -54.5t-116.5 -54.5l-25 59l195 93q-35 23 -81 44t-93 38l32 67q57 -25 111.5 -52.5t103.5 -62.5q47 23 97.5 47.5t97.5 47.5l29 -64l-164 -74 q70 -53 122 -117.5t93 -138.5q29 -66 46 -135t17 -151q0 -102 -32.5 -177t-85 -122t-118 -69.5t-130.5 -22.5q-78 0 -143.5 27.5t-111.5 76.5t-72 114.5t-26 143.5zM139 346q0 -72 23.5 -127t62.5 -93t88 -57.5t101 -19.5q59 0 111.5 20.5t91 59.5t61 97t22.5 136t-18 129.5 t-51 86.5q-35 29 -86 55t-123 26q-74 0 -127 -28.5t-88 -73.5t-51.5 -100.5t-16.5 -110.5z" />
<glyph unicode="&#xf1;" horiz-adv-x="722" d="M63 690l70 27l20.5 -41t14.5 -88q31 63 88 96t119 33q76 0 122 -30t71.5 -72t34.5 -86t9 -74v-334q0 -41 11.5 -77t15.5 -38l-68 -26q-6 12 -19 46.5t-13 94.5v336q0 90 -50.5 137t-128.5 47q-45 0 -80.5 -19.5t-60 -51t-37 -73.5t-12.5 -87v-410h-76v547q0 33 -3 56.5 t-8 38.5t-10 26.5t-10 21.5zM172 796q0 53 21.5 93.5t68.5 40.5q25 0 46.5 -9.5t42 -21.5t41 -21.5t42.5 -9.5q12 0 25.5 15.5t13.5 50.5h55q0 -55 -26.5 -92t-75.5 -37q-20 0 -42.5 9t-45.5 20.5t-42 20.5t-32 9q-18 0 -26.5 -19.5t-10.5 -48.5h-55z" />
<glyph unicode="&#xf4;" horiz-adv-x="694" d="M43 348q0 68 18.5 133.5t54.5 116.5t91 83t129 32t129 -32t92 -83t55.5 -116.5t18.5 -133.5t-18.5 -133t-55.5 -116.5t-92 -83t-129 -31.5t-129 31.5t-91 83t-54.5 117t-18.5 132.5zM115 348q0 -51 13 -104.5t41 -96.5t70 -70.5t97 -27.5t97 27.5t69.5 70.5t41 96.5 t13.5 104.5q0 49 -13.5 102.5t-41 97.5t-69.5 71.5t-97 27.5t-97 -27.5t-70 -70.5t-41 -96.5t-13 -104.5zM147 795l172 178h56l174 -178h-86l-117 108l-109 -108h-90z" />
<glyph unicode="&#xf6;" horiz-adv-x="694" d="M43 348q0 68 18.5 133.5t54.5 116.5t91 83t129 32t129 -32t92 -83t55.5 -116.5t18.5 -133.5t-18.5 -133t-55.5 -116.5t-92 -83t-129 -31.5t-129 31.5t-91 83t-54.5 117t-18.5 132.5zM115 348q0 -51 13 -104.5t41 -96.5t70 -70.5t97 -27.5t97 27.5t69.5 70.5t41 96.5 t13.5 104.5q0 49 -13.5 102.5t-41 97.5t-69.5 71.5t-97 27.5t-97 -27.5t-70 -70.5t-41 -96.5t-13 -104.5zM156 887q0 29 17.5 47t46.5 18t47 -18.5t18 -46.5q0 -29 -18.5 -46.5t-46.5 -17.5q-29 0 -46.5 17.5t-17.5 46.5zM410 887q0 29 17.5 47t45.5 18q29 0 47.5 -18.5 t18.5 -46.5q0 -29 -18.5 -46.5t-47.5 -17.5t-46 17.5t-17 46.5z" />
<glyph unicode="&#xf7;" horiz-adv-x="946" d="M131 295v80h672v-80h-672zM408 115q0 27 19 46t46 19t45.5 -19t18.5 -46t-18.5 -45.5t-45.5 -18.5t-46 18.5t-19 45.5zM408 551q0 27 19 45t46 18t45.5 -18t18.5 -45t-18.5 -46.5t-45.5 -19.5t-46 19.5t-19 46.5z" />
<glyph unicode="&#xf8;" horiz-adv-x="718" d="M80 360q0 66 16.5 130.5t51 114.5t88 81t126.5 31q43 0 80 -11.5t66 -31.5l57 100q6 10 13.5 6t17.5 -8q10 -6 17.5 -11t2.5 -16l-63 -112q47 -51 69.5 -124t22.5 -149q0 -68 -17.5 -131t-52 -114.5t-88 -82t-125.5 -30.5q-78 0 -137 37l-59 -107q-4 -10 -13.5 -7 t-19.5 9t-16 11.5t0 15.5l61 115q-51 53 -74.5 128t-23.5 156zM158 360q0 -53 14 -110t47 -100l252 454q-45 39 -109 39q-55 0 -94 -26.5t-63.5 -67.5t-35.5 -91.5t-11 -97.5zM262 109q43 -33 100 -33q55 0 94.5 26.5t64 68.5t35.5 92t11 97q0 49 -13 102.5t-42 96.5z" />
<glyph unicode="&#xfb;" horiz-adv-x="737" d="M90 244v469h74v-471q0 -90 54 -141.5t132 -51.5q45 0 82 20.5t62.5 54.5t40 77t14.5 88v424h76v-559q0 -68 10 -98.5t20 -53.5l-67 -27q-6 12 -21.5 40t-15.5 87q-31 -63 -92.5 -91.5t-122.5 -28.5q-76 0 -123 29.5t-74.5 71.5t-38 86t-10.5 75zM166 793l172 178h56 l174 -178h-86l-117 108l-109 -108h-90z" />
<glyph unicode="&#xfc;" horiz-adv-x="737" d="M90 244v469h74v-471q0 -90 54 -141.5t132 -51.5q45 0 82 20.5t62.5 54.5t40 77t14.5 88v424h76v-559q0 -68 10 -98.5t20 -53.5l-67 -27q-6 12 -21.5 40t-15.5 87q-31 -63 -92.5 -91.5t-122.5 -28.5q-76 0 -123 29.5t-74.5 71.5t-38 86t-10.5 75zM164 887q0 29 17.5 47 t46.5 18t47 -18.5t18 -46.5q0 -29 -18.5 -46.5t-46.5 -17.5q-29 0 -46.5 17.5t-17.5 46.5zM418 887q0 29 17.5 47t45.5 18q29 0 47.5 -18.5t18.5 -46.5q0 -29 -18.5 -46.5t-47.5 -17.5t-46 17.5t-17 46.5z" />
<glyph unicode="&#xfe;" horiz-adv-x="927" d="M113 -291v1276h69v-418q47 72 122 116t167 44q74 0 139.5 -28.5t113.5 -80t75.5 -119t27.5 -145.5t-27.5 -145.5t-75.5 -118.5t-113.5 -79.5t-139.5 -28.5q-92 0 -167 43t-122 114v-430h-69zM184 354q0 -63 22.5 -119.5t61.5 -97.5t91.5 -65.5t111.5 -24.5t111.5 24.5 t91.5 65.5t61.5 97.5t22.5 119.5t-22.5 119.5t-61.5 97.5t-91.5 66t-111.5 25t-111.5 -25t-91.5 -66t-61.5 -97.5t-22.5 -119.5z" />
<glyph unicode="&#xff;" horiz-adv-x="708" d="M43 700l74 33l250 -622l231 622l68 -33l-14 -36q-13 -37 -35.5 -96.5t-51 -134.5t-59.5 -153.5t-59.5 -154.5t-51 -135.5t-37 -95t-16.5 -37.5q-16 -37 -35.5 -65t-48.5 -50q-47 -33 -85 -45t-48 -19l-23 66q55 23 88 40t55.5 45t39 72t39.5 119zM149 887q0 29 17.5 47 t46.5 18t47 -18.5t18 -46.5q0 -29 -18.5 -46.5t-46.5 -17.5q-29 0 -46.5 17.5t-17.5 46.5zM403 887q0 29 17.5 47t45.5 18q29 0 47.5 -18.5t18.5 -46.5q0 -29 -18.5 -46.5t-47.5 -17.5t-46 17.5t-17 46.5z" />
<glyph unicode="&#x102;" horiz-adv-x="921" d="M53 0q100 264 181 473l180 475q12 29 29.5 40t23.5 13q16 2 33.5 -13t21.5 -23q4 -6 -1 -14.5t-9 -12.5l354 -938l-80 -16l-102 284h-446l-107 -284zM240 1291h74q0 -70 39 -112t106 -42q68 0 107 42t39 112h73q0 -45 -17 -85t-46 -71t-69 -48t-87 -17q-45 0 -86 17 t-69.5 48t-46 71t-17.5 85zM264 336h393l-198 516z" />
<glyph unicode="&#x103;" horiz-adv-x="731" d="M43 348q0 68 17.5 134.5t54.5 117.5t92 83t129 32q80 0 136 -36t91 -93v129h78v-551q0 -68 10.5 -98.5t20.5 -53.5l-68 -26q-6 12 -21.5 39.5t-15.5 87.5q-35 -59 -93 -95t-138 -36q-74 0 -129 31.5t-92 82.5t-54.5 118t-17.5 134zM113 348q0 -49 12 -100t38.5 -94 t69.5 -71t103 -28q53 0 94 22.5t69.5 58.5t45 81t20.5 92v80q-6 45 -22.5 90t-44 81t-68.5 58.5t-94 22.5q-59 0 -102.5 -27.5t-70 -70.5t-38.5 -95.5t-12 -99.5zM121 1012h74q0 -70 39 -112t106 -42q68 0 107 42t39 112h73q0 -45 -17 -85t-46 -71t-69 -48t-87 -17 q-45 0 -86 17t-69.5 48t-46 71t-17.5 85z" />
<glyph unicode="&#x106;" horiz-adv-x="821" d="M74 479q0 123 28.5 207t70.5 139.5t89 86t86 44.5q100 37 205.5 17.5t181.5 -86.5l-37 -80q-29 31 -66.5 51.5t-80.5 29.5t-88 7t-86 -18q-102 -39 -159.5 -144.5t-57.5 -253.5q0 -147 57 -251.5t160 -143.5q37 -14 82 -18.5t89 2t85 26t72 53.5l55 -67 q-84 -78 -196.5 -97.5t-215.5 21.5q-39 14 -86 45t-89 86t-70.5 139t-28.5 205zM344 1070l137 213h121l-195 -213h-63z" />
<glyph unicode="&#x107;" horiz-adv-x="616" d="M57 350q0 88 20.5 150.5t51.5 103.5t65.5 63.5t63.5 32.5q74 29 154 13.5t137 -68.5l-33 -74q-18 25 -46 41.5t-59.5 23.5t-64.5 6t-59 -11q-74 -29 -115 -102.5t-41 -178.5q0 -104 41 -178t115 -102q25 -10 56.5 -13.5t64 1.5t62.5 19.5t50 41.5l47 -58l-4 -4 q-53 -53 -137 -70.5t-168 13.5q-29 10 -63.5 32.5t-65.5 63.5t-51.5 102.5t-20.5 151.5zM205 791l137 213h121l-195 -213h-63z" />
<glyph unicode="&#x10c;" horiz-adv-x="821" d="M74 479q0 123 28.5 207t70.5 139.5t89 86t86 44.5q100 37 205.5 17.5t181.5 -86.5l-37 -80q-29 31 -66.5 51.5t-80.5 29.5t-88 7t-86 -18q-102 -39 -159.5 -144.5t-57.5 -253.5q0 -147 57 -251.5t160 -143.5q37 -14 82 -18.5t89 2t85 26t72 53.5l55 -67 q-84 -78 -196.5 -97.5t-215.5 21.5q-39 14 -86 45t-89 86t-70.5 139t-28.5 205zM274 1247h82l109 -117l117 117h86l-175 -178h-53z" />
<glyph unicode="&#x10d;" horiz-adv-x="616" d="M57 350q0 88 20.5 150.5t51.5 103.5t65.5 63.5t63.5 32.5q74 29 154 13.5t137 -68.5l-33 -74q-18 25 -46 41.5t-59.5 23.5t-64.5 6t-59 -11q-74 -29 -115 -102.5t-41 -178.5q0 -104 41 -178t115 -102q25 -10 56.5 -13.5t64 1.5t62.5 19.5t50 41.5l47 -58l-4 -4 q-53 -53 -137 -70.5t-168 13.5q-29 10 -63.5 32.5t-65.5 63.5t-51.5 102.5t-20.5 151.5zM147 971h82l109 -117l117 117h86l-175 -178h-53z" />
<glyph unicode="&#x110;" horiz-adv-x="931" d="M47 430v78h123v381q0 35 20.5 57.5t53.5 22.5h162q217 0 334.5 -121t117.5 -363q0 -244 -117.5 -364.5t-334.5 -120.5h-156q-47 0 -63.5 22.5t-16.5 59.5v348h-123zM250 80h176q184 0 265 110.5t81 294.5q0 213 -106.5 308.5t-292.5 95.5h-123v-381h199v-76h-199v-352z " />
<glyph unicode="&#x111;" horiz-adv-x="776" d="M72 348q0 68 17 133.5t54 116.5t92.5 83t129.5 32q80 0 137 -35t92 -92v272h-164v62h164v118h76v-118h106v-62h-106v-752l8 -102h-82l-2 107q-35 -55 -92.5 -92t-136.5 -37q-74 0 -129.5 31.5t-92.5 82.5t-54 118t-17 134zM141 348q0 -49 12.5 -101t39 -94t69.5 -70 t103 -28q53 0 94 22.5t69.5 58.5t45 81t20.5 92v80q-6 45 -22.5 89t-44 80t-68.5 58.5t-94 22.5q-59 0 -102.5 -27.5t-70 -70.5t-39 -94.5t-12.5 -98.5z" />
<glyph unicode="&#x11e;" horiz-adv-x="862" d="M78 481q0 94 22.5 184.5t67.5 161t114.5 114.5t166.5 44q49 0 97 -13.5t88 -39t70.5 -65.5t43.5 -91l-84 -31q-18 82 -80 121t-135 39q-80 0 -134.5 -38t-89.5 -98t-50 -136t-15 -152q0 -94 18.5 -173t58 -135t102 -88t153.5 -32q47 0 96 13.5t96 29.5v314h-223v79h252 q14 18 30 19q20 0 32.5 -16.5t17.5 -26.5q2 -10 -2.5 -15.5t-10.5 -11.5t-12 -16t-6 -29v-360q-78 -35 -152.5 -47.5t-160.5 -12.5q-90 0 -159 37t-116 104.5t-71.5 161t-24.5 205.5zM240 1291h74q0 -70 39 -112t106 -42q68 0 107 42t39 112h73q0 -45 -17 -85t-46 -71 t-69 -48t-87 -17q-45 0 -86 17t-69.5 48t-46 71t-17.5 85z" />
<glyph unicode="&#x11f;" horiz-adv-x="745" d="M51 346q0 68 17.5 134.5t54.5 118.5t92 84t129 32q80 0 137 -36t92 -95q0 59 16.5 88.5t22.5 42.5l68 -27q-10 -23 -20.5 -53.5t-10.5 -97.5l2 -525q0 -115 -46 -182.5t-111.5 -100t-139 -37.5t-129.5 7q10 27 15.5 39t7.5 18t3 8.5t1 6.5q61 -12 119.5 -3t103.5 39.5 t71.5 86t26.5 137.5v73q-37 -57 -94 -92t-135 -35q-74 0 -129 32t-92 84t-54.5 117.5t-17.5 135.5zM119 346q0 -49 12 -101t40 -95.5t71 -71t102 -27.5q53 0 94 22.5t69 58.5t44 81t22 90v82q-4 45 -20 91t-45 83t-70 59.5t-94 22.5q-59 0 -102 -27.5t-71 -70.5t-40 -95.5 t-12 -101.5zM137 1012h74q0 -70 39 -112t106 -42q68 0 107 42t39 112h73q0 -45 -17 -85t-46 -71t-69 -48t-87 -17q-45 0 -86 17t-69.5 48t-46 71t-17.5 85z" />
<glyph unicode="&#x130;" horiz-adv-x="331" d="M92 1180q0 35 22.5 56t51.5 21q35 0 57.5 -21.5t22.5 -55.5q0 -31 -22.5 -52.5t-57.5 -21.5q-29 0 -51.5 21.5t-22.5 52.5zM125 0v995h82v-995h-82z" />
<glyph unicode="&#x131;" horiz-adv-x="331" d="M125 0v711h80v-711h-80z" />
<glyph unicode="&#x141;" horiz-adv-x="651" d="M-10 338v78l135 90v465h80v-412l213 141v-77l-213 -142v-409h420v-72h-451q-8 -10 -18.5 -17.5t-16.5 -7.5q-20 0 -32.5 16.5t-16.5 26.5q-2 8 3 15.5t12.5 14.5t13.5 18.5t6 29.5v332z" />
<glyph unicode="&#x142;" horiz-adv-x="331" d="M20 391v78l105 84v463l37 39h37v-439q25 20 53.5 42t50.5 42v-77l-104 -88v-535h-74v479q-25 -20 -52.5 -43.5t-52.5 -44.5z" />
<glyph unicode="&#x152;" horiz-adv-x="1312" d="M61 479q0 113 26 207t75 159.5t122 102.5t167 37q104 0 183 -46t128 -130v82q-2 16 -18.5 30.5t-12.5 32.5q4 10 16.5 22.5t32.5 12.5q12 0 31 -18h457v-80h-424v-348h379v-80h-379v-383h422v-80h-504v147q-49 -84 -128 -129t-183 -45q-94 0 -167 37t-122 102.5t-75 159 t-26 207.5zM141 479q0 -80 17.5 -157.5t54.5 -138t95.5 -97.5t142.5 -37q82 0 140 37t95 97.5t54.5 138t17.5 157.5t-17.5 157t-54.5 138.5t-95.5 98t-139.5 36.5q-84 0 -142.5 -36.5t-95.5 -98t-54.5 -138.5t-17.5 -157z" />
<glyph unicode="&#x153;" horiz-adv-x="1228" d="M68 356q0 68 17 131.5t52 114.5t88.5 82t126.5 31q92 0 152.5 -49.5t93.5 -124.5q35 72 100.5 122t167.5 50q98 0 156.5 -43t89.5 -100.5t40 -115t9 -85.5q0 -33 -12 -40t-45 -10h-459q0 -92 39 -149t104 -84q45 -18 84 -18t72 9t55.5 21.5t32.5 20.5l45 -60 q-23 -16 -62.5 -31.5t-85.5 -23.5t-96.5 -6t-93.5 25t-79.5 57.5t-63.5 85.5q-33 -72 -92.5 -120t-151.5 -48q-74 0 -127 30.5t-88 82t-52 115t-17 130.5zM147 356q0 -47 11.5 -96t36 -91t63.5 -68.5t94 -26.5q51 0 90 26.5t64.5 66.5t38 89t12.5 96t-11 98.5t-36 93.5 t-63.5 69.5t-94.5 27.5q-55 0 -94 -26.5t-63.5 -68.5t-36 -92.5t-11.5 -97.5zM639 395h444q2 37 -9 81t-37.5 82t-68.5 63.5t-104 25.5q-61 0 -104 -26.5t-69.5 -65.5t-39 -83t-12.5 -77z" />
<glyph unicode="&#x15e;" horiz-adv-x="794" d="M59 102l66 64q18 -18 43 -39t56.5 -38t72.5 -28.5t94 -11.5t99.5 13.5t80 37t53 54t19.5 67.5q0 39 -14.5 68.5t-46 55.5t-85 49.5t-130.5 51.5q-135 47 -206 122t-77 161q-4 49 13.5 97t56.5 85t96 59.5t133 22.5q72 0 151.5 -23.5t129.5 -60.5l-41 -69q-39 29 -99.5 51 t-142.5 22q-96 0 -153.5 -49t-57.5 -121q0 -74 67.5 -130t186.5 -97q63 -23 118.5 -47.5t96.5 -56t63.5 -72.5t22.5 -98q0 -117 -85 -192t-259 -77q-59 0 -108.5 12.5t-89.5 32t-70.5 43t-53.5 41.5zM244 -266l26 59q23 -12 44.5 -16t39.5 -4q29 0 53.5 9t24.5 36 q0 35 -39 47t-92 16l76 127h77l-57 -80q41 -8 75 -32.5t34 -65.5q0 -66 -49.5 -93.5t-112.5 -27.5q-20 0 -51 6t-49 19z" />
<glyph unicode="&#x15f;" horiz-adv-x="581" d="M27 76l53 55q29 -27 80 -55.5t129 -26.5q80 2 129 34t49 85q0 29 -9 49.5t-32 37.5t-61.5 33.5t-96.5 37.5q-102 37 -157.5 86t-55.5 114q0 37 15.5 73t44 63.5t72.5 45t102 17.5q27 0 56.5 -6t59 -15.5t54 -20.5t41.5 -21l-33 -68q-16 12 -67.5 35.5t-112.5 23.5 q-72 0 -112 -33.5t-40 -82.5q0 -55 48 -85t134 -63q49 -18 91.5 -36.5t72 -42t47 -54.5t17.5 -74q0 -88 -63.5 -143t-194.5 -57q-53 0 -94 9t-72 22.5t-54.5 30.5t-39.5 32zM172 -266l26 59q23 -12 44.5 -16t39.5 -4q29 0 53.5 9t24.5 36q0 35 -39 47t-92 16l76 127h77 l-57 -80q41 -8 75 -32.5t34 -65.5q0 -66 -49.5 -93.5t-112.5 -27.5q-20 0 -51 6t-49 19z" />
<glyph unicode="&#x160;" horiz-adv-x="798" d="M59 102l66 64q18 -18 43 -39t56.5 -38t72.5 -28.5t94 -11.5t99.5 13.5t80 37t53 54t19.5 67.5q0 39 -14.5 68.5t-46 55.5t-85 49.5t-130.5 51.5q-135 47 -206 122t-77 161q-4 49 13.5 97t56.5 85t96 59.5t133 22.5q72 0 151.5 -23.5t129.5 -60.5l-41 -69q-39 29 -99.5 51 t-142.5 22q-96 0 -153.5 -49t-57.5 -121q0 -74 67.5 -130t186.5 -97q63 -23 118.5 -47.5t96.5 -56t63.5 -72.5t22.5 -98q0 -117 -85 -192t-259 -77q-59 0 -108.5 12.5t-89.5 32t-70.5 43t-53.5 41.5zM200 1247h82l109 -117l117 117h86l-175 -178h-53z" />
<glyph unicode="&#x161;" horiz-adv-x="581" d="M27 76l53 55q29 -27 80 -55.5t129 -26.5q80 2 129 34t49 85q0 29 -9 49.5t-32 37.5t-61.5 33.5t-96.5 37.5q-102 37 -157.5 86t-55.5 114q0 37 15.5 73t44 63.5t72.5 45t102 17.5q27 0 56.5 -6t59 -15.5t54 -20.5t41.5 -21l-33 -68q-16 12 -67.5 35.5t-112.5 23.5 q-72 0 -112 -33.5t-40 -82.5q0 -55 48 -85t134 -63q49 -18 91.5 -36.5t72 -42t47 -54.5t17.5 -74q0 -88 -63.5 -143t-194.5 -57q-53 0 -94 9t-72 22.5t-54.5 30.5t-39.5 32zM100 971h82l109 -117l117 117h86l-175 -178h-53z" />
<glyph unicode="&#x178;" horiz-adv-x="722" d="M14 973l66 26l282 -512l287 510l66 -26q-66 -113 -125 -217q-25 -45 -51.5 -92.5t-52 -92.5t-48 -86t-39.5 -71v-412h-71v412v2zM172 1166q0 29 17.5 47t46.5 18t47 -18.5t18 -46.5q0 -29 -18.5 -46.5t-46.5 -17.5q-29 0 -46.5 17.5t-17.5 46.5zM426 1166q0 29 17.5 47 t45.5 18q29 0 47.5 -18.5t18.5 -46.5q0 -29 -18.5 -46.5t-47.5 -17.5t-46 17.5t-17 46.5z" />
<glyph unicode="&#x17d;" horiz-adv-x="784" d="M40 38.5q5 6.5 21 18.5q10 8 16.5 15.5t12.5 15.5l528 803h-555v80h609l8 8q10 10 16 14q4 4 18.5 2t30.5 -18q18 -23 15.5 -33t-17.5 -24l-26 -37l-531 -803h553v-80h-610q-10 0 -17.5 -7t-17.5 -11q-8 -4 -21.5 2t-29.5 34q-8 14 -3 20.5zM206 1247h82l109 -117 l117 117h86l-175 -178h-53z" />
<glyph unicode="&#x17e;" horiz-adv-x="643" d="M39 36q0 13 6 24.5t18 11.5l416 567h-413v74h507q12 0 18.5 -11.5t6.5 -25.5t-6 -25.5t-19 -11.5l-417 -567h436v-72h-529q-12 0 -18 11.5t-6 24.5zM131 971h82l109 -117l117 117h86l-175 -178h-53z" />
<glyph unicode="&#x192;" horiz-adv-x="690" d="M10 -115l23 58q78 -12 125 22.5t61 124.5l62 440h-152l12 50h148q0 8 4 37.5t8 63.5t8 63.5t6 39.5q39 190 203 191q37 0 67.5 -16.5t41.5 -24.5l-45 -45q-72 47 -124 13t-73 -120l-27 -202h148l-12 -50h-142q-4 -37 -11 -91t-15.5 -111.5t-15.5 -111.5t-13 -91 q-12 -86 -40 -137t-65.5 -78t-84 -31t-97.5 6z" />
<glyph unicode="&#x1a0;" horiz-adv-x="942" d="M82 487q0 113 25.5 207t74.5 160t122 102.5t167 36.5q82 0 148.5 -28.5t115.5 -81.5q29 25 54.5 58.5t35.5 84.5l84 -2q-6 -37 -20.5 -68.5t-32.5 -57.5t-39.5 -44t-40.5 -29q84 -131 84 -338q0 -115 -25.5 -208t-75.5 -158.5t-123 -102t-165 -36.5q-94 0 -167 36.5 t-122 102t-74.5 159t-25.5 207.5zM162 487q0 -80 17.5 -157.5t54 -138t95 -97.5t142.5 -37q82 0 140.5 37t95 97.5t54 138.5t17.5 157q0 80 -17.5 157t-54 138.5t-95 98.5t-140.5 37q-84 0 -142.5 -37t-95 -98.5t-54 -138.5t-17.5 -157z" />
<glyph unicode="&#x1a1;" horiz-adv-x="704" d="M53 348q0 68 18.5 133.5t54.5 116.5t91 83t129 32q59 0 122.5 -30t102.5 -93q31 23 46.5 56.5t25.5 84.5h86q-12 -47 -35.5 -102.5t-89.5 -98.5q12 -25 24.5 -73.5t12.5 -108.5q0 -68 -18.5 -133t-55.5 -116.5t-92 -83t-129 -31.5t-129 31.5t-91 83t-54.5 117 t-18.5 132.5zM125 348q0 -51 13.5 -104.5t41 -96.5t69.5 -70.5t97 -27.5t97 27.5t70 70.5t41 96.5t13 104.5q0 49 -13 102.5t-41 97.5t-70 71.5t-97 27.5t-97 -27.5t-69.5 -70.5t-41 -96.5t-13.5 -104.5z" />
<glyph unicode="&#x1af;" horiz-adv-x="933" d="M115 340v629h78v-627q0 -66 22.5 -119t61 -90t88 -56.5t104.5 -19.5q53 0 101 19.5t85 56.5t58.5 90t21.5 119v627h76v-129q41 16 68.5 55t27.5 111h74q0 -31 -8 -69t-27.5 -73t-52.5 -62.5t-82 -37.5v-424q0 -78 -23.5 -144.5t-68.5 -114.5t-107.5 -76t-142.5 -28 t-144.5 28t-111.5 76t-72.5 114.5t-25.5 144.5z" />
<glyph unicode="&#x1b0;" horiz-adv-x="735" d="M96 244v469h74v-471q0 -90 54.5 -141.5t131.5 -51.5q45 0 82 20.5t62.5 54.5t40 77t14.5 88v422h76v-129q41 16 68.5 55t27.5 111h74q0 -31 -10.5 -69t-31 -73t-52 -63.5t-76.5 -36.5v-354v2q0 -68 6 -98.5t16 -53.5l-67 -27q-6 12 -17.5 40t-11.5 87 q-31 -63 -92.5 -91.5t-122.5 -28.5q-76 0 -123 29.5t-74.5 71.5t-38 86t-10.5 75z" />
<glyph unicode="&#x2c6;" horiz-adv-x="598" d="M98 971l172 178h56l174 -178h-86l-117 108l-109 -108h-90z" />
<glyph unicode="&#x2c7;" horiz-adv-x="694" d="M143 1149h82l109 -117l117 117h86l-175 -178h-53z" />
<glyph unicode="&#x2d8;" horiz-adv-x="614" d="M88 1012h74q0 -70 39 -112t106 -42q68 0 107 42t39 112h73q0 -45 -17 -85t-46 -71t-69 -48t-87 -17q-45 0 -86 17t-69.5 48t-46 71t-17.5 85z" />
<glyph unicode="&#x2d9;" horiz-adv-x="323" d="M88 946q0 29 20.5 51.5t53.5 22.5t53.5 -22.5t20.5 -51.5q0 -31 -20.5 -52.5t-53.5 -21.5t-53.5 21.5t-20.5 52.5z" />
<glyph unicode="&#x2da;" horiz-adv-x="569" d="M147 963q0 57 39 97t97 40q57 0 97 -40t40 -97t-40 -96.5t-97 -39.5t-96.5 39.5t-39.5 96.5zM211 963q0 -33 20.5 -53.5t53.5 -20.5t53 20.5t20 53.5t-20.5 53t-52.5 20q-33 0 -53.5 -20t-20.5 -53z" />
<glyph unicode="&#x2db;" horiz-adv-x="397" d="M73 -170q0 -66 49.5 -93.5t112.5 -27.5q20 0 51 6t49 19l-26 59q-23 -12 -44.5 -16t-39.5 -4q-29 0 -53.5 9t-24.5 36q0 35 39 47t92 16l-76 127h-77l57 -80q-41 -8 -75 -32.5t-34 -65.5z" />
<glyph unicode="&#x2dc;" horiz-adv-x="454" d="M47 829q-2 53 23.5 93.5t70.5 40.5q23 0 46.5 -8.5t45 -18.5t42 -19.5t38.5 -11.5q12 -2 23.5 11.5t11.5 50.5h58q0 -55 -26 -92t-75 -37q-16 0 -38.5 9t-45 20.5t-43 20.5t-35.5 9q-18 0 -26 -19.5t-11 -48.5h-59z" />
<glyph unicode="&#x2dd;" horiz-adv-x="614" d="M86 791l137 213h121l-195 -213h-63zM293 791l137 213h121l-195 -213h-63z" />
<glyph unicode="&#x300;" horiz-adv-x="411" d="M68 1004h118l140 -213h-66z" />
<glyph unicode="&#x301;" horiz-adv-x="409" d="M72 791l137 213h121l-195 -213h-63z" />
<glyph unicode="&#x303;" horiz-adv-x="452" d="M47 829q0 53 21.5 93.5t68.5 40.5q25 0 46.5 -9.5t42 -21.5t41 -21.5t42.5 -9.5q12 0 25.5 15.5t13.5 50.5h55q0 -55 -26.5 -92t-75.5 -37q-20 0 -42.5 9t-45.5 20.5t-42 20.5t-32 9q-18 0 -26.5 -19.5t-10.5 -48.5h-55z" />
<glyph unicode="&#x309;" horiz-adv-x="729" d="M221 1219q10 25 43 53t101 28q53 0 90 -31.5t37 -94.5q0 -35 -15.5 -68t-36 -58.5t-40 -43t-27.5 -23.5q-2 0 -10.5 5t-18.5 11q-10 8 -25 19q37 29 70 66.5t33 84.5q0 45 -25.5 56.5t-44.5 11.5q-25 0 -42 -7t-28.5 -16.5t-13.5 -13.5l-6 -12l-20 16z" />
<glyph unicode="&#x323;" horiz-adv-x="323" d="M88 -162q0 29 20.5 51.5t53.5 22.5t53.5 -22.5t20.5 -51.5q0 -31 -20.5 -52.5t-53.5 -21.5t-53.5 21.5t-20.5 52.5z" />
<glyph unicode="&#xe00;" horiz-adv-x="874" />
<glyph unicode="&#xe01;" horiz-adv-x="872" d="M61 582q2 12 21.5 52t61.5 85t112 80t176 37q119 0 188.5 -42t106.5 -92q4 4 15.5 2t27.5 -18q18 -23 14 -33t-18 -24t-14 -43v-586h-80v598q0 27 10 43q-6 8 -23.5 29.5t-47 42t-73.5 37t-104 16.5q-70 0 -118 -17.5t-80.5 -42t-52 -51t-27.5 -45.5l80 -51 q12 16 38.5 35.5t49.5 23.5q2 0 16 -20t25 -35q-61 -29 -81 -70.5t-20 -72.5v-420h-80v422q0 25 7.5 46t11.5 30z" />
<glyph unicode="&#xe02;" horiz-adv-x="770" d="M39 633q0 74 61 139q27 27 65 42t79 19.5t82 -5t73 -31.5q35 -25 56.5 -64t23.5 -80q2 -43 -7 -76.5t-24.5 -58t-34 -44t-32.5 -36.5q-23 -23 -29 -37t-6 -32v-244q0 -35 -18 -47h241v741h80v-739q0 -29 -22 -51q-25 -29 -78 -29h-260q-10 0 -12.5 -3t-12.5 -7 q-16 -4 -25.5 -2t-25.5 30q-8 14 -3 21.5t21 17.5q23 14 29 30.5t6 27.5v254q0 43 22.5 71.5t45.5 51.5q29 29 51.5 62.5t20.5 94.5q-2 37 -18.5 61.5t-42.5 38t-54.5 15.5t-54.5 -6q35 -16 57 -50t22 -75q0 -59 -39.5 -99t-99.5 -40q-57 0 -97 39.5t-40 99.5zM109 633 q0 -29 19 -48.5t48 -19.5t49.5 19.5t20.5 48.5t-20.5 48t-49.5 19t-48 -19t-19 -48z" />
<glyph unicode="&#xe03;" horiz-adv-x="843" d="M45 601q-4 42 6 83q25 96 109 135q51 25 111.5 15.5t107.5 -68.5q33 31 54.5 45t33.5 20.5t20.5 4.5t14.5 -5q18 -12 34.5 -33.5t29 -45t20.5 -45t10 -31.5q6 -31 1 -52.5t-17.5 -38t-30 -29.5t-33.5 -28q-35 -29 -60.5 -58.5t-25.5 -76.5v-268q0 -35 -18 -47h237v741h78 v-739q0 -29 -22 -51q-25 -29 -78 -29h-254q-10 0 -12.5 -3t-12.5 -7q-16 -4 -25.5 -2t-25.5 30q-8 14 -3 21.5t21 17.5q23 14 29 31.5t6 28.5v276q0 37 12.5 65.5t31 50t39 39t38.5 32.5q35 29 44 47t3 41q-6 27 -20.5 56.5t-30.5 39.5q-10 -8 -25.5 -20.5t-33.5 -28.5 q14 -23 11 -34t-18 -17q-33 -16 -49 12q-29 59 -78 80.5t-90 5.5q-23 -8 -42 -32.5t-23 -53.5q16 12 37.5 21.5t44.5 9.5q55 0 94 -39t39 -95q0 -55 -39 -93t-94 -38q-47 0 -81 22.5t-52.5 58.5t-22.5 78zM133 573q0 -29 19.5 -47t48.5 -18t47 18.5t18 46.5q0 29 -18 47.5 t-47 18.5t-48.5 -18.5t-19.5 -47.5z" />
<glyph unicode="&#xe04;" horiz-adv-x="890" d="M119 532q6 139 93 221.5t237 82.5q59 0 106 -12.5t83 -31t63.5 -42t46.5 -48.5q4 4 15 2t28 -18q18 -23 14 -33t-19 -24q-14 -14 -14 -43v-586h-80v606q0 27 10 43q2 0 -11 17.5t-44 40t-79 41t-117 18.5q-111 0 -179.5 -61.5t-74.5 -178.5q-4 -59 1 -116.5t11 -104.5 t12 -82t6 -51q29 94 44.5 158.5t24.5 109.5t14 73t16 48q20 43 54 63.5t75 20.5q55 0 95 -40t40 -95t-40 -94t-95 -39t-95 39q-10 -39 -21 -87t-28.5 -102.5t-43 -109t-64.5 -105.5q-10 -14 -25.5 -14t-27.5 10q-16 14 -18.5 22.5t13.5 32.5q20 31 16.5 76t-14 103.5 t-21.5 131t-7 158.5zM389 510q0 -29 18.5 -47.5t47.5 -18.5t47 18.5t18 47.5t-18.5 47t-46.5 18q-29 0 -47.5 -18t-18.5 -47z" />
<glyph unicode="&#xe05;" horiz-adv-x="890" d="M113 561q4 104 49 167t143 97q35 10 78 -17.5t76 -64.5q33 37 68.5 64t68.5 18q59 -23 98 -57.5t58 -62.5q6 2 16 -1.5t23 -17.5q18 -23 14 -33t-19 -24q-14 -14 -14 -43v-586h-80v602q0 27 10 43q-12 25 -42.5 61.5t-81.5 53.5q-10 -4 -35 -25.5t-49 -50.5 q-2 -4 -6.5 -11t-10.5 -11q-14 -10 -25.5 -3t-21.5 19q-66 82 -106 86q-63 -16 -95 -60.5t-41.5 -102.5t-3.5 -125.5t17.5 -128t20.5 -107.5t5 -68q31 82 47.5 140.5t25.5 101.5t15.5 71.5t16.5 51.5q41 84 129 84q55 0 95 -40t40 -96q0 -55 -40 -95t-95 -40q-57 0 -94 41 q-10 -39 -22.5 -84t-31 -93t-45 -99.5t-65.5 -102.5q-10 -14 -25.5 -14t-27.5 10q-16 14 -17.5 23.5t12.5 31.5q20 33 17.5 85.5t-14 118t-24.5 140t-11 154.5zM393 485q0 -29 19.5 -47t48.5 -18t47 18t18 47t-18.5 47.5t-46.5 18.5q-29 0 -48.5 -18.5t-19.5 -47.5z" />
<glyph unicode="&#xe06;" horiz-adv-x="983" d="M59 600q-2 43 9 80q12 51 43.5 87t60.5 50q51 23 115.5 15.5t111.5 -64.5q33 29 53.5 44t33 20.5t20.5 3.5t14 -5q18 -8 33.5 -23t28 -33.5t19.5 -36t9 -27.5q6 -31 2 -53.5t-16 -40t-28.5 -32t-32.5 -28.5q-35 -27 -62 -54.5t-27 -72.5v-74q12 0 47 -5t83.5 -21.5 t103.5 -49t104 -87.5v626h80v-819h-80v70q-37 70 -89 112.5t-103 65t-92 31t-54 10.5v-174q0 -49 -21.5 -82t-62.5 -41q-41 -6 -75.5 7t-60 40t-38 63.5t-8.5 77.5q8 78 63.5 121t125.5 55v74q0 37 12 63.5t30.5 47t39 36t38.5 29.5q35 29 46.5 48.5t7.5 41.5 q-4 29 -21.5 49.5t-23.5 24.5q-10 -10 -31 -24.5t-39 -30.5q12 -25 8 -35t-16 -14q-16 -10 -29.5 -6t-19.5 16q-29 61 -73 80.5t-91 3.5q-16 -4 -39 -26.5t-27 -53.5q12 10 29.5 15t32.5 5q57 0 96 -36.5t39 -92.5q0 -57 -40 -95t-95 -38q-49 0 -80 23.5t-46.5 59.5 t-17.5 79zM137 571q0 -29 18.5 -48t47.5 -19t47 19.5t18 47.5q0 29 -18 47.5t-47 18.5t-47.5 -18.5t-18.5 -47.5zM250 172q-4 -39 19.5 -80t72.5 -37q16 2 20.5 11.5t4.5 31.5v189q-18 -4 -37 -11.5t-35 -19.5t-28.5 -32.5t-16.5 -51.5z" />
<glyph unicode="&#xe07;" horiz-adv-x="665" d="M8 453l49 53l34 -34l74 -74l94 -94t93 -94t74 -76t35 -36q4 4 6 10.5t4 10.5q2 6 2 12v444q-29 -14 -59 -14q-57 0 -96 40t-39 95t38.5 95t96.5 40q55 0 94 -38.5t39 -94.5v-540q0 -37 -4 -58.5t-12.5 -38t-20.5 -30t-27 -31.5q-14 -16 -23 -14t-32 14q-14 8 -13 15.5 t9 23.5l-193 192q-37 37 -73.5 74t-67.5 67.5t-52.5 52t-29.5 28.5zM348 696q0 -29 18.5 -47t47.5 -18q27 0 46 18.5t19 46.5q0 29 -19.5 47.5t-45.5 18.5q-29 0 -47.5 -18.5t-18.5 -47.5z" />
<glyph unicode="&#xe08;" horiz-adv-x="819" d="M51 428q-4 106 21.5 183t73 126t110.5 73t137 24q104 0 179 -41t122 -91q4 4 15.5 2t27.5 -22q16 -23 11 -33t-19 -24q-6 -4 -13 -12.5t-11 -24.5l-82 -504q-4 -25 -24.5 -47.5t-45.5 -42.5q-23 -14 -49 12q-10 8 -9 16.5t6 14.5t12 11t9 11l-78 318q-35 -29 -84 -29 q-55 0 -94 39t-39 96q0 55 39 94t94 39q53 0 89 -33.5t47 -84.5l71 -373l64 485q4 12 7 22.5t11 18.5q-12 14 -35.5 34t-56.5 37t-75 29.5t-89 12.5q-141 0 -210.5 -93t-63.5 -243h-68zM295 483q0 -29 18 -48t47 -19t48.5 19.5t19.5 47.5q0 27 -19.5 46.5t-48.5 19.5 t-47 -19.5t-18 -46.5z" />
<glyph unicode="&#xe09;" horiz-adv-x="872" d="M53 598q10 43 40 86t76 77t105.5 54.5t131.5 20.5q123 0 199.5 -43t115.5 -91q4 4 15.5 2t27.5 -18q18 -23 14 -33t-18 -24t-15 -43v-301q49 -23 67.5 -63t18.5 -75q0 -63 -44 -106t-107 -43q-59 0 -106.5 39t-47.5 110q0 25 17.5 60t50.5 51q-78 -8 -130 -52t-88 -92 t-57.5 -86t-35.5 -34q-14 0 -27.5 10t-17.5 21q-4 18 10 30.5t14 30.5l2 231q-18 -6 -41 -6q-55 0 -94 36t-39 91q0 57 39 94t94 37t94 -36.5t39 -94.5q0 -33 -12 -59q0 -8 -1 -31.5t-1 -53.5t-1 -60.5t-1 -53.5q31 41 71 70t85 46t89 22.5t83 -1.5v287q0 27 10 43 q-4 2 -20.5 20.5t-49.5 40t-83 39t-119 17.5q-45 0 -90.5 -12.5t-83 -35t-67.5 -58t-44 -80.5q-16 4 -31 8q-12 4 -22.5 7t-14.5 5zM158 438q0 -27 18.5 -46t46.5 -19q29 0 47.5 19.5t18.5 45.5q0 29 -18.5 48.5t-47.5 19.5t-47 -19.5t-18 -48.5zM600 147q0 -31 22.5 -55 t57.5 -24t57.5 23.5t22.5 55.5q0 33 -22.5 57.5t-57.5 24.5q-31 0 -55.5 -23.5t-24.5 -58.5z" />
<glyph unicode="&#xe0a;" horiz-adv-x="776" d="M25 612q0 55 31.5 103.5t84.5 77.5q45 20 95.5 24t95.5 -8t79.5 -42t49.5 -77q16 -61 -2.5 -115.5t-59.5 -107.5q-33 -43 -43 -64.5t-10 -52.5v-225q0 -35 -18 -47h250v430q-6 18 -23.5 31.5t-34.5 23.5q-20 10 -43 21q2 4 8.5 31.5t31 71.5t72.5 99.5t132 116.5 q12 -16 22 -29q8 -10 15.5 -20t9.5 -10q-88 -59 -139 -113.5t-72 -112.5q12 -2 25 -10q10 -6 23 -15t26 -24q20 -23 23 -54.5t3 -45.5v-389q0 -29 -22 -51q-25 -29 -78 -29h-268q-10 0 -12.5 -3t-12.5 -7q-16 -4 -25.5 -2t-25.5 30q-8 14 -3 21.5t21 17.5q23 14 29 30.5 t6 27.5v243q0 41 20.5 74t43.5 64q31 41 52 79.5t7 92.5q-10 33 -32.5 51t-53.5 25.5t-63.5 4t-59.5 -15.5q23 2 43.5 -7t35.5 -26.5t24.5 -41t9.5 -46.5q0 -57 -39 -96t-96 -39q-55 0 -93 38t-40 97zM92 612q0 -29 19.5 -48t46.5 -19q29 0 48 19t19 48q0 27 -19.5 46.5 t-47.5 19.5q-27 0 -46.5 -19.5t-19.5 -46.5z" />
<glyph unicode="&#xe0b;" horiz-adv-x="870" d="M34 589q-5 42 5 79q10 47 44 87t73 58q51 23 108.5 14.5t104.5 -67.5q33 31 53 45t32.5 19t20.5 3t14 -4q14 -6 30 -25.5t28 -44t20 -50t8 -44.5q0 -27 -5 -45t-17 -36.5t-30.5 -40t-45.5 -54.5q-16 -18 -26.5 -37.5t-10.5 -64.5v-256q0 -35 -18 -47h250v426 q-4 23 -20.5 37t-33.5 22q-20 8 -45 12q2 4 8.5 33t31 74t71.5 102.5t131 118.5q12 -16 23 -29q8 -10 15 -20t9 -10q-88 -59 -139 -113.5t-72 -112.5q12 -2 25 -10q10 -6 23.5 -15t25.5 -24q20 -23 23.5 -54.5t3.5 -45.5v-389q0 -29 -23 -51q-25 -29 -78 -29h-268 q-10 0 -12 -3t-13 -7q-16 -4 -25 -2t-26 30q-8 14 -3 21.5t22 17.5q23 14 28.5 30.5t5.5 27.5v270q0 39 13.5 70.5t50.5 74.5q35 41 61.5 73t24.5 48q-2 14 -8 31.5t-14.5 33t-15.5 26t-11 8.5q-10 -8 -24.5 -20.5t-33.5 -29.5q8 -16 2 -25t-24 -18q-29 -10 -43 25 q-31 47 -62.5 63.5t-62.5 11.5t-56.5 -28.5t-41.5 -56.5q35 25 71.5 24.5t67.5 -16.5t50.5 -47t19.5 -70q0 -57 -40 -96t-96 -39q-47 0 -79.5 23.5t-51 59.5t-23.5 78zM123 563q0 -29 18.5 -48t46.5 -19q29 0 47.5 19.5t18.5 47.5q0 27 -18.5 46.5t-47.5 19.5t-47 -19.5 t-18 -46.5z" />
<glyph unicode="&#xe0c;" horiz-adv-x="1257" d="M61 582q2 12 21.5 52t61.5 85t112 80t176 37q121 0 192.5 -42t108.5 -92q4 4 15.5 2t27.5 -18q18 -23 14 -33t-18 -24t-14 -43v-217q25 -2 60.5 -10.5t76.5 -27t84 -49t80 -79.5v616h80v-819h-80v63q-20 63 -61.5 106.5t-86.5 70t-87 40t-66 15.5v-178q0 -51 -24.5 -80 t-65.5 -37q-31 -4 -60.5 8t-53.5 38t-37 66t-7 89q4 41 21.5 69.5t42 49t52 31.5t52.5 16v231q0 27 10 43q-6 8 -24.5 29.5t-49 42t-75.5 37t-105 16.5q-70 0 -118 -17.5t-80.5 -42t-52 -51t-27.5 -45.5l80 -51q12 16 38.5 35.5t49.5 23.5q2 0 16 -20t25 -35 q-61 -29 -81 -70.5t-20 -72.5v-172q27 12 53 12q57 0 96.5 -40t39.5 -95t-39 -95t-97 -40q-55 0 -94 40t-39 95v297q0 25 7.5 46t11.5 30zM252 125q0 -29 19.5 -47.5t45.5 -18.5q29 0 48.5 18.5t19.5 47.5t-19.5 47t-48.5 18q-27 0 -46 -18t-19 -47zM582 178q-2 -12 1 -31.5 t12 -38t23.5 -32t34.5 -13.5q6 0 15.5 5.5t9.5 33.5v189q-31 -8 -61.5 -34t-34.5 -79z" />
<glyph unicode="&#xe0d;" horiz-adv-x="1259" d="M61 582q2 12 21.5 52t61.5 85t112 80t176 37q119 0 188.5 -42t106.5 -92q4 4 15.5 2t27.5 -18q18 -23 14 -33t-18 -24t-14 -43v-461q0 -35 -19 -47h328v741h80v-770q0 -55 -8.5 -112.5t-30 -108.5t-61.5 -91t-103 -59q-53 -16 -107.5 -15t-97.5 17.5t-70.5 49t-27.5 80.5 q0 53 36 90t89 37q43 0 73.5 -21.5t44 -54.5t5 -69t-40.5 -64q121 2 171 78.5t50 199.5h-369q-10 0 -12 -3t-12 -7q-16 -4 -25.5 -2t-26.5 31q-8 14 -2.5 21t21.5 17q23 14 29 31t6 27v477q0 27 10 43q-6 8 -23.5 29.5t-47 42t-73.5 37t-104 16.5q-70 0 -118 -17.5 t-80.5 -42t-52 -51t-27.5 -45.5l80 -51q12 16 38.5 35.5t49.5 23.5q2 0 16 -20t25 -35q-61 -29 -81 -70.5t-20 -72.5v-172q27 12 53 12q57 0 96.5 -40t39.5 -95t-39 -95t-97 -40q-55 0 -94 40t-39 95v297q0 25 7.5 46t11.5 30zM252 125q0 -29 19.5 -47.5t45.5 -18.5 q29 0 48.5 18.5t19.5 47.5t-19.5 47t-48.5 18q-27 0 -46 -18t-19 -47zM700 -190q0 -25 17.5 -42.5t42.5 -17.5q27 0 44 17.5t17 42.5q0 29 -16.5 45t-44.5 16q-23 0 -43 -16q-16 -20 -17 -45z" />
<glyph unicode="&#xe0e;" horiz-adv-x="894" d="M31 127q0 55 39 94t96 39q12 0 22.5 -2t22.5 -6v170q0 25 7 46t11 30l-141 84q2 12 21.5 52t61.5 85t111.5 80t176.5 37q119 0 187.5 -42t105.5 -92q4 4 15 2t28 -18q18 -23 14 -33t-18 -24t-15 -43v-862q0 -35 -19.5 -66t-47 -58.5t-57 -48t-48.5 -32.5q-14 -8 -29.5 -4 t-25.5 18q-8 12 -5 27.5t17 25.5q-31 47 -79 91t-89 57q4 -59 -10 -105q-12 -39 -43 -70.5t-92 -31.5q-72 0 -108 46t-36 97q0 41 18.5 71t48.5 48t67.5 24.5t74.5 0.5v104h80v-123q23 -4 52.5 -19.5t60.5 -38t60.5 -51t49.5 -61.5q35 27 57.5 53.5t22.5 45.5v874 q0 27 11 43q-6 8 -23.5 29.5t-46.5 42t-73 37t-103 16.5q-70 0 -118 -17.5t-81 -42t-52.5 -51t-27.5 -45.5l80 -51q12 16 39 35.5t49 23.5q2 0 16.5 -20t24.5 -35q-61 -29 -80.5 -70.5t-19.5 -72.5v-248q8 -18 8 -45q0 -57 -39 -96t-94 -39q-57 0 -96 39t-39 96zM98 127 q0 -29 19.5 -48.5t48.5 -19.5q27 0 46 19.5t19 48.5q0 27 -19 46.5t-46 19.5q-29 0 -48.5 -19.5t-19.5 -46.5zM176 -330q0 -6 2 -18t10.5 -24.5t21.5 -20.5t38 -8q41 0 57.5 26.5t16.5 57.5q0 10 -1.5 31.5t-3.5 31.5q-23 2 -47 2t-45.5 -6t-35 -23.5t-13.5 -48.5z" />
<glyph unicode="&#xe0f;" horiz-adv-x="894" d="M31 127q0 55 39 94t96 39q12 0 22.5 -2t22.5 -6v170q0 25 7 46t11 30l-141 84q2 12 21.5 52t61.5 85t111.5 80t176.5 37q119 0 188.5 -42t106.5 -92q4 4 15 2t28 -18q18 -23 14 -33t-18 -24t-15 -43v-865q0 -49 -10 -80.5t-25.5 -52t-33 -32t-31.5 -15.5q-16 -4 -30.5 3 t-18.5 24q-6 8 -2 20q-6 0 -20.5 1t-33 -5t-38 -21.5t-33.5 -43.5q-8 -14 -22.5 -17.5t-26.5 4.5q-12 10 -16.5 24.5t5.5 27.5l4 4q-25 45 -54.5 85t-65.5 66q2 -55 -11 -96q-12 -35 -41.5 -64.5t-93.5 -29.5q-37 0 -63.5 13t-44 33.5t-26.5 47.5t-9 51q0 41 19.5 71t50 48 t67.5 23.5t74 -3.5v107h78v-133q47 -27 90 -70t78 -96q16 20 42.5 30.5t55.5 11.5t54.5 -5t37.5 -14q12 18 13 41.5t1 41.5v877q0 27 11 43q-6 8 -23.5 29.5t-47.5 42t-74 37t-103 16.5q-70 0 -118 -17.5t-81 -42t-52.5 -51t-27.5 -45.5l80 -51q12 16 39 35.5t49 23.5 q2 0 16.5 -20t24.5 -35q-61 -29 -80.5 -70.5t-19.5 -72.5v-248q8 -18 8 -45q0 -57 -39 -96t-94 -39q-57 0 -96 39t-39 96zM98 127q0 -29 19.5 -48.5t48.5 -19.5q27 0 46 19.5t19 48.5q0 27 -19 46.5t-46 19.5q-29 0 -48.5 -19.5t-19.5 -46.5zM109 -332q0 -6 2 -18t10 -24.5 t21 -20.5t38 -8q31 0 52.5 20.5t21.5 50.5v15.5t-1 23.5t-2 22.5t-1 16.5q-25 2 -49.5 2t-45 -8t-33.5 -24.5t-13 -47.5z" />
<glyph unicode="&#xe10;" horiz-adv-x="782" d="M-29 -330q0 41 19.5 72t49.5 49.5t67.5 23.5t74.5 -5v122h80v-149q47 -29 90 -71t76 -95q29 23 66 29q23 4 46 1t46 -12v76q-29 -16 -60 -16q-55 0 -94 40t-39 93q0 55 39 94t94 39q53 0 92 -40t39 -93v-227q4 -18 0 -28.5t-10 -14.5t-13 -5.5t-11 -1.5q-23 0 -31 15 q-18 14 -41 17t-41 -1q-45 -8 -72 -63q-8 -12 -20 -11.5t-29 7.5q-20 8 -20 19t8 24l4 4q2 2 2 4q-23 45 -54.5 83t-66.5 62q4 -53 -10 -94q-12 -35 -43 -63.5t-92 -28.5q-74 0 -110 46t-36 99zM43 -330q0 -8 2 -20t10 -24.5t22.5 -20.5t39.5 -8q29 0 50 21.5t21 51.5v35 t-2 35q-23 12 -47 11t-45.5 -10t-36 -27.5t-14.5 -43.5zM78 586.5q4 25.5 31 64.5q25 37 53 71t68 60.5t93.5 41t125.5 10.5q35 -2 76.5 -12.5t81.5 -22t74 -21.5t54 -14l-22 -62q-14 2 -46 12.5t-72 22t-85 20.5t-84 9q-49 0 -89 -11.5t-69.5 -29.5t-50 -38.5t-33.5 -39.5 q102 8 180 4t133.5 -14t91.5 -24.5t54 -26.5q4 4 15.5 2t27.5 -23q16 -23 11 -33t-19 -24q-6 -4 -13.5 -12.5t-11.5 -24.5l-71 -434q-4 -16 -16.5 -29.5t-28.5 -9.5t-30.5 10t-2.5 37q-2 18 -11.5 49t-22.5 68t-28.5 77t-31.5 78q-18 -23 -45 -35t-58 -12q-55 0 -95 39 t-40 97q0 55 40 94t95 39q37 0 69 -18.5t48 -49.5q12 -18 27.5 -55t31 -80t29.5 -87t23 -75l51 326q2 23 16 32q-12 8 -48 22.5t-93.5 25t-136 12.5t-177.5 -12q-10 -23 -21 -30t-36 3q-16 8 -12 33.5zM240 406q0 -29 19 -47.5t48 -18.5t47.5 18.5t18.5 47.5q0 27 -18.5 46 t-47.5 19t-48 -19.5t-19 -45.5zM461 -171q0 -24 18 -46q18 -19 47 -19q20 0 36 11.5t23 29t4 36t-18 32.5q-20 18 -47.5 18t-44.5 -18q-18 -20 -18 -44z" />
<glyph unicode="&#xe11;" horiz-adv-x="1034" d="M45 579.5q-8 51.5 12 116.5q18 57 53 88t62 39q55 16 94 3t76 -54q20 14 36.5 29.5t32 24t31 8.5t33.5 -15q8 -6 23.5 -19.5t29 -29.5t24.5 -33.5t15 -31.5q6 -27 -24.5 -59t-59.5 -66q-14 -18 -20 -42t-6 -71v-242q14 39 35.5 98.5t46 125t50 133t46 121t34 87 t15.5 33.5q86 -4 132 -17t75 -32q4 4 15.5 2t27.5 -18q18 -23 14 -33t-18 -25q-14 -14 -15 -43v-657h-79v672q0 12 1 22.5t7 20.5q-12 10 -42 21.5t-71 8.5q-6 -10 -28.5 -66t-54.5 -136t-67.5 -171t-68.5 -170t-57.5 -134.5t-32.5 -61.5q-4 -8 -14.5 -15t-38.5 13 q-33 23 -9 53q14 16 15.5 32.5t1.5 14.5v312q0 88 10 131t37 74q20 23 40.5 43t16.5 34q-4 16 -22.5 34t-26.5 26q-10 -8 -25.5 -18.5t-27.5 -22.5q4 -14 5 -26.5t-22 -22.5t-30.5 1t-18.5 25q-31 47 -62.5 60.5t-59 4.5t-48 -38t-26.5 -66q14 18 37.5 27.5t44.5 9.5 q55 0 94 -39t39 -96q0 -55 -40 -93t-95 -40q-31 0 -64 17.5t-56.5 52t-31.5 86zM131 557q0 -27 18.5 -46t47.5 -19t47 19t18 46q0 29 -18 48.5t-47 19.5t-47.5 -19.5t-18.5 -48.5z" />
<glyph unicode="&#xe12;" horiz-adv-x="1263" d="M104 561q0 106 48.5 171t146.5 99q35 10 83 -19.5t83 -66.5q33 39 66.5 65t68.5 15q66 -23 100.5 -59.5t44.5 -63.5q4 4 14.5 2t26.5 -18q18 -23 14.5 -33t-18.5 -24q-14 -14 -14 -43v-234q25 -2 60.5 -8t76.5 -23.5t83 -47t79 -78.5v624h78v-819h-78v55 q-20 63 -61 106.5t-86.5 71t-87 40t-64.5 14.5v-172q0 -49 -24.5 -82t-65.5 -39q-31 -6 -60.5 5t-53 36.5t-36 64.5t-6.5 88q6 39 23.5 68t41 48.5t50.5 29.5t51 14v250q0 27 10 43q0 2 -5 17.5t-19.5 34t-37 37t-56.5 28.5q-10 -4 -32 -18.5t-44 -49.5q2 -4 0 -12 q-2 -6 -6 -13.5t-17 -11.5q-16 -8 -28.5 0.5t-20.5 22.5q-6 12 -21.5 26.5t-32 27.5t-32.5 22.5t-24 11.5q-66 -18 -106 -68.5t-38 -128.5q2 -80 13.5 -138t24.5 -103t24.5 -83t15.5 -75q14 20 34.5 46t43 51.5t45 48t39.5 38.5q-43 12 -72 48t-29 83q0 55 40 95t96 40 q55 0 95 -39.5t40 -95.5q0 -35 -13.5 -62.5t-33 -49t-41 -39t-39.5 -33.5q-27 -27 -60.5 -61.5t-65.5 -72.5t-60.5 -76t-43.5 -69q-10 -20 -22 -24t-35 8q-20 10 -19 21.5t13 27.5q16 20 22.5 45t-6.5 78q-10 47 -24.5 92t-26.5 91.5t-20.5 96.5t-8.5 105zM387 483 q0 -29 18.5 -48t47.5 -19t47 19.5t18 47.5q0 27 -18.5 46.5t-46.5 19.5q-29 0 -47.5 -19.5t-18.5 -46.5zM588 172q-4 -53 18.5 -85t57.5 -32q6 0 15 8.5t9 36.5v183q-35 -4 -65.5 -32t-34.5 -79z" />
<glyph unicode="&#xe13;" horiz-adv-x="1277" d="M61 582q2 12 21.5 52t61.5 85t112 80t176 37q119 0 186.5 -42t104.5 -92q4 4 15.5 2t27.5 -18q18 -23 14 -33t-18 -24t-14 -43v-406q31 41 70.5 70t84.5 46t89 22.5t83 -1.5v502h78v-534q49 -23 67.5 -63t18.5 -75q0 -63 -44 -106t-108 -43q-59 0 -106 39t-47 110 q0 12 5 30t13.5 34t19.5 29.5t25 19.5q-76 -10 -128 -55t-88 -93.5t-56 -85t-35 -32.5q-14 0 -27.5 11t-17.5 22q-4 18 9.5 30.5t13.5 30.5v510q0 27 10 43q-6 8 -22.5 29.5t-46 42t-72.5 37t-103 16.5q-70 0 -118 -17.5t-80.5 -42t-52 -51t-27.5 -45.5l80 -51 q12 16 38.5 35.5t49.5 23.5q2 0 16 -20t25 -35q-61 -29 -81 -70.5t-20 -72.5v-172q27 12 53 12q57 0 96.5 -40t39.5 -95t-39 -95t-97 -40q-55 0 -94 40t-39 95v297q0 25 7.5 46t11.5 30zM252 125q0 -29 19.5 -47.5t45.5 -18.5q29 0 48.5 18.5t19.5 47.5t-19.5 47t-48.5 18 q-27 0 -46 -18t-19 -47zM1008 147q0 -31 22 -55t57 -24t57.5 23.5t22.5 55.5q0 33 -22.5 57.5t-57.5 24.5q-31 0 -55 -23.5t-24 -58.5z" />
<glyph unicode="&#xe14;" horiz-adv-x="876" d="M100 539q2 63 28 118.5t71 94.5t105.5 61.5t131.5 22.5q109 0 183.5 -41t113.5 -93q4 4 15.5 2t27.5 -18q18 -23 14 -33t-18 -24t-14 -43v-586h-80v602q0 25 12 43l-16 19q-17 20 -48.5 42.5t-78.5 41t-109 18.5q-55 0 -102 -16.5t-83 -46t-57.5 -70.5t-23.5 -90 q-6 -123 16.5 -217.5t30.5 -151.5q41 66 91 123t83 92q-41 14 -67.5 49t-26.5 80q0 57 39 96t96 39q55 0 94 -39t39 -96q0 -35 -16 -64.5t-36.5 -51t-38.5 -32.5l-17 -12q-68 -70 -132.5 -148.5t-111.5 -178.5q-18 -45 -51 -31q-29 12 -31 22.5t14 36.5q10 16 13.5 48 t-13.5 96q-16 63 -33.5 149t-13.5 187zM367 518q0 -27 19.5 -46t47.5 -19q27 0 46.5 19.5t19.5 45.5q0 29 -19.5 47.5t-46.5 18.5q-29 0 -48 -18.5t-19 -47.5z" />
<glyph unicode="&#xe15;" horiz-adv-x="878" d="M96 561q0 106 48.5 171t146.5 99q35 10 83 -19.5t83 -66.5q33 39 66.5 65t68.5 15q66 -23 100.5 -59.5t44.5 -63.5q4 4 14.5 2t26.5 -18q18 -23 14 -33t-18 -24t-14 -43v-586h-80v598q0 27 10 43q0 2 -5 17.5t-19.5 34t-37 37t-57.5 28.5q-10 -4 -31.5 -18.5t-43.5 -49.5 q2 -4 0 -12q-2 -6 -6.5 -13.5t-16.5 -11.5q-16 -8 -28.5 0.5t-20.5 22.5q-6 12 -21.5 26.5t-32 27.5t-32.5 22.5t-25 11.5q-66 -18 -105.5 -68.5t-37.5 -128.5q2 -80 13.5 -138t24.5 -103t24.5 -83t15.5 -75q14 20 34.5 46t43 51.5t45 48t39.5 38.5q-43 12 -72 48t-29 83 q0 55 40 95t95 40t95.5 -39.5t40.5 -95.5q0 -35 -13.5 -62.5t-33 -49t-41 -39t-39.5 -33.5q-27 -27 -61 -61.5t-65.5 -72.5t-60 -76t-43.5 -69q-10 -20 -22.5 -24t-34.5 8q-20 10 -19.5 21.5t13.5 27.5q16 20 22 45t-6 78q-10 47 -24.5 92t-26.5 91.5t-20.5 96.5t-8.5 105z M379 483q0 -29 18.5 -48t46.5 -19q29 0 47.5 19.5t18.5 47.5q0 27 -18.5 46.5t-47.5 19.5t-47 -19.5t-18 -46.5z" />
<glyph unicode="&#xe16;" horiz-adv-x="872" d="M61 582q2 12 21.5 52t61.5 85t112 80t176 37q119 0 188.5 -42t106.5 -92q4 4 15.5 2t27.5 -18q18 -23 14 -33t-18 -24t-14 -43v-586h-80v598q0 27 10 43q-6 8 -23.5 29.5t-47 42t-73.5 37t-104 16.5q-70 0 -118 -17.5t-80.5 -42t-52 -51t-27.5 -45.5l80 -51 q12 16 38.5 35.5t49.5 23.5q2 0 16 -20t25 -35q-61 -29 -81 -70.5t-20 -72.5v-172q27 12 53 12q57 0 96.5 -40t39.5 -95t-39 -95t-97 -40q-55 0 -94 40t-39 95v297q0 25 7.5 46t11.5 30zM252 125q0 -29 19.5 -47.5t45.5 -18.5q29 0 48.5 18.5t19.5 47.5t-19.5 47t-48.5 18 q-27 0 -46 -18t-19 -47z" />
<glyph unicode="&#xe17;" horiz-adv-x="917" d="M35 692q0 55 39 95t94 40q57 0 96 -39.5t39 -95.5v-463q14 39 38 97.5t51.5 124l55 131t51 119t39 86t17.5 32.5q92 0 142.5 -13t72.5 -32q4 4 15.5 2t27.5 -18q18 -23 14 -33t-18 -25q-14 -14 -14 -43v-659h-80v674q0 12 1 22.5t7 20.5q-12 10 -41 21.5t-80 8.5 q-6 -10 -30.5 -66t-58.5 -136t-73 -171t-73.5 -170t-61 -134.5t-35.5 -61.5q-4 -8 -14 -15t-39 13q-33 23 -8 53q14 16 15 35t1 17v462q-29 -14 -57 -14q-55 0 -94 40t-39 95zM102 692q0 -29 19.5 -47t46.5 -18q29 0 48.5 18.5t19.5 46.5q0 29 -19.5 47.5t-48.5 18.5 q-27 0 -46.5 -18.5t-19.5 -47.5z" />
<glyph unicode="&#xe18;" horiz-adv-x="794" d="M52.5 536.5q-1.5 10.5 10.5 45.5q14 41 42 87t73 84t109.5 61.5t152.5 19.5q33 -2 74 -11.5t80 -22t73.5 -22.5t55.5 -14l-23 -66q-18 2 -50 13.5t-70.5 21.5t-79.5 19.5t-78 9.5q-100 0 -166 -38t-98 -110q86 14 160.5 13.5t135 -12t104.5 -27t69 -29.5q4 4 15 2t28 -18 q18 -23 14 -33t-18 -25q-14 -14 -15 -43v-362q0 -29 -22 -51q-25 -29 -78 -29h-289q-10 0 -12 -3t-12 -7q-16 -4 -25.5 -2t-26.5 30q-8 14 -3 21.5t22 17.5q23 14 29 31.5t6 28.5v438q-20 0 -53 -4t-56 -8l-12 -17q-4 -12 -22.5 -12t-30.5 6t-13.5 16.5zM301 78h270v379 q0 27 11 43q-92 51 -263 55v-430q0 -35 -18 -47z" />
<glyph unicode="&#xe19;" horiz-adv-x="878" d="M37 694q0 55 39 95t94 40q66 0 103.5 -45t31.5 -104v-498q31 41 77 70t98 45t106.5 20.5t99.5 -2.5v504h78v-534q49 -23 67.5 -63t18.5 -75q0 -63 -44 -106t-108 -43q-59 0 -106 39t-47 110q0 25 18.5 62t50.5 47q-106 -10 -172.5 -54t-106.5 -91.5t-60.5 -84 t-34.5 -32.5q-14 0 -27.5 12t-17.5 23q-4 18 13 34.5t17 34.5v473q-25 -12 -55 -12q-55 0 -94 40t-39 95zM104 694q0 -29 19.5 -47t46.5 -18q29 0 48.5 18.5t19.5 46.5q0 29 -19.5 47.5t-48.5 18.5q-27 0 -46.5 -18.5t-19.5 -47.5zM618 147q0 -31 22.5 -55t57.5 -24 t57.5 23.5t22.5 55.5q0 33 -22.5 57.5t-57.5 24.5q-31 0 -55.5 -23.5t-24.5 -58.5z" />
<glyph unicode="&#xe1a;" horiz-adv-x="917" d="M43 694q0 55 39 95t94 40q57 0 97 -39.5t40 -95.5v-569q0 -35 -18 -47h424v741h80v-737q0 -29 -23 -51q-25 -29 -78 -29h-442q-10 0 -12 -3t-13 -7q-16 -4 -25 -2t-26 30q-8 14 -3 21.5t22 17.5q23 14 28.5 30.5t5.5 27.5v454q-29 -14 -57 -14q-55 0 -94 40t-39 97z M111 694q0 -29 19 -48t46 -19q29 0 48.5 19.5t19.5 47.5q0 29 -19.5 47.5t-48.5 18.5q-27 0 -46 -18.5t-19 -47.5z" />
<glyph unicode="&#xe1b;" horiz-adv-x="917" d="M43 694q0 55 39 95t94 40q57 0 97 -39.5t40 -95.5v-569q0 -35 -18 -47h424v1050h80v-1046q0 -29 -23 -51q-25 -29 -78 -29h-442q-10 0 -12 -3t-13 -7q-16 -4 -25 -2t-26 30q-8 14 -3 21.5t22 17.5q23 14 28.5 30.5t5.5 27.5v454q-29 -14 -57 -14q-55 0 -94 40t-39 97z M111 694q0 -29 19 -48t46 -19q29 0 48.5 19.5t19.5 47.5q0 29 -19.5 47.5t-48.5 18.5q-27 0 -46 -18.5t-19 -47.5z" />
<glyph unicode="&#xe1c;" horiz-adv-x="868" d="M106 59q6 8 9.5 17.5t5.5 17.5t2 19v581q0 57 39 96t96 39q55 0 94 -38.5t39 -96.5q0 -55 -39 -94t-94 -39q-31 0 -57 12v-413l209 309q2 6 8 14q4 4 11 9.5t17 5.5t16.5 -5.5t10.5 -9.5q6 -8 8 -14l191 -305v655h78v-764q0 -23 -1 -33t-24 -20q-16 -6 -24.5 -3t-16.5 11 l-238 385q-84 -123 -136 -196.5t-81.5 -114.5t-43 -56.5t-19.5 -21.5q-4 -8 -13.5 -14t-37.5 14q-33 23 -9 53zM193 694q0 -27 18 -46t47 -19t47.5 19.5t18.5 45.5q0 29 -18.5 48.5t-47.5 19.5t-47 -19.5t-18 -48.5z" />
<glyph unicode="&#xe1d;" horiz-adv-x="868" d="M106 59q6 8 9.5 17.5t5.5 17.5t2 19v581q0 57 39 96t96 39q55 0 94 -38.5t39 -96.5q0 -55 -39 -94t-94 -39q-31 0 -57 12v-413l209 309q2 6 8 14q4 4 11 9.5t17 5.5t16.5 -5.5t10.5 -9.5q6 -8 8 -14l191 -305v971h78v-1080q0 -23 -1 -33t-24 -20q-16 -6 -24.5 -3 t-16.5 11l-238 385q-84 -123 -136 -196.5t-81.5 -114.5t-43 -56.5t-19.5 -21.5q-4 -8 -13.5 -14t-37.5 14q-33 23 -9 53zM193 694q0 -27 18 -46t47 -19t47.5 19.5t18.5 45.5q0 29 -18.5 48.5t-47.5 19.5t-47 -19.5t-18 -48.5z" />
<glyph unicode="&#xe1e;" horiz-adv-x="983" d="M39 694q0 57 39 96t96 39q55 0 94 -38.5t39 -96.5v-510l195 596l10 15q12 16 31 16q18 0 30 -16q6 -8 11 -15l200 -594v633h80v-774q0 -29 -4 -37t-31 -12q-29 -4 -39 3t-16 30l-1 2t-7 18.5t-20.5 53t-40 108.5t-65.5 183.5t-99 277.5l-213 -611q-6 -12 -15 -22 q-8 -10 -19 -21.5t-26 -19.5q-12 -6 -18 -7t-23 9q-41 27 -16 51q14 16 16 30.5t2 41.5v450q-25 -12 -55 -12q-57 0 -96 39t-39 94zM106 694q0 -27 19.5 -46t48.5 -19q27 0 46.5 19.5t19.5 45.5q0 29 -19.5 48.5t-46.5 19.5q-29 0 -48.5 -19.5t-19.5 -48.5z" />
<glyph unicode="&#xe1f;" horiz-adv-x="983" d="M39 694q0 57 39 96t96 39q55 0 94 -38.5t39 -96.5v-508l195 594l10 15q12 16 31 16q18 0 30 -16q6 -8 11 -15l200 -594v949h80v-1090q0 -29 -4 -37t-31 -12q-29 -4 -39 3t-16 30l-1 2t-7 18.5t-20.5 53t-40 108.5t-65.5 183.5t-99 277.5l-213 -611q-6 -12 -15 -22 q-8 -10 -19 -21.5t-26 -19.5q-12 -6 -18 -7t-23 9q-41 27 -16 51q14 16 16 30.5t2 41.5v450q-25 -12 -55 -12q-57 0 -96 39t-39 94zM106 694q0 -27 19.5 -46t48.5 -19q27 0 46.5 19.5t19.5 45.5q0 29 -19.5 48.5t-46.5 19.5q-29 0 -48.5 -19.5t-19.5 -48.5z" />
<glyph unicode="&#xe20;" horiz-adv-x="897" d="M31 127q0 55 39 94t96 39q12 0 22.5 -2t22.5 -6v170q0 25 7 46t11 30l-141 84q2 12 21.5 52t61.5 85t111.5 80t176.5 37q119 0 188.5 -42t106.5 -92q4 4 15 2t28 -18q18 -23 14 -33t-18 -24t-15 -43v-586h-80v598q0 27 11 43q-6 8 -23.5 29.5t-47.5 42t-74 37t-103 16.5 q-70 0 -118 -17.5t-81 -42t-52.5 -51t-27.5 -45.5l80 -51q12 16 39 35.5t49 23.5q2 0 16.5 -20t24.5 -35q-61 -29 -80.5 -70.5t-19.5 -72.5v-248q8 -18 8 -45q0 -57 -39 -96t-94 -39q-57 0 -96 39t-39 96zM98 127q0 -29 19.5 -48.5t48.5 -19.5q27 0 46 19.5t19 48.5 q0 27 -19 46.5t-46 19.5q-29 0 -48.5 -19.5t-19.5 -46.5z" />
<glyph unicode="&#xe21;" horiz-adv-x="894" d="M78 688q0 57 40 96t95 39q57 0 96 -39t39 -96v-326q10 0 47 -5t87 -21.5t106.5 -49t107.5 -87.5v620h78v-819h-78v76q-37 70 -91 111.5t-106.5 65t-94.5 32t-54 8.5v-172q0 -49 -21.5 -82t-64.5 -41q-39 -6 -73.5 7t-60.5 41t-39 63.5t-9 76.5q8 78 62.5 119t123.5 53 v209q-25 -12 -55 -12q-55 0 -95 39t-40 94zM147 688q0 -27 18.5 -46t47.5 -19t47.5 19.5t18.5 45.5q0 29 -18.5 48.5t-47.5 19.5t-47.5 -19.5t-18.5 -48.5zM154 178q-2 -18 2 -39.5t15 -39t29.5 -29t43.5 -7.5q27 2 26 58v170q-18 -4 -36.5 -11.5t-35 -19.5t-28.5 -31.5 t-16 -50.5z" />
<glyph unicode="&#xe22;" horiz-adv-x="827" d="M73 623.5q9 56.5 38.5 102.5t77 74.5t104.5 28.5q53 0 94 -36.5t41 -98.5q0 -55 -40 -95t-95 -40q-49 0 -85 31t-46 76q-14 -29 -15.5 -64t9.5 -65q14 -49 52 -73t84 -29t96 6.5t91 33.5l21 -72q-59 -29 -121 -35t-111 3v-246q0 -35 -18 -47h381v741h78v-737 q0 -29 -23 -51q-25 -29 -78 -29h-397q-10 0 -12 -3t-13 -7q-16 -4 -25 -2t-26 30q-8 14 -3 21.5t22 17.5q23 14 28.5 30.5t5.5 27.5v272q-82 41 -106 123q-18 55 -9 111.5zM227 694q0 -29 18.5 -47t47.5 -18t47 18.5t18 46.5q0 29 -18 47.5t-47 18.5t-47.5 -18.5 t-18.5 -47.5z" />
<glyph unicode="&#xe23;" horiz-adv-x="724" d="M46 543.5q-1 9.5 11 44.5q14 41 39 86t65 82t101.5 59.5t149.5 18.5q31 -2 64.5 -9.5t67.5 -16.5t64.5 -18.5t53.5 -13.5l-21 -65q-47 8 -110.5 30.5t-133.5 22.5q-100 0 -158.5 -36t-91.5 -107q78 12 144.5 8t120 -15.5t91.5 -26t58 -24.5q4 4 15.5 3t27.5 -17 q18 -23 14 -33t-18 -24t-14 -43v-324q0 -55 -39 -95t-96 -40q-55 0 -95.5 40t-40.5 95t40 95t96 40q31 0 55 -12v215q0 27 10 43q-18 14 -58 26.5t-93.5 20.5t-116 8t-125.5 -10l-8 -12q-4 -12 -23.5 -14.5t-32.5 3.5q-12 6 -13 15.5zM385 125q0 -29 18.5 -47.5t47.5 -18.5 t47 18.5t18 47.5t-18.5 47t-46.5 18q-29 0 -47.5 -18t-18.5 -47z" />
<glyph unicode="&#xe24;" horiz-adv-x="872" d="M61 582q2 12 21.5 52t61.5 85t112 80t176 37q119 0 188.5 -42t106.5 -92q4 4 15.5 2t27.5 -18q18 -23 14 -33t-18 -24t-14 -43v-1084h-80v1096q0 27 10 43q-6 8 -23.5 29.5t-47 42t-73.5 37t-104 16.5q-70 0 -118 -17.5t-80.5 -42t-52 -51t-27.5 -45.5l80 -51 q12 16 38.5 35.5t49.5 23.5q2 0 16 -20t25 -35q-61 -29 -81 -70.5t-20 -72.5v-172q27 12 53 12q57 0 96.5 -40t39.5 -95t-39 -95t-97 -40q-55 0 -94 40t-39 95v297q0 25 7.5 46t11.5 30zM252 125q0 -29 19.5 -47.5t45.5 -18.5q29 0 48.5 18.5t19.5 47.5t-19.5 47t-48.5 18 q-27 0 -46 -18t-19 -47z" />
<glyph unicode="&#xe25;" horiz-adv-x="876" d="M76 471q-6 80 20.5 145.5t75.5 112.5t115.5 73.5t140.5 26.5q57 0 105.5 -12t87 -30.5t67.5 -41t47 -43.5q4 4 15.5 2t27.5 -18q18 -23 14 -33t-18 -24t-14 -43v-586h-80q0 12 -1 30.5t-1 20.5q0 10 -14.5 45t-38 81t-53 98.5t-58.5 101.5t-53.5 87t-38.5 56 q-39 -41 -88 -107.5t-78 -160.5q18 8 45 8q55 0 95 -39t40 -94q0 -57 -40 -96t-95 -39q-53 0 -92 33.5t-43 99.5q-4 82 26.5 162t70.5 143.5t75 104t39 45.5q-6 16 4 30q8 10 16.5 13.5t14.5 3.5q8 0 14 -4q27 -18 63.5 -69.5t73.5 -113t69 -124t48 -103.5v393q0 27 10 43 q-10 12 -32.5 30.5t-55.5 36t-77 31t-97 13.5q-55 0 -106.5 -20.5t-91.5 -57.5t-61.5 -90t-14.5 -121h-78zM236 127q0 -29 18 -48.5t47 -19.5t47.5 19.5t18.5 48.5q0 27 -18.5 46.5t-47.5 19.5t-47 -19.5t-18 -46.5z" />
<glyph unicode="&#xe26;" horiz-adv-x="901" d="M31 127q0 55 39 94t96 39q12 0 22.5 -2t22.5 -6v170q0 25 7 46t11 30l-141 84q2 12 21.5 52t61.5 85t111.5 80t176.5 37q119 0 188.5 -42t106.5 -92q4 4 15 2t28 -18q18 -23 14 -33t-18 -24t-15 -43v-1084h-80v1096q0 27 11 43q-6 8 -23.5 29.5t-47.5 42t-74 37 t-103 16.5q-70 0 -118 -17.5t-81 -42t-52.5 -51t-27.5 -45.5l80 -51q12 16 39 35.5t49 23.5q2 0 16.5 -20t24.5 -35q-61 -29 -80.5 -70.5t-19.5 -72.5v-248q8 -18 8 -45q0 -57 -39 -96t-94 -39q-57 0 -96 39t-39 96zM98 127q0 -29 19.5 -48.5t48.5 -19.5q27 0 46 19.5 t19 48.5q0 27 -19 46.5t-46 19.5q-29 0 -48.5 -19.5t-19.5 -46.5z" />
<glyph unicode="&#xe27;" horiz-adv-x="737" d="M63 580.5q11 74.5 47.5 131t97 89.5t138.5 33q51 0 92 -11.5t72 -29t52.5 -39t31.5 -41.5q4 4 15.5 2t27.5 -19q18 -23 14 -33t-18 -24t-15 -43v-471q0 -57 -38.5 -96t-94.5 -39q-55 0 -95 39t-40 96q0 55 40 94t95 39q33 0 54 -10v362q0 27 10 43q-8 14 -24.5 31.5 t-41 34t-59.5 28t-78 11.5q-57 0 -101 -23.5t-71 -66.5t-36 -100.5t1 -125.5l-71 -20q-16 84 -5 158.5zM420 125q0 -29 18 -48.5t47 -19.5t47.5 19.5t18.5 48.5q0 27 -18.5 46t-47.5 19t-47 -19t-18 -46z" />
<glyph unicode="&#xe28;" horiz-adv-x="880" d="M111 532q6 139 93 221.5t236 82.5q74 0 128.5 -17.5t93.5 -46.5q33 35 79.5 71t85.5 60l39 -57q-49 -35 -86 -62.5t-63 -56.5l22 -25q4 4 15.5 2t27.5 -18q18 -23 14.5 -33t-18.5 -24q-14 -14 -14 -43v-586h-80v606q0 27 10 43q2 0 -11 17.5t-44 40t-79 41t-118 18.5 q-111 0 -179 -61.5t-75 -178.5q-4 -59 1.5 -116.5t11.5 -104.5t12 -82t6 -51q29 94 44.5 158.5t24.5 109.5t14 73t15 48q20 43 54.5 63.5t74.5 20.5q55 0 95.5 -40t40.5 -95t-40 -94t-96 -39q-55 0 -94 39q-10 -39 -21.5 -87t-28.5 -102.5t-43 -109t-64 -105.5 q-10 -14 -25.5 -14t-28.5 10q-16 14 -18 22.5t14 32.5q20 31 16.5 76t-14 103.5t-22 131t-6.5 158.5zM381 510q0 -29 18.5 -47.5t46.5 -18.5q29 0 47.5 18.5t18.5 47.5t-18.5 47t-47.5 18t-47 -18t-18 -47z" />
<glyph unicode="&#xe29;" horiz-adv-x="917" d="M43 694q0 55 39 95t94 40q57 0 97 -39.5t40 -95.5v-569q0 -35 -18 -47h424v321q-33 -49 -77 -74.5t-97 -29.5q-37 -4 -73 6t-62.5 30.5t-43 51.5t-12.5 72q4 59 45 98t101 33q53 -4 79.5 -39t14.5 -80q-4 -12 -13.5 -23.5t-35.5 -3.5q-23 6 -21 23.5t2 19.5 q4 20 -11 30.5t-35.5 8.5t-39 -19.5t-20.5 -49.5q-2 -31 9 -50.5t29.5 -28.5t40 -12.5t40.5 -1.5q25 2 56.5 15.5t59 40t46 69.5t18.5 105v229h80v-737q0 -29 -23 -51q-25 -29 -78 -29h-442q-10 0 -12 -3t-13 -7q-16 -4 -25 -2t-26 30q-8 14 -3 21.5t22 17.5 q23 14 28.5 30.5t5.5 27.5v454q-29 -14 -57 -14q-55 0 -94 40t-39 97zM111 694q0 -29 19 -48t46 -19q29 0 48.5 19.5t19.5 47.5q0 29 -19.5 47.5t-48.5 18.5q-27 0 -46 -18.5t-19 -47.5z" />
<glyph unicode="&#xe2a;" horiz-adv-x="876" d="M76 471q-6 80 20.5 145.5t75.5 112.5t115.5 73.5t140.5 26.5q76 0 133 -19t101 -46q29 41 75.5 75.5t89.5 63.5l39 -57q-49 -35 -85.5 -63.5t-65.5 -59.5q4 -6 10 -11t10 -10q4 4 15.5 2t27.5 -18q18 -23 14 -33t-18 -24t-14 -43v-586h-80q0 12 -1 30.5t-1 20.5 q0 10 -14.5 45t-38 81t-53 98.5t-58.5 101.5t-53.5 87t-38.5 56q-39 -41 -88 -107.5t-78 -160.5q18 8 45 8q55 0 95 -39t40 -94q0 -57 -40 -96t-95 -39q-53 0 -92 33.5t-43 99.5q-4 82 26.5 162t70.5 143.5t75 104t39 45.5q-6 16 4 30q8 10 16.5 13.5t14.5 3.5q8 0 14 -4 q27 -18 63.5 -69.5t73.5 -113t69 -124t48 -103.5v393q0 27 10 43q-10 12 -32.5 30.5t-55.5 36t-77 31t-97 13.5q-55 0 -106.5 -20.5t-91.5 -57.5t-61.5 -90t-14.5 -121h-78zM236 127q0 -29 18 -48.5t47 -19.5t47.5 19.5t18.5 48.5q0 27 -18.5 46.5t-47.5 19.5t-47 -19.5 t-18 -46.5z" />
<glyph unicode="&#xe2b;" horiz-adv-x="911" d="M39 694q0 55 39 95t94 40q57 0 96 -39.5t39 -95.5v-516l271 393q-35 12 -57.5 46t-22.5 77q0 61 46 100.5t111 39.5q59 0 104.5 -38t45.5 -102q0 -29 -13.5 -60.5t-46.5 -53.5q8 -4 22.5 -14.5t23.5 -14.5q14 -10 16 -22.5t-1 -24.5t-8 -22.5t-5 -16.5v-465h-78v465 q0 12 3 27.5t11 19.5q-4 8 -29.5 21.5t-50.5 15.5q-6 -10 -36.5 -53t-73.5 -103.5t-91.5 -127t-88.5 -124t-67 -96.5l-28 -39q-10 -14 -22.5 -14t-28.5 8q-39 18 -18 49q10 16 22 33.5t12 60.5v428q-25 -12 -57 -12q-55 0 -94 39t-39 96zM106 694q0 -29 19.5 -48t46.5 -19 q29 0 48.5 19.5t19.5 47.5q0 27 -19.5 46.5t-48.5 19.5q-27 0 -46.5 -19.5t-19.5 -46.5zM567 694q0 -25 21.5 -51.5t64.5 -26.5q41 0 63.5 26t22.5 52q0 27 -20.5 52.5t-65.5 25.5q-31 0 -58.5 -19.5t-27.5 -58.5z" />
<glyph unicode="&#xe2c;" horiz-adv-x="983" d="M39 694q0 57 39 96t96 39q55 0 94 -38.5t39 -96.5v-497l193 493l10 15q12 16 31 16q18 0 30 -16q6 -8 11 -15l202 -504v654q-29 -12 -57 -13q-53 0 -93 40t-40 94q0 55 39 95t94 40q45 0 80 -27t49 -68l80 91l59 -54l-131 -149v-844q0 -29 -4 -37t-31 -12q-29 -4 -39 3 t-16 30l-18 43l-42.5 107.5t-56 138t-56.5 138t-43 107.5l-17 43l-213 -545q-6 -12 -15 -22q-8 -10 -19 -21.5t-26 -19.5q-12 -6 -18 -7t-23 9q-41 27 -16 51q14 16 16 30.5t2 41.5v450q-25 -12 -55 -12q-57 0 -96 39t-39 94zM106 694q0 -27 19.5 -46t48.5 -19 q27 0 46.5 19.5t19.5 45.5q0 29 -19.5 48.5t-46.5 19.5q-29 0 -48.5 -19.5t-19.5 -48.5zM664 961q0 -27 18 -45.5t45 -18.5q29 0 47.5 18.5t18.5 45.5t-18.5 46t-47.5 19t-46 -18.5t-17 -46.5z" />
<glyph unicode="&#xe2d;" horiz-adv-x="862" d="M53 453q-10 96 20.5 167.5t85 117.5t123 68.5t134.5 22.5q119 0 191.5 -39.5t111.5 -87.5q4 4 15 2t28 -18q18 -23 14 -33t-18 -24t-15 -43v-502q0 -31 -22 -53q-25 -29 -78 -29h-410q-10 0 -12 -3t-12 -7q-16 -4 -25.5 -2t-25.5 30q-8 14 -3 21.5t21 17.5q23 14 29 30.5 t6 27.5v366q0 55 40 95t95 40t95 -39.5t40 -95.5q0 -57 -40 -96t-95 -39q-31 0 -55 12v-235q0 -35 -19 -47h392v526q0 27 10 43q-10 12 -30.5 30.5t-53.5 37t-76 32t-96 13.5q-135 0 -217 -80t-76 -227h-72zM281 483q0 -29 18 -47t47 -18t47.5 18.5t18.5 46.5 q0 29 -18.5 47.5t-47.5 18.5t-47 -18.5t-18 -47.5z" />
<glyph unicode="&#xe2e;" horiz-adv-x="782" d="M83 41.5q5 7.5 21 17.5q23 14 29 30.5t6 27.5v266q0 53 40 88t93 35q57 0 96.5 -39t39.5 -96q0 -55 -39 -95t-97 -40q-14 0 -26.5 4t-26.5 8v-123q0 -35 -18 -47h383v524q0 27 10 43q-4 4 -6 5t-13 7q-66 -49 -131 -74.5t-151 -23.5q-115 2 -160 42t-45 83 q0 29 18.5 55.5t51 48t79 35t99.5 13.5q86 0 143.5 -22.5t91.5 -51.5q29 29 63 73t62 97q2 -2 12.5 -7t22.5 -11.5t23 -11.5l10 -5q-10 -23 -26.5 -49.5t-36 -53t-39 -50t-35.5 -39.5l12 -7q4 4 15.5 1t27.5 -19q18 -23 14 -33t-18 -24t-14 -43v-498q0 -29 -23 -51 q-25 -29 -78 -29h-401q-10 0 -12.5 -3t-12.5 -7q-16 -4 -25.5 -2t-25.5 30q-8 14 -3 21.5zM168 682q0 -12 30.5 -28.5t96.5 -16.5q68 -2 115 17.5t100 54.5q-29 20 -72 33.5t-102 13.5q-53 0 -86 -8.5t-51.5 -20.5t-24.5 -24.5t-6 -20.5zM207 371q0 -29 19.5 -47.5 t45.5 -18.5q29 0 48.5 18.5t19.5 47.5t-19.5 47t-48.5 18q-27 0 -46 -18.5t-19 -46.5z" />
<glyph unicode="&#xe2f;" horiz-adv-x="735" d="M57 696q0 55 39 95t94 40t95.5 -39.5t40.5 -95.5q0 -45 -30 -81.5t-87 -41.5q47 -23 101.5 -13.5t104.5 44.5t89 92.5t55 132.5l72 -18q-2 -2 -7.5 -24.5t-7.5 -26.5v-647q0 -33 -16 -66t-61 -55q-31 -14 -50 16q-10 14 -11 25.5t16 21.5q18 10 30.5 30.5t12.5 43.5v492 q-59 -72 -127 -104t-127 -30q-37 0 -77 15.5t-73 42t-54.5 65.5t-21.5 86zM125 696q0 -29 18.5 -47t46.5 -18q29 0 48.5 18.5t19.5 46.5q0 29 -19.5 47.5t-48.5 18.5t-47 -18.5t-18 -47.5z" />
<glyph unicode="&#xe30;" horiz-adv-x="714" d="M82 162q0 55 40 95t95 40t96 -40t39 -95q-2 -41 -22.5 -67.5t-44.5 -31.5q49 -2 96 15.5t89 48.5t75 74t53 92l66 -31q-23 -53 -51.5 -94t-60.5 -69.5t-64.5 -47t-59.5 -26.5q-53 -18 -114.5 -20.5t-112.5 14t-85 51t-34 92.5zM82 678q0 55 40 95t95 40t96 -40t39 -95 q-2 -41 -22.5 -67.5t-44.5 -30.5q49 -2 96 15t89 48t75 74t53 92l66 -31q-23 -53 -51.5 -94t-60.5 -69.5t-64.5 -47t-59.5 -26.5q-53 -18 -114.5 -20.5t-112.5 14t-85 51.5t-34 92zM152 162q0 -29 18 -47.5t47 -18.5t47.5 18.5t18.5 47.5t-18.5 47t-47.5 18t-47 -18.5 t-18 -46.5zM152 678q0 -29 18 -47.5t47 -18.5t47.5 18.5t18.5 47.5t-18.5 47t-47.5 18t-47 -18t-18 -47z" />
<glyph unicode="&#xe31;" d="M-485 1120q0 53 36.5 90t90.5 37q53 0 90 -36.5t37 -90.5q0 -49 -33 -80q47 -8 103.5 9.5t109.5 52.5t98 87t72 116l59 -31q-39 -102 -113.5 -167t-157.5 -97.5t-162 -35.5t-128 15q-47 18 -74.5 54t-27.5 77zM-420 1122q0 -27 17.5 -44t44.5 -17t44 17.5t17 43.5 q0 27 -17.5 44.5t-43.5 17.5q-27 0 -44.5 -17.5t-17.5 -44.5z" />
<glyph unicode="&#xe32;" horiz-adv-x="714" d="M53 537q4 63 23.5 117.5t53.5 94t83 63.5t113 24q51 0 92 -11.5t71.5 -29t52 -39t31.5 -41.5q4 4 15.5 2t27.5 -19q18 -23 14.5 -33t-18.5 -24q-14 -14 -14 -43v-598h-80v612q0 27 10 43q-8 14 -24.5 33t-41 35t-59 27.5t-77.5 11.5q-94 0 -140.5 -63.5t-56.5 -161.5h-76 z" />
<glyph unicode="&#xe33;" horiz-adv-x="714" d="M-360 1100q0 61 44 105t107 44q61 0 105.5 -44t44.5 -105q0 -63 -44 -107.5t-106 -44.5q-63 0 -107 44.5t-44 107.5zM-289 1100q0 -35 22.5 -57.5t57.5 -22.5q33 0 55.5 22.5t22.5 57.5q0 33 -22.5 55.5t-55.5 22.5q-35 0 -57.5 -22.5t-22.5 -55.5zM53 537 q4 63 23.5 117.5t53.5 94t83 63.5t113 24q51 0 92 -11.5t71.5 -29t52 -39t31.5 -41.5q4 4 15.5 2t27.5 -19q18 -23 14.5 -33t-18.5 -24q-14 -14 -14 -43v-598h-80v612q0 27 10 43q-8 14 -24.5 33t-41 35t-59 27.5t-77.5 11.5q-94 0 -140.5 -63.5t-56.5 -161.5h-76z" />
<glyph unicode="&#xe34;" horiz-adv-x="4" d="M-785 972.5q3 4.5 29 24.5q25 25 55.5 60t71.5 65.5t92.5 51t112.5 18.5q57 -2 108.5 -23.5t93.5 -55.5t73.5 -78t50.5 -93q4 -12 4 -25.5t-19 -27.5q-10 -10 -16 -9t-16 5q-96 35 -181.5 49t-159 16t-139 -4t-123.5 -14q-8 -2 -15 2t-17 20q-8 14 -5 18.5zM-680 991 q104 16 235.5 11t278.5 -60q-45 80 -114.5 131t-147.5 51q-57 0 -96 -13t-66.5 -33.5t-48.5 -44.5t-41 -42z" />
<glyph unicode="&#xe35;" horiz-adv-x="4" d="M-785 972.5q3 4.5 29 24.5q25 25 55.5 60t71.5 66.5t92.5 52t112.5 16.5q57 -4 102.5 -18.5t85.5 -49.5v179h76v-256q18 -27 33.5 -47.5t28.5 -49.5q4 -12 4 -29.5t-19 -31.5q-10 -10 -16 -9t-16 5q-96 35 -181.5 49t-159 16t-139 -4t-123.5 -14q-8 -2 -15 2t-17 20 q-8 14 -5 18.5zM-680 991q104 16 235.5 11t278.5 -60q-43 74 -108.5 128t-155.5 54q-53 0 -91 -13t-66.5 -32.5t-50.5 -43.5t-42 -44z" />
<glyph unicode="&#xe36;" horiz-adv-x="4" d="M-785 972.5q3 4.5 29 24.5q25 25 55.5 60t71.5 66.5t92.5 52t112.5 16.5q29 -2 60.5 -9t54.5 -20q-8 25 -2 47.5t21.5 41t38 28.5t44.5 10q51 0 84 -29.5t35 -76.5t-24.5 -76t-73.5 -37q27 -29 49.5 -57.5t38.5 -67.5q4 -12 4 -27.5t-19 -29.5q-10 -10 -16 -9t-16 5 q-96 35 -181.5 49t-159 16t-139 -4t-123.5 -14q-8 -2 -15 2t-17 20q-8 14 -5 18.5zM-682 991q104 16 236.5 11t279.5 -60q-43 72 -109.5 127t-152.5 55q-57 0 -96 -13t-66.5 -33.5t-49.5 -44.5t-42 -42zM-266 1178q0 -27 22 -43q14 -14 32.5 -16.5t34 4.5t26 22.5t10.5 38.5 q0 20 -12.5 33.5t-29 19.5t-34 3t-31.5 -17q-18 -18 -18 -45z" />
<glyph unicode="&#xe37;" horiz-adv-x="6" d="M-785 972.5q3 4.5 29 24.5q25 25 55.5 60t71.5 66.5t92.5 52t112.5 16.5q29 -2 54.5 -5t50.5 -13v129h67v-166q43 -33 74 -70v236h67v-338q2 -4 6.5 -12.5t6.5 -12.5q4 -12 4 -24.5t-19 -26.5q-10 -10 -16 -9t-16 5q-96 35 -181.5 49t-159 16t-139 -4t-123.5 -14 q-8 -2 -15 2t-17 20q-8 14 -5 18.5zM-680 991q104 16 237.5 10t280.5 -61q-43 74 -111.5 129t-154.5 55q-53 0 -92 -13t-67.5 -32.5t-50.5 -43.5t-42 -44z" />
<glyph unicode="&#xe38;" d="M-375 -211q0 53 38 91t91 38t91 -38t38 -91v-289h-80v170q-23 -8 -49 -8q-49 0 -89 36t-40 91zM-307 -211q0 -25 18 -43t43 -18q27 -2 44.5 17t17.5 44t-17.5 43t-44.5 18q-25 0 -43 -17t-18 -44z" />
<glyph unicode="&#xe39;" d="M-567 -209q0 53 37.5 91t91.5 38q25 0 49 -10t42.5 -27.5t29 -41t10.5 -50.5v-137q0 -39 -10 -60h120v322h80v-326q0 -33 -21.5 -54t-54.5 -21h-169q-4 -2 -9 -7q-16 -12 -28.5 -9t-28.5 22q-12 16 -10 26.5t24 26.5q27 20 27 51v45q-27 -10 -51 -10q-53 0 -91 39t-38 92 zM-500 -209q0 -25 17.5 -44t44.5 -19t44 18t17 45t-17.5 44.5t-43.5 17.5q-25 0 -43.5 -18.5t-18.5 -43.5z" />
<glyph unicode="&#xe3a;" d="M-254 -202.5q0 28.5 19.5 52t58.5 23.5q37 0 56.5 -23.5t19.5 -52t-19.5 -52.5t-56.5 -24q-39 0 -58.5 24t-19.5 52.5z" />
<glyph unicode="&#xe3f;" horiz-adv-x="753" d="M53 954q4 10 16.5 22.5t32.5 12.5q16 0 31 -16h174v104h68v-104q121 -4 183.5 -75t62.5 -163q0 -51 -15.5 -90t-39 -66.5t-53.5 -44t-58 -20.5q39 -4 77.5 -20.5t70.5 -45t52.5 -70.5t20.5 -95q0 -147 -73 -214t-183 -67h-45v-104h-68v104h-223v889q0 18 -17.5 31.5 t-13.5 31.5zM162 80h145v387h-145v-387zM162 543h145v348h-145v-348zM375 80h8q111 0 163 46t52 153q0 76 -51 129t-172 59v-387zM375 547q72 10 119 56t47 124q0 82 -37 121t-129 43v-344z" />
<glyph unicode="&#xe40;" horiz-adv-x="428" d="M141 111v708h82v-571q25 12 58 12q55 0 95 -39t40 -96q0 -55 -40 -95t-95 -40q-53 0 -93.5 34.5t-46.5 86.5zM213 125q0 -29 19.5 -47.5t48.5 -18.5q27 0 46 18.5t19 47.5t-19.5 48.5t-45.5 19.5q-29 0 -48.5 -19.5t-19.5 -48.5z" />
<glyph unicode="&#xe41;" horiz-adv-x="788" d="M141 111v708h82v-571q25 12 58 12q55 0 95 -39t40 -96q0 -55 -40 -95t-95 -40q-53 0 -93.5 34.5t-46.5 86.5zM213 125q0 -29 19.5 -47.5t48.5 -18.5q27 0 46 18.5t19 47.5t-19.5 48.5t-45.5 19.5q-29 0 -48.5 -19.5t-19.5 -48.5zM502 111v708h82v-571q25 12 57 12 q55 0 95 -39t40 -96q0 -55 -40 -95t-95 -40q-53 0 -93 34.5t-46 86.5zM573 125q0 -29 19.5 -47.5t48.5 -18.5q27 0 46.5 18.5t19.5 47.5t-19.5 48.5t-46.5 19.5q-29 0 -48.5 -19.5t-19.5 -48.5z" />
<glyph unicode="&#xe42;" horiz-adv-x="518" d="M-62.5 1259.5q15.5 18.5 31.5 47.5q16 27 44 64.5t68 70.5t91 56.5t113 23.5q68 0 122 -16.5t95 -45t69.5 -66.5t49.5 -79l-64 -37q-49 98 -119.5 135t-148.5 37q-43 0 -84 -19.5t-73 -46t-55.5 -54t-31.5 -46.5q68 0 118 -20.5t84 -45t51 -46t21 -23.5 q14 -12 13.5 -31.5t-17.5 -36.5v-839q25 12 52 12q55 0 94 -39t39 -94t-39 -94t-94 -39q-53 0 -90 35.5t-41 89.5v4v1018q-14 14 -34 30.5t-46.5 30.5t-62.5 23.5t-85 9.5q-4 0 -9 -4t-9 -8q-20 -18 -45 4q-23 20 -7.5 38.5zM303 121q0 -29 18.5 -47.5t45.5 -18.5 q29 0 47 18.5t18 47.5q0 27 -18.5 46t-46.5 19q-27 0 -45.5 -19.5t-18.5 -45.5z" />
<glyph unicode="&#xe43;" horiz-adv-x="518" d="M-23 1251q-4 57 14.5 106.5t55.5 85.5t88 56.5t115 22.5q143 4 224 -84t81 -250q0 -35 -8 -46.5t-35 -23.5q-12 -6 -39 -25.5t-55.5 -44t-56 -52t-46.5 -50.5v-702q25 12 54 12q55 0 94 -39t39 -94t-39 -94t-94 -39t-94 39t-39 94v799l-5 2q-10 10 -10 27.5t12 27.5 q27 31 68 67.5t79 67.5t65.5 52.5t29.5 23.5q0 57 -15.5 105t-43 83t-68.5 54.5t-96 17.5q-96 -4 -151.5 -59.5t-51.5 -133.5q2 -39 25.5 -62.5t52.5 -33.5t57.5 -7t42.5 20q23 23 20 48t-16 38q-12 10 -27.5 11t-23.5 -5q-12 -10 -21 -5t-20 15q-12 12 -18 21.5t6 19.5 q33 31 76 33t78 -31t39 -89t-37 -104q-33 -37 -83 -46t-97.5 6.5t-84 56.5t-41.5 108zM303 123q0 -29 18.5 -47.5t47.5 -18.5q27 0 46 18.5t19 47.5q0 27 -19 46t-46 19q-29 0 -47.5 -19t-18.5 -46z" />
<glyph unicode="&#xe44;" horiz-adv-x="518" d="M-143 1407l51 55q104 -43 162.5 -88t89.5 -104q35 47 68.5 75.5t64.5 47t57.5 29t50.5 20.5q6 4 14.5 4t24.5 -10q12 -6 35 -31t45.5 -54.5t42 -58t25.5 -47.5q4 -4 9 -19.5t-11 -31.5q-8 -8 -29 -12q-10 -2 -22 -4q-29 -12 -62 -35t-62.5 -50.5t-55 -59.5t-40.5 -60 v-725q27 10 54 10q55 0 94 -39t39 -94q0 -57 -39 -96t-94 -39t-95.5 39t-40.5 96v774q-25 14 -18 43q10 39 41 85t72 90t87 79t87 53q-4 12 -15.5 28.5t-26 34t-28.5 33t-24 21.5q-27 -12 -55.5 -25.5t-57.5 -34t-56.5 -50t-52.5 -74.5q-8 -16 -14 -20.5t-33 1.5 q-10 4 -14 9.5t0 21.5q-35 86 -102.5 136t-165.5 77zM303 125q0 -29 18.5 -47.5t47.5 -18.5t47 18.5t18 47.5q0 27 -18 46t-47 19t-47.5 -19t-18.5 -46z" />
<glyph unicode="&#xe45;" horiz-adv-x="714" d="M53 537q4 63 23.5 117.5t53.5 94t83 63.5t113 24q51 0 92 -11.5t71.5 -29t52 -39t31.5 -41.5q4 4 15.5 2t27.5 -19q18 -23 14.5 -33t-18.5 -24q-14 -14 -14 -43v-1096h-80v1110q0 27 10 43q-8 14 -24.5 33t-41 35t-59 27.5t-77.5 11.5q-94 0 -140.5 -63.5t-56.5 -161.5 h-76z" />
<glyph unicode="&#xe46;" horiz-adv-x="811" d="M76 588q-2 47 14 90q18 51 57 88t89 49q68 16 128 -3t97 -81q18 16 35.5 35.5t35 35t33 21.5t29.5 -2q16 -8 48 -38.5t52 -59.5q6 2 15.5 -1t21.5 -17q18 -23 14 -33t-18 -25q-4 -6 -19.5 -19.5t-32 -38t-30.5 -62.5t-14 -93v-809q0 -33 -14.5 -63.5t-67.5 -59.5 q-16 -8 -25.5 -5t-25.5 26q-18 25 18 45q27 16 31 34.5t4 22.5v826q0 25 7 53t19.5 57t29 55.5t34.5 45.5q4 4 -13.5 32.5t-52.5 50.5q-16 -12 -36.5 -30.5t-38.5 -40.5q10 -23 4 -32t-21 -17q-23 -10 -33 -9.5t-22 25.5q-29 59 -74 89t-98 15q-25 -6 -55.5 -29.5 t-40.5 -56.5q10 10 31.5 17.5t39.5 7.5q55 0 95.5 -40t40.5 -95q0 -57 -40 -96t-96 -39q-49 0 -82.5 25.5t-52 63.5t-20.5 85zM164 549q0 -29 19.5 -48.5t47.5 -19.5q29 0 47.5 19.5t18.5 48.5t-18.5 47t-47.5 18t-48 -18t-19 -47z" />
<glyph unicode="&#xe47;" d="M-641 1110q0 25 2 37q10 51 35.5 78.5t58.5 40t71 13.5t75 -1q111 -4 188 41t102 145q4 0 13.5 -2t19.5 -6l29 -8q-20 -80 -60 -126t-89.5 -69.5t-102.5 -29.5t-102 -6q-78 0 -122 -11.5t-55 -70.5q0 -4 -1 -18.5t1.5 -32t6.5 -37t14 -31.5q12 31 32.5 58.5t45.5 39.5 q4 4 5 13.5t11 11.5q12 2 25.5 0t17.5 -25v-2q12 -37 30.5 -67.5t51.5 -47.5q-16 23 -16 52q0 33 17.5 56t43 34.5t55 6.5t52.5 -28q29 -29 30.5 -70.5t-28.5 -70.5q-29 -29 -58.5 -35t-68.5 -4q-35 2 -60.5 12.5t-44 25.5t-31 34.5t-20.5 40.5q-12 -12 -27.5 -36t-21.5 -50 q2 -12 -19.5 -20.5t-33.5 3.5q-29 23 -44.5 51.5t-21.5 57t-6 53.5zM-295 1049.5q0 -17.5 10 -27.5q18 -18 44 -9t26 36q0 29 -26 37.5t-44 -9.5q-10 -10 -10 -27.5z" />
<glyph unicode="&#xe48;" d="M-236 1393v301h76v-301h-76z" />
<glyph unicode="&#xe49;" horiz-adv-x="4" d="M-358 1581q-4 47 24.5 83t73.5 40q55 4 88 -25.5t42 -76t-6.5 -97.5t-60.5 -88q39 6 79 25.5t76 54.5t64.5 85t45.5 116l61 -19q-35 -121 -96.5 -187.5t-126 -97t-120.5 -34.5t-83 -2q-45 6 -29 35q6 12 11.5 16t9.5 4t11 -1t18 -1q35 18 48 38.5t23 45.5 q-27 -10 -53.5 -8t-48 14t-35.5 32.5t-16 47.5zM-297 1611q-10 -32 12 -59q29 -20 60.5 -4t27.5 51q-10 47 -57 48q-33 -4 -43 -36z" />
<glyph unicode="&#xe4a;" d="M-480 1529q1 36 17.5 69.5t44.5 54.5q47 33 101.5 23.5t80.5 -50.5q23 39 54.5 48t60.5 -3t49.5 -39.5t22.5 -62.5q2 -29 -5 -64t-26 -63q78 33 107.5 96.5t25.5 163.5l9 2q10 2 21 6t19 6l9 2q2 -82 -11.5 -139t-43 -97t-76 -64.5t-107.5 -39.5q-16 -4 -27 25 q-4 10 1.5 13t11.5 7q14 12 27.5 46t9.5 83q-2 29 -16.5 45.5t-33 19.5t-33 -7.5t-16.5 -30.5q4 -14 8.5 -30.5t8.5 -30.5h-52q-10 43 -27.5 69.5t-56.5 32.5q-45 8 -77.5 -23.5t-28.5 -83.5q8 16 28.5 26.5t39.5 10.5q37 0 60.5 -24.5t23.5 -61.5q0 -29 -16.5 -49 t-39 -29.5t-50.5 -6.5t-48 22q-27 23 -39 57.5t-11 70.5zM-397 1438q23 -20 45 -9t22 35q0 23 -22.5 33t-40.5 -6q-23 -27 -4 -53z" />
<glyph unicode="&#xe4b;" horiz-adv-x="4" d="M-375 1513v72h142v121h71v-121h144v-72h-144v-122h-71v122h-142z" />
<glyph unicode="&#xe4c;" d="M-418 1346q-8 68 38 107.5t112 53.5q78 16 138 40t71 85l63 -26q-10 -41 -34.5 -68t-58.5 -44t-73 -26.5t-78 -17.5q29 -10 47.5 -35.5t22.5 -54.5q4 -51 -28.5 -88t-82.5 -41q-55 -4 -94 28.5t-43 86.5zM-356 1346q2 -25 22 -41.5t47 -12.5q25 2 40.5 20.5t13.5 43.5 q-2 27 -22.5 43t-45.5 12t-42 -21.5t-13 -43.5z" />
<glyph unicode="&#xe4d;" d="M-356 1155q0 61 46 105.5t109 44.5q61 0 107.5 -44t46.5 -106q0 -63 -46 -107t-108 -44q-63 0 -109 44t-46 107zM-285 1155q0 -35 24.5 -57.5t59.5 -22.5q33 0 57.5 22.5t24.5 57.5q0 33 -24.5 55.5t-57.5 22.5q-35 0 -59.5 -22.5t-24.5 -55.5z" />
<glyph unicode="&#xe4e;" d="M-440 1004q6 125 166 143q-55 41 -43 104.5t67 88t141 22.5l39 -19q-63 -2 -119.5 -34.5t-55.5 -87t65 -68.5l-15 -33q-156 -14 -161 -108q6 -61 102 -62q31 0 49 2l-16 -43q-47 -6 -82 -6q-131 0 -137 101z" />
<glyph unicode="&#xe4f;" horiz-adv-x="923" d="M115 340q0 143 101 244.5t245 101.5q141 0 243.5 -102.5t102.5 -243.5q0 -143 -101.5 -244.5t-244.5 -101.5t-244.5 101.5t-101.5 244.5zM186 340q0 -115 81 -196t194 -81q115 0 194.5 82t79.5 195q0 115 -80 194.5t-194 79.5q-113 0 -194 -79.5t-81 -194.5zM258 340 q0 84 59.5 143.5t143.5 59.5t143.5 -59.5t59.5 -143.5t-59.5 -144.5t-143.5 -60.5t-143.5 60.5t-59.5 144.5zM330 340q0 -55 38 -93t93 -38t93 38t38 93q0 53 -38 92t-93 39t-93 -39t-38 -92z" />
<glyph unicode="&#xe50;" horiz-adv-x="954" d="M125 285q0 61 27.5 116.5t75.5 96.5t111.5 64.5t137.5 23.5q63 0 127 -21.5t114 -60.5t80.5 -95.5t30.5 -123.5q0 -68 -30.5 -123.5t-80.5 -94t-114 -60t-127 -21.5q-66 0 -128 21.5t-112.5 60t-81 94t-30.5 123.5zM193 285q0 -55 25.5 -98.5t66.5 -73t91 -46t101 -16.5 q57 0 109.5 18.5t90.5 50.5t60.5 74t22.5 91q0 55 -25.5 98t-65.5 73.5t-90.5 47t-101.5 16.5t-102 -16.5t-91 -47t-65.5 -73.5t-25.5 -98z" />
<glyph unicode="&#xe51;" horiz-adv-x="1001" d="M137 231q-4 82 23.5 145.5t78 108.5t120 69t147.5 24q74 0 139.5 -26t114.5 -71t76.5 -107.5t27.5 -137.5q0 -129 -74.5 -211t-185.5 -134l-35 66q29 12 67 33.5t70.5 55.5t55 81t22.5 109q0 57 -21.5 105t-59 84t-89 55.5t-108.5 19.5q-61 0 -114.5 -18.5t-93.5 -52.5 t-61.5 -83t-17.5 -110q2 -47 22.5 -82t48 -57.5t59.5 -31t61 0.5q-33 6 -55.5 39.5t-22.5 68.5q0 57 41 97t98 40t96 -40t41 -97q2 -37 -22.5 -76t-66.5 -64.5t-100.5 -33.5t-123.5 14q-68 23 -111 84.5t-47 132.5zM403 174q0 -29 19.5 -48.5t48.5 -19.5t48.5 19.5 t19.5 48.5t-19.5 48.5t-48.5 19.5t-48.5 -19.5t-19.5 -48.5z" />
<glyph unicode="&#xe52;" horiz-adv-x="1017" d="M-8 842l59 51q68 -96 101.5 -222t48 -245t15.5 -215t-1 -133h557q57 0 57 45v291q0 25 9 35q-14 23 -39 37t-58 12q-27 0 -42 -10.5t-24 -26t-13.5 -31.5t-4.5 -29q4 -16 9.5 -41.5t3.5 -40.5h-70q-4 72 -37 123.5t-98 55.5q-33 2 -56.5 -11.5t-40 -35t-23.5 -49 t-5 -58.5q10 23 34.5 36t45.5 13q55 0 93 -39t38 -92q0 -55 -38 -93t-93 -38t-90 34t-51.5 84t-12.5 108.5t27.5 107.5t68 79.5t107.5 28.5q41 -2 82 -19t65 -56q10 31 42 51t65 24q47 8 90 -11t66 -56q4 4 15 3t24 -17q16 -18 13 -28.5t-18 -21.5q-10 -10 -10 -39v-282 q0 -53 -36 -87t-95 -34h-643q-16 0 -17 12.5t-1 28.5q0 27 8 31t22 8v75t-3 115.5t-12 142t-25.5 153.5t-43 148.5t-65.5 127.5zM356 262q0 -29 18.5 -47t45.5 -18q29 0 47 18t18 47q0 27 -18 45.5t-47 18.5q-27 0 -45.5 -18.5t-18.5 -45.5z" />
<glyph unicode="&#xe53;" horiz-adv-x="1052" d="M109.5 242.5q-5.5 64.5 5.5 117.5q18 92 84.5 151.5t154.5 63.5q57 4 120 -24.5t108 -106.5q14 53 54 84t89 39t99 -7t85 -54q4 4 15.5 3t23.5 -17q16 -18 13 -28.5t-17 -21.5q-10 -10 -10 -39v-403h-74v414q0 27 8 37q-35 35 -76.5 42t-79.5 -11.5t-62.5 -58.5 t-24.5 -101v-289q0 -10 -12.5 -10h-28.5h-28.5t-12.5 10v289q-10 76 -58.5 125t-119.5 47q-66 -2 -106 -37t-57.5 -89.5t-14.5 -117t22 -119.5q-4 59 35 96t86 37q59 0 99 -40t40 -99q0 -57 -40 -97t-99 -40q-72 0 -118 39t-71.5 95t-31 120.5zM262 125q0 -29 19.5 -48.5 t48.5 -19.5t48 19.5t19 48.5t-19 48.5t-48 19.5t-48.5 -19.5t-19.5 -48.5z" />
<glyph unicode="&#xe54;" horiz-adv-x="1021" d="M132 287q-19 92 15 159q29 57 91.5 90t160.5 37q18 0 66.5 1t110 7.5t130 20.5t132 42t113.5 73t75 112l76 -24q-31 -82 -90.5 -135.5t-132 -87t-150.5 -50t-146.5 -23.5t-118.5 -8t-67 -3q-141 -16 -178 -88q-25 -49 -3 -137.5t89 -198.5h256q-59 35 -102 83t-56 85 q-10 33 -3.5 65.5t24.5 59t47 42t64 15.5q57 0 98 -40t41 -99q0 -25 -9.5 -47.5t-24.5 -41t-36.5 -28.5t-44.5 -10q14 -12 32.5 -26.5t39 -28t41 -22.5t37.5 -7h165v-74h-624q-16 0 -23.5 10t-17.5 33q-4 10 2 17.5t12 9.5q-72 125 -91 217zM467 285q0 -29 19.5 -48.5 t48.5 -19.5t48 19.5t19 48.5t-19 48t-48 19t-48.5 -19.5t-19.5 -47.5z" />
<glyph unicode="&#xe55;" horiz-adv-x="1021" d="M132 287q-19 92 15 159q29 57 91.5 92t160.5 35h64q-27 33 -28 69t16.5 66.5t49 51t72.5 20.5q33 0 62 -14t47 -39t24 -57.5t-6 -69.5q51 12 101.5 29.5t94.5 45t78 65.5t52 89l76 -24q-31 -82 -90.5 -135.5t-132 -87t-150.5 -50t-146.5 -23.5t-118.5 -8t-67 -3 q-141 -16 -178 -88q-25 -49 -3 -137.5t89 -198.5h256q-59 35 -102 83t-56 85q-10 33 -3.5 65.5t24.5 59t47 42t64 15.5q57 0 98 -40t41 -99q0 -25 -9.5 -47.5t-24.5 -41t-36.5 -28.5t-44.5 -10q14 -12 32.5 -26.5t39 -28t41 -22.5t37.5 -7h165v-74h-624q-16 0 -23.5 10 t-17.5 33q-4 10 2 17.5t12 9.5q-72 125 -91 217zM467 285q0 -29 19.5 -48.5t48.5 -19.5t48 19.5t19 48.5t-19 48t-48 19t-48.5 -19.5t-19.5 -47.5zM514 644q0 -26 16 -42q14 -14 32 -17t33 3t26.5 20.5t11.5 34.5q0 18 -10.5 32.5t-25.5 22t-34 5t-33 -16.5q-16 -16 -16 -42 z" />
<glyph unicode="&#xe56;" horiz-adv-x="911" d="M-127 844l82 6q4 -31 33.5 -78t68.5 -96t78 -93t62 -69q59 47 141 67.5t163 14.5t149.5 -42t103.5 -101q35 -68 36 -133.5t-26 -123t-78 -104.5t-119 -76q-45 -18 -114.5 -25t-135 5t-112.5 49t-47 105q0 57 40 97t97 40q59 0 99 -40t40 -97q0 -27 -11 -53.5t-30 -37.5 q70 -6 137.5 22t113.5 79t59.5 118.5t-23.5 139.5q-35 63 -98.5 86.5t-136 17.5t-140 -36.5t-110.5 -73.5q-20 -25 -58 4q-18 16 -13 26.5t11 20.5q-39 39 -85 93t-85 109.5t-65.5 103.5t-26.5 75zM227 150q0 -29 19.5 -48.5t48.5 -19.5t48 19.5t19 48.5t-19 48t-48 19 t-48.5 -19.5t-19.5 -47.5z" />
<glyph unicode="&#xe57;" horiz-adv-x="1232" d="M102 253.5q-4 63.5 7 111.5q18 92 84.5 151t156.5 64q55 4 110.5 -26t100.5 -108q25 57 68 90t92 37q72 6 119 -25.5t72.5 -83.5t30.5 -113.5t-7 -112.5q43 68 87 163t80 189t60.5 171t30.5 107l68 -22q-25 -96 -73 -221t-105.5 -247t-119 -225.5t-112.5 -156.5 q-12 -12 -26.5 -7t-26.5 15q-23 20 -8 33q23 16 42 57t30 91.5t11 104.5t-14 99t-46 74t-85 29q-39 0 -63.5 -18.5t-38 -43t-18.5 -49.5t-5 -37v-285q0 -6 -12 -7t-29 -1h-28.5t-12.5 8v281q-10 74 -59 118t-111 40q-51 -2 -88 -30t-57.5 -71t-24.5 -93t11 -97 q18 29 48.5 46t67.5 17q57 0 97 -41t40 -98t-39.5 -97t-97.5 -40q-68 0 -111.5 40t-67.5 98t-28 121.5zM240 131q0 -29 20.5 -48.5t48.5 -19.5q29 0 48.5 19.5t19.5 48.5t-19.5 48.5t-48.5 19.5t-49 -19.5t-20 -48.5z" />
<glyph unicode="&#xe58;" horiz-adv-x="1087" d="M147 446q29 57 90.5 90t157.5 37q96 6 196.5 19.5t188.5 44.5t154.5 82t95.5 129l76 -29q-27 -72 -77 -123t-114.5 -87t-136 -57.5t-142.5 -33.5t-133.5 -17t-105.5 -9q-141 -12 -178 -82q-25 -51 -9.5 -138.5t81.5 -197.5h74l118 256q4 10 15.5 6t27.5 -12 q14 -8 22.5 -13.5t4.5 -15.5l-27 -55q10 -49 36 -83t55.5 -55.5t58.5 -32t45 -12.5q-33 31 -37 72t11.5 76t49 59.5t76.5 24.5q57 0 97 -41t40 -98q0 -51 -26.5 -85t-68.5 -51.5t-90 -20.5t-91 7q-70 14 -120 58t-79 102l-71 -140q-4 -6 -10.5 -13t-14.5 -7h-139 q-16 0 -23.5 12.5t-11.5 28.5q-4 14 10 20q-145 252 -76 385zM754 150q0 -29 19.5 -48.5t47.5 -19.5q29 0 48.5 19.5t19.5 48.5t-19.5 48t-48.5 19t-48 -19.5t-19 -47.5z" />
<glyph unicode="&#xe59;" horiz-adv-x="997" d="M100 195q-29 94 6 175t123 130q31 16 49.5 27.5t31 17.5t19.5 11t17 9q27 27 47.5 33t43 -11.5t52 -57.5t76.5 -103q2 39 18.5 69.5t40 52t49 33t48.5 13.5q53 4 106.5 -18.5t75.5 -94.5q27 47 49.5 100.5t40 102.5t30.5 92t21 68l70 -35q-8 -25 -25.5 -79t-43 -117.5 t-57.5 -129t-64 -112.5q-4 -6 -16.5 -6t-25 4t-20.5 10t-4 12q-4 63 -44 100t-93 27q-37 -8 -71 -53t-25 -125q2 -2 23.5 -40t48 -87t53 -99.5t41.5 -76.5l-68 -37q-41 90 -87 174t-90 151.5t-82 113.5t-63 63q-12 -6 -21 -12.5t-22.5 -13.5t-34 -18.5t-53.5 -29.5 q-43 -25 -64.5 -53.5t-29.5 -57t-6 -55t8 -45.5q10 -31 27.5 -62.5t40.5 -45.5q-4 31 5 58.5t27.5 49t46 34.5t58.5 13q57 0 97 -40t40 -97q0 -59 -47 -99t-104 -40q-109 0 -176.5 59t-92.5 148zM313 127q0 -29 20.5 -49.5t49.5 -20.5t48.5 20.5t19.5 49.5t-19.5 48.5 t-48.5 19.5t-49.5 -19.5t-20.5 -48.5z" />
<glyph unicode="&#xe5a;" horiz-adv-x="954" d="M74 696q0 55 41 95t96 40t95 -39.5t40 -95.5q0 -45 -29.5 -81.5t-87.5 -41.5q47 -23 101.5 -13.5t104.5 44.5t89 92.5t56 132.5l71 -18q-2 -2 -7 -24.5t-7 -26.5v-170q57 33 103 93t63 146l71 -18q-2 -2 -7 -24.5t-7 -26.5v-647q0 -33 -16.5 -66t-61.5 -55 q-31 -14 -49 16q-10 14 -11 25.5t15 21.5q18 10 30.5 30.5t12.5 43.5v492q-68 -84 -143 -115v-393q0 -33 -16.5 -66t-61.5 -55q-31 -14 -49 16q-10 14 -11 25.5t15 21.5q18 10 30.5 30.5t12.5 43.5v492q-59 -72 -127 -104t-127 -30q-37 0 -78 15.5t-74.5 42t-55 65.5 t-21.5 86zM145 696q0 -29 18.5 -47t47.5 -18t48.5 18.5t19.5 46.5q0 29 -19.5 47.5t-48.5 18.5t-47.5 -18.5t-18.5 -47.5z" />
<glyph unicode="&#xe5b;" horiz-adv-x="1816" d="M102 424q0 164 74 268.5t205 108.5q109 -4 171 -67.5t66.5 -170t-41 -174t-116.5 -67.5q-55 0 -94 39.5t-39 95.5q0 55 39 95t94 40q27 0 46.5 -8.5t37.5 -24.5q10 55 -31 109.5t-127 54.5q-96 0 -150.5 -84t-54.5 -225q6 -141 74 -215t180 -74q137 0 212 92t93.5 239.5 t12.5 184.5q123 -37 164 -264q20 41 47.5 129t17.5 119q96 -31 133 -207q27 37 44.5 89t17.5 95q109 -39 131 -221q27 29 37 80t6 80q18 -2 89.5 -63.5t258.5 -67.5q-129 -20 -178 -21q-80 0 -123 60q-16 -117 -109 -130q-20 0 -32.5 76t-36.5 107q-43 -158 -119 -205 q-20 0 -30.5 72.5t-47.5 130.5q-29 -174 -131 -234q-31 -4 -43 102.5t-33 131.5q-31 -440 -381 -449q-154 2 -244 98.5t-90 274.5zM395 457q0 -29 19.5 -47.5t46.5 -18.5q29 0 48 18.5t19 47.5t-19.5 47t-47.5 18q-27 0 -46.5 -18.5t-19.5 -46.5z" />
<glyph unicode="&#x2000;" horiz-adv-x="859" />
<glyph unicode="&#x2001;" horiz-adv-x="1718" />
<glyph unicode="&#x2002;" horiz-adv-x="859" />
<glyph unicode="&#x2003;" horiz-adv-x="1718" />
<glyph unicode="&#x2004;" horiz-adv-x="572" />
<glyph unicode="&#x2005;" horiz-adv-x="429" />
<glyph unicode="&#x2006;" horiz-adv-x="286" />
<glyph unicode="&#x2007;" horiz-adv-x="286" />
<glyph unicode="&#x2008;" horiz-adv-x="214" />
<glyph unicode="&#x2009;" horiz-adv-x="343" />
<glyph unicode="&#x200a;" horiz-adv-x="95" />
<glyph unicode="&#x200c;" d="M-35 492h72v-1123h-72v1123z" />
<glyph unicode="&#x200d;" d="M-113 299l78 78l-78 80l37 35l76 -78l78 78l37 -35l-78 -80l78 -78l-37 -35l-41 43v-938h-72v938l-41 -43z" />
<glyph unicode="&#x200e;" d="M-35 418h275l-35 37l33 34l108 -108l-108 -109l-33 37l35 35h-203v-975h-72v1049z" />
<glyph unicode="&#x200f;" d="M-344 381l108 108l33 -34l-35 -37h275v-1049h-72v975h-203l35 -35l-33 -37z" />
<glyph unicode="&#x2010;" horiz-adv-x="790" d="M96 295v80h598v-80h-598z" />
<glyph unicode="&#x2011;" horiz-adv-x="790" d="M96 295v80h598v-80h-598z" />
<glyph unicode="&#x2012;" horiz-adv-x="790" d="M96 295v80h598v-80h-598z" />
<glyph unicode="&#x2013;" horiz-adv-x="671" d="M-8 305v60h688v-60h-688z" />
<glyph unicode="&#x2014;" horiz-adv-x="1339" d="M-8 305v60h1358v-60h-1358z" />
<glyph unicode="&#x2018;" horiz-adv-x="409" d="M113 758q0 39 14 72.5t35.5 59t48.5 45t49 30.5l4 -7q4 -6 10.5 -15t11.5 -16t5 -9q-41 -16 -72 -48t-35 -61q35 14 66 -9.5t31 -60.5q0 -23 -20.5 -49t-57.5 -26q-43 0 -66.5 25.5t-23.5 68.5z" />
<glyph unicode="&#x2019;" horiz-adv-x="409" d="M113 713q41 16 71.5 48t34.5 60q-35 -14 -65.5 9.5t-30.5 60.5q0 23 20.5 49.5t57.5 26.5q43 0 66.5 -26t23.5 -69q0 -41 -14.5 -73.5t-36 -59t-48 -45t-49.5 -28.5l-4 6l-10 15l-11 16.5t-5 9.5z" />
<glyph unicode="&#x201a;" horiz-adv-x="409" d="M113 -106q41 16 71.5 47.5t34.5 60.5q-35 -14 -65.5 9.5t-30.5 60.5q0 23 20.5 49t57.5 26q43 0 66.5 -25.5t23.5 -68.5q0 -41 -14.5 -73.5t-36 -59t-48 -45t-49.5 -29.5l-4 6q-4 7 -10 16l-11 16.5t-5 9.5z" />
<glyph unicode="&#x201c;" horiz-adv-x="667" d="M115 758q0 39 14 72.5t35.5 59t48.5 45t49 30.5l4 -7q4 -6 10.5 -15t11.5 -16t5 -9q-41 -16 -72 -48t-35 -61q35 14 66 -9.5t31 -60.5q0 -23 -20.5 -49t-57.5 -26q-43 0 -66.5 25.5t-23.5 68.5zM369 758q0 39 14 72.5t35.5 59t48.5 45t49 30.5l4 -7q4 -6 10.5 -15 t11.5 -16t5 -9q-41 -16 -72 -48t-35 -61q35 14 66 -9.5t31 -60.5q0 -23 -20.5 -49t-57.5 -26q-43 0 -66.5 25.5t-23.5 68.5z" />
<glyph unicode="&#x201d;" horiz-adv-x="667" d="M115 713q41 16 71.5 48t34.5 60q-35 -14 -65.5 9.5t-30.5 60.5q0 23 20.5 49.5t57.5 26.5q43 0 66.5 -26t23.5 -69q0 -41 -14.5 -73.5t-36 -59t-48 -45t-49.5 -28.5l-4 6l-10 15l-11 16.5t-5 9.5zM369 713q41 16 71.5 48t34.5 60q-35 -14 -65.5 9.5t-30.5 60.5 q0 23 20.5 49.5t57.5 26.5q43 0 66.5 -26t23.5 -69q0 -41 -14.5 -73.5t-36 -59t-48 -45t-49.5 -28.5l-4 6l-10 15l-11 16.5t-5 9.5z" />
<glyph unicode="&#x201e;" horiz-adv-x="659" d="M100 -106q41 16 72 47.5t35 60.5q-35 -14 -65.5 9.5t-30.5 60.5q0 23 20.5 49t56.5 26q43 0 67 -25.5t24 -68.5q0 -41 -14.5 -73.5t-36 -59t-48 -45t-49.5 -29.5l-4 6q-4 7 -10 16t-11.5 16.5t-5.5 9.5zM358 -106q41 16 72 47.5t35 60.5q-35 -14 -65.5 9.5t-30.5 60.5 q0 23 20.5 49t56.5 26q43 0 67 -25.5t24 -68.5q0 -41 -14.5 -73.5t-36 -59t-48 -45t-49.5 -29.5l-4 6q-4 7 -10 16t-11.5 16.5t-5.5 9.5z" />
<glyph unicode="&#x2020;" horiz-adv-x="837" d="M84 606v74h297v289h74v-289h299v-74h-299v-831h-74v831h-297z" />
<glyph unicode="&#x2021;" horiz-adv-x="837" d="M84 39v76h291v526h-291v74h291v254h88v-254h293v-74h-293v-526h293v-76h-293v-252h-88v252h-291z" />
<glyph unicode="&#x2022;" horiz-adv-x="524" d="M57 383q0 53 22.5 99t69 77t115.5 31q70 0 116 -31t68.5 -77t22.5 -99t-22.5 -99t-68.5 -77t-116 -31t-116 31t-68.5 77t-22.5 99z" />
<glyph unicode="&#x2026;" horiz-adv-x="933" d="M82 74.5q0 27.5 18.5 51.5t55.5 24t55 -24t18 -51.5t-18 -51t-55 -23.5t-55.5 23.5t-18.5 51zM393 74.5q0 27.5 18.5 51.5t55.5 24t55.5 -24t18.5 -51.5t-18.5 -51t-55.5 -23.5t-55.5 23.5t-18.5 51zM702 74.5q0 27.5 18.5 51.5t55.5 24t55.5 -24t18.5 -51.5t-18.5 -51 t-55.5 -23.5t-55.5 23.5t-18.5 51z" />
<glyph unicode="&#x202f;" horiz-adv-x="343" />
<glyph unicode="&#x2030;" horiz-adv-x="1484" d="M47 711q0 49 13.5 95t38 81t60.5 56.5t81 21.5t80.5 -21.5t60.5 -56.5t38 -81t13 -95q0 -51 -13 -97.5t-38 -82t-60.5 -56t-80.5 -20.5t-81 20.5t-60.5 56t-38 81.5t-13.5 98zM115 711q0 -35 6 -69t20.5 -62.5t39 -46t59.5 -17.5q37 0 60.5 17.5t38.5 46t21.5 62.5 t6.5 69q0 33 -6.5 66.5t-21.5 61t-39 46t-60 18.5q-35 0 -59.5 -18.5t-39 -46t-20.5 -61t-6 -66.5zM211 -35l508 1024h72l-510 -1024h-70zM588 246q0 49 12 96t37 82t60.5 56.5t82.5 21.5q45 0 81 -21.5t60.5 -56.5t38 -82t13.5 -96t-13.5 -95.5t-38 -81t-60.5 -56 t-81 -21.5q-47 0 -82.5 21.5t-60.5 56t-37 81t-12 95.5zM653 246q0 -33 6.5 -67t21.5 -62.5t38.5 -47t60.5 -18.5q35 0 59.5 18.5t40 47t21.5 62.5t6 67t-6 67.5t-21.5 62t-40 46t-59.5 18.5q-37 0 -60.5 -18.5t-38.5 -46t-21.5 -62t-6.5 -67.5zM1049 246q0 49 13 96 t37.5 82t60.5 56.5t81 21.5t81 -21.5t60.5 -56.5t38 -82t13.5 -96t-13.5 -95.5t-38 -81t-60.5 -56t-81 -21.5t-81 21.5t-60.5 56t-37.5 81t-13 95.5zM1116 246q0 -33 6 -67t20.5 -62.5t39 -47t59.5 -18.5q37 0 60.5 18.5t39 47t21.5 62.5t6 67t-6 67.5t-21.5 62t-39 46 t-60.5 18.5q-35 0 -59.5 -18.5t-39 -46t-20.5 -62t-6 -67.5z" />
<glyph unicode="&#x2032;" horiz-adv-x="292" d="M66 696l92 328h129l-154 -328h-67z" />
<glyph unicode="&#x2033;" horiz-adv-x="573" d="M51 696l125 273h129l-186 -273h-68zM258 696l125 273h129l-186 -273h-68z" />
<glyph unicode="&#x2039;" horiz-adv-x="411" d="M86 328q-10 18 0 37l168 268h82l-184 -287l184 -287h-82z" />
<glyph unicode="&#x203a;" horiz-adv-x="399" d="M78 59l184 287l-184 287h82l168 -268q10 -18 0 -37l-168 -269h-82z" />
<glyph unicode="&#x2044;" horiz-adv-x="239" d="M-100 0l358 967h64l-375 -967h-47z" />
<glyph unicode="&#x205f;" horiz-adv-x="429" />
<glyph unicode="&#x20a3;" horiz-adv-x="673" d="M-27 197l23 65h117v653q0 33 19.5 56.5t53.5 23.5h428v-77h-419v-353h380v-78h-382v-225h256l-21 -65h-235v-197h-82v197h-138z" />
<glyph unicode="&#x20ab;" horiz-adv-x="903" d="M80 -145h737v-70h-737v70zM80 365q0 74 23.5 139t68.5 115.5t107.5 79t140.5 28.5q106 0 178 -43t113 -109v291h-168v68h168v121h80v-121h122v-68h-122v-692q0 -45 1 -88t5 -86h-74q0 31 -2 63.5t-2 61.5q-53 -78 -125 -110.5t-162 -32.5q-68 0 -131 24.5t-112.5 72.5 t-79 119.5t-29.5 166.5zM158 360q0 -141 76.5 -226t207.5 -85q49 0 97.5 16.5t86.5 47t61.5 74.5t23.5 98v118q0 33 -11 64q-33 96 -104.5 144t-161.5 48q-63 0 -114.5 -23.5t-87 -63.5t-55 -94.5t-19.5 -117.5z" />
<glyph unicode="&#x20ac;" horiz-adv-x="882" d="M27 338v65h141q-2 27 -4 54.5t2 56.5h-139v66h143q12 94 43 160.5t70 110.5t79.5 70.5t75.5 39.5q100 37 207 18.5t182 -88.5l-39 -84q-29 31 -65.5 52.5t-79.5 31.5t-88 7t-86 -17q-86 -33 -141.5 -111t-71.5 -190h371v-66h-377v-56.5t4 -54.5h373v-65h-361 q23 -92 75 -156.5t128 -93.5q37 -14 81 -18t89 2t85 25.5t71 54.5l57 -66q-74 -76 -193 -98q-55 -10 -111 -4t-110 24q-31 12 -69.5 36t-75.5 61.5t-67.5 95t-47.5 137.5h-151z" />
<glyph unicode="&#x2113;" horiz-adv-x="436" d="M29 438l118 82v262q0 178 111 179q115 0 121 -146q0 -238 -160 -340v-338q0 -123 156 -14v-80q-227 -135 -228 96v297l-63 -45zM219 563q100 92 92 252q-4 78 -49 78q-43 0 -43 -111v-219z" />
<glyph unicode="&#x2122;" horiz-adv-x="1167" d="M137 901v60h344v-60h-139v-463h-59v463h-146zM535 453l43 475q2 20 18 28q12 12 31 13q12 0 25.5 -8.5t19.5 -30.5q23 -84 45 -158q18 -66 36.5 -130t28.5 -101l111 389q6 23 20.5 31t26.5 8q18 0 31 -13q16 -10 18 -28l41 -475l-59 -13l-33 430l-123 -421h-65l-121 421 l-37 -430z" />
<glyph unicode="&#x2126;" horiz-adv-x="1005" d="M53 569q0 92 40 160t103.5 113t144.5 67.5t161 22.5q82 0 160.5 -22.5t141 -67.5t100.5 -114t38 -159q0 -74 -25.5 -133t-69.5 -102t-104.5 -70.5t-130.5 -38.5v-131h174q76 0 103 25q27 27 33 92h2v-211h-344v242q57 12 101 43.5t72.5 76t43 98.5t14.5 109 q0 70 -20.5 130.5t-60.5 105.5t-97.5 70.5t-130.5 25.5q-72 0 -129.5 -25.5t-99.5 -70.5t-64.5 -105.5t-22.5 -130.5q0 -53 14.5 -107t43 -99.5t71.5 -77t103 -43.5v-242h-344v211h2q8 -70 35.5 -93.5t99.5 -23.5h174v131q-68 8 -128 36t-105.5 73t-72 104.5t-26.5 130.5z " />
<glyph unicode="&#x212e;" horiz-adv-x="669" d="M72 350q0 59 15 125t48 120t85 89t124 35q84 0 134 -44t77 -102.5t35 -118t8 -87.5q0 -31 -10 -40.5t-39 -9.5h-402q0 -92 39 -155.5t88 -87.5q39 -18 74 -17.5t62.5 11t46 23.5t26.5 22l41 -62q-20 -16 -54 -32.5t-75 -24.5t-84 -5t-80 25q-66 39 -112.5 122t-46.5 214z M145 395h387q2 37 -8 82t-33.5 84t-61.5 64.5t-89 25.5q-53 0 -90 -27.5t-60.5 -67.5t-34 -84t-10.5 -77z" />
<glyph unicode="&#x2202;" horiz-adv-x="706" d="M75 276.5q9 77.5 43 143t90 109.5t132 44t114 -37.5t64 -103.5q2 16 8 58t10.5 95.5t4.5 111t-9.5 105.5t-31 78.5t-60.5 30.5q-33 0 -54 -21.5t-40.5 -43t-44.5 -33.5t-63 4q-35 29 -27 55.5t38 46t67.5 31t62.5 11.5q55 0 98 -24t74 -62.5t49.5 -88t24.5 -98.5 q10 -53 11 -127t-9.5 -152.5t-34 -155.5t-62 -137.5t-96 -98t-135.5 -37.5q-88 0 -140.5 44t-72.5 109.5t-11 143zM178 269.5q-8 -66.5 3.5 -124t42 -95.5t83.5 -38q45 0 76 22.5t51.5 56.5t31.5 74t17 77t8.5 86t-9 93t-39 74.5t-81.5 30.5q-51 0 -90 -37.5t-62.5 -95 t-31.5 -124z" />
<glyph unicode="&#x2206;" horiz-adv-x="768" d="M10 0l369 907h10l367 -907h-746zM74 45h547l-267 686z" />
<glyph unicode="&#x220f;" horiz-adv-x="1245" d="M109 -127h122v1184h-122v35h1026v-35h-121v-1184h121v-37h-334v37h117v1184h-590v-1184h114v-37h-333v37z" />
<glyph unicode="&#x2211;" horiz-adv-x="925" d="M43 -319l502 595l-486 695h603q39 0 63.5 -5t38.5 -19.5t20.5 -38t12.5 -62.5l18 -162h-33q-12 37 -24.5 67.5t-28.5 55.5q-29 41 -61.5 64.5t-71.5 35t-82 14.5t-92 3h-213l444 -594l-473 -559h277q88 0 163.5 14t137.5 80q33 39 61 108h31l-37 -159q-10 -57 -44 -95 t-95 -38h-631z" />
<glyph unicode="&#x2212;" horiz-adv-x="690" d="M68 369v73h553v-73h-553z" />
<glyph unicode="&#x221a;" horiz-adv-x="847" d="M45 571l162 58l180 -512l358 977h103v-45h-74l-391 -1080h-31l-215 598l-84 -30z" />
<glyph unicode="&#x221e;" horiz-adv-x="1290" d="M111 444q0 113 71.5 184.5t184.5 71.5q88 0 160.5 -48t115.5 -122q49 80 110.5 125t147.5 45q80 0 151.5 -37.5t104.5 -121.5q25 -66 16.5 -128.5t-42 -111.5t-89 -78.5t-122.5 -29.5q-90 0 -156 48t-107 121q-41 -72 -112.5 -120.5t-159.5 -48.5q-53 0 -103.5 18t-88 52 t-60 80t-22.5 101zM156 442q0 -74 46 -122t112.5 -56t138 32t120.5 142l23 47q-35 70 -108.5 103t-147.5 28.5t-129 -47.5t-55 -127zM688 414q29 -55 86 -92t123 -45.5t127 16t96 92.5q14 49 8 92t-30.5 75t-64.5 50.5t-93 18.5q-45 0 -83 -19.5t-69.5 -49.5t-56 -66.5 t-43.5 -71.5z" />
<glyph unicode="&#x222b;" horiz-adv-x="505" d="M-82 -203l10 60q154 -31 185 123l118 761q31 227 269 181l-13 -60q-160 25 -182 -123l-121 -762q-37 -242 -266 -180z" />
<glyph unicode="&#x2248;" horiz-adv-x="923" d="M125 182v88q41 29 93 50.5t110 21.5q37 0 74.5 -13.5t75.5 -29.5t75 -28.5t74 -10.5q57 4 109 27.5t73 48.5v-90q-43 -25 -91 -44.5t-97 -19.5q-41 0 -77 12.5t-73 27t-74 26.5t-78 12q-55 0 -107 -23.5t-87 -54.5zM125 422v88q41 29 93 50.5t110 21.5q37 0 74.5 -13.5 t75.5 -30t75 -28.5t74 -10q57 4 109 27.5t73 47.5v-90q-43 -25 -91 -44t-97 -19q-41 0 -77 12t-73 26.5t-74 27t-78 12.5q-55 0 -107 -23.5t-87 -54.5z" />
<glyph unicode="&#x2260;" horiz-adv-x="716" d="M94 205v71h193l53 216h-246v73h266l50 197h69l-49 -197h188v-73h-206l-54 -216h260v-71h-278l-53 -219h-70l53 219h-176z" />
<glyph unicode="&#x2264;" horiz-adv-x="792" d="M94 33h606v63h-606v-63zM96 387v88l602 240v-80l-528 -209l528 -209v-78z" />
<glyph unicode="&#x2265;" horiz-adv-x="792" d="M94 33v63h606v-63h-606zM96 139v78l529 209l-529 209v80l602 -240v-88z" />
<glyph unicode="&#x25ca;" horiz-adv-x="806" d="M86 473l317 657l320 -657l-320 -661zM156 473l247 -514l250 514l-250 510z" />
</font>
</defs>
</svg>
